solid
facet normal -0.3715793151639343 0.23914631173809742 -0.8970718221660774
 outer loop
  vertex -0.707106781186547 -1.73185491414387e-16 -10.707106781186548
  vertex -0.29289321881345415 0.6435942529055801 -10.70710678118655
  vertex 6.123031769111886e-17 -1.4996607218221374e-32 -11.0
 endloop
endfacet
facet normal -0.3715793151639318 -0.23914631173812276 -0.8970718221660717
 outer loop
  vertex 6.123031769111886e-17 -1.4996607218221374e-32 -11.0
  vertex -0.2928932188134498 -0.6435942529056082 -10.707106781186525
  vertex -0.707106781186547 -1.73185491414387e-16 -10.707106781186548
 endloop
endfacet
facet normal 0.14721426816660912 0.464422306303983 -0.8732925515859271
 outer loop
  vertex -0.29289321881345415 0.6435942529055801 -10.70710678118655
  vertex 0.5087208596547272 0.6433487249335906 -10.572106200873996
  vertex 6.123031769111886e-17 -1.4996607218221374e-32 -11.0
 endloop
endfacet
facet normal 0.3549350611346679 0.30672151651435464 -0.8831438238953292
 outer loop
  vertex 6.123031769111886e-17 -1.4996607218221374e-32 -11.0
  vertex 0.5087208596547272 0.6433487249335906 -10.572106200873996
  vertex 0.6920214716359135 -3.295766564804088e-15 -10.721876916651906
 endloop
endfacet
facet normal 0.3549350611346653 -0.30672151651435514 -0.88314382389533
 outer loop
  vertex 0.6920214716359135 -3.295766564804088e-15 -10.721876916651906
  vertex 0.5087208596547558 -0.6433487249335723 -10.572106200873993
  vertex 6.123031769111886e-17 -1.4996607218221374e-32 -11.0
 endloop
endfacet
facet normal 0.14721426816660751 -0.46442230630399256 -0.8732925515859221
 outer loop
  vertex 6.123031769111886e-17 -1.4996607218221374e-32 -11.0
  vertex 0.5087208596547558 -0.6433487249335723 -10.572106200873993
  vertex -0.2928932188134498 -0.6435942529056082 -10.707106781186525
 endloop
endfacet
facet normal -0.8441037012994496 0.40649891818730705 -0.3496392011275603
 outer loop
  vertex -0.707106781186547 -1.73185491414387e-16 -10.707106781186548
  vertex -1.0 -2.4492127076447545e-16 -10.0
  vertex -0.6234898018587324 0.7818314824680308 -10.0
 endloop
endfacet
facet normal -0.84410370129945 -0.40649891818730605 -0.34963920112756053
 outer loop
  vertex -0.6234898018587347 -0.7818314824680288 -10.0
  vertex -1.0 -2.4492127076447545e-16 -10.0
  vertex -0.707106781186547 -1.73185491414387e-16 -10.707106781186548
 endloop
endfacet
facet normal -0.7524363752024005 0.4842637267573716 -0.4464618060028587
 outer loop
  vertex -0.6234898018587324 0.7818314824680308 -10.0
  vertex -0.29289321881345415 0.6435942529055801 -10.70710678118655
  vertex -0.707106781186547 -1.73185491414387e-16 -10.707106781186548
 endloop
endfacet
facet normal -0.7524363752023991 -0.4842637267573721 -0.4464618060028603
 outer loop
  vertex -0.707106781186547 -1.73185491414387e-16 -10.707106781186548
  vertex -0.2928932188134498 -0.6435942529056082 -10.707106781186525
  vertex -0.6234898018587347 -0.7818314824680288 -10.0
 endloop
endfacet
facet normal -0.21344918758787684 0.9351819943952412 -0.28262003056580143
 outer loop
  vertex 0.22252093395631822 0.9749279121818227 -10.0
  vertex -0.29289321881345415 0.6435942529055801 -10.70710678118655
  vertex -0.6234898018587324 0.7818314824680308 -10.0
 endloop
endfacet
facet normal 0.6173635995520173 0.7741494677549026 -0.13983843364031726
 outer loop
  vertex 0.9009688679024214 0.4338837391175534 -10.0
  vertex 0.5087208596547272 0.6433487249335906 -10.572106200873996
  vertex 0.22252093395631822 0.9749279121818227 -10.0
 endloop
endfacet
facet normal 0.0793943072343718 0.879177722566744 -0.4698330300448526
 outer loop
  vertex 0.22252093395631822 0.9749279121818227 -10.0
  vertex 0.5087208596547272 0.6433487249335906 -10.572106200873996
  vertex -0.29289321881345415 0.6435942529055801 -10.70710678118655
 endloop
endfacet
facet normal 0.9605702970161341 -4.301342819859481e-15 -0.2780372357982579
 outer loop
  vertex 0.9009688679024175 -0.4338837391175616 -10.0
  vertex 0.6920214716359135 -3.295766564804088e-15 -10.721876916651906
  vertex 0.9009688679024214 0.4338837391175534 -10.0
 endloop
endfacet
facet normal 0.8291110132431129 0.33961610619359134 -0.44411240484012837
 outer loop
  vertex 0.6920214716359135 -3.295766564804088e-15 -10.721876916651906
  vertex 0.5087208596547272 0.6433487249335906 -10.572106200873996
  vertex 0.9009688679024214 0.4338837391175534 -10.0
 endloop
endfacet
facet normal 0.6173635995520117 -0.7741494677549079 -0.13983843364031331
 outer loop
  vertex 0.22252093395631198 -0.9749279121818242 -10.0
  vertex 0.5087208596547558 -0.6433487249335723 -10.572106200873993
  vertex 0.9009688679024175 -0.4338837391175616 -10.0
 endloop
endfacet
facet normal 0.829111013243127 -0.3396161061935715 -0.444112404840117
 outer loop
  vertex 0.9009688679024175 -0.4338837391175616 -10.0
  vertex 0.5087208596547558 -0.6433487249335723 -10.572106200873993
  vertex 0.6920214716359135 -3.295766564804088e-15 -10.721876916651906
 endloop
endfacet
facet normal -0.21344918758788292 -0.935181994395247 -0.2826200305657775
 outer loop
  vertex -0.6234898018587347 -0.7818314824680288 -10.0
  vertex -0.2928932188134498 -0.6435942529056082 -10.707106781186525
  vertex 0.22252093395631198 -0.9749279121818242 -10.0
 endloop
endfacet
facet normal 0.07939430723440881 -0.8791777225667374 -0.4698330300448587
 outer loop
  vertex -0.2928932188134498 -0.6435942529056082 -10.707106781186525
  vertex 0.5087208596547558 -0.6433487249335723 -10.572106200873993
  vertex 0.22252093395631198 -0.9749279121818242 -10.0
 endloop
endfacet
facet normal -0.8962299831373967 0.43160161249327034 -0.102429807276742
 outer loop
  vertex -1.0 -2.4492127076447545e-16 -10.0
  vertex -0.7805608738014705 0.6250797727412757 -9.286169568962269
  vertex -0.6234898018587324 0.7818314824680308 -10.0
 endloop
endfacet
facet normal -0.8945068865426979 -0.4307718129075083 -0.1195536495974412
 outer loop
  vertex -0.6234898018587347 -0.7818314824680288 -10.0
  vertex -0.8056767439238919 -0.5923554543516888 -9.31958127204684
  vertex -1.0 -2.4492127076447545e-16 -10.0
 endloop
endfacet
facet normal -0.9501780738166642 -0.31170760022504124 0.0
 outer loop
  vertex -1.0 -2.4492127076447545e-16 -10.0
  vertex -0.8056767439238919 -0.5923554543516888 -9.31958127204684
  vertex -1.0 -2.4492127076447545e-16 -8.888888888888886
 endloop
endfacet
facet normal -0.9435467327592922 0.3312394346983231 0.0
 outer loop
  vertex -1.0 -2.4492127076447545e-16 -8.888888888888886
  vertex -0.7805608738014705 0.6250797727412757 -9.286169568962269
  vertex -1.0 -2.4492127076447545e-16 -10.0
 endloop
endfacet
facet normal -0.9498203912938312 -0.3127958188378377 0.0
 outer loop
  vertex -1.0 -2.4492127076447545e-16 -1.1111111111111098
  vertex -0.8043175514351335 -0.5941996940872583 -0.6814202344654524
  vertex -1.0 -2.4492127076447545e-16 0.0
 endloop
endfacet
facet normal -0.9472922443491619 0.32037072868151895 0.0
 outer loop
  vertex -1.0 -2.4492127076447545e-16 0.0
  vertex -0.794725192408145 0.6069694131929854 -0.7009347430571147
  vertex -1.0 -2.4492127076447545e-16 -1.1111111111111098
 endloop
endfacet
facet normal -0.8953842662798562 0.43119433671998114 0.11116860923434707
 outer loop
  vertex -0.6234898018587324 0.7818314824680308 0.0
  vertex -0.794725192408145 0.6069694131929854 -0.7009347430571147
  vertex -1.0 -2.4492127076447545e-16 0.0
 endloop
endfacet
facet normal -0.8945915354641208 -0.43081257767957515 0.1187708196024036
 outer loop
  vertex -1.0 -2.4492127076447545e-16 0.0
  vertex -0.8043175514351335 -0.5941996940872583 -0.6814202344654524
  vertex -0.6234898018587347 -0.7818314824680288 0.0
 endloop
endfacet
facet normal -0.22047202781951047 0.965951067861189 -0.13539061801683955
 outer loop
  vertex -0.6234898018587324 0.7818314824680308 -10.0
  vertex -0.14978505550059534 0.988718583394023 -9.29534135048415
  vertex 0.22252093395631822 0.9749279121818227 -10.0
 endloop
endfacet
facet normal -0.49694985205030723 0.864047664080339 0.08038954375096123
 outer loop
  vertex -0.6234898018587324 0.7818314824680308 -10.0
  vertex -0.7805608738014705 0.6250797727412757 -9.286169568962269
  vertex -0.14978505550059534 0.988718583394023 -9.29534135048415
 endloop
endfacet
facet normal 0.6143564630201259 0.7703786378139742 -0.1705370656053576
 outer loop
  vertex 0.22252093395631822 0.9749279121818227 -10.0
  vertex 0.6018920505705301 0.7985774598997911 -9.429962771887057
  vertex 0.9009688679024214 0.4338837391175534 -10.0
 endloop
endfacet
facet normal 0.26368595255387645 0.9570413631193526 0.12058833983601523
 outer loop
  vertex -0.14978505550059534 0.988718583394023 -9.29534135048415
  vertex 0.6018920505705301 0.7985774598997911 -9.429962771887057
  vertex 0.22252093395631822 0.9749279121818227 -10.0
 endloop
endfacet
facet normal 0.9932509925325672 -4.447683879378276e-15 -0.11598476552146768
 outer loop
  vertex 0.9009688679024214 0.4338837391175534 -10.0
  vertex 0.9967314022065409 0.08078682971489051 -9.17992477876418
  vertex 0.9009688679024175 -0.4338837391175616 -10.0
 endloop
endfacet
facet normal 0.8515363795814379 0.5103106817050886 0.12028633499705967
 outer loop
  vertex 0.9009688679024214 0.4338837391175534 -10.0
  vertex 0.6018920505705301 0.7985774598997911 -9.429962771887057
  vertex 0.9967314022065409 0.08078682971489051 -9.17992477876418
 endloop
endfacet
facet normal 0.6171076863182126 -0.7738285627098408 -0.1427146068957362
 outer loop
  vertex 0.9009688679024175 -0.4338837391175616 -10.0
  vertex 0.6101013592415804 -0.7923233755554459 -9.314195964119927
  vertex 0.22252093395631198 -0.9749279121818242 -10.0
 endloop
endfacet
facet normal 0.8933770886599716 -0.42010760846041606 0.1593329054875457
 outer loop
  vertex 0.9967314022065409 0.08078682971489051 -9.17992477876418
  vertex 0.6101013592415804 -0.7923233755554459 -9.314195964119927
  vertex 0.9009688679024175 -0.4338837391175616 -10.0
 endloop
endfacet
facet normal -0.22043406326124676 -0.9657847342633937 -0.13663334445852784
 outer loop
  vertex 0.22252093395631198 -0.9749279121818242 -10.0
  vertex -0.2124463392351951 -0.9771727344464562 -9.282388798443371
  vertex -0.6234898018587347 -0.7818314824680288 -10.0
 endloop
endfacet
facet normal 0.22219443198596173 -0.9660724762659648 0.13165714942904758
 outer loop
  vertex 0.22252093395631198 -0.9749279121818242 -10.0
  vertex 0.6101013592415804 -0.7923233755554459 -9.314195964119927
  vertex -0.2124463392351951 -0.9771727344464562 -9.282388798443371
 endloop
endfacet
facet normal -0.5459836420678958 -0.8333824747265262 0.08588080934042676
 outer loop
  vertex -0.2124463392351951 -0.9771727344464562 -9.282388798443371
  vertex -0.8056767439238919 -0.5923554543516888 -9.31958127204684
  vertex -0.6234898018587347 -0.7818314824680288 -10.0
 endloop
endfacet
facet normal -0.876651879892419 0.48112522432427884 0.0
 outer loop
  vertex -1.0 -2.4492127076447545e-16 -1.1111111111111098
  vertex -0.5370370370378245 0.8435586647350819 -1.6666666666666647
  vertex -1.0 -2.4492127076447545e-16 -2.2222222222222197
 endloop
endfacet
facet normal -0.8952477347065647 -0.44556873039157996 0.0
 outer loop
  vertex -1.0 -2.4492127076447545e-16 -2.2222222222222197
  vertex -0.6029370129944713 -0.7977887930782838 -1.5777211350040783
  vertex -1.0 -2.4492127076447545e-16 -1.1111111111111098
 endloop
endfacet
facet normal -0.9043125177961719 0.40229758256007414 -0.14274286400191216
 outer loop
  vertex -1.0 -2.4492127076447545e-16 -1.1111111111111098
  vertex -0.794725192408145 0.6069694131929854 -0.7009347430571147
  vertex -0.5370370370378245 0.8435586647350819 -1.6666666666666647
 endloop
endfacet
facet normal -0.9147772726463961 -0.38641299092678166 -0.11776052773591099
 outer loop
  vertex -0.6029370129944713 -0.7977887930782838 -1.5777211350040783
  vertex -0.8043175514351335 -0.5941996940872583 -0.6814202344654524
  vertex -1.0 -2.4492127076447545e-16 -1.1111111111111098
 endloop
endfacet
facet normal -0.8943259533713372 -0.4474160134890665 0.0
 outer loop
  vertex -1.0 -2.4492127076447545e-16 -3.3333333333333264
  vertex -0.5996378217471031 -0.8002715056344248 -2.7805930283194042
  vertex -1.0 -2.4492127076447545e-16 -2.2222222222222197
 endloop
endfacet
facet normal -0.8815832798972952 0.47202851672915636 0.0
 outer loop
  vertex -1.0 -2.4492127076447545e-16 -2.2222222222222197
  vertex -0.554378158788945 0.8322648959662898 -2.7461783212833004
  vertex -1.0 -2.4492127076447545e-16 -3.3333333333333264
 endloop
endfacet
facet normal -0.8947523176445598 -0.44656012117717625 -0.001532398092648505
 outer loop
  vertex -0.5996378217471031 -0.8002715056344248 -2.7805930283194042
  vertex -0.6029370129944713 -0.7977887930782838 -1.5777211350040783
  vertex -1.0 -2.4492127076447545e-16 -2.2222222222222197
 endloop
endfacet
facet normal -0.879141295023084 0.47647359653453375 0.009137570277775628
 outer loop
  vertex -0.5370370370378245 0.8435586647350819 -1.6666666666666647
  vertex -0.554378158788945 0.8322648959662898 -2.7461783212833004
  vertex -1.0 -2.4492127076447545e-16 -2.2222222222222197
 endloop
endfacet
facet normal -0.8803782319949359 0.47427225159128866 0.0
 outer loop
  vertex -1.0 -2.4492127076447545e-16 -3.3333333333333264
  vertex -0.5501316627410585 0.8350779326803925 -3.8624643175983016
  vertex -1.0 -2.4492127076447545e-16 -4.444444444444433
 endloop
endfacet
facet normal -0.8766518798766365 -0.48112522435303584 0.0
 outer loop
  vertex -1.0 -2.4492127076447545e-16 -4.444444444444433
  vertex -0.537037036982482 -0.8435586647703148 -3.8888888888888795
  vertex -1.0 -2.4492127076447545e-16 -3.3333333333333264
 endloop
endfacet
facet normal -0.880946671926545 0.4732106307324519 -0.002158745779249854
 outer loop
  vertex -1.0 -2.4492127076447545e-16 -3.3333333333333264
  vertex -0.554378158788945 0.8322648959662898 -2.7461783212833004
  vertex -0.5501316627410585 0.8350779326803925 -3.8624643175983016
 endloop
endfacet
facet normal -0.8849019799678822 -0.4646882155977894 -0.03183312949529023
 outer loop
  vertex -1.0 -2.4492127076447545e-16 -3.3333333333333264
  vertex -0.537037036982482 -0.8435586647703148 -3.8888888888888795
  vertex -0.5996378217471031 -0.8002715056344248 -2.7805930283194042
 endloop
endfacet
facet normal -0.8425160803750631 -0.5386711931312461 0.0
 outer loop
  vertex -1.0 -2.4492127076447545e-16 -5.5555555555555465
  vertex -0.4196666913811199 -0.9076782844957919 -5.067005789166121
  vertex -1.0 -2.4492127076447545e-16 -4.444444444444433
 endloop
endfacet
facet normal -0.8722862834395867 0.48899554161889164 0.0
 outer loop
  vertex -1.0 -2.4492127076447545e-16 -4.444444444444433
  vertex -0.5217667205536934 0.8530882072345415 -5.0094292413964085
  vertex -1.0 -2.4492127076447545e-16 -5.5555555555555465
 endloop
endfacet
facet normal -0.8761542504083538 0.4818245206083002 -0.01410180243647757
 outer loop
  vertex -0.5501316627410585 0.8350779326803925 -3.8624643175983016
  vertex -0.5217667205536934 0.8530882072345415 -5.0094292413964085
  vertex -1.0 -2.4492127076447545e-16 -4.444444444444433
 endloop
endfacet
facet normal -0.8586340798901091 -0.5093173332714648 -0.05782188928519625
 outer loop
  vertex -1.0 -2.4492127076447545e-16 -4.444444444444433
  vertex -0.4196666913811199 -0.9076782844957919 -5.067005789166121
  vertex -0.537037036982482 -0.8435586647703148 -3.8888888888888795
 endloop
endfacet
facet normal -0.8879882580167606 -0.45986612576309527 0.0
 outer loop
  vertex -1.0 -2.4492127076447545e-16 -6.66666666666666
  vertex -0.5770462927512823 -0.816711439874575 -6.173216279003836
  vertex -1.0 -2.4492127076447545e-16 -5.5555555555555465
 endloop
endfacet
facet normal -0.8766518798954158 0.4811252243188185 0.0
 outer loop
  vertex -1.0 -2.4492127076447545e-16 -5.5555555555555465
  vertex -0.5370370370483329 0.8435586647283919 -6.111111111111104
  vertex -1.0 -2.4492127076447545e-16 -6.66666666666666
 endloop
endfacet
facet normal -0.8588994986619036 -0.505761343007247 0.08060468421770742
 outer loop
  vertex -0.5770462927512823 -0.816711439874575 -6.173216279003836
  vertex -0.4196666913811199 -0.9076782844957919 -5.067005789166121
  vertex -1.0 -2.4492127076447545e-16 -5.5555555555555465
 endloop
endfacet
facet normal -0.8744140917047456 0.48511566411293167 0.007923929608101593
 outer loop
  vertex -1.0 -2.4492127076447545e-16 -5.5555555555555465
  vertex -0.5217667205536934 0.8530882072345415 -5.0094292413964085
  vertex -0.5370370370483329 0.8435586647283919 -6.111111111111104
 endloop
endfacet
facet normal -0.8776352798884252 -0.4793290263432475 0.0
 outer loop
  vertex -1.0 -2.4492127076447545e-16 -7.777777777777773
  vertex -0.5404873690096688 -0.8413521283868046 -7.20268275454314
  vertex -1.0 -2.4492127076447545e-16 -6.66666666666666
 endloop
endfacet
facet normal -0.8767575421062986 0.4809326484651693 0.0
 outer loop
  vertex -1.0 -2.4492127076447545e-16 -6.66666666666666
  vertex -0.5374075752805556 0.8433226535739888 -7.2015212721242055
  vertex -1.0 -2.4492127076447545e-16 -7.777777777777773
 endloop
endfacet
facet normal -0.882793562905765 -0.4693302118840352 -0.020116597749914034
 outer loop
  vertex -0.5404873690096688 -0.8413521283868046 -7.20268275454314
  vertex -0.5770462927512823 -0.816711439874575 -6.173216279003836
  vertex -1.0 -2.4492127076447545e-16 -6.66666666666666
 endloop
endfacet
facet normal -0.8767056922256686 0.48102712154238064 0.00019380341331934258
 outer loop
  vertex -1.0 -2.4492127076447545e-16 -6.66666666666666
  vertex -0.5370370370483329 0.8435586647283919 -6.111111111111104
  vertex -0.5374075752805556 0.8433226535739888 -7.2015212721242055
 endloop
endfacet
facet normal -0.8970314447099937 -0.44196672635109246 0.0
 outer loop
  vertex -1.0 -2.4492127076447545e-16 -8.888888888888886
  vertex -0.6093308255969972 -0.7929161021049338 -8.426628672901943
  vertex -1.0 -2.4492127076447545e-16 -7.777777777777773
 endloop
endfacet
facet normal -0.8632805570201691 0.504724360290789 0.0
 outer loop
  vertex -1.0 -2.4492127076447545e-16 -7.777777777777773
  vertex -0.49050664025810736 0.871437453786962 -8.246617605438301
  vertex -1.0 -2.4492127076447545e-16 -8.888888888888886
 endloop
endfacet
facet normal -0.8861113220245729 -0.4623978794868873 0.031542448000968955
 outer loop
  vertex -1.0 -2.4492127076447545e-16 -7.777777777777773
  vertex -0.6093308255969972 -0.7929161021049338 -8.426628672901943
  vertex -0.5404873690096688 -0.8413521283868046 -7.20268275454314
 endloop
endfacet
facet normal -0.8689587233918117 0.4942167421523208 -0.025701144286186427
 outer loop
  vertex -0.5374075752805556 0.8433226535739888 -7.2015212721242055
  vertex -0.49050664025810736 0.871437453786962 -8.246617605438301
  vertex -1.0 -2.4492127076447545e-16 -7.777777777777773
 endloop
endfacet
facet normal -0.9160379195984371 -0.384214176738503 0.11512600162831033
 outer loop
  vertex -1.0 -2.4492127076447545e-16 -8.888888888888886
  vertex -0.8056767439238919 -0.5923554543516888 -9.31958127204684
  vertex -0.6093308255969972 -0.7929161021049338 -8.426628672901943
 endloop
endfacet
facet normal -0.8980801948465846 0.41242061635997834 0.15284370718343623
 outer loop
  vertex -0.49050664025810736 0.871437453786962 -8.246617605438301
  vertex -0.7805608738014705 0.6250797727412757 -9.286169568962269
  vertex -1.0 -2.4492127076447545e-16 -8.888888888888886
 endloop
endfacet
facet normal -0.22048775680065957 0.9660199810302998 0.13487232982058373
 outer loop
  vertex 0.22252093395631822 0.9749279121818227 0.0
  vertex -0.20949812708755494 0.9778090482025653 -0.7268959375077989
  vertex -0.6234898018587324 0.7818314824680308 0.0
 endloop
endfacet
facet normal -0.5360821272720575 0.840488007021748 -0.07871380356758176
 outer loop
  vertex -0.20949812708755494 0.9778090482025653 -0.7268959375077989
  vertex -0.794725192408145 0.6069694131929854 -0.7009347430571147
  vertex -0.6234898018587324 0.7818314824680308 0.0
 endloop
endfacet
facet normal 0.6178099034386745 0.7747091151273154 0.13467260356786542
 outer loop
  vertex 0.9009688679024214 0.4338837391175534 0.0
  vertex 0.6020463070641248 0.7984611726004275 -0.7259393510758821
  vertex 0.22252093395631822 0.9749279121818227 0.0
 endloop
endfacet
facet normal 0.21427564946521654 0.9689329260693197 -0.12351085306565482
 outer loop
  vertex 0.6020463070641248 0.7984611726004275 -0.7259393510758821
  vertex -0.20949812708755494 0.9778090482025653 -0.7268959375077989
  vertex 0.22252093395631822 0.9749279121818227 0.0
 endloop
endfacet
facet normal 0.9921835792502334 -4.442904103788657e-15 0.12478679844517186
 outer loop
  vertex 0.9009688679024175 -0.4338837391175616 0.0
  vertex 0.9976409700335125 0.06864761401965942 -0.7686427851437744
  vertex 0.9009688679024214 0.4338837391175534 0.0
 endloop
endfacet
facet normal 0.8701058219875313 0.47854185447150926 -0.11795572077000593
 outer loop
  vertex 0.9009688679024214 0.4338837391175534 0.0
  vertex 0.9976409700335125 0.06864761401965942 -0.7686427851437744
  vertex 0.6020463070641248 0.7984611726004275 -0.7259393510758821
 endloop
endfacet
facet normal 0.618545971935563 -0.775632115828229 0.12568095121423375
 outer loop
  vertex 0.22252093395631198 -0.9749279121818242 0.0
  vertex 0.6665743378263687 -0.7454385636330724 -0.7691550261137828
  vertex 0.9009688679024175 -0.4338837391175616 0.0
 endloop
endfacet
facet normal 0.9186593469483284 -0.3735127310416808 -0.1286594109043553
 outer loop
  vertex 0.6665743378263687 -0.7454385636330724 -0.7691550261137828
  vertex 0.9976409700335125 0.06864761401965942 -0.7686427851437744
  vertex 0.9009688679024175 -0.4338837391175616 0.0
 endloop
endfacet
facet normal -0.22043953510430314 -0.9658087079742346 0.13645494114959023
 outer loop
  vertex -0.6234898018587347 -0.7818314824680288 0.0
  vertex -0.2091070681032789 -0.9778927518236602 -0.7182689262120736
  vertex 0.22252093395631198 -0.9749279121818242 0.0
 endloop
endfacet
facet normal 0.2460772447003039 -0.958505881259702 -0.14391825885296367
 outer loop
  vertex 0.22252093395631198 -0.9749279121818242 0.0
  vertex -0.2091070681032789 -0.9778927518236602 -0.7182689262120736
  vertex 0.6665743378263687 -0.7454385636330724 -0.7691550261137828
 endloop
endfacet
facet normal -0.5435634351358789 -0.8349845429095423 -0.0856714951744504
 outer loop
  vertex -0.6234898018587347 -0.7818314824680288 0.0
  vertex -0.8043175514351335 -0.5941996940872583 -0.6814202344654524
  vertex -0.2091070681032789 -0.9778927518236602 -0.7182689262120736
 endloop
endfacet
facet normal -0.1047578097878414 0.9944955300332634 0.0021076129419448438
 outer loop
  vertex -0.554378158788945 0.8322648959662898 -2.7461783212833004
  vertex 0.366508954982976 0.930414523702896 -3.2867182540278894
  vertex -0.5501316627410585 0.8350779326803925 -3.8624643175983016
 endloop
endfacet
facet normal -0.08932215724701352 0.995744662378171 -0.02267420495015879
 outer loop
  vertex 0.366508954982976 0.930414523702896 -3.2867182540278894
  vertex 0.41449449666320487 0.910051818434487 -4.369985660145723
  vertex -0.5501316627410585 0.8350779326803925 -3.8624643175983016
 endloop
endfacet
facet normal -0.07019689335386621 0.997435940125955 0.013926288397064085
 outer loop
  vertex 0.41449449666320487 0.910051818434487 -4.369985660145723
  vertex -0.5217667205536934 0.8530882072345415 -5.0094292413964085
  vertex -0.5501316627410585 0.8350779326803925 -3.8624643175983016
 endloop
endfacet
facet normal -0.17692063005372002 -0.9840735708873822 0.017271298224244648
 outer loop
  vertex -0.5404873690096688 -0.8413521283868046 -7.20268275454314
  vertex 0.23535905710632068 -0.971908490670816 -6.693967498492476
  vertex -0.5770462927512823 -0.816711439874575 -6.173216279003836
 endloop
endfacet
facet normal -0.1411174405700056 -0.989237807697627 -0.03865782958940714
 outer loop
  vertex -0.5404873690096688 -0.8413521283868046 -7.20268275454314
  vertex 0.32955536686870407 -0.9441362508494385 -7.748503984724226
  vertex 0.23535905710632068 -0.971908490670816 -6.693967498492476
 endloop
endfacet
facet normal -0.13672470790372643 -0.9901083869898769 -0.031491844356032805
 outer loop
  vertex -0.5404873690096688 -0.8413521283868046 -7.20268275454314
  vertex -0.6093308255969972 -0.7929161021049338 -8.426628672901943
  vertex 0.32955536686870407 -0.9441362508494385 -7.748503984724226
 endloop
endfacet
facet normal -0.13388252223319952 -0.9909957890434705 0.0016781950382513638
 outer loop
  vertex -0.5996378217471031 -0.8002715056344248 -2.7805930283194042
  vertex 0.36757146851727707 -0.929995277155778 -2.2224290663667103
  vertex -0.6029370129944713 -0.7977887930782838 -1.5777211350040783
 endloop
endfacet
facet normal -0.19770792420795721 -0.9733274853402879 0.11638377458448505
 outer loop
  vertex -0.5996378217471031 -0.8002715056344248 -2.7805930283194042
  vertex 0.051679492539839285 -0.9986637222062413 -3.333333333299465
  vertex 0.36757146851727707 -0.929995277155778 -2.2224290663667103
 endloop
endfacet
facet normal -0.274128406780963 -0.9614398789808437 0.022067525938158878
 outer loop
  vertex -0.537037036982482 -0.8435586647703148 -3.8888888888888795
  vertex 0.051679492539839285 -0.9986637222062413 -3.333333333299465
  vertex -0.5996378217471031 -0.8002715056344248 -2.7805930283194042
 endloop
endfacet
facet normal 0.21379592966189467 0.9681172283530223 0.13053862503515357
 outer loop
  vertex 0.6020463070641248 0.7984611726004275 -0.7259393510758821
  vertex 0.2196259249309907 0.9755841599258399 -1.4132140517486924
  vertex -0.20949812708755494 0.9778090482025653 -0.7268959375077989
 endloop
endfacet
facet normal 0.8769931421509449 0.46935103041141 0.10292054640332983
 outer loop
  vertex 0.9976409700335125 0.06864761401965942 -0.7686427851437744
  vertex 0.8263953032899689 0.5630904036655929 -1.5642658196519528
  vertex 0.6020463070641248 0.7984611726004275 -0.7259393510758821
 endloop
endfacet
facet normal 0.544886348004811 0.8338483765208288 -0.08829355996650012
 outer loop
  vertex 0.6020463070641248 0.7984611726004275 -0.7259393510758821
  vertex 0.8263953032899689 0.5630904036655929 -1.5642658196519528
  vertex 0.2196259249309907 0.9755841599258399 -1.4132140517486924
 endloop
endfacet
facet normal 0.8288485662258904 0.555624292734583 -0.06551106462636781
 outer loop
  vertex 0.9967314022065409 0.08078682971489051 -9.17992477876418
  vertex 0.5170269998631822 0.8559690890519802 -8.674547730186948
  vertex 0.9733422747994132 0.22935739815472217 -8.21576135607938
 endloop
endfacet
facet normal 0.9728917842496034 -0.22384523267373305 0.058093785802488224
 outer loop
  vertex 0.9733422747994132 0.22935739815472217 -8.21576135607938
  vertex 0.8009179762918557 -0.5987740769710713 -8.519117370281787
  vertex 0.9967314022065409 0.08078682971489051 -9.17992477876418
 endloop
endfacet
facet normal 0.8657372310687534 0.4969490275620995 0.05950387169328873
 outer loop
  vertex 0.9967314022065409 0.08078682971489051 -9.17992477876418
  vertex 0.6018920505705301 0.7985774598997911 -9.429962771887057
  vertex 0.5170269998631822 0.8559690890519802 -8.674547730186948
 endloop
endfacet
facet normal 0.9141317463055818 -0.3854877611541884 -0.1255481437403141
 outer loop
  vertex 0.8009179762918557 -0.5987740769710713 -8.519117370281787
  vertex 0.6101013592415804 -0.7923233755554459 -9.314195964119927
  vertex 0.9967314022065409 0.08078682971489051 -9.17992477876418
 endloop
endfacet
facet normal -0.08240455830181175 0.9965989431753701 -0.00018770407229634083
 outer loop
  vertex -0.5370370370483329 0.8435586647283919 -6.111111111111104
  vertex 0.3913919269222048 0.9202240811563906 -6.655082795414598
  vertex -0.5374075752805556 0.8433226535739888 -7.2015212721242055
 endloop
endfacet
facet normal -0.07761903710344001 0.9969479488086277 -0.008370928586767322
 outer loop
  vertex 0.3913919269222048 0.9202240811563906 -6.655082795414598
  vertex 0.4084610809513764 0.9127757366122486 -7.7004271708342635
  vertex -0.5374075752805556 0.8433226535739888 -7.2015212721242055
 endloop
endfacet
facet normal -0.060545559086366794 0.9978737933516197 0.024127325110092707
 outer loop
  vertex 0.4084610809513764 0.9127757366122486 -7.7004271708342635
  vertex -0.49050664025810736 0.871437453786962 -8.246617605438301
  vertex -0.5374075752805556 0.8433226535739888 -7.2015212721242055
 endloop
endfacet
facet normal 0.9217798360732197 -0.3749248453426791 0.09875876747710255
 outer loop
  vertex 0.9717516846029124 -0.23600564288042344 -1.6835777955172624
  vertex 0.9976409700335125 0.06864761401965942 -0.7686427851437744
  vertex 0.6665743378263687 -0.7454385636330724 -0.7691550261137828
 endloop
endfacet
facet normal 0.6543541934597079 -0.7320694247346937 -0.18945961804645803
 outer loop
  vertex 0.6665743378263687 -0.7454385636330724 -0.7691550261137828
  vertex 0.22252093395631545 -0.9749279121818234 -1.416079541381981
  vertex 0.9717516846029124 -0.23600564288042344 -1.6835777955172624
 endloop
endfacet
facet normal 0.2619128533426358 -0.9520768324492561 0.1579600024288121
 outer loop
  vertex -0.2091070681032789 -0.9778927518236602 -0.7182689262120736
  vertex 0.22252093395631545 -0.9749279121818234 -1.416079541381981
  vertex 0.6665743378263687 -0.7454385636330724 -0.7691550261137828
 endloop
endfacet
facet normal -0.1065835874495967 0.9942657725423818 -0.008689789242261365
 outer loop
  vertex -0.5370370370378245 0.8435586647350819 -1.6666666666666647
  vertex 0.3560985266556639 0.9344484144743708 -2.221918938273696
  vertex -0.554378158788945 0.8322648959662898 -2.7461783212833004
 endloop
endfacet
facet normal -0.14697956834294748 0.9862941399118311 -0.0749725020611034
 outer loop
  vertex -0.5370370370378245 0.8435586647350819 -1.6666666666666647
  vertex 0.2196259249309907 0.9755841599258399 -1.4132140517486924
  vertex 0.3560985266556639 0.9344484144743708 -2.221918938273696
 endloop
endfacet
facet normal -0.1413236673053806 0.9857203440524894 -0.09155885746556583
 outer loop
  vertex -0.20949812708755494 0.9778090482025653 -0.7268959375077989
  vertex 0.2196259249309907 0.9755841599258399 -1.4132140517486924
  vertex -0.5370370370378245 0.8435586647350819 -1.6666666666666647
 endloop
endfacet
facet normal -0.5320732729138226 0.8442115980253662 0.06484450639977506
 outer loop
  vertex -0.5370370370378245 0.8435586647350819 -1.6666666666666647
  vertex -0.794725192408145 0.6069694131929854 -0.7009347430571147
  vertex -0.20949812708755494 0.9778090482025653 -0.7268959375077989
 endloop
endfacet
facet normal -0.5398053050539373 -0.838897277664288 -0.0697251042528582
 outer loop
  vertex -0.6093308255969972 -0.7929161021049338 -8.426628672901943
  vertex -0.8056767439238919 -0.5923554543516888 -9.31958127204684
  vertex -0.2124463392351951 -0.9771727344464562 -9.282388798443371
 endloop
endfacet
facet normal -0.19933597508190898 -0.9729173589792803 0.1170341045803604
 outer loop
  vertex -0.2124463392351951 -0.9771727344464562 -9.282388798443371
  vertex 0.18524207829918246 -0.9826929186818227 -8.650923930269839
  vertex -0.6093308255969972 -0.7929161021049338 -8.426628672901943
 endloop
endfacet
facet normal 0.21181743884351223 -0.9669597305830141 -0.1418529239480092
 outer loop
  vertex 0.6101013592415804 -0.7923233755554459 -9.314195964119927
  vertex 0.18524207829918246 -0.9826929186818227 -8.650923930269839
  vertex -0.2124463392351951 -0.9771727344464562 -9.282388798443371
 endloop
endfacet
facet normal 0.07206422829671406 0.9883651697943663 0.1339441605197946
 outer loop
  vertex -0.49050664025810736 0.871437453786962 -8.246617605438301
  vertex 0.5170269998631822 0.8559690890519802 -8.674547730186948
  vertex -0.14978505550059534 0.988718583394023 -9.29534135048415
 endloop
endfacet
facet normal -0.4990856275363743 0.8640723232785431 -0.065517604738302
 outer loop
  vertex -0.14978505550059534 0.988718583394023 -9.29534135048415
  vertex -0.7805608738014705 0.6250797727412757 -9.286169568962269
  vertex -0.49050664025810736 0.871437453786962 -8.246617605438301
 endloop
endfacet
facet normal 0.2370243470521523 0.9703615872112045 -0.047094043885111285
 outer loop
  vertex 0.5170269998631822 0.8559690890519802 -8.674547730186948
  vertex 0.6018920505705301 0.7985774598997911 -9.429962771887057
  vertex -0.14978505550059534 0.988718583394023 -9.29534135048415
 endloop
endfacet
facet normal -0.10878262270603953 0.9940538303141139 -0.004829434235454189
 outer loop
  vertex 0.3560985266556639 0.9344484144743708 -2.221918938273696
  vertex 0.366508954982976 0.930414523702896 -3.2867182540278894
  vertex -0.554378158788945 0.8322648959662898 -2.7461783212833004
 endloop
endfacet
facet normal 0.7382820640794392 0.6744759825748459 0.004662916286936432
 outer loop
  vertex 0.3560985266556639 0.9344484144743708 -2.221918938273696
  vertex 0.9617519238456302 0.2739219541753255 -2.57230199615241
  vertex 0.366508954982976 0.930414523702896 -3.2867182540278894
 endloop
endfacet
facet normal 0.7039400925890342 0.7021681632571167 -0.10690283697764641
 outer loop
  vertex 0.3560985266556639 0.9344484144743708 -2.221918938273696
  vertex 0.8263953032899689 0.5630904036655929 -1.5642658196519528
  vertex 0.9617519238456302 0.2739219541753255 -2.57230199615241
 endloop
endfacet
facet normal 0.5706323786954156 0.8193873311821156 0.05461767005889181
 outer loop
  vertex 0.2196259249309907 0.9755841599258399 -1.4132140517486924
  vertex 0.8263953032899689 0.5630904036655929 -1.5642658196519528
  vertex 0.3560985266556639 0.9344484144743708 -2.221918938273696
 endloop
endfacet
facet normal 0.7700936868828958 0.6375468914567992 0.022128592745148754
 outer loop
  vertex 0.366508954982976 0.930414523702896 -3.2867182540278894
  vertex 0.9779107917038868 0.2090226864937804 -3.779997306975917
  vertex 0.41449449666320487 0.910051818434487 -4.369985660145723
 endloop
endfacet
facet normal 0.7540680329856947 0.6563134810926657 -0.025179677621297216
 outer loop
  vertex 0.366508954982976 0.930414523702896 -3.2867182540278894
  vertex 0.9617519238456302 0.2739219541753255 -2.57230199615241
  vertex 0.9779107917038868 0.2090226864937804 -3.779997306975917
 endloop
endfacet
facet normal 0.8024459636159268 0.5936003710454834 -0.06098421903386868
 outer loop
  vertex 0.9779107917038868 0.2090226864937804 -3.779997306975917
  vertex 0.9987309230585023 0.050364107524227854 -5.050371220190827
  vertex 0.41449449666320487 0.910051818434487 -4.369985660145723
 endloop
endfacet
facet normal 0.8279241057454941 0.5608354639975222 0.002292912603617888
 outer loop
  vertex 0.9987309230585023 0.050364107524227854 -5.050371220190827
  vertex 0.41925664862095635 0.9078677561116067 -5.555290669375147
  vertex 0.41449449666320487 0.910051818434487 -4.369985660145723
 endloop
endfacet
facet normal -0.059315321295837935 0.9982371341113271 -0.0020776767736324377
 outer loop
  vertex 0.41925664862095635 0.9078677561116067 -5.555290669375147
  vertex -0.5217667205536934 0.8530882072345415 -5.0094292413964085
  vertex 0.41449449666320487 0.910051818434487 -4.369985660145723
 endloop
endfacet
facet normal -0.19228440611638034 -0.9772907933270842 -0.08904724837180013
 outer loop
  vertex 0.36757146851727707 -0.929995277155778 -2.2224290663667103
  vertex 0.22252093395631545 -0.9749279121818234 -1.416079541381981
  vertex -0.6029370129944713 -0.7977887930782838 -1.5777211350040783
 endloop
endfacet
facet normal -0.18595969249650443 -0.9753039865088318 -0.11916848017234298
 outer loop
  vertex -0.6029370129944713 -0.7977887930782838 -1.5777211350040783
  vertex 0.22252093395631545 -0.9749279121818234 -1.416079541381981
  vertex -0.2091070681032789 -0.9778927518236602 -0.7182689262120736
 endloop
endfacet
facet normal -0.5374079053291135 -0.8403999923941767 0.07014696054457487
 outer loop
  vertex -0.2091070681032789 -0.9778927518236602 -0.7182689262120736
  vertex -0.8043175514351335 -0.5941996940872583 -0.6814202344654524
  vertex -0.6029370129944713 -0.7977887930782838 -1.5777211350040783
 endloop
endfacet
facet normal 0.6901235277302356 -0.7204491546690166 0.06842902899993634
 outer loop
  vertex 0.7881335024213151 -0.6155043317159603 -3.1528093392497345
  vertex 0.8984575516274315 -0.4390603921143894 -2.4077795493215293
  vertex 0.36757146851727707 -0.929995277155778 -2.2224290663667103
 endloop
endfacet
facet normal 0.4755973234713525 -0.8759170506322346 -0.0810956615276877
 outer loop
  vertex 0.36757146851727707 -0.929995277155778 -2.2224290663667103
  vertex 0.051679492539839285 -0.9986637222062413 -3.333333333299465
  vertex 0.7881335024213151 -0.6155043317159603 -3.1528093392497345
 endloop
endfacet
facet normal 0.7154571646217951 -0.6928233242691845 0.09009376748664709
 outer loop
  vertex 0.9717516846029124 -0.23600564288042344 -1.6835777955172624
  vertex 0.22252093395631545 -0.9749279121818234 -1.416079541381981
  vertex 0.36757146851727707 -0.929995277155778 -2.2224290663667103
 endloop
endfacet
facet normal 0.6970122370369162 -0.7056661792463597 0.1273152971509636
 outer loop
  vertex 0.36757146851727707 -0.929995277155778 -2.2224290663667103
  vertex 0.8984575516274315 -0.4390603921143894 -2.4077795493215293
  vertex 0.9717516846029124 -0.23600564288042344 -1.6835777955172624
 endloop
endfacet
facet normal 0.9072835860957991 -0.41519211705184383 0.06672331181195099
 outer loop
  vertex 0.9779107917038868 0.2090226864937804 -3.779997306975917
  vertex 0.5257464679664205 -0.8506413177249466 -4.225461887838841
  vertex 0.9987309230585023 0.050364107524227854 -5.050371220190827
 endloop
endfacet
facet normal 0.9304993033233054 -0.3319543498060453 -0.15484623392155536
 outer loop
  vertex 0.9779107917038868 0.2090226864937804 -3.779997306975917
  vertex 0.7881335024213151 -0.6155043317159603 -3.1528093392497345
  vertex 0.5257464679664205 -0.8506413177249466 -4.225461887838841
 endloop
endfacet
facet normal 0.978100946692669 -0.20671987957601543 0.024195649753262535
 outer loop
  vertex 0.9779107917038868 0.2090226864937804 -3.779997306975917
  vertex 0.9617519238456302 0.2739219541753255 -2.57230199615241
  vertex 0.7881335024213151 -0.6155043317159603 -3.1528093392497345
 endloop
endfacet
facet normal 0.8852160279923811 -0.4651798622296937 -0.0005287356194899945
 outer loop
  vertex 0.5257464679664205 -0.8506413177249466 -4.225461887838841
  vertex 0.5248330309721639 -0.8512051982927334 -5.258649671871551
  vertex 0.9987309230585023 0.050364107524227854 -5.050371220190827
 endloop
endfacet
facet normal 0.861865991246423 -0.4862806178678991 0.14393809022921994
 outer loop
  vertex 0.5248330309721639 -0.8512051982927334 -5.258649671871551
  vertex 0.7914155587937106 -0.6112785071464878 -6.044311860359728
  vertex 0.9987309230585023 0.050364107524227854 -5.050371220190827
 endloop
endfacet
facet normal 0.8044592711242018 0.58899091572749 0.07703883626334708
 outer loop
  vertex 0.9987309230585023 0.050364107524227854 -5.050371220190827
  vertex 0.9672927921543235 0.253662480959035 -6.2763788267923575
  vertex 0.41925664862095635 0.9078677561116067 -5.555290669375147
 endloop
endfacet
facet normal 0.9748500178193094 -0.21447526932446745 -0.06056237780907434
 outer loop
  vertex 0.9987309230585023 0.050364107524227854 -5.050371220190827
  vertex 0.7914155587937106 -0.6112785071464878 -6.044311860359728
  vertex 0.9672927921543235 0.253662480959035 -6.2763788267923575
 endloop
endfacet
facet normal 0.05978439374903317 -0.9982111922147026 0.0004919363399012007
 outer loop
  vertex 0.5257464679664205 -0.8506413177249466 -4.225461887838841
  vertex -0.4196666913811199 -0.9076782844957919 -5.067005789166121
  vertex 0.5248330309721639 -0.8512051982927334 -5.258649671871551
 endloop
endfacet
facet normal 0.010898753925747035 -0.9984034012727075 0.05542441240063028
 outer loop
  vertex -0.537037036982482 -0.8435586647703148 -3.8888888888888795
  vertex -0.4196666913811199 -0.9076782844957919 -5.067005789166121
  vertex 0.5257464679664205 -0.8506413177249466 -4.225461887838841
 endloop
endfacet
facet normal -0.06958752315386958 -0.9774923366691703 -0.19916402379535067
 outer loop
  vertex 0.5257464679664205 -0.8506413177249466 -4.225461887838841
  vertex 0.051679492539839285 -0.9986637222062413 -3.333333333299465
  vertex -0.537037036982482 -0.8435586647703148 -3.8888888888888795
 endloop
endfacet
facet normal 0.44286434422849136 -0.8923305838846148 0.08727715437163745
 outer loop
  vertex 0.7881335024213151 -0.6155043317159603 -3.1528093392497345
  vertex 0.051679492539839285 -0.9986637222062413 -3.333333333299465
  vertex 0.5257464679664205 -0.8506413177249466 -4.225461887838841
 endloop
endfacet
facet normal 0.09335973957671695 -0.980822344757347 0.17108912020016886
 outer loop
  vertex -0.4196666913811199 -0.9076782844957919 -5.067005789166121
  vertex 0.13063409881601662 -0.9914306492269276 -5.847430219778743
  vertex 0.5248330309721639 -0.8512051982927334 -5.258649671871551
 endloop
endfacet
facet normal 0.4715854190275928 -0.8752705883640798 -0.10727809517961888
 outer loop
  vertex 0.5248330309721639 -0.8512051982927334 -5.258649671871551
  vertex 0.13063409881601662 -0.9914306492269276 -5.847430219778743
  vertex 0.7914155587937106 -0.6112785071464878 -6.044311860359728
 endloop
endfacet
facet normal -0.07466564318695261 0.9971226473561069 0.013094573571800244
 outer loop
  vertex 0.41925664862095635 0.9078677561116067 -5.555290669375147
  vertex 0.3913919269222048 0.9202240811563906 -6.655082795414598
  vertex -0.5370370370483329 0.8435586647283919 -6.111111111111104
 endloop
endfacet
facet normal -0.06260109930502167 0.9980084199142336 -0.007765059310618618
 outer loop
  vertex -0.5370370370483329 0.8435586647283919 -6.111111111111104
  vertex -0.5217667205536934 0.8530882072345415 -5.0094292413964085
  vertex 0.41925664862095635 0.9078677561116067 -5.555290669375147
 endloop
endfacet
facet normal 0.7599874546637743 0.6498277933912093 -0.01195440044458051
 outer loop
  vertex 0.41925664862095635 0.9078677561116067 -5.555290669375147
  vertex 0.9672927921543235 0.253662480959035 -6.2763788267923575
  vertex 0.3913919269222048 0.9202240811563906 -6.655082795414598
 endloop
endfacet
facet normal -0.21789157741892504 -0.9747202604594335 -0.04943353456699939
 outer loop
  vertex 0.23535905710632068 -0.971908490670816 -6.693967498492476
  vertex 0.13063409881601662 -0.9914306492269276 -5.847430219778743
  vertex -0.5770462927512823 -0.816711439874575 -6.173216279003836
 endloop
endfacet
facet normal -0.2180255760397662 -0.9747054166383492 -0.04913449875993728
 outer loop
  vertex -0.5770462927512823 -0.816711439874575 -6.173216279003836
  vertex 0.13063409881601662 -0.9914306492269276 -5.847430219778743
  vertex -0.4196666913811199 -0.9076782844957919 -5.067005789166121
 endloop
endfacet
facet normal 0.6135042477636743 -0.7889581485286167 0.03402319570859642
 outer loop
  vertex 0.32955536686870407 -0.9441362508494385 -7.748503984724226
  vertex 0.8715697315411501 -0.49027156052670184 -6.997483095830789
  vertex 0.23535905710632068 -0.971908490670816 -6.693967498492476
 endloop
endfacet
facet normal 0.5078005867451962 -0.8604019143665746 0.04297801595662452
 outer loop
  vertex 0.7914155587937106 -0.6112785071464878 -6.044311860359728
  vertex 0.13063409881601662 -0.9914306492269276 -5.847430219778743
  vertex 0.23535905710632068 -0.971908490670816 -6.693967498492476
 endloop
endfacet
facet normal 0.5864428397929242 -0.8082355918464412 -0.05329187300370918
 outer loop
  vertex 0.23535905710632068 -0.971908490670816 -6.693967498492476
  vertex 0.8715697315411501 -0.49027156052670184 -6.997483095830789
  vertex 0.7914155587937106 -0.6112785071464878 -6.044311860359728
 endloop
endfacet
facet normal -0.21144628586791106 -0.9744731256486987 0.07544929145539374
 outer loop
  vertex -0.6093308255969972 -0.7929161021049338 -8.426628672901943
  vertex 0.18524207829918246 -0.9826929186818227 -8.650923930269839
  vertex 0.32955536686870407 -0.9441362508494385 -7.748503984724226
 endloop
endfacet
facet normal 0.6857043194934699 -0.7215124980196678 0.09606925329894236
 outer loop
  vertex 0.8009179762918557 -0.5987740769710713 -8.519117370281787
  vertex 0.9215802888121601 -0.38818780412694004 -7.798783272775706
  vertex 0.32955536686870407 -0.9441362508494385 -7.748503984724226
 endloop
endfacet
facet normal 0.536117354611133 -0.8426773009853211 -0.049730759986704606
 outer loop
  vertex 0.32955536686870407 -0.9441362508494385 -7.748503984724226
  vertex 0.18524207829918246 -0.9826929186818227 -8.650923930269839
  vertex 0.8009179762918557 -0.5987740769710713 -8.519117370281787
 endloop
endfacet
facet normal 0.6813916099500374 -0.7301750849212331 -0.05049573496807546
 outer loop
  vertex 0.9215802888121601 -0.38818780412694004 -7.798783272775706
  vertex 0.8715697315411501 -0.49027156052670184 -6.997483095830789
  vertex 0.32955536686870407 -0.9441362508494385 -7.748503984724226
 endloop
endfacet
facet normal 0.7446314551382056 0.6674347817740649 0.00740324908163958
 outer loop
  vertex 0.3913919269222048 0.9202240811563906 -6.655082795414598
  vertex 0.9542451883436456 0.29902528408648044 -7.264080206030776
  vertex 0.4084610809513764 0.9127757366122486 -7.7004271708342635
 endloop
endfacet
facet normal 0.7507695079924747 0.6602490002688145 0.020405967577370676
 outer loop
  vertex 0.3913919269222048 0.9202240811563906 -6.655082795414598
  vertex 0.9672927921543235 0.253662480959035 -6.2763788267923575
  vertex 0.9542451883436456 0.29902528408648044 -7.264080206030776
 endloop
endfacet
facet normal 0.75822452274651 0.651185261986567 -0.032455010049502006
 outer loop
  vertex 0.9542451883436456 0.29902528408648044 -7.264080206030776
  vertex 0.9733422747994132 0.22935739815472217 -8.21576135607938
  vertex 0.4084610809513764 0.9127757366122486 -7.7004271708342635
 endloop
endfacet
facet normal 0.7887017878716154 0.6125576098049833 0.05217915750683912
 outer loop
  vertex 0.9733422747994132 0.22935739815472217 -8.21576135607938
  vertex 0.5170269998631822 0.8559690890519802 -8.674547730186948
  vertex 0.4084610809513764 0.9127757366122486 -7.7004271708342635
 endloop
endfacet
facet normal -0.009865774421293508 0.9981908664333876 -0.05930986987029302
 outer loop
  vertex 0.4084610809513764 0.9127757366122486 -7.7004271708342635
  vertex 0.5170269998631822 0.8559690890519802 -8.674547730186948
  vertex -0.49050664025810736 0.871437453786962 -8.246617605438301
 endloop
endfacet
facet normal 0.9974562221570882 -0.06678942722700866 0.024904965183628426
 outer loop
  vertex 0.9542451883436456 0.29902528408648044 -7.264080206030776
  vertex 0.9215802888121601 -0.38818780412694004 -7.798783272775706
  vertex 0.9733422747994132 0.22935739815472217 -8.21576135607938
 endloop
endfacet
facet normal 0.9937392021265166 -0.11023391786957033 -0.018190148654670876
 outer loop
  vertex 0.9672927921543235 0.253662480959035 -6.2763788267923575
  vertex 0.8715697315411501 -0.49027156052670184 -6.997483095830789
  vertex 0.9542451883436456 0.29902528408648044 -7.264080206030776
 endloop
endfacet
facet normal 0.9949029786529705 -0.08698159708221669 0.05101239885041172
 outer loop
  vertex 0.9542451883436456 0.29902528408648044 -7.264080206030776
  vertex 0.8715697315411501 -0.49027156052670184 -6.997483095830789
  vertex 0.9215802888121601 -0.38818780412694004 -7.798783272775706
 endloop
endfacet
facet normal 0.9799634111985747 -0.1611648814453974 -0.11703671945481077
 outer loop
  vertex 0.9733422747994132 0.22935739815472217 -8.21576135607938
  vertex 0.9215802888121601 -0.38818780412694004 -7.798783272775706
  vertex 0.8009179762918557 -0.5987740769710713 -8.519117370281787
 endloop
endfacet
facet normal 0.9812101007247728 -0.1836360785120757 0.05919906168503083
 outer loop
  vertex 0.7914155587937106 -0.6112785071464878 -6.044311860359728
  vertex 0.8715697315411501 -0.49027156052670184 -6.997483095830789
  vertex 0.9672927921543235 0.253662480959035 -6.2763788267923575
 endloop
endfacet
facet normal 0.9862379435252092 -0.11496908064309791 -0.11881426365233738
 outer loop
  vertex 0.9617519238456302 0.2739219541753255 -2.57230199615241
  vertex 0.8984575516274315 -0.4390603921143894 -2.4077795493215293
  vertex 0.7881335024213151 -0.6155043317159603 -3.1528093392497345
 endloop
endfacet
facet normal 0.9824957605201582 0.166134860625354 0.08426914408554378
 outer loop
  vertex 0.9617519238456302 0.2739219541753255 -2.57230199615241
  vertex 0.8263953032899689 0.5630904036655929 -1.5642658196519528
  vertex 0.9717516846029124 -0.23600564288042344 -1.6835777955172624
 endloop
endfacet
facet normal 0.9919830264883143 -0.10446977315580315 -0.07110373869115341
 outer loop
  vertex 0.9717516846029124 -0.23600564288042344 -1.6835777955172624
  vertex 0.8984575516274315 -0.4390603921143894 -2.4077795493215293
  vertex 0.9617519238456302 0.2739219541753255 -2.57230199615241
 endloop
endfacet
facet normal 0.9772470401137884 0.19140707570666804 -0.09138683689821885
 outer loop
  vertex 0.9717516846029124 -0.23600564288042344 -1.6835777955172624
  vertex 0.8263953032899689 0.5630904036655929 -1.5642658196519528
  vertex 0.9976409700335125 0.06864761401965942 -0.7686427851437744
 endloop
endfacet
facet normal 0.5141721015117658 -0.8535264849272276 0.08437766028247909
 outer loop
  vertex 0.8009179762918557 -0.5987740769710713 -8.519117370281787
  vertex 0.18524207829918246 -0.9826929186818227 -8.650923930269839
  vertex 0.6101013592415804 -0.7923233755554459 -9.314195964119927
 endloop
endfacet
facet normal 0.0 0.0 1.0
 outer loop
  vertex -0.6234898018587324 0.7818314824680308 0.0
  vertex -1.0 -2.4492127076447545e-16 0.0
  vertex 3.013462495411139e-16 -1.1102230246251565e-15 0.0
 endloop
endfacet
facet normal 0.0 0.0 1.0
 outer loop
  vertex -1.0 -2.4492127076447545e-16 0.0
  vertex -0.6234898018587347 -0.7818314824680288 0.0
  vertex 3.013462495411139e-16 -1.1102230246251565e-15 0.0
 endloop
endfacet
facet normal 0.0 0.0 1.0
 outer loop
  vertex 0.22252093395631822 0.9749279121818227 0.0
  vertex -0.6234898018587324 0.7818314824680308 0.0
  vertex 3.013462495411139e-16 -1.1102230246251565e-15 0.0
 endloop
endfacet
facet normal 0.0 0.0 1.0
 outer loop
  vertex 0.9009688679024214 0.4338837391175534 0.0
  vertex 0.22252093395631822 0.9749279121818227 0.0
  vertex 3.013462495411139e-16 -1.1102230246251565e-15 0.0
 endloop
endfacet
facet normal 0.0 -0.0 1.0
 outer loop
  vertex 0.9009688679024175 -0.4338837391175616 0.0
  vertex 0.9009688679024214 0.4338837391175534 0.0
  vertex 3.013462495411139e-16 -1.1102230246251565e-15 0.0
 endloop
endfacet
facet normal 0.0 -0.0 1.0
 outer loop
  vertex 0.22252093395631198 -0.9749279121818242 0.0
  vertex 0.9009688679024175 -0.4338837391175616 0.0
  vertex 3.013462495411139e-16 -1.1102230246251565e-15 0.0
 endloop
endfacet
facet normal -0.0 0.0 1.0
 outer loop
  vertex -0.6234898018587347 -0.7818314824680288 0.0
  vertex 0.22252093395631198 -0.9749279121818242 0.0
  vertex 3.013462495411139e-16 -1.1102230246251565e-15 0.0
 endloop
endfacet
endsolid
