solid
facet normal -1.0 0.0 0.0
 outer loop
  vertex -0.05 -3.0 -0.5
  vertex -0.05 -3.0 0.0
  vertex -0.05 -2.633974596215561 -0.3660254037844384
 endloop
endfacet
facet normal -1.0 0.0 0.0
 outer loop
  vertex -0.05 -3.0 0.0
  vertex -0.05 -2.5 0.0
  vertex -0.05 -2.633974596215561 -0.3660254037844384
 endloop
endfacet
facet normal -1.0 0.0 0.0
 outer loop
  vertex -0.05 -3.0 -3.0
  vertex -0.05 -3.0 -2.5
  vertex -0.05 -2.6597093121213495 -2.6409970435746124
 endloop
endfacet
facet normal -1.0 0.0 0.0
 outer loop
  vertex -0.05 -2.5 -3.0
  vertex -0.05 -3.0 -3.0
  vertex -0.05 -2.6597093121213495 -2.6409970435746124
 endloop
endfacet
facet normal -1.0 0.0 0.0
 outer loop
  vertex -0.05 -1.5 0.0
  vertex -0.05 -1.0 0.0
  vertex -0.05 -1.3660254037844388 -0.3660254037844388
 endloop
endfacet
facet normal -1.0 0.0 -0.0
 outer loop
  vertex -0.05 -1.0 0.0
  vertex -0.05 -1.0 -0.5
  vertex -0.05 -1.3660254037844388 -0.3660254037844388
 endloop
endfacet
facet normal -1.0 0.0 -0.0
 outer loop
  vertex -0.05 -1.0 -2.5
  vertex -0.05 -1.0 -3.0
  vertex -0.05 -1.3660254037844388 -2.633974596215561
 endloop
endfacet
facet normal -1.0 0.0 0.0
 outer loop
  vertex -0.05 -1.0 -3.0
  vertex -0.05 -1.5 -3.0
  vertex -0.05 -1.3660254037844388 -2.633974596215561
 endloop
endfacet
facet normal -1.0 0.0 0.0
 outer loop
  vertex -0.05 -3.0 -2.5
  vertex -0.05 -3.0 -2.0
  vertex -0.05 -2.6191999495117653 -2.2279317830140504
 endloop
endfacet
facet normal -1.0 0.0 0.0
 outer loop
  vertex -0.05 -3.0 -2.5
  vertex -0.05 -2.6191999495117653 -2.2279317830140504
  vertex -0.05 -2.6597093121213495 -2.6409970435746124
 endloop
endfacet
facet normal -1.0 0.0 0.0
 outer loop
  vertex -0.05 -3.0 -2.0
  vertex -0.05 -3.0 -1.5
  vertex -0.05 -2.5903591903051537 -1.7454283884933282
 endloop
endfacet
facet normal -1.0 0.0 0.0
 outer loop
  vertex -0.05 -3.0 -2.0
  vertex -0.05 -2.5903591903051537 -1.7454283884933282
  vertex -0.05 -2.6191999495117653 -2.2279317830140504
 endloop
endfacet
facet normal -1.0 0.0 0.0
 outer loop
  vertex -0.05 -3.0 -1.5
  vertex -0.05 -3.0 -1.0
  vertex -0.05 -2.5724870600347267 -1.2495911788556278
 endloop
endfacet
facet normal -1.0 0.0 0.0
 outer loop
  vertex -0.05 -2.5903591903051537 -1.7454283884933282
  vertex -0.05 -3.0 -1.5
  vertex -0.05 -2.5724870600347267 -1.2495911788556278
 endloop
endfacet
facet normal -1.0 0.0 0.0
 outer loop
  vertex -0.05 -3.0 -1.0
  vertex -0.05 -3.0 -0.5
  vertex -0.05 -2.576613977472084 -0.752118684640438
 endloop
endfacet
facet normal -1.0 0.0 0.0
 outer loop
  vertex -0.05 -3.0 -1.0
  vertex -0.05 -2.576613977472084 -0.752118684640438
  vertex -0.05 -2.5724870600347267 -1.2495911788556278
 endloop
endfacet
facet normal -1.0 0.0 0.0
 outer loop
  vertex -0.05 -2.576613977472084 -0.752118684640438
  vertex -0.05 -3.0 -0.5
  vertex -0.05 -2.633974596215561 -0.3660254037844384
 endloop
endfacet
facet normal -1.0 0.0 0.0
 outer loop
  vertex -0.05 -2.5 0.0
  vertex -0.05 -2.0 0.0
  vertex -0.05 -2.213815244267306 -0.44738668711788554
 endloop
endfacet
facet normal -1.0 0.0 -0.0
 outer loop
  vertex -0.05 -2.5 0.0
  vertex -0.05 -2.213815244267306 -0.44738668711788554
  vertex -0.05 -2.633974596215561 -0.3660254037844384
 endloop
endfacet
facet normal -1.0 0.0 0.0
 outer loop
  vertex -0.05 -2.0 0.0
  vertex -0.05 -1.5 0.0
  vertex -0.05 -1.718380346833594 -0.3953531183916654
 endloop
endfacet
facet normal -1.0 0.0 -0.0
 outer loop
  vertex -0.05 -2.0 0.0
  vertex -0.05 -1.718380346833594 -0.3953531183916654
  vertex -0.05 -2.213815244267306 -0.44738668711788554
 endloop
endfacet
facet normal -1.0 0.0 0.0
 outer loop
  vertex -0.05 -1.718380346833594 -0.3953531183916654
  vertex -0.05 -1.5 0.0
  vertex -0.05 -1.3660254037844388 -0.3660254037844388
 endloop
endfacet
facet normal -1.0 0.0 -0.0
 outer loop
  vertex -0.05 -1.0 -2.0
  vertex -0.05 -1.0 -2.5
  vertex -0.05 -1.423386022527916 -2.247881315359562
 endloop
endfacet
facet normal -1.0 0.0 0.0
 outer loop
  vertex -0.05 -1.423386022527916 -2.247881315359562
  vertex -0.05 -1.0 -2.5
  vertex -0.05 -1.3660254037844388 -2.633974596215561
 endloop
endfacet
facet normal -1.0 0.0 -0.0
 outer loop
  vertex -0.05 -1.0 -1.5
  vertex -0.05 -1.0 -2.0
  vertex -0.05 -1.421182087487201 -1.772005466490909
 endloop
endfacet
facet normal -1.0 -0.0 0.0
 outer loop
  vertex -0.05 -1.0 -2.0
  vertex -0.05 -1.423386022527916 -2.247881315359562
  vertex -0.05 -1.421182087487201 -1.772005466490909
 endloop
endfacet
facet normal -1.0 0.0 -0.0
 outer loop
  vertex -0.05 -1.0 -1.0
  vertex -0.05 -1.0 -1.5
  vertex -0.05 -1.4502303079042653 -1.2480562615499804
 endloop
endfacet
facet normal -1.0 0.0 0.0
 outer loop
  vertex -0.05 -1.4502303079042653 -1.2480562615499804
  vertex -0.05 -1.0 -1.5
  vertex -0.05 -1.421182087487201 -1.772005466490909
 endloop
endfacet
facet normal -1.0 0.0 -0.0
 outer loop
  vertex -0.05 -1.0 -0.5
  vertex -0.05 -1.0 -1.0
  vertex -0.05 -1.3890925280736697 -0.7203587362195956
 endloop
endfacet
facet normal -1.0 -0.0 0.0
 outer loop
  vertex -0.05 -1.0 -1.0
  vertex -0.05 -1.4502303079042653 -1.2480562615499804
  vertex -0.05 -1.3890925280736697 -0.7203587362195956
 endloop
endfacet
facet normal -1.0 -0.0 0.0
 outer loop
  vertex -0.05 -1.0 -0.5
  vertex -0.05 -1.3890925280736697 -0.7203587362195956
  vertex -0.05 -1.3660254037844388 -0.3660254037844388
 endloop
endfacet
facet normal -1.0 0.0 0.0
 outer loop
  vertex -0.05 -2.0 -3.0
  vertex -0.05 -2.5 -3.0
  vertex -0.05 -2.2308160429065587 -2.4910983295771136
 endloop
endfacet
facet normal -1.0 0.0 0.0
 outer loop
  vertex -0.05 -2.2308160429065587 -2.4910983295771136
  vertex -0.05 -2.5 -3.0
  vertex -0.05 -2.6597093121213495 -2.6409970435746124
 endloop
endfacet
facet normal -1.0 0.0 0.0
 outer loop
  vertex -0.05 -1.5 -3.0
  vertex -0.05 -2.0 -3.0
  vertex -0.05 -1.743464119025636 -2.5675831372412468
 endloop
endfacet
facet normal -1.0 0.0 0.0
 outer loop
  vertex -0.05 -2.0 -3.0
  vertex -0.05 -2.2308160429065587 -2.4910983295771136
  vertex -0.05 -1.743464119025636 -2.5675831372412468
 endloop
endfacet
facet normal -1.0 0.0 0.0
 outer loop
  vertex -0.05 -1.5 -3.0
  vertex -0.05 -1.743464119025636 -2.5675831372412468
  vertex -0.05 -1.3660254037844388 -2.633974596215561
 endloop
endfacet
facet normal -1.0 0.0 0.0
 outer loop
  vertex -0.05 -2.5903591903051537 -1.7454283884933282
  vertex -0.05 -2.5724870600347267 -1.2495911788556278
  vertex -0.05 -2.156267530504403 -1.5536311703886256
 endloop
endfacet
facet normal -1.0 0.0 0.0
 outer loop
  vertex -0.05 -2.5903591903051537 -1.7454283884933282
  vertex -0.05 -2.156267530504403 -1.5536311703886256
  vertex -0.05 -2.2925336234024636 -2.003617934294623
 endloop
endfacet
facet normal -1.0 0.0 0.0
 outer loop
  vertex -0.05 -2.6191999495117653 -2.2279317830140504
  vertex -0.05 -2.5903591903051537 -1.7454283884933282
  vertex -0.05 -2.2925336234024636 -2.003617934294623
 endloop
endfacet
facet normal -1.0 0.0 -0.0
 outer loop
  vertex -0.05 -1.4502303079042653 -1.2480562615499804
  vertex -0.05 -1.421182087487201 -1.772005466490909
  vertex -0.05 -1.751296591226579 -1.5646732741745666
 endloop
endfacet
facet normal -1.0 0.0 0.0
 outer loop
  vertex -0.05 -1.3890925280736697 -0.7203587362195956
  vertex -0.05 -1.4502303079042653 -1.2480562615499804
  vertex -0.05 -1.7999191099197187 -0.8127176335914883
 endloop
endfacet
facet normal -1.0 -0.0 0.0
 outer loop
  vertex -0.05 -1.4502303079042653 -1.2480562615499804
  vertex -0.05 -1.8627776264525882 -1.249673472443317
  vertex -0.05 -1.7999191099197187 -0.8127176335914883
 endloop
endfacet
facet normal -1.0 0.0 0.0
 outer loop
  vertex -0.05 -1.8627776264525882 -1.249673472443317
  vertex -0.05 -1.4502303079042653 -1.2480562615499804
  vertex -0.05 -1.751296591226579 -1.5646732741745666
 endloop
endfacet
facet normal -1.0 0.0 0.0
 outer loop
  vertex -0.05 -2.5724870600347267 -1.2495911788556278
  vertex -0.05 -2.576613977472084 -0.752118684640438
  vertex -0.05 -2.189425155980052 -0.997214019537215
 endloop
endfacet
facet normal -1.0 0.0 0.0
 outer loop
  vertex -0.05 -2.189425155980052 -0.997214019537215
  vertex -0.05 -2.576613977472084 -0.752118684640438
  vertex -0.05 -2.213815244267306 -0.44738668711788554
 endloop
endfacet
facet normal -1.0 -0.0 0.0
 outer loop
  vertex -0.05 -2.213815244267306 -0.44738668711788554
  vertex -0.05 -2.576613977472084 -0.752118684640438
  vertex -0.05 -2.633974596215561 -0.3660254037844384
 endloop
endfacet
facet normal -1.0 0.0 0.0
 outer loop
  vertex -0.05 -1.421182087487201 -1.772005466490909
  vertex -0.05 -1.423386022527916 -2.247881315359562
  vertex -0.05 -1.8660254037844384 -2.0
 endloop
endfacet
facet normal -1.0 0.0 0.0
 outer loop
  vertex -0.05 -1.8660254037844384 -2.0
  vertex -0.05 -1.423386022527916 -2.247881315359562
  vertex -0.05 -1.743464119025636 -2.5675831372412468
 endloop
endfacet
facet normal -1.0 0.0 0.0
 outer loop
  vertex -0.05 -1.743464119025636 -2.5675831372412468
  vertex -0.05 -1.423386022527916 -2.247881315359562
  vertex -0.05 -1.3660254037844388 -2.633974596215561
 endloop
endfacet
facet normal -1.0 0.0 0.0
 outer loop
  vertex -0.05 -1.3890925280736697 -0.7203587362195956
  vertex -0.05 -1.718380346833594 -0.3953531183916654
  vertex -0.05 -1.3660254037844388 -0.3660254037844388
 endloop
endfacet
facet normal -1.0 0.0 -0.0
 outer loop
  vertex -0.05 -1.718380346833594 -0.3953531183916654
  vertex -0.05 -1.3890925280736697 -0.7203587362195956
  vertex -0.05 -1.7999191099197187 -0.8127176335914883
 endloop
endfacet
facet normal -1.0 0.0 0.0
 outer loop
  vertex -0.05 -2.213815244267306 -0.44738668711788554
  vertex -0.05 -1.718380346833594 -0.3953531183916654
  vertex -0.05 -1.7999191099197187 -0.8127176335914883
 endloop
endfacet
facet normal -1.0 0.0 0.0
 outer loop
  vertex -0.05 -2.2308160429065587 -2.4910983295771136
  vertex -0.05 -1.8660254037844384 -2.0
  vertex -0.05 -1.743464119025636 -2.5675831372412468
 endloop
endfacet
facet normal -1.0 0.0 0.0
 outer loop
  vertex -0.05 -1.8660254037844384 -2.0
  vertex -0.05 -2.2308160429065587 -2.4910983295771136
  vertex -0.05 -2.2925336234024636 -2.003617934294623
 endloop
endfacet
facet normal -1.0 0.0 0.0
 outer loop
  vertex -0.05 -2.2308160429065587 -2.4910983295771136
  vertex -0.05 -2.6191999495117653 -2.2279317830140504
  vertex -0.05 -2.2925336234024636 -2.003617934294623
 endloop
endfacet
facet normal -1.0 0.0 -0.0
 outer loop
  vertex -0.05 -2.6191999495117653 -2.2279317830140504
  vertex -0.05 -2.2308160429065587 -2.4910983295771136
  vertex -0.05 -2.6597093121213495 -2.6409970435746124
 endloop
endfacet
facet normal -1.0 0.0 0.0
 outer loop
  vertex -0.05 -2.5724870600347267 -1.2495911788556278
  vertex -0.05 -2.189425155980052 -0.997214019537215
  vertex -0.05 -2.156267530504403 -1.5536311703886256
 endloop
endfacet
facet normal -1.0 0.0 0.0
 outer loop
  vertex -0.05 -2.156267530504403 -1.5536311703886256
  vertex -0.05 -2.189425155980052 -0.997214019537215
  vertex -0.05 -1.8627776264525882 -1.249673472443317
 endloop
endfacet
facet normal -1.0 0.0 0.0
 outer loop
  vertex -0.05 -2.189425155980052 -0.997214019537215
  vertex -0.05 -2.213815244267306 -0.44738668711788554
  vertex -0.05 -1.7999191099197187 -0.8127176335914883
 endloop
endfacet
facet normal -1.0 0.0 0.0
 outer loop
  vertex -0.05 -1.8627776264525882 -1.249673472443317
  vertex -0.05 -2.189425155980052 -0.997214019537215
  vertex -0.05 -1.7999191099197187 -0.8127176335914883
 endloop
endfacet
facet normal -1.0 -0.0 0.0
 outer loop
  vertex -0.05 -1.421182087487201 -1.772005466490909
  vertex -0.05 -1.8660254037844384 -2.0
  vertex -0.05 -1.751296591226579 -1.5646732741745666
 endloop
endfacet
facet normal -1.0 0.0 -0.0
 outer loop
  vertex -0.05 -2.156267530504403 -1.5536311703886256
  vertex -0.05 -1.8660254037844384 -2.0
  vertex -0.05 -2.2925336234024636 -2.003617934294623
 endloop
endfacet
facet normal -1.0 0.0 0.0
 outer loop
  vertex -0.05 -1.8660254037844384 -2.0
  vertex -0.05 -2.156267530504403 -1.5536311703886256
  vertex -0.05 -1.751296591226579 -1.5646732741745666
 endloop
endfacet
facet normal -1.0 0.0 0.0
 outer loop
  vertex -0.05 -2.156267530504403 -1.5536311703886256
  vertex -0.05 -1.8627776264525882 -1.249673472443317
  vertex -0.05 -1.751296591226579 -1.5646732741745666
 endloop
endfacet
facet normal 1.0 0.0 0.0
 outer loop
  vertex 0.05 -3.0 -0.5
  vertex 0.05 -2.633974596215561 -0.3660254037844384
  vertex 0.05 -3.0 0.0
 endloop
endfacet
facet normal 1.0 -0.0 0.0
 outer loop
  vertex 0.05 -3.0 0.0
  vertex 0.05 -2.633974596215561 -0.3660254037844384
  vertex 0.05 -2.5 0.0
 endloop
endfacet
facet normal 1.0 0.0 0.0
 outer loop
  vertex 0.05 -3.0 -3.0
  vertex 0.05 -2.6597093121213495 -2.6409970435746124
  vertex 0.05 -3.0 -2.5
 endloop
endfacet
facet normal 1.0 0.0 0.0
 outer loop
  vertex 0.05 -2.5 -3.0
  vertex 0.05 -2.6597093121213495 -2.6409970435746124
  vertex 0.05 -3.0 -3.0
 endloop
endfacet
facet normal 1.0 -0.0 0.0
 outer loop
  vertex 0.05 -1.5 0.0
  vertex 0.05 -1.3660254037844388 -0.3660254037844388
  vertex 0.05 -1.0 0.0
 endloop
endfacet
facet normal 1.0 0.0 0.0
 outer loop
  vertex 0.05 -1.0 0.0
  vertex 0.05 -1.3660254037844388 -0.3660254037844388
  vertex 0.05 -1.0 -0.5
 endloop
endfacet
facet normal 1.0 0.0 0.0
 outer loop
  vertex 0.05 -1.0 -2.5
  vertex 0.05 -1.3660254037844388 -2.633974596215561
  vertex 0.05 -1.0 -3.0
 endloop
endfacet
facet normal 1.0 0.0 0.0
 outer loop
  vertex 0.05 -1.0 -3.0
  vertex 0.05 -1.3660254037844388 -2.633974596215561
  vertex 0.05 -1.5 -3.0
 endloop
endfacet
facet normal 1.0 0.0 0.0
 outer loop
  vertex 0.05 -3.0 -2.5
  vertex 0.05 -2.6191999495117653 -2.2279317830140504
  vertex 0.05 -3.0 -2.0
 endloop
endfacet
facet normal 1.0 -0.0 0.0
 outer loop
  vertex 0.05 -3.0 -2.5
  vertex 0.05 -2.6597093121213495 -2.6409970435746124
  vertex 0.05 -2.6191999495117653 -2.2279317830140504
 endloop
endfacet
facet normal 1.0 0.0 0.0
 outer loop
  vertex 0.05 -3.0 -2.0
  vertex 0.05 -2.5903591903051537 -1.7454283884933282
  vertex 0.05 -3.0 -1.5
 endloop
endfacet
facet normal 1.0 -0.0 0.0
 outer loop
  vertex 0.05 -3.0 -2.0
  vertex 0.05 -2.6191999495117653 -2.2279317830140504
  vertex 0.05 -2.5903591903051537 -1.7454283884933282
 endloop
endfacet
facet normal 1.0 0.0 0.0
 outer loop
  vertex 0.05 -3.0 -1.5
  vertex 0.05 -2.5724870600347267 -1.2495911788556278
  vertex 0.05 -3.0 -1.0
 endloop
endfacet
facet normal 1.0 0.0 -0.0
 outer loop
  vertex 0.05 -2.5903591903051537 -1.7454283884933282
  vertex 0.05 -2.5724870600347267 -1.2495911788556278
  vertex 0.05 -3.0 -1.5
 endloop
endfacet
facet normal 1.0 0.0 0.0
 outer loop
  vertex 0.05 -3.0 -1.0
  vertex 0.05 -2.576613977472084 -0.752118684640438
  vertex 0.05 -3.0 -0.5
 endloop
endfacet
facet normal 1.0 -0.0 0.0
 outer loop
  vertex 0.05 -3.0 -1.0
  vertex 0.05 -2.5724870600347267 -1.2495911788556278
  vertex 0.05 -2.576613977472084 -0.752118684640438
 endloop
endfacet
facet normal 1.0 0.0 0.0
 outer loop
  vertex 0.05 -2.576613977472084 -0.752118684640438
  vertex 0.05 -2.633974596215561 -0.3660254037844384
  vertex 0.05 -3.0 -0.5
 endloop
endfacet
facet normal 1.0 -0.0 0.0
 outer loop
  vertex 0.05 -2.5 0.0
  vertex 0.05 -2.213815244267306 -0.44738668711788554
  vertex 0.05 -2.0 0.0
 endloop
endfacet
facet normal 1.0 0.0 0.0
 outer loop
  vertex 0.05 -2.5 0.0
  vertex 0.05 -2.633974596215561 -0.3660254037844384
  vertex 0.05 -2.213815244267306 -0.44738668711788554
 endloop
endfacet
facet normal 1.0 -0.0 0.0
 outer loop
  vertex 0.05 -2.0 0.0
  vertex 0.05 -1.718380346833594 -0.3953531183916654
  vertex 0.05 -1.5 0.0
 endloop
endfacet
facet normal 1.0 0.0 0.0
 outer loop
  vertex 0.05 -2.0 0.0
  vertex 0.05 -2.213815244267306 -0.44738668711788554
  vertex 0.05 -1.718380346833594 -0.3953531183916654
 endloop
endfacet
facet normal 1.0 0.0 0.0
 outer loop
  vertex 0.05 -1.718380346833594 -0.3953531183916654
  vertex 0.05 -1.3660254037844388 -0.3660254037844388
  vertex 0.05 -1.5 0.0
 endloop
endfacet
facet normal 1.0 0.0 0.0
 outer loop
  vertex 0.05 -1.0 -2.0
  vertex 0.05 -1.423386022527916 -2.247881315359562
  vertex 0.05 -1.0 -2.5
 endloop
endfacet
facet normal 1.0 0.0 0.0
 outer loop
  vertex 0.05 -1.423386022527916 -2.247881315359562
  vertex 0.05 -1.3660254037844388 -2.633974596215561
  vertex 0.05 -1.0 -2.5
 endloop
endfacet
facet normal 1.0 0.0 0.0
 outer loop
  vertex 0.05 -1.0 -1.5
  vertex 0.05 -1.421182087487201 -1.772005466490909
  vertex 0.05 -1.0 -2.0
 endloop
endfacet
facet normal 1.0 0.0 0.0
 outer loop
  vertex 0.05 -1.0 -2.0
  vertex 0.05 -1.421182087487201 -1.772005466490909
  vertex 0.05 -1.423386022527916 -2.247881315359562
 endloop
endfacet
facet normal 1.0 0.0 0.0
 outer loop
  vertex 0.05 -1.0 -1.0
  vertex 0.05 -1.4502303079042653 -1.2480562615499804
  vertex 0.05 -1.0 -1.5
 endloop
endfacet
facet normal 1.0 0.0 0.0
 outer loop
  vertex 0.05 -1.4502303079042653 -1.2480562615499804
  vertex 0.05 -1.421182087487201 -1.772005466490909
  vertex 0.05 -1.0 -1.5
 endloop
endfacet
facet normal 1.0 0.0 0.0
 outer loop
  vertex 0.05 -1.0 -0.5
  vertex 0.05 -1.3890925280736697 -0.7203587362195956
  vertex 0.05 -1.0 -1.0
 endloop
endfacet
facet normal 1.0 0.0 0.0
 outer loop
  vertex 0.05 -1.0 -1.0
  vertex 0.05 -1.3890925280736697 -0.7203587362195956
  vertex 0.05 -1.4502303079042653 -1.2480562615499804
 endloop
endfacet
facet normal 1.0 0.0 0.0
 outer loop
  vertex 0.05 -1.0 -0.5
  vertex 0.05 -1.3660254037844388 -0.3660254037844388
  vertex 0.05 -1.3890925280736697 -0.7203587362195956
 endloop
endfacet
facet normal 1.0 0.0 0.0
 outer loop
  vertex 0.05 -2.0 -3.0
  vertex 0.05 -2.2308160429065587 -2.4910983295771136
  vertex 0.05 -2.5 -3.0
 endloop
endfacet
facet normal 1.0 0.0 0.0
 outer loop
  vertex 0.05 -2.2308160429065587 -2.4910983295771136
  vertex 0.05 -2.6597093121213495 -2.6409970435746124
  vertex 0.05 -2.5 -3.0
 endloop
endfacet
facet normal 1.0 0.0 0.0
 outer loop
  vertex 0.05 -1.5 -3.0
  vertex 0.05 -1.743464119025636 -2.5675831372412468
  vertex 0.05 -2.0 -3.0
 endloop
endfacet
facet normal 1.0 0.0 -0.0
 outer loop
  vertex 0.05 -2.0 -3.0
  vertex 0.05 -1.743464119025636 -2.5675831372412468
  vertex 0.05 -2.2308160429065587 -2.4910983295771136
 endloop
endfacet
facet normal 1.0 0.0 -0.0
 outer loop
  vertex 0.05 -1.5 -3.0
  vertex 0.05 -1.3660254037844388 -2.633974596215561
  vertex 0.05 -1.743464119025636 -2.5675831372412468
 endloop
endfacet
facet normal 1.0 0.0 0.0
 outer loop
  vertex 0.05 -2.5903591903051537 -1.7454283884933282
  vertex 0.05 -2.156267530504403 -1.5536311703886256
  vertex 0.05 -2.5724870600347267 -1.2495911788556278
 endloop
endfacet
facet normal 1.0 -0.0 0.0
 outer loop
  vertex 0.05 -2.5903591903051537 -1.7454283884933282
  vertex 0.05 -2.2925336234024636 -2.003617934294623
  vertex 0.05 -2.156267530504403 -1.5536311703886256
 endloop
endfacet
facet normal 1.0 0.0 0.0
 outer loop
  vertex 0.05 -2.6191999495117653 -2.2279317830140504
  vertex 0.05 -2.2925336234024636 -2.003617934294623
  vertex 0.05 -2.5903591903051537 -1.7454283884933282
 endloop
endfacet
facet normal 1.0 0.0 0.0
 outer loop
  vertex 0.05 -1.4502303079042653 -1.2480562615499804
  vertex 0.05 -1.751296591226579 -1.5646732741745666
  vertex 0.05 -1.421182087487201 -1.772005466490909
 endloop
endfacet
facet normal 1.0 0.0 0.0
 outer loop
  vertex 0.05 -1.3890925280736697 -0.7203587362195956
  vertex 0.05 -1.7999191099197187 -0.8127176335914883
  vertex 0.05 -1.4502303079042653 -1.2480562615499804
 endloop
endfacet
facet normal 1.0 0.0 0.0
 outer loop
  vertex 0.05 -1.4502303079042653 -1.2480562615499804
  vertex 0.05 -1.7999191099197187 -0.8127176335914883
  vertex 0.05 -1.8627776264525882 -1.249673472443317
 endloop
endfacet
facet normal 1.0 -0.0 0.0
 outer loop
  vertex 0.05 -1.8627776264525882 -1.249673472443317
  vertex 0.05 -1.751296591226579 -1.5646732741745666
  vertex 0.05 -1.4502303079042653 -1.2480562615499804
 endloop
endfacet
facet normal 1.0 0.0 -0.0
 outer loop
  vertex 0.05 -2.5724870600347267 -1.2495911788556278
  vertex 0.05 -2.189425155980052 -0.997214019537215
  vertex 0.05 -2.576613977472084 -0.752118684640438
 endloop
endfacet
facet normal 1.0 0.0 0.0
 outer loop
  vertex 0.05 -2.189425155980052 -0.997214019537215
  vertex 0.05 -2.213815244267306 -0.44738668711788554
  vertex 0.05 -2.576613977472084 -0.752118684640438
 endloop
endfacet
facet normal 1.0 0.0 0.0
 outer loop
  vertex 0.05 -2.213815244267306 -0.44738668711788554
  vertex 0.05 -2.633974596215561 -0.3660254037844384
  vertex 0.05 -2.576613977472084 -0.752118684640438
 endloop
endfacet
facet normal 1.0 0.0 0.0
 outer loop
  vertex 0.05 -1.421182087487201 -1.772005466490909
  vertex 0.05 -1.8660254037844384 -2.0
  vertex 0.05 -1.423386022527916 -2.247881315359562
 endloop
endfacet
facet normal 1.0 0.0 0.0
 outer loop
  vertex 0.05 -1.8660254037844384 -2.0
  vertex 0.05 -1.743464119025636 -2.5675831372412468
  vertex 0.05 -1.423386022527916 -2.247881315359562
 endloop
endfacet
facet normal 1.0 -0.0 0.0
 outer loop
  vertex 0.05 -1.743464119025636 -2.5675831372412468
  vertex 0.05 -1.3660254037844388 -2.633974596215561
  vertex 0.05 -1.423386022527916 -2.247881315359562
 endloop
endfacet
facet normal 1.0 0.0 -0.0
 outer loop
  vertex 0.05 -1.3890925280736697 -0.7203587362195956
  vertex 0.05 -1.3660254037844388 -0.3660254037844388
  vertex 0.05 -1.718380346833594 -0.3953531183916654
 endloop
endfacet
facet normal 1.0 0.0 0.0
 outer loop
  vertex 0.05 -1.718380346833594 -0.3953531183916654
  vertex 0.05 -1.7999191099197187 -0.8127176335914883
  vertex 0.05 -1.3890925280736697 -0.7203587362195956
 endloop
endfacet
facet normal 1.0 -0.0 0.0
 outer loop
  vertex 0.05 -2.213815244267306 -0.44738668711788554
  vertex 0.05 -1.7999191099197187 -0.8127176335914883
  vertex 0.05 -1.718380346833594 -0.3953531183916654
 endloop
endfacet
facet normal 1.0 -0.0 0.0
 outer loop
  vertex 0.05 -2.2308160429065587 -2.4910983295771136
  vertex 0.05 -1.743464119025636 -2.5675831372412468
  vertex 0.05 -1.8660254037844384 -2.0
 endloop
endfacet
facet normal 1.0 0.0 0.0
 outer loop
  vertex 0.05 -1.8660254037844384 -2.0
  vertex 0.05 -2.2925336234024636 -2.003617934294623
  vertex 0.05 -2.2308160429065587 -2.4910983295771136
 endloop
endfacet
facet normal 1.0 0.0 0.0
 outer loop
  vertex 0.05 -2.2308160429065587 -2.4910983295771136
  vertex 0.05 -2.2925336234024636 -2.003617934294623
  vertex 0.05 -2.6191999495117653 -2.2279317830140504
 endloop
endfacet
facet normal 1.0 0.0 0.0
 outer loop
  vertex 0.05 -2.6191999495117653 -2.2279317830140504
  vertex 0.05 -2.6597093121213495 -2.6409970435746124
  vertex 0.05 -2.2308160429065587 -2.4910983295771136
 endloop
endfacet
facet normal 1.0 -0.0 0.0
 outer loop
  vertex 0.05 -2.5724870600347267 -1.2495911788556278
  vertex 0.05 -2.156267530504403 -1.5536311703886256
  vertex 0.05 -2.189425155980052 -0.997214019537215
 endloop
endfacet
facet normal 1.0 0.0 -0.0
 outer loop
  vertex 0.05 -2.156267530504403 -1.5536311703886256
  vertex 0.05 -1.8627776264525882 -1.249673472443317
  vertex 0.05 -2.189425155980052 -0.997214019537215
 endloop
endfacet
facet normal 1.0 0.0 -0.0
 outer loop
  vertex 0.05 -2.189425155980052 -0.997214019537215
  vertex 0.05 -1.7999191099197187 -0.8127176335914883
  vertex 0.05 -2.213815244267306 -0.44738668711788554
 endloop
endfacet
facet normal 1.0 0.0 -0.0
 outer loop
  vertex 0.05 -1.8627776264525882 -1.249673472443317
  vertex 0.05 -1.7999191099197187 -0.8127176335914883
  vertex 0.05 -2.189425155980052 -0.997214019537215
 endloop
endfacet
facet normal 1.0 0.0 0.0
 outer loop
  vertex 0.05 -1.421182087487201 -1.772005466490909
  vertex 0.05 -1.751296591226579 -1.5646732741745666
  vertex 0.05 -1.8660254037844384 -2.0
 endloop
endfacet
facet normal 1.0 0.0 0.0
 outer loop
  vertex 0.05 -2.156267530504403 -1.5536311703886256
  vertex 0.05 -2.2925336234024636 -2.003617934294623
  vertex 0.05 -1.8660254037844384 -2.0
 endloop
endfacet
facet normal 1.0 0.0 -0.0
 outer loop
  vertex 0.05 -1.8660254037844384 -2.0
  vertex 0.05 -1.751296591226579 -1.5646732741745666
  vertex 0.05 -2.156267530504403 -1.5536311703886256
 endloop
endfacet
facet normal 1.0 -0.0 0.0
 outer loop
  vertex 0.05 -2.156267530504403 -1.5536311703886256
  vertex 0.05 -1.751296591226579 -1.5646732741745666
  vertex 0.05 -1.8627776264525882 -1.249673472443317
 endloop
endfacet
facet normal 0.0 -1.0 0.0
 outer loop
  vertex -0.05 -3.0 0.0
  vertex 0.05 -3.0 -0.5
  vertex 0.05 -3.0 0.0
 endloop
endfacet
facet normal 0.0 -1.0 0.0
 outer loop
  vertex 0.05 -3.0 -0.5
  vertex -0.05 -3.0 0.0
  vertex -0.05 -3.0 -0.5
 endloop
endfacet
facet normal 0.0 -1.0 0.0
 outer loop
  vertex -0.05 -3.0 -3.0
  vertex 0.05 -3.0 -3.0
  vertex -0.05 -3.0 -2.5
 endloop
endfacet
facet normal 0.0 -1.0 0.0
 outer loop
  vertex -0.05 -3.0 -2.5
  vertex 0.05 -3.0 -3.0
  vertex 0.05 -3.0 -2.5
 endloop
endfacet
facet normal 0.0 -1.0 0.0
 outer loop
  vertex -0.05 -3.0 -2.0
  vertex -0.05 -3.0 -2.5
  vertex 0.05 -3.0 -2.5
 endloop
endfacet
facet normal 0.0 -1.0 0.0
 outer loop
  vertex -0.05 -3.0 -2.0
  vertex 0.05 -3.0 -1.5
  vertex -0.05 -3.0 -1.5
 endloop
endfacet
facet normal 0.0 -1.0 0.0
 outer loop
  vertex -0.05 -3.0 -2.0
  vertex 0.05 -3.0 -2.5
  vertex 0.05 -3.0 -2.0
 endloop
endfacet
facet normal 0.0 -1.0 -0.0
 outer loop
  vertex 0.05 -3.0 -1.5
  vertex -0.05 -3.0 -2.0
  vertex 0.05 -3.0 -2.0
 endloop
endfacet
facet normal 0.0 -1.0 0.0
 outer loop
  vertex -0.05 -3.0 -1.5
  vertex 0.05 -3.0 -1.0
  vertex -0.05 -3.0 -1.0
 endloop
endfacet
facet normal 0.0 -1.0 0.0
 outer loop
  vertex 0.05 -3.0 -1.5
  vertex 0.05 -3.0 -1.0
  vertex -0.05 -3.0 -1.5
 endloop
endfacet
facet normal 0.0 -1.0 0.0
 outer loop
  vertex -0.05 -3.0 -1.0
  vertex 0.05 -3.0 -0.5
  vertex -0.05 -3.0 -0.5
 endloop
endfacet
facet normal 0.0 -1.0 0.0
 outer loop
  vertex 0.05 -3.0 -1.0
  vertex 0.05 -3.0 -0.5
  vertex -0.05 -3.0 -1.0
 endloop
endfacet
facet normal -0.0 1.0 0.0
 outer loop
  vertex -0.05 -1.0 0.0
  vertex 0.05 -1.0 0.0
  vertex 0.05 -1.0 -0.5
 endloop
endfacet
facet normal 0.0 1.0 0.0
 outer loop
  vertex -0.05 -1.0 -0.5
  vertex -0.05 -1.0 0.0
  vertex 0.05 -1.0 -0.5
 endloop
endfacet
facet normal 0.0 1.0 0.0
 outer loop
  vertex 0.05 -1.0 -3.0
  vertex -0.05 -1.0 -3.0
  vertex -0.05 -1.0 -2.5
 endloop
endfacet
facet normal -0.0 1.0 0.0
 outer loop
  vertex -0.05 -1.0 -2.5
  vertex 0.05 -1.0 -2.5
  vertex 0.05 -1.0 -3.0
 endloop
endfacet
facet normal 0.0 1.0 0.0
 outer loop
  vertex -0.05 -1.0 -2.5
  vertex -0.05 -1.0 -2.0
  vertex 0.05 -1.0 -2.0
 endloop
endfacet
facet normal 0.0 1.0 0.0
 outer loop
  vertex 0.05 -1.0 -2.0
  vertex 0.05 -1.0 -2.5
  vertex -0.05 -1.0 -2.5
 endloop
endfacet
facet normal 0.0 1.0 0.0
 outer loop
  vertex -0.05 -1.0 -2.0
  vertex -0.05 -1.0 -1.5
  vertex 0.05 -1.0 -2.0
 endloop
endfacet
facet normal 0.0 1.0 0.0
 outer loop
  vertex -0.05 -1.0 -1.0
  vertex 0.05 -1.0 -1.5
  vertex -0.05 -1.0 -1.5
 endloop
endfacet
facet normal -0.0 1.0 0.0
 outer loop
  vertex -0.05 -1.0 -1.5
  vertex 0.05 -1.0 -1.5
  vertex 0.05 -1.0 -2.0
 endloop
endfacet
facet normal 0.0 1.0 0.0
 outer loop
  vertex 0.05 -1.0 -0.5
  vertex -0.05 -1.0 -1.0
  vertex -0.05 -1.0 -0.5
 endloop
endfacet
facet normal -0.0 1.0 0.0
 outer loop
  vertex -0.05 -1.0 -1.0
  vertex 0.05 -1.0 -1.0
  vertex 0.05 -1.0 -1.5
 endloop
endfacet
facet normal 0.0 1.0 0.0
 outer loop
  vertex 0.05 -1.0 -0.5
  vertex 0.05 -1.0 -1.0
  vertex -0.05 -1.0 -1.0
 endloop
endfacet
facet normal 0.0 0.0 -1.0
 outer loop
  vertex -0.05 -2.5 -3.0
  vertex 0.05 -3.0 -3.0
  vertex -0.05 -3.0 -3.0
 endloop
endfacet
facet normal -0.0 0.0 -1.0
 outer loop
  vertex 0.05 -1.0 -3.0
  vertex -0.05 -1.5 -3.0
  vertex -0.05 -1.0 -3.0
 endloop
endfacet
facet normal -0.0 -0.0 -1.0
 outer loop
  vertex 0.05 -2.5 -3.0
  vertex 0.05 -3.0 -3.0
  vertex -0.05 -2.5 -3.0
 endloop
endfacet
facet normal 0.0 -0.0 -1.0
 outer loop
  vertex 0.05 -1.0 -3.0
  vertex 0.05 -1.5 -3.0
  vertex -0.05 -1.5 -3.0
 endloop
endfacet
facet normal 0.0 0.0 -1.0
 outer loop
  vertex -0.05 -2.0 -3.0
  vertex 0.05 -2.5 -3.0
  vertex -0.05 -2.5 -3.0
 endloop
endfacet
facet normal 0.0 0.0 -1.0
 outer loop
  vertex -0.05 -1.5 -3.0
  vertex 0.05 -2.0 -3.0
  vertex -0.05 -2.0 -3.0
 endloop
endfacet
facet normal -0.0 -0.0 -1.0
 outer loop
  vertex 0.05 -2.0 -3.0
  vertex 0.05 -2.5 -3.0
  vertex -0.05 -2.0 -3.0
 endloop
endfacet
facet normal -0.0 -0.0 -1.0
 outer loop
  vertex 0.05 -1.5 -3.0
  vertex 0.05 -2.0 -3.0
  vertex -0.05 -1.5 -3.0
 endloop
endfacet
facet normal 0.0 0.0 1.0
 outer loop
  vertex -0.05 -2.5 0.0
  vertex -0.05 -3.0 0.0
  vertex 0.05 -3.0 0.0
 endloop
endfacet
facet normal 0.0 0.0 1.0
 outer loop
  vertex 0.05 -1.0 0.0
  vertex -0.05 -1.0 0.0
  vertex -0.05 -1.5 0.0
 endloop
endfacet
facet normal 0.0 0.0 1.0
 outer loop
  vertex 0.05 -2.5 0.0
  vertex -0.05 -2.5 0.0
  vertex 0.05 -3.0 0.0
 endloop
endfacet
facet normal 0.0 0.0 1.0
 outer loop
  vertex 0.05 -1.0 0.0
  vertex -0.05 -1.5 0.0
  vertex 0.05 -1.5 0.0
 endloop
endfacet
facet normal 0.0 0.0 1.0
 outer loop
  vertex -0.05 -2.0 0.0
  vertex -0.05 -2.5 0.0
  vertex 0.05 -2.5 0.0
 endloop
endfacet
facet normal 0.0 0.0 1.0
 outer loop
  vertex 0.05 -1.5 0.0
  vertex -0.05 -1.5 0.0
  vertex -0.05 -2.0 0.0
 endloop
endfacet
facet normal 0.0 0.0 1.0
 outer loop
  vertex 0.05 -2.0 0.0
  vertex -0.05 -2.0 0.0
  vertex 0.05 -2.5 0.0
 endloop
endfacet
facet normal 0.0 0.0 1.0
 outer loop
  vertex 0.05 -1.5 0.0
  vertex -0.05 -2.0 0.0
  vertex 0.05 -2.0 0.0
 endloop
endfacet
endsolid
