solid
facet normal -1.0 0.0 0.0
 outer loop
  vertex 0.0 1.0 -0.5
  vertex 0.0 1.0 0.0
  vertex 0.0 1.3660254037844386 -0.3660254037844388
 endloop
endfacet
facet normal -1.0 0.0 0.0
 outer loop
  vertex 0.0 1.0 0.0
  vertex 0.0 1.5 0.0
  vertex 0.0 1.3660254037844386 -0.3660254037844388
 endloop
endfacet
facet normal -1.0 0.0 0.0
 outer loop
  vertex 0.0 1.0 -4.0
  vertex 0.0 1.0 -3.5
  vertex 0.0 1.3660254037844388 -3.6339745962155616
 endloop
endfacet
facet normal -1.0 0.0 0.0
 outer loop
  vertex 0.0 1.5 -4.0
  vertex 0.0 1.0 -4.0
  vertex 0.0 1.3660254037844388 -3.6339745962155616
 endloop
endfacet
facet normal -1.0 0.0 0.0
 outer loop
  vertex 0.0 4.5 0.0
  vertex 0.0 5.0 0.0
  vertex 0.0 4.633974596215561 -0.3660254037844388
 endloop
endfacet
facet normal -1.0 0.0 -0.0
 outer loop
  vertex 0.0 5.0 0.0
  vertex 0.0 5.0 -0.5
  vertex 0.0 4.633974596215561 -0.3660254037844388
 endloop
endfacet
facet normal -1.0 0.0 -0.0
 outer loop
  vertex 0.0 5.0 -3.5
  vertex 0.0 5.0 -4.0
  vertex 0.0 4.633974596215561 -3.633974596215561
 endloop
endfacet
facet normal -1.0 0.0 0.0
 outer loop
  vertex 0.0 5.0 -4.0
  vertex 0.0 4.5 -4.0
  vertex 0.0 4.633974596215561 -3.633974596215561
 endloop
endfacet
facet normal -1.0 0.0 0.0
 outer loop
  vertex 0.0 1.0 -3.5
  vertex 0.0 1.0 -3.0
  vertex 0.0 1.4330127018922192 -3.25
 endloop
endfacet
facet normal -1.0 0.0 0.0
 outer loop
  vertex 0.0 1.0 -3.5
  vertex 0.0 1.4330127018922192 -3.25
  vertex 0.0 1.3660254037844388 -3.6339745962155616
 endloop
endfacet
facet normal -1.0 0.0 0.0
 outer loop
  vertex 0.0 1.0 -3.0
  vertex 0.0 1.0 -2.5
  vertex 0.0 1.4330127018922194 -2.75
 endloop
endfacet
facet normal -1.0 0.0 0.0
 outer loop
  vertex 0.0 1.4330127018922192 -3.25
  vertex 0.0 1.0 -3.0
  vertex 0.0 1.4330127018922194 -2.75
 endloop
endfacet
facet normal -1.0 0.0 0.0
 outer loop
  vertex 0.0 1.0 -2.5
  vertex 0.0 1.0 -2.0
  vertex 0.0 1.4330127018922192 -2.25
 endloop
endfacet
facet normal -1.0 0.0 0.0
 outer loop
  vertex 0.0 1.0 -2.5
  vertex 0.0 1.4330127018922192 -2.25
  vertex 0.0 1.4330127018922194 -2.75
 endloop
endfacet
facet normal -1.0 0.0 0.0
 outer loop
  vertex 0.0 1.0 -2.0
  vertex 0.0 1.0 -1.5
  vertex 0.0 1.4330127018922192 -1.75
 endloop
endfacet
facet normal -1.0 0.0 0.0
 outer loop
  vertex 0.0 1.4330127018922192 -2.25
  vertex 0.0 1.0 -2.0
  vertex 0.0 1.4330127018922192 -1.75
 endloop
endfacet
facet normal -1.0 0.0 0.0
 outer loop
  vertex 0.0 1.0 -1.5
  vertex 0.0 1.0 -1.0
  vertex 0.0 1.4179727443457506 -1.2512434639392107
 endloop
endfacet
facet normal -1.0 0.0 0.0
 outer loop
  vertex 0.0 1.0 -1.5
  vertex 0.0 1.4179727443457506 -1.2512434639392107
  vertex 0.0 1.4330127018922192 -1.75
 endloop
endfacet
facet normal -1.0 0.0 0.0
 outer loop
  vertex 0.0 1.0 -1.0
  vertex 0.0 1.0 -0.5
  vertex 0.0 1.3717025946938803 -0.7674148847255502
 endloop
endfacet
facet normal -1.0 0.0 0.0
 outer loop
  vertex 0.0 1.4179727443457506 -1.2512434639392107
  vertex 0.0 1.0 -1.0
  vertex 0.0 1.3717025946938803 -0.7674148847255502
 endloop
endfacet
facet normal -1.0 0.0 0.0
 outer loop
  vertex 0.0 1.3717025946938803 -0.7674148847255502
  vertex 0.0 1.0 -0.5
  vertex 0.0 1.3660254037844386 -0.3660254037844388
 endloop
endfacet
facet normal -1.0 0.0 0.0
 outer loop
  vertex 0.0 1.5 0.0
  vertex 0.0 2.0 0.0
  vertex 0.0 1.7476374304941578 -0.4830781470547514
 endloop
endfacet
facet normal -1.0 0.0 -0.0
 outer loop
  vertex 0.0 1.5 0.0
  vertex 0.0 1.7476374304941578 -0.4830781470547514
  vertex 0.0 1.3660254037844386 -0.3660254037844388
 endloop
endfacet
facet normal -1.0 0.0 0.0
 outer loop
  vertex 0.0 2.0 0.0
  vertex 0.0 2.5 0.0
  vertex 0.0 2.238193774206763 -0.4413812212551935
 endloop
endfacet
facet normal -1.0 0.0 0.0
 outer loop
  vertex 0.0 1.7476374304941578 -0.4830781470547514
  vertex 0.0 2.0 0.0
  vertex 0.0 2.238193774206763 -0.4413812212551935
 endloop
endfacet
facet normal -1.0 0.0 0.0
 outer loop
  vertex 0.0 2.5 0.0
  vertex 0.0 3.0 0.0
  vertex 0.0 2.714049204609445 -0.44969752409846375
 endloop
endfacet
facet normal -1.0 0.0 -0.0
 outer loop
  vertex 0.0 2.5 0.0
  vertex 0.0 2.714049204609445 -0.44969752409846375
  vertex 0.0 2.238193774206763 -0.4413812212551935
 endloop
endfacet
facet normal -1.0 0.0 0.0
 outer loop
  vertex 0.0 3.0 0.0
  vertex 0.0 3.5 0.0
  vertex 0.0 3.2576570966697096 -0.5123533471781054
 endloop
endfacet
facet normal -1.0 0.0 0.0
 outer loop
  vertex 0.0 2.714049204609445 -0.44969752409846375
  vertex 0.0 3.0 0.0
  vertex 0.0 3.2576570966697096 -0.5123533471781054
 endloop
endfacet
facet normal -1.0 0.0 0.0
 outer loop
  vertex 0.0 3.5 0.0
  vertex 0.0 4.0 0.0
  vertex 0.0 3.793362827353289 -0.4481480624777143
 endloop
endfacet
facet normal -1.0 0.0 -0.0
 outer loop
  vertex 0.0 3.5 0.0
  vertex 0.0 3.793362827353289 -0.4481480624777143
  vertex 0.0 3.2576570966697096 -0.5123533471781054
 endloop
endfacet
facet normal -1.0 0.0 0.0
 outer loop
  vertex 0.0 4.0 0.0
  vertex 0.0 4.5 0.0
  vertex 0.0 4.254344719548255 -0.4161816635575599
 endloop
endfacet
facet normal -1.0 0.0 0.0
 outer loop
  vertex 0.0 3.793362827353289 -0.4481480624777143
  vertex 0.0 4.0 0.0
  vertex 0.0 4.254344719548255 -0.4161816635575599
 endloop
endfacet
facet normal -1.0 0.0 0.0
 outer loop
  vertex 0.0 4.254344719548255 -0.4161816635575599
  vertex 0.0 4.5 0.0
  vertex 0.0 4.633974596215561 -0.3660254037844388
 endloop
endfacet
facet normal -1.0 0.0 -0.0
 outer loop
  vertex 0.0 5.0 -3.0
  vertex 0.0 5.0 -3.5
  vertex 0.0 4.576613977472084 -3.247881315359562
 endloop
endfacet
facet normal -1.0 0.0 0.0
 outer loop
  vertex 0.0 4.576613977472084 -3.247881315359562
  vertex 0.0 5.0 -3.5
  vertex 0.0 4.633974596215561 -3.633974596215561
 endloop
endfacet
facet normal -1.0 0.0 -0.0
 outer loop
  vertex 0.0 5.0 -2.5
  vertex 0.0 5.0 -3.0
  vertex 0.0 4.568591744668497 -2.7496468858932603
 endloop
endfacet
facet normal -1.0 -0.0 0.0
 outer loop
  vertex 0.0 5.0 -3.0
  vertex 0.0 4.576613977472084 -3.247881315359562
  vertex 0.0 4.568591744668497 -2.7496468858932603
 endloop
endfacet
facet normal -1.0 0.0 -0.0
 outer loop
  vertex 0.0 5.0 -2.0
  vertex 0.0 5.0 -2.5
  vertex 0.0 4.56698729810778 -2.25
 endloop
endfacet
facet normal -1.0 0.0 0.0
 outer loop
  vertex 0.0 4.56698729810778 -2.25
  vertex 0.0 5.0 -2.5
  vertex 0.0 4.568591744668497 -2.7496468858932603
 endloop
endfacet
facet normal -1.0 0.0 -0.0
 outer loop
  vertex 0.0 5.0 -1.5
  vertex 0.0 5.0 -2.0
  vertex 0.0 4.566994726101117 -1.7499983652124684
 endloop
endfacet
facet normal -1.0 -0.0 0.0
 outer loop
  vertex 0.0 5.0 -2.0
  vertex 0.0 4.56698729810778 -2.25
  vertex 0.0 4.566994726101117 -1.7499983652124684
 endloop
endfacet
facet normal -1.0 0.0 -0.0
 outer loop
  vertex 0.0 5.0 -1.0
  vertex 0.0 5.0 -1.5
  vertex 0.0 4.566987298107781 -1.25
 endloop
endfacet
facet normal -1.0 0.0 0.0
 outer loop
  vertex 0.0 4.566987298107781 -1.25
  vertex 0.0 5.0 -1.5
  vertex 0.0 4.566994726101117 -1.7499983652124684
 endloop
endfacet
facet normal -1.0 0.0 -0.0
 outer loop
  vertex 0.0 5.0 -0.5
  vertex 0.0 5.0 -1.0
  vertex 0.0 4.576613977472084 -0.7521186846404384
 endloop
endfacet
facet normal -1.0 -0.0 0.0
 outer loop
  vertex 0.0 5.0 -1.0
  vertex 0.0 4.566987298107781 -1.25
  vertex 0.0 4.576613977472084 -0.7521186846404384
 endloop
endfacet
facet normal -1.0 -0.0 0.0
 outer loop
  vertex 0.0 5.0 -0.5
  vertex 0.0 4.576613977472084 -0.7521186846404384
  vertex 0.0 4.633974596215561 -0.3660254037844388
 endloop
endfacet
facet normal -1.0 0.0 0.0
 outer loop
  vertex 0.0 2.0 -4.0
  vertex 0.0 1.5 -4.0
  vertex 0.0 1.7734480273579036 -3.586336867771144
 endloop
endfacet
facet normal -1.0 0.0 0.0
 outer loop
  vertex 0.0 1.7734480273579036 -3.586336867771144
  vertex 0.0 1.5 -4.0
  vertex 0.0 1.3660254037844388 -3.6339745962155616
 endloop
endfacet
facet normal -1.0 0.0 0.0
 outer loop
  vertex 0.0 2.5 -4.0
  vertex 0.0 2.0 -4.0
  vertex 0.0 2.323096104307953 -3.5269492595928327
 endloop
endfacet
facet normal -1.0 0.0 0.0
 outer loop
  vertex 0.0 2.323096104307953 -3.5269492595928327
  vertex 0.0 2.0 -4.0
  vertex 0.0 1.7734480273579036 -3.586336867771144
 endloop
endfacet
facet normal -1.0 0.0 0.0
 outer loop
  vertex 0.0 3.0 -4.0
  vertex 0.0 2.5 -4.0
  vertex 0.0 2.75 -3.661857195049958
 endloop
endfacet
facet normal -1.0 0.0 0.0
 outer loop
  vertex 0.0 2.5 -4.0
  vertex 0.0 2.323096104307953 -3.5269492595928327
  vertex 0.0 2.75 -3.661857195049958
 endloop
endfacet
facet normal -1.0 0.0 0.0
 outer loop
  vertex 0.0 3.5 -4.0
  vertex 0.0 3.0 -4.0
  vertex 0.0 3.2505153005303624 -3.5202607771884877
 endloop
endfacet
facet normal -1.0 0.0 0.0
 outer loop
  vertex 0.0 3.2505153005303624 -3.5202607771884877
  vertex 0.0 3.0 -4.0
  vertex 0.0 2.75 -3.661857195049958
 endloop
endfacet
facet normal -1.0 0.0 0.0
 outer loop
  vertex 0.0 4.0 -4.0
  vertex 0.0 3.5 -4.0
  vertex 0.0 3.793448710775017 -3.5440641840357374
 endloop
endfacet
facet normal -1.0 0.0 0.0
 outer loop
  vertex 0.0 3.5 -4.0
  vertex 0.0 3.2505153005303624 -3.5202607771884877
  vertex 0.0 3.793448710775017 -3.5440641840357374
 endloop
endfacet
facet normal -1.0 0.0 0.0
 outer loop
  vertex 0.0 4.5 -4.0
  vertex 0.0 4.0 -4.0
  vertex 0.0 4.254389139870106 -3.5827515717603515
 endloop
endfacet
facet normal -1.0 0.0 0.0
 outer loop
  vertex 0.0 4.0 -4.0
  vertex 0.0 3.793448710775017 -3.5440641840357374
  vertex 0.0 4.254389139870106 -3.5827515717603515
 endloop
endfacet
facet normal -1.0 0.0 0.0
 outer loop
  vertex 0.0 4.5 -4.0
  vertex 0.0 4.254389139870106 -3.5827515717603515
  vertex 0.0 4.633974596215561 -3.633974596215561
 endloop
endfacet
facet normal -1.0 -0.0 0.0
 outer loop
  vertex 0.0 2.714049204609445 -0.44969752409846375
  vertex 0.0 2.4391410682332095 -0.9317485255557041
  vertex 0.0 2.238193774206763 -0.4413812212551935
 endloop
endfacet
facet normal -1.0 0.0 0.0
 outer loop
  vertex 0.0 2.4391410682332095 -0.9317485255557041
  vertex 0.0 2.714049204609445 -0.44969752409846375
  vertex 0.0 2.901775729004801 -0.8326496893716335
 endloop
endfacet
facet normal -1.0 0.0 0.0
 outer loop
  vertex 0.0 2.714049204609445 -0.44969752409846375
  vertex 0.0 3.2576570966697096 -0.5123533471781054
  vertex 0.0 2.901775729004801 -0.8326496893716335
 endloop
endfacet
facet normal -1.0 0.0 0.0
 outer loop
  vertex 0.0 1.4330127018922194 -2.75
  vertex 0.0 1.4330127018922192 -2.25
  vertex 0.0 1.7009618943233404 -2.5
 endloop
endfacet
facet normal -1.0 0.0 0.0
 outer loop
  vertex 0.0 1.4330127018922192 -2.25
  vertex 0.0 1.4330127018922192 -1.75
  vertex 0.0 1.7009618943233404 -2.0
 endloop
endfacet
facet normal -1.0 0.0 0.0
 outer loop
  vertex 0.0 1.7009618943233404 -2.5
  vertex 0.0 1.4330127018922192 -2.25
  vertex 0.0 1.7009618943233404 -2.0
 endloop
endfacet
facet normal -1.0 0.0 -0.0
 outer loop
  vertex 0.0 4.56698729810778 -2.25
  vertex 0.0 4.568591744668497 -2.7496468858932603
  vertex 0.0 4.134242003975681 -2.499941147648877
 endloop
endfacet
facet normal -1.0 -0.0 0.0
 outer loop
  vertex 0.0 4.56698729810778 -2.25
  vertex 0.0 4.134242003975681 -2.499941147648877
  vertex 0.0 4.134019164175581 -1.9999901912748128
 endloop
endfacet
facet normal -1.0 0.0 0.0
 outer loop
  vertex 0.0 4.56698729810778 -2.25
  vertex 0.0 4.134019164175581 -1.9999901912748128
  vertex 0.0 4.566994726101117 -1.7499983652124684
 endloop
endfacet
facet normal -1.0 0.0 0.0
 outer loop
  vertex 0.0 3.2505153005303624 -3.5202607771884877
  vertex 0.0 2.804736866081499 -3.2431778602327856
  vertex 0.0 3.250020843529599 -2.9849138623292744
 endloop
endfacet
facet normal -1.0 0.0 -0.0
 outer loop
  vertex 0.0 2.804736866081499 -3.2431778602327856
  vertex 0.0 3.2505153005303624 -3.5202607771884877
  vertex 0.0 2.75 -3.661857195049958
 endloop
endfacet
facet normal -1.0 0.0 0.0
 outer loop
  vertex 0.0 3.793448710775017 -3.5440641840357374
  vertex 0.0 3.2505153005303624 -3.5202607771884877
  vertex 0.0 3.615660757621064 -3.1718345855209997
 endloop
endfacet
facet normal -1.0 0.0 0.0
 outer loop
  vertex 0.0 3.2505153005303624 -3.5202607771884877
  vertex 0.0 3.250020843529599 -2.9849138623292744
  vertex 0.0 3.615660757621064 -3.1718345855209997
 endloop
endfacet
facet normal -1.0 0.0 0.0
 outer loop
  vertex 0.0 4.091389969976396 -0.9243779346551486
  vertex 0.0 3.793362827353289 -0.4481480624777143
  vertex 0.0 4.254344719548255 -0.4161816635575599
 endloop
endfacet
facet normal -1.0 0.0 -0.0
 outer loop
  vertex 0.0 3.793362827353289 -0.4481480624777143
  vertex 0.0 4.091389969976396 -0.9243779346551486
  vertex 0.0 3.6196186803508015 -0.8337663033661382
 endloop
endfacet
facet normal -1.0 0.0 0.0
 outer loop
  vertex 0.0 3.2576570966697096 -0.5123533471781054
  vertex 0.0 3.793362827353289 -0.4481480624777143
  vertex 0.0 3.6196186803508015 -0.8337663033661382
 endloop
endfacet
facet normal -1.0 0.0 0.0
 outer loop
  vertex 0.0 1.4330127018922192 -1.75
  vertex 0.0 1.4179727443457506 -1.2512434639392107
  vertex 0.0 1.7009618943233389 -1.5
 endloop
endfacet
facet normal -1.0 0.0 0.0
 outer loop
  vertex 0.0 1.4179727443457506 -1.2512434639392107
  vertex 0.0 1.3717025946938803 -0.7674148847255502
  vertex 0.0 1.6985799895389349 -1.0041422935749007
 endloop
endfacet
facet normal -1.0 0.0 0.0
 outer loop
  vertex 0.0 1.7009618943233389 -1.5
  vertex 0.0 1.4179727443457506 -1.2512434639392107
  vertex 0.0 1.6985799895389349 -1.0041422935749007
 endloop
endfacet
facet normal -1.0 0.0 0.0
 outer loop
  vertex 0.0 2.323096104307953 -3.5269492595928327
  vertex 0.0 2.4019237886466858 -3.0000000000000036
  vertex 0.0 2.804736866081499 -3.2431778602327856
 endloop
endfacet
facet normal -1.0 0.0 0.0
 outer loop
  vertex 0.0 2.4019237886466858 -3.0000000000000036
  vertex 0.0 2.323096104307953 -3.5269492595928327
  vertex 0.0 2.0002933981317517 -3.1956442422355984
 endloop
endfacet
facet normal -1.0 0.0 0.0
 outer loop
  vertex 0.0 2.323096104307953 -3.5269492595928327
  vertex 0.0 2.804736866081499 -3.2431778602327856
  vertex 0.0 2.75 -3.661857195049958
 endloop
endfacet
facet normal -1.0 -0.0 0.0
 outer loop
  vertex 0.0 2.323096104307953 -3.5269492595928327
  vertex 0.0 1.7734480273579036 -3.586336867771144
  vertex 0.0 2.0002933981317517 -3.1956442422355984
 endloop
endfacet
facet normal -1.0 0.0 -0.0
 outer loop
  vertex 0.0 4.566987298107781 -1.25
  vertex 0.0 4.566994726101117 -1.7499983652124684
  vertex 0.0 4.125490295911015 -1.4898116022727104
 endloop
endfacet
facet normal -1.0 0.0 0.0
 outer loop
  vertex 0.0 4.576613977472084 -0.7521186846404384
  vertex 0.0 4.566987298107781 -1.25
  vertex 0.0 4.091389969976396 -0.9243779346551486
 endloop
endfacet
facet normal -1.0 0.0 0.0
 outer loop
  vertex 0.0 4.091389969976396 -0.9243779346551486
  vertex 0.0 4.566987298107781 -1.25
  vertex 0.0 4.125490295911015 -1.4898116022727104
 endloop
endfacet
facet normal -1.0 0.0 -0.0
 outer loop
  vertex 0.0 4.568591744668497 -2.7496468858932603
  vertex 0.0 4.576613977472084 -3.247881315359562
  vertex 0.0 4.0916772172582245 -3.074448995501859
 endloop
endfacet
facet normal -1.0 0.0 0.0
 outer loop
  vertex 0.0 4.0916772172582245 -3.074448995501859
  vertex 0.0 4.576613977472084 -3.247881315359562
  vertex 0.0 4.254389139870106 -3.5827515717603515
 endloop
endfacet
facet normal -1.0 0.0 0.0
 outer loop
  vertex 0.0 4.254389139870106 -3.5827515717603515
  vertex 0.0 4.576613977472084 -3.247881315359562
  vertex 0.0 4.633974596215561 -3.633974596215561
 endloop
endfacet
facet normal -1.0 0.0 0.0
 outer loop
  vertex 0.0 1.4330127018922192 -3.25
  vertex 0.0 1.4330127018922194 -2.75
  vertex 0.0 1.701227755283837 -2.9593544276985977
 endloop
endfacet
facet normal -1.0 0.0 0.0
 outer loop
  vertex 0.0 1.7734480273579036 -3.586336867771144
  vertex 0.0 1.4330127018922192 -3.25
  vertex 0.0 2.0002933981317517 -3.1956442422355984
 endloop
endfacet
facet normal -1.0 0.0 -0.0
 outer loop
  vertex 0.0 1.4330127018922192 -3.25
  vertex 0.0 1.7734480273579036 -3.586336867771144
  vertex 0.0 1.3660254037844388 -3.6339745962155616
 endloop
endfacet
facet normal -1.0 -0.0 0.0
 outer loop
  vertex 0.0 2.0002933981317517 -3.1956442422355984
  vertex 0.0 1.4330127018922192 -3.25
  vertex 0.0 1.701227755283837 -2.9593544276985977
 endloop
endfacet
facet normal -1.0 0.0 0.0
 outer loop
  vertex 0.0 1.7476374304941578 -0.4830781470547514
  vertex 0.0 2.238193774206763 -0.4413812212551935
  vertex 0.0 2.0228516883459218 -0.8227744809794966
 endloop
endfacet
facet normal -1.0 -0.0 0.0
 outer loop
  vertex 0.0 1.7476374304941578 -0.4830781470547514
  vertex 0.0 1.3717025946938803 -0.7674148847255502
  vertex 0.0 1.3660254037844386 -0.3660254037844388
 endloop
endfacet
facet normal -1.0 0.0 0.0
 outer loop
  vertex 0.0 1.3717025946938803 -0.7674148847255502
  vertex 0.0 1.7476374304941578 -0.4830781470547514
  vertex 0.0 1.6985799895389349 -1.0041422935749007
 endloop
endfacet
facet normal -1.0 0.0 -0.0
 outer loop
  vertex 0.0 1.7476374304941578 -0.4830781470547514
  vertex 0.0 2.0228516883459218 -0.8227744809794966
  vertex 0.0 1.6985799895389349 -1.0041422935749007
 endloop
endfacet
facet normal -1.0 0.0 -0.0
 outer loop
  vertex 0.0 4.134242003975681 -2.499941147648877
  vertex 0.0 4.568591744668497 -2.7496468858932603
  vertex 0.0 4.0916772172582245 -3.074448995501859
 endloop
endfacet
facet normal -1.0 0.0 -0.0
 outer loop
  vertex 0.0 4.134019164175581 -1.9999901912748128
  vertex 0.0 4.134242003975681 -2.499941147648877
  vertex 0.0 3.701013890276699 -2.2499885564872826
 endloop
endfacet
facet normal -1.0 0.0 -0.0
 outer loop
  vertex 0.0 3.701013890276699 -2.2499885564872826
  vertex 0.0 4.134242003975681 -2.499941147648877
  vertex 0.0 3.6926417160121163 -2.735485108549639
 endloop
endfacet
facet normal -1.0 0.0 0.0
 outer loop
  vertex 0.0 3.6926417160121163 -2.735485108549639
  vertex 0.0 4.134242003975681 -2.499941147648877
  vertex 0.0 4.0916772172582245 -3.074448995501859
 endloop
endfacet
facet normal -1.0 -0.0 0.0
 outer loop
  vertex 0.0 4.134019164175581 -1.9999901912748128
  vertex 0.0 3.701013890276699 -2.2499885564872826
  vertex 0.0 3.7009618943233416 -1.7500000000000009
 endloop
endfacet
facet normal -1.0 0.0 0.0
 outer loop
  vertex 0.0 4.134019164175581 -1.9999901912748128
  vertex 0.0 3.7009618943233416 -1.7500000000000009
  vertex 0.0 4.125490295911015 -1.4898116022727104
 endloop
endfacet
facet normal -1.0 -0.0 0.0
 outer loop
  vertex 0.0 4.566994726101117 -1.7499983652124684
  vertex 0.0 4.134019164175581 -1.9999901912748128
  vertex 0.0 4.125490295911015 -1.4898116022727104
 endloop
endfacet
facet normal -1.0 0.0 -0.0
 outer loop
  vertex 0.0 3.7009618943233416 -1.7500000000000009
  vertex 0.0 3.701013890276699 -2.2499885564872826
  vertex 0.0 3.2679578584233484 -1.9999980927478824
 endloop
endfacet
facet normal -1.0 0.0 -0.0
 outer loop
  vertex 0.0 3.2679578584233484 -1.9999980927478824
  vertex 0.0 3.701013890276699 -2.2499885564872826
  vertex 0.0 3.26657294723824 -2.497578551277632
 endloop
endfacet
facet normal -1.0 0.0 0.0
 outer loop
  vertex 0.0 3.701013890276699 -2.2499885564872826
  vertex 0.0 3.6926417160121163 -2.735485108549639
  vertex 0.0 3.26657294723824 -2.497578551277632
 endloop
endfacet
facet normal -1.0 -0.0 0.0
 outer loop
  vertex 0.0 3.7009618943233416 -1.7500000000000009
  vertex 0.0 3.2679578584233484 -1.9999980927478824
  vertex 0.0 3.2679506367631594 -1.4999996821246486
 endloop
endfacet
facet normal -1.0 0.0 0.0
 outer loop
  vertex 0.0 3.7009618943233416 -1.7500000000000009
  vertex 0.0 3.2679506367631594 -1.4999996821246486
  vertex 0.0 3.692588722781875 -1.2645031224938297
 endloop
endfacet
facet normal -1.0 0.0 0.0
 outer loop
  vertex 0.0 3.7009618943233416 -1.7500000000000009
  vertex 0.0 3.692588722781875 -1.2645031224938297
  vertex 0.0 4.125490295911015 -1.4898116022727104
 endloop
endfacet
facet normal -1.0 0.0 -0.0
 outer loop
  vertex 0.0 3.2679506367631594 -1.4999996821246486
  vertex 0.0 3.2679578584233484 -1.9999980927478824
  vertex 0.0 2.834938175592947 -1.7499996291454236
 endloop
endfacet
facet normal -1.0 0.0 0.0
 outer loop
  vertex 0.0 2.834938175592947 -1.7499996291454236
  vertex 0.0 3.2679578584233484 -1.9999980927478824
  vertex 0.0 2.834938215713282 -2.249999620315553
 endloop
endfacet
facet normal -1.0 0.0 0.0
 outer loop
  vertex 0.0 2.834938215713282 -2.249999620315553
  vertex 0.0 3.2679578584233484 -1.9999980927478824
  vertex 0.0 3.26657294723824 -2.497578551277632
 endloop
endfacet
facet normal -1.0 -0.0 0.0
 outer loop
  vertex 0.0 3.2679506367631594 -1.4999996821246486
  vertex 0.0 2.834938175592947 -1.7499996291454236
  vertex 0.0 2.8349364905389023 -1.2500000000000018
 endloop
endfacet
facet normal -1.0 -0.0 0.0
 outer loop
  vertex 0.0 3.692588722781875 -1.2645031224938297
  vertex 0.0 3.2679506367631594 -1.4999996821246486
  vertex 0.0 3.2630947849727385 -1.0194490500258944
 endloop
endfacet
facet normal -1.0 0.0 -0.0
 outer loop
  vertex 0.0 3.2630947849727385 -1.0194490500258944
  vertex 0.0 3.2679506367631594 -1.4999996821246486
  vertex 0.0 2.8349364905389023 -1.2500000000000018
 endloop
endfacet
facet normal -1.0 0.0 -0.0
 outer loop
  vertex 0.0 2.834938175592947 -1.7499996291454236
  vertex 0.0 2.834938215713282 -2.249999620315553
  vertex 0.0 2.4019243570180877 -1.9999998749101655
 endloop
endfacet
facet normal -1.0 -0.0 0.0
 outer loop
  vertex 0.0 2.834938175592947 -1.7499996291454236
  vertex 0.0 2.4019243570180877 -1.9999998749101655
  vertex 0.0 2.401924164217591 -1.4999999173426009
 endloop
endfacet
facet normal -1.0 0.0 0.0
 outer loop
  vertex 0.0 2.834938175592947 -1.7499996291454236
  vertex 0.0 2.401924164217591 -1.4999999173426009
  vertex 0.0 2.8349364905389023 -1.2500000000000018
 endloop
endfacet
facet normal -1.0 0.0 -0.0
 outer loop
  vertex 0.0 2.4019243570180877 -1.9999998749101655
  vertex 0.0 2.834938215713282 -2.249999620315553
  vertex 0.0 2.401923983676088 -2.4999999570770197
 endloop
endfacet
facet normal -1.0 0.0 0.0
 outer loop
  vertex 0.0 2.401923983676088 -2.4999999570770197
  vertex 0.0 2.834938215713282 -2.249999620315553
  vertex 0.0 2.8349368105728683 -2.7499999295654307
 endloop
endfacet
facet normal -1.0 0.0 0.0
 outer loop
  vertex 0.0 2.8349368105728683 -2.7499999295654307
  vertex 0.0 2.834938215713282 -2.249999620315553
  vertex 0.0 3.26657294723824 -2.497578551277632
 endloop
endfacet
facet normal -1.0 0.0 -0.0
 outer loop
  vertex 0.0 2.401924164217591 -1.4999999173426009
  vertex 0.0 2.4019243570180877 -1.9999998749101655
  vertex 0.0 1.9689110867544648 -1.7500000000000044
 endloop
endfacet
facet normal -1.0 0.0 0.0
 outer loop
  vertex 0.0 2.4019243570180877 -1.9999998749101655
  vertex 0.0 2.401923983676088 -2.4999999570770197
  vertex 0.0 1.9689110867544655 -2.2500000000000036
 endloop
endfacet
facet normal -1.0 0.0 0.0
 outer loop
  vertex 0.0 1.9689110867544648 -1.7500000000000044
  vertex 0.0 2.4019243570180877 -1.9999998749101655
  vertex 0.0 1.9689110867544655 -2.2500000000000036
 endloop
endfacet
facet normal -1.0 -0.0 0.0
 outer loop
  vertex 0.0 2.401924164217591 -1.4999999173426009
  vertex 0.0 1.9689110867544648 -1.7500000000000044
  vertex 0.0 1.990706179256542 -1.2535222174569327
 endloop
endfacet
facet normal -1.0 0.0 0.0
 outer loop
  vertex 0.0 2.401924164217591 -1.4999999173426009
  vertex 0.0 1.990706179256542 -1.2535222174569327
  vertex 0.0 2.4391410682332095 -0.9317485255557041
 endloop
endfacet
facet normal -1.0 0.0 0.0
 outer loop
  vertex 0.0 2.401924164217591 -1.4999999173426009
  vertex 0.0 2.4391410682332095 -0.9317485255557041
  vertex 0.0 2.8349364905389023 -1.2500000000000018
 endloop
endfacet
facet normal -1.0 0.0 -0.0
 outer loop
  vertex 0.0 2.401923983676088 -2.4999999570770197
  vertex 0.0 2.8349368105728683 -2.7499999295654307
  vertex 0.0 2.4019237886466858 -3.0000000000000036
 endloop
endfacet
facet normal -1.0 0.0 0.0
 outer loop
  vertex 0.0 2.401923983676088 -2.4999999570770197
  vertex 0.0 2.4019237886466858 -3.0000000000000036
  vertex 0.0 1.9905249284099118 -2.746698505789156
 endloop
endfacet
facet normal -1.0 -0.0 0.0
 outer loop
  vertex 0.0 2.401923983676088 -2.4999999570770197
  vertex 0.0 1.9905249284099118 -2.746698505789156
  vertex 0.0 1.9689110867544655 -2.2500000000000036
 endloop
endfacet
facet normal -1.0 0.0 -0.0
 outer loop
  vertex 0.0 3.26657294723824 -2.497578551277632
  vertex 0.0 3.6926417160121163 -2.735485108549639
  vertex 0.0 3.250020843529599 -2.9849138623292744
 endloop
endfacet
facet normal -1.0 0.0 0.0
 outer loop
  vertex 0.0 3.250020843529599 -2.9849138623292744
  vertex 0.0 3.6926417160121163 -2.735485108549639
  vertex 0.0 3.615660757621064 -3.1718345855209997
 endloop
endfacet
facet normal -1.0 0.0 -0.0
 outer loop
  vertex 0.0 3.6926417160121163 -2.735485108549639
  vertex 0.0 4.0916772172582245 -3.074448995501859
  vertex 0.0 3.615660757621064 -3.1718345855209997
 endloop
endfacet
facet normal -1.0 0.0 0.0
 outer loop
  vertex 0.0 2.4019237886466858 -3.0000000000000036
  vertex 0.0 2.8349368105728683 -2.7499999295654307
  vertex 0.0 2.804736866081499 -3.2431778602327856
 endloop
endfacet
facet normal -1.0 0.0 0.0
 outer loop
  vertex 0.0 2.804736866081499 -3.2431778602327856
  vertex 0.0 2.8349368105728683 -2.7499999295654307
  vertex 0.0 3.250020843529599 -2.9849138623292744
 endloop
endfacet
facet normal -1.0 0.0 0.0
 outer loop
  vertex 0.0 2.8349368105728683 -2.7499999295654307
  vertex 0.0 3.26657294723824 -2.497578551277632
  vertex 0.0 3.250020843529599 -2.9849138623292744
 endloop
endfacet
facet normal -1.0 0.0 0.0
 outer loop
  vertex 0.0 3.692588722781875 -1.2645031224938297
  vertex 0.0 3.2630947849727385 -1.0194490500258944
  vertex 0.0 3.6196186803508015 -0.8337663033661382
 endloop
endfacet
facet normal -1.0 0.0 0.0
 outer loop
  vertex 0.0 3.692588722781875 -1.2645031224938297
  vertex 0.0 4.091389969976396 -0.9243779346551486
  vertex 0.0 4.125490295911015 -1.4898116022727104
 endloop
endfacet
facet normal -1.0 -0.0 0.0
 outer loop
  vertex 0.0 4.091389969976396 -0.9243779346551486
  vertex 0.0 3.692588722781875 -1.2645031224938297
  vertex 0.0 3.6196186803508015 -0.8337663033661382
 endloop
endfacet
facet normal -1.0 0.0 0.0
 outer loop
  vertex 0.0 1.990706179256542 -1.2535222174569327
  vertex 0.0 1.9689110867544648 -1.7500000000000044
  vertex 0.0 1.7009618943233389 -1.5
 endloop
endfacet
facet normal -1.0 0.0 -0.0
 outer loop
  vertex 0.0 1.9689110867544648 -1.7500000000000044
  vertex 0.0 1.9689110867544655 -2.2500000000000036
  vertex 0.0 1.7009618943233404 -2.0
 endloop
endfacet
facet normal -1.0 -0.0 0.0
 outer loop
  vertex 0.0 1.9689110867544648 -1.7500000000000044
  vertex 0.0 1.7009618943233404 -2.0
  vertex 0.0 1.7009618943233389 -1.5
 endloop
endfacet
facet normal -1.0 0.0 -0.0
 outer loop
  vertex 0.0 3.2576570966697096 -0.5123533471781054
  vertex 0.0 3.2630947849727385 -1.0194490500258944
  vertex 0.0 2.901775729004801 -0.8326496893716335
 endloop
endfacet
facet normal -1.0 0.0 0.0
 outer loop
  vertex 0.0 3.2630947849727385 -1.0194490500258944
  vertex 0.0 3.2576570966697096 -0.5123533471781054
  vertex 0.0 3.6196186803508015 -0.8337663033661382
 endloop
endfacet
facet normal -1.0 -0.0 0.0
 outer loop
  vertex 0.0 3.2630947849727385 -1.0194490500258944
  vertex 0.0 2.8349364905389023 -1.2500000000000018
  vertex 0.0 2.901775729004801 -0.8326496893716335
 endloop
endfacet
facet normal -1.0 0.0 0.0
 outer loop
  vertex 0.0 1.9905249284099118 -2.746698505789156
  vertex 0.0 2.4019237886466858 -3.0000000000000036
  vertex 0.0 2.0002933981317517 -3.1956442422355984
 endloop
endfacet
facet normal -1.0 0.0 -0.0
 outer loop
  vertex 0.0 1.9689110867544655 -2.2500000000000036
  vertex 0.0 1.9905249284099118 -2.746698505789156
  vertex 0.0 1.7009618943233404 -2.5
 endloop
endfacet
facet normal -1.0 0.0 -0.0
 outer loop
  vertex 0.0 1.9905249284099118 -2.746698505789156
  vertex 0.0 2.0002933981317517 -3.1956442422355984
  vertex 0.0 1.701227755283837 -2.9593544276985977
 endloop
endfacet
facet normal -1.0 0.0 0.0
 outer loop
  vertex 0.0 1.7009618943233404 -2.5
  vertex 0.0 1.9905249284099118 -2.746698505789156
  vertex 0.0 1.701227755283837 -2.9593544276985977
 endloop
endfacet
facet normal -1.0 -0.0 0.0
 outer loop
  vertex 0.0 2.4391410682332095 -0.9317485255557041
  vertex 0.0 1.990706179256542 -1.2535222174569327
  vertex 0.0 2.0228516883459218 -0.8227744809794966
 endloop
endfacet
facet normal -1.0 0.0 0.0
 outer loop
  vertex 0.0 2.0228516883459218 -0.8227744809794966
  vertex 0.0 1.990706179256542 -1.2535222174569327
  vertex 0.0 1.6985799895389349 -1.0041422935749007
 endloop
endfacet
facet normal -1.0 -0.0 0.0
 outer loop
  vertex 0.0 1.990706179256542 -1.2535222174569327
  vertex 0.0 1.7009618943233389 -1.5
  vertex 0.0 1.6985799895389349 -1.0041422935749007
 endloop
endfacet
facet normal -1.0 0.0 -0.0
 outer loop
  vertex 0.0 2.238193774206763 -0.4413812212551935
  vertex 0.0 2.4391410682332095 -0.9317485255557041
  vertex 0.0 2.0228516883459218 -0.8227744809794966
 endloop
endfacet
facet normal -1.0 0.0 0.0
 outer loop
  vertex 0.0 2.8349364905389023 -1.2500000000000018
  vertex 0.0 2.4391410682332095 -0.9317485255557041
  vertex 0.0 2.901775729004801 -0.8326496893716335
 endloop
endfacet
facet normal -1.0 -0.0 0.0
 outer loop
  vertex 0.0 4.576613977472084 -0.7521186846404384
  vertex 0.0 4.091389969976396 -0.9243779346551486
  vertex 0.0 4.254344719548255 -0.4161816635575599
 endloop
endfacet
facet normal -1.0 0.0 0.0
 outer loop
  vertex 0.0 4.576613977472084 -0.7521186846404384
  vertex 0.0 4.254344719548255 -0.4161816635575599
  vertex 0.0 4.633974596215561 -0.3660254037844388
 endloop
endfacet
facet normal -1.0 0.0 0.0
 outer loop
  vertex 0.0 1.4330127018922194 -2.75
  vertex 0.0 1.7009618943233404 -2.5
  vertex 0.0 1.701227755283837 -2.9593544276985977
 endloop
endfacet
facet normal -1.0 0.0 0.0
 outer loop
  vertex 0.0 1.7009618943233404 -2.0
  vertex 0.0 1.4330127018922192 -1.75
  vertex 0.0 1.7009618943233389 -1.5
 endloop
endfacet
facet normal -1.0 0.0 0.0
 outer loop
  vertex 0.0 3.793448710775017 -3.5440641840357374
  vertex 0.0 4.0916772172582245 -3.074448995501859
  vertex 0.0 4.254389139870106 -3.5827515717603515
 endloop
endfacet
facet normal -1.0 0.0 0.0
 outer loop
  vertex 0.0 4.0916772172582245 -3.074448995501859
  vertex 0.0 3.793448710775017 -3.5440641840357374
  vertex 0.0 3.615660757621064 -3.1718345855209997
 endloop
endfacet
facet normal -1.0 -0.0 0.0
 outer loop
  vertex 0.0 1.9689110867544655 -2.2500000000000036
  vertex 0.0 1.7009618943233404 -2.5
  vertex 0.0 1.7009618943233404 -2.0
 endloop
endfacet
facet normal 1.0 0.0 0.0
 outer loop
  vertex 0.125 1.0 -0.5
  vertex 0.125 1.3660254037844386 -0.3660254037844388
  vertex 0.125 1.0 0.0
 endloop
endfacet
facet normal 1.0 -0.0 0.0
 outer loop
  vertex 0.125 1.0 0.0
  vertex 0.125 1.3660254037844386 -0.3660254037844388
  vertex 0.125 1.5 0.0
 endloop
endfacet
facet normal 1.0 0.0 0.0
 outer loop
  vertex 0.125 1.0 -4.0
  vertex 0.125 1.3660254037844388 -3.6339745962155616
  vertex 0.125 1.0 -3.5
 endloop
endfacet
facet normal 1.0 0.0 0.0
 outer loop
  vertex 0.125 1.5 -4.0
  vertex 0.125 1.3660254037844388 -3.6339745962155616
  vertex 0.125 1.0 -4.0
 endloop
endfacet
facet normal 1.0 -0.0 0.0
 outer loop
  vertex 0.125 4.5 0.0
  vertex 0.125 4.633974596215561 -0.3660254037844388
  vertex 0.125 5.0 0.0
 endloop
endfacet
facet normal 1.0 0.0 0.0
 outer loop
  vertex 0.125 5.0 0.0
  vertex 0.125 4.633974596215561 -0.3660254037844388
  vertex 0.125 5.0 -0.5
 endloop
endfacet
facet normal 1.0 0.0 0.0
 outer loop
  vertex 0.125 5.0 -3.5
  vertex 0.125 4.633974596215561 -3.633974596215561
  vertex 0.125 5.0 -4.0
 endloop
endfacet
facet normal 1.0 0.0 0.0
 outer loop
  vertex 0.125 5.0 -4.0
  vertex 0.125 4.633974596215561 -3.633974596215561
  vertex 0.125 4.5 -4.0
 endloop
endfacet
facet normal 1.0 0.0 0.0
 outer loop
  vertex 0.125 1.0 -3.5
  vertex 0.125 1.4330127018922192 -3.25
  vertex 0.125 1.0 -3.0
 endloop
endfacet
facet normal 1.0 -0.0 0.0
 outer loop
  vertex 0.125 1.0 -3.5
  vertex 0.125 1.3660254037844388 -3.6339745962155616
  vertex 0.125 1.4330127018922192 -3.25
 endloop
endfacet
facet normal 1.0 0.0 0.0
 outer loop
  vertex 0.125 1.0 -3.0
  vertex 0.125 1.4330127018922194 -2.75
  vertex 0.125 1.0 -2.5
 endloop
endfacet
facet normal 1.0 0.0 -0.0
 outer loop
  vertex 0.125 1.4330127018922192 -3.25
  vertex 0.125 1.4330127018922194 -2.75
  vertex 0.125 1.0 -3.0
 endloop
endfacet
facet normal 1.0 0.0 0.0
 outer loop
  vertex 0.125 1.0 -2.5
  vertex 0.125 1.4330127018922192 -2.25
  vertex 0.125 1.0 -2.0
 endloop
endfacet
facet normal 1.0 -0.0 0.0
 outer loop
  vertex 0.125 1.0 -2.5
  vertex 0.125 1.4330127018922194 -2.75
  vertex 0.125 1.4330127018922192 -2.25
 endloop
endfacet
facet normal 1.0 0.0 0.0
 outer loop
  vertex 0.125 1.0 -2.0
  vertex 0.125 1.4330127018922192 -1.75
  vertex 0.125 1.0 -1.5
 endloop
endfacet
facet normal 1.0 0.0 -0.0
 outer loop
  vertex 0.125 1.4330127018922192 -2.25
  vertex 0.125 1.4330127018922192 -1.75
  vertex 0.125 1.0 -2.0
 endloop
endfacet
facet normal 1.0 0.0 0.0
 outer loop
  vertex 0.125 1.0 -1.5
  vertex 0.125 1.4179727443457506 -1.2512434639392107
  vertex 0.125 1.0 -1.0
 endloop
endfacet
facet normal 1.0 -0.0 0.0
 outer loop
  vertex 0.125 1.0 -1.5
  vertex 0.125 1.4330127018922192 -1.75
  vertex 0.125 1.4179727443457506 -1.2512434639392107
 endloop
endfacet
facet normal 1.0 0.0 0.0
 outer loop
  vertex 0.125 1.0 -1.0
  vertex 0.125 1.3717025946938803 -0.7674148847255502
  vertex 0.125 1.0 -0.5
 endloop
endfacet
facet normal 1.0 0.0 0.0
 outer loop
  vertex 0.125 1.4179727443457506 -1.2512434639392107
  vertex 0.125 1.3717025946938803 -0.7674148847255502
  vertex 0.125 1.0 -1.0
 endloop
endfacet
facet normal 1.0 0.0 0.0
 outer loop
  vertex 0.125 1.3717025946938803 -0.7674148847255502
  vertex 0.125 1.3660254037844386 -0.3660254037844388
  vertex 0.125 1.0 -0.5
 endloop
endfacet
facet normal 1.0 -0.0 0.0
 outer loop
  vertex 0.125 1.5 0.0
  vertex 0.125 1.7476374304941578 -0.4830781470547514
  vertex 0.125 2.0 0.0
 endloop
endfacet
facet normal 1.0 0.0 0.0
 outer loop
  vertex 0.125 1.5 0.0
  vertex 0.125 1.3660254037844386 -0.3660254037844388
  vertex 0.125 1.7476374304941578 -0.4830781470547514
 endloop
endfacet
facet normal 1.0 -0.0 0.0
 outer loop
  vertex 0.125 2.0 0.0
  vertex 0.125 2.238193774206763 -0.4413812212551935
  vertex 0.125 2.5 0.0
 endloop
endfacet
facet normal 1.0 0.0 0.0
 outer loop
  vertex 0.125 1.7476374304941578 -0.4830781470547514
  vertex 0.125 2.238193774206763 -0.4413812212551935
  vertex 0.125 2.0 0.0
 endloop
endfacet
facet normal 1.0 -0.0 0.0
 outer loop
  vertex 0.125 2.5 0.0
  vertex 0.125 2.714049204609445 -0.44969752409846375
  vertex 0.125 3.0 0.0
 endloop
endfacet
facet normal 1.0 0.0 0.0
 outer loop
  vertex 0.125 2.5 0.0
  vertex 0.125 2.238193774206763 -0.4413812212551935
  vertex 0.125 2.714049204609445 -0.44969752409846375
 endloop
endfacet
facet normal 1.0 -0.0 0.0
 outer loop
  vertex 0.125 3.0 0.0
  vertex 0.125 3.2576570966697096 -0.5123533471781054
  vertex 0.125 3.5 0.0
 endloop
endfacet
facet normal 1.0 -0.0 0.0
 outer loop
  vertex 0.125 2.714049204609445 -0.44969752409846375
  vertex 0.125 3.2576570966697096 -0.5123533471781054
  vertex 0.125 3.0 0.0
 endloop
endfacet
facet normal 1.0 -0.0 0.0
 outer loop
  vertex 0.125 3.5 0.0
  vertex 0.125 3.793362827353289 -0.4481480624777143
  vertex 0.125 4.0 0.0
 endloop
endfacet
facet normal 1.0 0.0 0.0
 outer loop
  vertex 0.125 3.5 0.0
  vertex 0.125 3.2576570966697096 -0.5123533471781054
  vertex 0.125 3.793362827353289 -0.4481480624777143
 endloop
endfacet
facet normal 1.0 -0.0 0.0
 outer loop
  vertex 0.125 4.0 0.0
  vertex 0.125 4.254344719548255 -0.4161816635575599
  vertex 0.125 4.5 0.0
 endloop
endfacet
facet normal 1.0 0.0 0.0
 outer loop
  vertex 0.125 3.793362827353289 -0.4481480624777143
  vertex 0.125 4.254344719548255 -0.4161816635575599
  vertex 0.125 4.0 0.0
 endloop
endfacet
facet normal 1.0 0.0 0.0
 outer loop
  vertex 0.125 4.254344719548255 -0.4161816635575599
  vertex 0.125 4.633974596215561 -0.3660254037844388
  vertex 0.125 4.5 0.0
 endloop
endfacet
facet normal 1.0 0.0 0.0
 outer loop
  vertex 0.125 5.0 -3.0
  vertex 0.125 4.576613977472084 -3.247881315359562
  vertex 0.125 5.0 -3.5
 endloop
endfacet
facet normal 1.0 0.0 0.0
 outer loop
  vertex 0.125 4.576613977472084 -3.247881315359562
  vertex 0.125 4.633974596215561 -3.633974596215561
  vertex 0.125 5.0 -3.5
 endloop
endfacet
facet normal 1.0 0.0 0.0
 outer loop
  vertex 0.125 5.0 -2.5
  vertex 0.125 4.568591744668497 -2.7496468858932603
  vertex 0.125 5.0 -3.0
 endloop
endfacet
facet normal 1.0 0.0 0.0
 outer loop
  vertex 0.125 5.0 -3.0
  vertex 0.125 4.568591744668497 -2.7496468858932603
  vertex 0.125 4.576613977472084 -3.247881315359562
 endloop
endfacet
facet normal 1.0 0.0 0.0
 outer loop
  vertex 0.125 5.0 -2.0
  vertex 0.125 4.56698729810778 -2.25
  vertex 0.125 5.0 -2.5
 endloop
endfacet
facet normal 1.0 0.0 0.0
 outer loop
  vertex 0.125 4.56698729810778 -2.25
  vertex 0.125 4.568591744668497 -2.7496468858932603
  vertex 0.125 5.0 -2.5
 endloop
endfacet
facet normal 1.0 0.0 0.0
 outer loop
  vertex 0.125 5.0 -1.5
  vertex 0.125 4.566994726101117 -1.7499983652124684
  vertex 0.125 5.0 -2.0
 endloop
endfacet
facet normal 1.0 0.0 0.0
 outer loop
  vertex 0.125 5.0 -2.0
  vertex 0.125 4.566994726101117 -1.7499983652124684
  vertex 0.125 4.56698729810778 -2.25
 endloop
endfacet
facet normal 1.0 0.0 0.0
 outer loop
  vertex 0.125 5.0 -1.0
  vertex 0.125 4.566987298107781 -1.25
  vertex 0.125 5.0 -1.5
 endloop
endfacet
facet normal 1.0 0.0 0.0
 outer loop
  vertex 0.125 4.566987298107781 -1.25
  vertex 0.125 4.566994726101117 -1.7499983652124684
  vertex 0.125 5.0 -1.5
 endloop
endfacet
facet normal 1.0 0.0 0.0
 outer loop
  vertex 0.125 5.0 -0.5
  vertex 0.125 4.576613977472084 -0.7521186846404384
  vertex 0.125 5.0 -1.0
 endloop
endfacet
facet normal 1.0 0.0 0.0
 outer loop
  vertex 0.125 5.0 -1.0
  vertex 0.125 4.576613977472084 -0.7521186846404384
  vertex 0.125 4.566987298107781 -1.25
 endloop
endfacet
facet normal 1.0 0.0 0.0
 outer loop
  vertex 0.125 5.0 -0.5
  vertex 0.125 4.633974596215561 -0.3660254037844388
  vertex 0.125 4.576613977472084 -0.7521186846404384
 endloop
endfacet
facet normal 1.0 0.0 0.0
 outer loop
  vertex 0.125 2.0 -4.0
  vertex 0.125 1.7734480273579036 -3.586336867771144
  vertex 0.125 1.5 -4.0
 endloop
endfacet
facet normal 1.0 0.0 0.0
 outer loop
  vertex 0.125 1.7734480273579036 -3.586336867771144
  vertex 0.125 1.3660254037844388 -3.6339745962155616
  vertex 0.125 1.5 -4.0
 endloop
endfacet
facet normal 1.0 0.0 0.0
 outer loop
  vertex 0.125 2.5 -4.0
  vertex 0.125 2.323096104307953 -3.5269492595928327
  vertex 0.125 2.0 -4.0
 endloop
endfacet
facet normal 1.0 0.0 0.0
 outer loop
  vertex 0.125 2.323096104307953 -3.5269492595928327
  vertex 0.125 1.7734480273579036 -3.586336867771144
  vertex 0.125 2.0 -4.0
 endloop
endfacet
facet normal 1.0 0.0 0.0
 outer loop
  vertex 0.125 3.0 -4.0
  vertex 0.125 2.75 -3.661857195049958
  vertex 0.125 2.5 -4.0
 endloop
endfacet
facet normal 1.0 0.0 -0.0
 outer loop
  vertex 0.125 2.5 -4.0
  vertex 0.125 2.75 -3.661857195049958
  vertex 0.125 2.323096104307953 -3.5269492595928327
 endloop
endfacet
facet normal 1.0 0.0 0.0
 outer loop
  vertex 0.125 3.5 -4.0
  vertex 0.125 3.2505153005303624 -3.5202607771884877
  vertex 0.125 3.0 -4.0
 endloop
endfacet
facet normal 1.0 0.0 0.0
 outer loop
  vertex 0.125 3.2505153005303624 -3.5202607771884877
  vertex 0.125 2.75 -3.661857195049958
  vertex 0.125 3.0 -4.0
 endloop
endfacet
facet normal 1.0 0.0 0.0
 outer loop
  vertex 0.125 4.0 -4.0
  vertex 0.125 3.793448710775017 -3.5440641840357374
  vertex 0.125 3.5 -4.0
 endloop
endfacet
facet normal 1.0 0.0 -0.0
 outer loop
  vertex 0.125 3.5 -4.0
  vertex 0.125 3.793448710775017 -3.5440641840357374
  vertex 0.125 3.2505153005303624 -3.5202607771884877
 endloop
endfacet
facet normal 1.0 0.0 0.0
 outer loop
  vertex 0.125 4.5 -4.0
  vertex 0.125 4.254389139870106 -3.5827515717603515
  vertex 0.125 4.0 -4.0
 endloop
endfacet
facet normal 1.0 0.0 -0.0
 outer loop
  vertex 0.125 4.0 -4.0
  vertex 0.125 4.254389139870106 -3.5827515717603515
  vertex 0.125 3.793448710775017 -3.5440641840357374
 endloop
endfacet
facet normal 1.0 0.0 -0.0
 outer loop
  vertex 0.125 4.5 -4.0
  vertex 0.125 4.633974596215561 -3.633974596215561
  vertex 0.125 4.254389139870106 -3.5827515717603515
 endloop
endfacet
facet normal 1.0 0.0 0.0
 outer loop
  vertex 0.125 2.714049204609445 -0.44969752409846375
  vertex 0.125 2.238193774206763 -0.4413812212551935
  vertex 0.125 2.4391410682332095 -0.9317485255557041
 endloop
endfacet
facet normal 1.0 0.0 0.0
 outer loop
  vertex 0.125 2.4391410682332095 -0.9317485255557041
  vertex 0.125 2.901775729004801 -0.8326496893716335
  vertex 0.125 2.714049204609445 -0.44969752409846375
 endloop
endfacet
facet normal 1.0 0.0 0.0
 outer loop
  vertex 0.125 2.714049204609445 -0.44969752409846375
  vertex 0.125 2.901775729004801 -0.8326496893716335
  vertex 0.125 3.2576570966697096 -0.5123533471781054
 endloop
endfacet
facet normal 1.0 0.0 -0.0
 outer loop
  vertex 0.125 1.4330127018922194 -2.75
  vertex 0.125 1.7009618943233404 -2.5
  vertex 0.125 1.4330127018922192 -2.25
 endloop
endfacet
facet normal 1.0 0.0 0.0
 outer loop
  vertex 0.125 1.4330127018922192 -2.25
  vertex 0.125 1.7009618943233404 -2.0
  vertex 0.125 1.4330127018922192 -1.75
 endloop
endfacet
facet normal 1.0 0.0 -0.0
 outer loop
  vertex 0.125 1.7009618943233404 -2.5
  vertex 0.125 1.7009618943233404 -2.0
  vertex 0.125 1.4330127018922192 -2.25
 endloop
endfacet
facet normal 1.0 0.0 0.0
 outer loop
  vertex 0.125 4.56698729810778 -2.25
  vertex 0.125 4.134242003975681 -2.499941147648877
  vertex 0.125 4.568591744668497 -2.7496468858932603
 endloop
endfacet
facet normal 1.0 0.0 0.0
 outer loop
  vertex 0.125 4.56698729810778 -2.25
  vertex 0.125 4.134019164175581 -1.9999901912748128
  vertex 0.125 4.134242003975681 -2.499941147648877
 endloop
endfacet
facet normal 1.0 0.0 -0.0
 outer loop
  vertex 0.125 4.56698729810778 -2.25
  vertex 0.125 4.566994726101117 -1.7499983652124684
  vertex 0.125 4.134019164175581 -1.9999901912748128
 endloop
endfacet
facet normal 1.0 0.0 0.0
 outer loop
  vertex 0.125 3.2505153005303624 -3.5202607771884877
  vertex 0.125 3.250020843529599 -2.9849138623292744
  vertex 0.125 2.804736866081499 -3.2431778602327856
 endloop
endfacet
facet normal 1.0 0.0 0.0
 outer loop
  vertex 0.125 2.804736866081499 -3.2431778602327856
  vertex 0.125 2.75 -3.661857195049958
  vertex 0.125 3.2505153005303624 -3.5202607771884877
 endloop
endfacet
facet normal 1.0 0.0 0.0
 outer loop
  vertex 0.125 3.793448710775017 -3.5440641840357374
  vertex 0.125 3.615660757621064 -3.1718345855209997
  vertex 0.125 3.2505153005303624 -3.5202607771884877
 endloop
endfacet
facet normal 1.0 0.0 -0.0
 outer loop
  vertex 0.125 3.2505153005303624 -3.5202607771884877
  vertex 0.125 3.615660757621064 -3.1718345855209997
  vertex 0.125 3.250020843529599 -2.9849138623292744
 endloop
endfacet
facet normal 1.0 0.0 -0.0
 outer loop
  vertex 0.125 4.091389969976396 -0.9243779346551486
  vertex 0.125 4.254344719548255 -0.4161816635575599
  vertex 0.125 3.793362827353289 -0.4481480624777143
 endloop
endfacet
facet normal 1.0 0.0 0.0
 outer loop
  vertex 0.125 3.793362827353289 -0.4481480624777143
  vertex 0.125 3.6196186803508015 -0.8337663033661382
  vertex 0.125 4.091389969976396 -0.9243779346551486
 endloop
endfacet
facet normal 1.0 -0.0 0.0
 outer loop
  vertex 0.125 3.2576570966697096 -0.5123533471781054
  vertex 0.125 3.6196186803508015 -0.8337663033661382
  vertex 0.125 3.793362827353289 -0.4481480624777143
 endloop
endfacet
facet normal 1.0 0.0 -0.0
 outer loop
  vertex 0.125 1.4330127018922192 -1.75
  vertex 0.125 1.7009618943233389 -1.5
  vertex 0.125 1.4179727443457506 -1.2512434639392107
 endloop
endfacet
facet normal 1.0 0.0 -0.0
 outer loop
  vertex 0.125 1.4179727443457506 -1.2512434639392107
  vertex 0.125 1.6985799895389349 -1.0041422935749007
  vertex 0.125 1.3717025946938803 -0.7674148847255502
 endloop
endfacet
facet normal 1.0 0.0 0.0
 outer loop
  vertex 0.125 1.7009618943233389 -1.5
  vertex 0.125 1.6985799895389349 -1.0041422935749007
  vertex 0.125 1.4179727443457506 -1.2512434639392107
 endloop
endfacet
facet normal 1.0 0.0 0.0
 outer loop
  vertex 0.125 2.323096104307953 -3.5269492595928327
  vertex 0.125 2.804736866081499 -3.2431778602327856
  vertex 0.125 2.4019237886466858 -3.0000000000000036
 endloop
endfacet
facet normal 1.0 0.0 0.0
 outer loop
  vertex 0.125 2.4019237886466858 -3.0000000000000036
  vertex 0.125 2.0002933981317517 -3.1956442422355984
  vertex 0.125 2.323096104307953 -3.5269492595928327
 endloop
endfacet
facet normal 1.0 -0.0 0.0
 outer loop
  vertex 0.125 2.323096104307953 -3.5269492595928327
  vertex 0.125 2.75 -3.661857195049958
  vertex 0.125 2.804736866081499 -3.2431778602327856
 endloop
endfacet
facet normal 1.0 0.0 0.0
 outer loop
  vertex 0.125 2.323096104307953 -3.5269492595928327
  vertex 0.125 2.0002933981317517 -3.1956442422355984
  vertex 0.125 1.7734480273579036 -3.586336867771144
 endloop
endfacet
facet normal 1.0 0.0 0.0
 outer loop
  vertex 0.125 4.566987298107781 -1.25
  vertex 0.125 4.125490295911015 -1.4898116022727104
  vertex 0.125 4.566994726101117 -1.7499983652124684
 endloop
endfacet
facet normal 1.0 0.0 0.0
 outer loop
  vertex 0.125 4.576613977472084 -0.7521186846404384
  vertex 0.125 4.091389969976396 -0.9243779346551486
  vertex 0.125 4.566987298107781 -1.25
 endloop
endfacet
facet normal 1.0 0.0 0.0
 outer loop
  vertex 0.125 4.091389969976396 -0.9243779346551486
  vertex 0.125 4.125490295911015 -1.4898116022727104
  vertex 0.125 4.566987298107781 -1.25
 endloop
endfacet
facet normal 1.0 0.0 0.0
 outer loop
  vertex 0.125 4.568591744668497 -2.7496468858932603
  vertex 0.125 4.0916772172582245 -3.074448995501859
  vertex 0.125 4.576613977472084 -3.247881315359562
 endloop
endfacet
facet normal 1.0 0.0 0.0
 outer loop
  vertex 0.125 4.0916772172582245 -3.074448995501859
  vertex 0.125 4.254389139870106 -3.5827515717603515
  vertex 0.125 4.576613977472084 -3.247881315359562
 endloop
endfacet
facet normal 1.0 -0.0 0.0
 outer loop
  vertex 0.125 4.254389139870106 -3.5827515717603515
  vertex 0.125 4.633974596215561 -3.633974596215561
  vertex 0.125 4.576613977472084 -3.247881315359562
 endloop
endfacet
facet normal 1.0 0.0 0.0
 outer loop
  vertex 0.125 1.4330127018922192 -3.25
  vertex 0.125 1.701227755283837 -2.9593544276985977
  vertex 0.125 1.4330127018922194 -2.75
 endloop
endfacet
facet normal 1.0 0.0 -0.0
 outer loop
  vertex 0.125 1.7734480273579036 -3.586336867771144
  vertex 0.125 2.0002933981317517 -3.1956442422355984
  vertex 0.125 1.4330127018922192 -3.25
 endloop
endfacet
facet normal 1.0 0.0 0.0
 outer loop
  vertex 0.125 1.4330127018922192 -3.25
  vertex 0.125 1.3660254037844388 -3.6339745962155616
  vertex 0.125 1.7734480273579036 -3.586336867771144
 endloop
endfacet
facet normal 1.0 0.0 0.0
 outer loop
  vertex 0.125 2.0002933981317517 -3.1956442422355984
  vertex 0.125 1.701227755283837 -2.9593544276985977
  vertex 0.125 1.4330127018922192 -3.25
 endloop
endfacet
facet normal 1.0 -0.0 0.0
 outer loop
  vertex 0.125 1.7476374304941578 -0.4830781470547514
  vertex 0.125 2.0228516883459218 -0.8227744809794966
  vertex 0.125 2.238193774206763 -0.4413812212551935
 endloop
endfacet
facet normal 1.0 0.0 0.0
 outer loop
  vertex 0.125 1.7476374304941578 -0.4830781470547514
  vertex 0.125 1.3660254037844386 -0.3660254037844388
  vertex 0.125 1.3717025946938803 -0.7674148847255502
 endloop
endfacet
facet normal 1.0 -0.0 0.0
 outer loop
  vertex 0.125 1.3717025946938803 -0.7674148847255502
  vertex 0.125 1.6985799895389349 -1.0041422935749007
  vertex 0.125 1.7476374304941578 -0.4830781470547514
 endloop
endfacet
facet normal 1.0 0.0 0.0
 outer loop
  vertex 0.125 1.7476374304941578 -0.4830781470547514
  vertex 0.125 1.6985799895389349 -1.0041422935749007
  vertex 0.125 2.0228516883459218 -0.8227744809794966
 endloop
endfacet
facet normal 1.0 0.0 0.0
 outer loop
  vertex 0.125 4.134242003975681 -2.499941147648877
  vertex 0.125 4.0916772172582245 -3.074448995501859
  vertex 0.125 4.568591744668497 -2.7496468858932603
 endloop
endfacet
facet normal 1.0 0.0 0.0
 outer loop
  vertex 0.125 4.134019164175581 -1.9999901912748128
  vertex 0.125 3.701013890276699 -2.2499885564872826
  vertex 0.125 4.134242003975681 -2.499941147648877
 endloop
endfacet
facet normal 1.0 0.0 0.0
 outer loop
  vertex 0.125 3.701013890276699 -2.2499885564872826
  vertex 0.125 3.6926417160121163 -2.735485108549639
  vertex 0.125 4.134242003975681 -2.499941147648877
 endloop
endfacet
facet normal 1.0 -0.0 0.0
 outer loop
  vertex 0.125 3.6926417160121163 -2.735485108549639
  vertex 0.125 4.0916772172582245 -3.074448995501859
  vertex 0.125 4.134242003975681 -2.499941147648877
 endloop
endfacet
facet normal 1.0 0.0 0.0
 outer loop
  vertex 0.125 4.134019164175581 -1.9999901912748128
  vertex 0.125 3.7009618943233416 -1.7500000000000009
  vertex 0.125 3.701013890276699 -2.2499885564872826
 endloop
endfacet
facet normal 1.0 0.0 0.0
 outer loop
  vertex 0.125 4.134019164175581 -1.9999901912748128
  vertex 0.125 4.125490295911015 -1.4898116022727104
  vertex 0.125 3.7009618943233416 -1.7500000000000009
 endloop
endfacet
facet normal 1.0 0.0 0.0
 outer loop
  vertex 0.125 4.566994726101117 -1.7499983652124684
  vertex 0.125 4.125490295911015 -1.4898116022727104
  vertex 0.125 4.134019164175581 -1.9999901912748128
 endloop
endfacet
facet normal 1.0 0.0 0.0
 outer loop
  vertex 0.125 3.7009618943233416 -1.7500000000000009
  vertex 0.125 3.2679578584233484 -1.9999980927478824
  vertex 0.125 3.701013890276699 -2.2499885564872826
 endloop
endfacet
facet normal 1.0 0.0 0.0
 outer loop
  vertex 0.125 3.2679578584233484 -1.9999980927478824
  vertex 0.125 3.26657294723824 -2.497578551277632
  vertex 0.125 3.701013890276699 -2.2499885564872826
 endloop
endfacet
facet normal 1.0 0.0 0.0
 outer loop
  vertex 0.125 3.701013890276699 -2.2499885564872826
  vertex 0.125 3.26657294723824 -2.497578551277632
  vertex 0.125 3.6926417160121163 -2.735485108549639
 endloop
endfacet
facet normal 1.0 0.0 0.0
 outer loop
  vertex 0.125 3.7009618943233416 -1.7500000000000009
  vertex 0.125 3.2679506367631594 -1.4999996821246486
  vertex 0.125 3.2679578584233484 -1.9999980927478824
 endloop
endfacet
facet normal 1.0 0.0 0.0
 outer loop
  vertex 0.125 3.7009618943233416 -1.7500000000000009
  vertex 0.125 3.692588722781875 -1.2645031224938297
  vertex 0.125 3.2679506367631594 -1.4999996821246486
 endloop
endfacet
facet normal 1.0 0.0 -0.0
 outer loop
  vertex 0.125 3.7009618943233416 -1.7500000000000009
  vertex 0.125 4.125490295911015 -1.4898116022727104
  vertex 0.125 3.692588722781875 -1.2645031224938297
 endloop
endfacet
facet normal 1.0 0.0 0.0
 outer loop
  vertex 0.125 3.2679506367631594 -1.4999996821246486
  vertex 0.125 2.834938175592947 -1.7499996291454236
  vertex 0.125 3.2679578584233484 -1.9999980927478824
 endloop
endfacet
facet normal 1.0 0.0 0.0
 outer loop
  vertex 0.125 2.834938175592947 -1.7499996291454236
  vertex 0.125 2.834938215713282 -2.249999620315553
  vertex 0.125 3.2679578584233484 -1.9999980927478824
 endloop
endfacet
facet normal 1.0 -0.0 0.0
 outer loop
  vertex 0.125 2.834938215713282 -2.249999620315553
  vertex 0.125 3.26657294723824 -2.497578551277632
  vertex 0.125 3.2679578584233484 -1.9999980927478824
 endloop
endfacet
facet normal 1.0 0.0 0.0
 outer loop
  vertex 0.125 3.2679506367631594 -1.4999996821246486
  vertex 0.125 2.8349364905389023 -1.2500000000000018
  vertex 0.125 2.834938175592947 -1.7499996291454236
 endloop
endfacet
facet normal 1.0 0.0 0.0
 outer loop
  vertex 0.125 3.692588722781875 -1.2645031224938297
  vertex 0.125 3.2630947849727385 -1.0194490500258944
  vertex 0.125 3.2679506367631594 -1.4999996821246486
 endloop
endfacet
facet normal 1.0 0.0 0.0
 outer loop
  vertex 0.125 3.2630947849727385 -1.0194490500258944
  vertex 0.125 2.8349364905389023 -1.2500000000000018
  vertex 0.125 3.2679506367631594 -1.4999996821246486
 endloop
endfacet
facet normal 1.0 0.0 0.0
 outer loop
  vertex 0.125 2.834938175592947 -1.7499996291454236
  vertex 0.125 2.4019243570180877 -1.9999998749101655
  vertex 0.125 2.834938215713282 -2.249999620315553
 endloop
endfacet
facet normal 1.0 0.0 0.0
 outer loop
  vertex 0.125 2.834938175592947 -1.7499996291454236
  vertex 0.125 2.401924164217591 -1.4999999173426009
  vertex 0.125 2.4019243570180877 -1.9999998749101655
 endloop
endfacet
facet normal 1.0 0.0 0.0
 outer loop
  vertex 0.125 2.834938175592947 -1.7499996291454236
  vertex 0.125 2.8349364905389023 -1.2500000000000018
  vertex 0.125 2.401924164217591 -1.4999999173426009
 endloop
endfacet
facet normal 1.0 0.0 0.0
 outer loop
  vertex 0.125 2.4019243570180877 -1.9999998749101655
  vertex 0.125 2.401923983676088 -2.4999999570770197
  vertex 0.125 2.834938215713282 -2.249999620315553
 endloop
endfacet
facet normal 1.0 -0.0 0.0
 outer loop
  vertex 0.125 2.401923983676088 -2.4999999570770197
  vertex 0.125 2.8349368105728683 -2.7499999295654307
  vertex 0.125 2.834938215713282 -2.249999620315553
 endloop
endfacet
facet normal 1.0 0.0 0.0
 outer loop
  vertex 0.125 2.8349368105728683 -2.7499999295654307
  vertex 0.125 3.26657294723824 -2.497578551277632
  vertex 0.125 2.834938215713282 -2.249999620315553
 endloop
endfacet
facet normal 1.0 0.0 0.0
 outer loop
  vertex 0.125 2.401924164217591 -1.4999999173426009
  vertex 0.125 1.9689110867544648 -1.7500000000000044
  vertex 0.125 2.4019243570180877 -1.9999998749101655
 endloop
endfacet
facet normal 1.0 0.0 0.0
 outer loop
  vertex 0.125 2.4019243570180877 -1.9999998749101655
  vertex 0.125 1.9689110867544655 -2.2500000000000036
  vertex 0.125 2.401923983676088 -2.4999999570770197
 endloop
endfacet
facet normal 1.0 0.0 0.0
 outer loop
  vertex 0.125 1.9689110867544648 -1.7500000000000044
  vertex 0.125 1.9689110867544655 -2.2500000000000036
  vertex 0.125 2.4019243570180877 -1.9999998749101655
 endloop
endfacet
facet normal 1.0 0.0 0.0
 outer loop
  vertex 0.125 2.401924164217591 -1.4999999173426009
  vertex 0.125 1.990706179256542 -1.2535222174569327
  vertex 0.125 1.9689110867544648 -1.7500000000000044
 endloop
endfacet
facet normal 1.0 0.0 -0.0
 outer loop
  vertex 0.125 2.401924164217591 -1.4999999173426009
  vertex 0.125 2.4391410682332095 -0.9317485255557041
  vertex 0.125 1.990706179256542 -1.2535222174569327
 endloop
endfacet
facet normal 1.0 0.0 0.0
 outer loop
  vertex 0.125 2.401924164217591 -1.4999999173426009
  vertex 0.125 2.8349364905389023 -1.2500000000000018
  vertex 0.125 2.4391410682332095 -0.9317485255557041
 endloop
endfacet
facet normal 1.0 0.0 0.0
 outer loop
  vertex 0.125 2.401923983676088 -2.4999999570770197
  vertex 0.125 2.4019237886466858 -3.0000000000000036
  vertex 0.125 2.8349368105728683 -2.7499999295654307
 endloop
endfacet
facet normal 1.0 0.0 0.0
 outer loop
  vertex 0.125 2.401923983676088 -2.4999999570770197
  vertex 0.125 1.9905249284099118 -2.746698505789156
  vertex 0.125 2.4019237886466858 -3.0000000000000036
 endloop
endfacet
facet normal 1.0 0.0 0.0
 outer loop
  vertex 0.125 2.401923983676088 -2.4999999570770197
  vertex 0.125 1.9689110867544655 -2.2500000000000036
  vertex 0.125 1.9905249284099118 -2.746698505789156
 endloop
endfacet
facet normal 1.0 0.0 0.0
 outer loop
  vertex 0.125 3.26657294723824 -2.497578551277632
  vertex 0.125 3.250020843529599 -2.9849138623292744
  vertex 0.125 3.6926417160121163 -2.735485108549639
 endloop
endfacet
facet normal 1.0 -0.0 0.0
 outer loop
  vertex 0.125 3.250020843529599 -2.9849138623292744
  vertex 0.125 3.615660757621064 -3.1718345855209997
  vertex 0.125 3.6926417160121163 -2.735485108549639
 endloop
endfacet
facet normal 1.0 0.0 0.0
 outer loop
  vertex 0.125 3.6926417160121163 -2.735485108549639
  vertex 0.125 3.615660757621064 -3.1718345855209997
  vertex 0.125 4.0916772172582245 -3.074448995501859
 endloop
endfacet
facet normal 1.0 -0.0 0.0
 outer loop
  vertex 0.125 2.4019237886466858 -3.0000000000000036
  vertex 0.125 2.804736866081499 -3.2431778602327856
  vertex 0.125 2.8349368105728683 -2.7499999295654307
 endloop
endfacet
facet normal 1.0 0.0 0.0
 outer loop
  vertex 0.125 2.804736866081499 -3.2431778602327856
  vertex 0.125 3.250020843529599 -2.9849138623292744
  vertex 0.125 2.8349368105728683 -2.7499999295654307
 endloop
endfacet
facet normal 1.0 -0.0 0.0
 outer loop
  vertex 0.125 2.8349368105728683 -2.7499999295654307
  vertex 0.125 3.250020843529599 -2.9849138623292744
  vertex 0.125 3.26657294723824 -2.497578551277632
 endloop
endfacet
facet normal 1.0 0.0 0.0
 outer loop
  vertex 0.125 3.692588722781875 -1.2645031224938297
  vertex 0.125 3.6196186803508015 -0.8337663033661382
  vertex 0.125 3.2630947849727385 -1.0194490500258944
 endloop
endfacet
facet normal 1.0 -0.0 0.0
 outer loop
  vertex 0.125 3.692588722781875 -1.2645031224938297
  vertex 0.125 4.125490295911015 -1.4898116022727104
  vertex 0.125 4.091389969976396 -0.9243779346551486
 endloop
endfacet
facet normal 1.0 0.0 0.0
 outer loop
  vertex 0.125 4.091389969976396 -0.9243779346551486
  vertex 0.125 3.6196186803508015 -0.8337663033661382
  vertex 0.125 3.692588722781875 -1.2645031224938297
 endloop
endfacet
facet normal 1.0 0.0 0.0
 outer loop
  vertex 0.125 1.990706179256542 -1.2535222174569327
  vertex 0.125 1.7009618943233389 -1.5
  vertex 0.125 1.9689110867544648 -1.7500000000000044
 endloop
endfacet
facet normal 1.0 0.0 0.0
 outer loop
  vertex 0.125 1.9689110867544648 -1.7500000000000044
  vertex 0.125 1.7009618943233404 -2.0
  vertex 0.125 1.9689110867544655 -2.2500000000000036
 endloop
endfacet
facet normal 1.0 0.0 0.0
 outer loop
  vertex 0.125 1.9689110867544648 -1.7500000000000044
  vertex 0.125 1.7009618943233389 -1.5
  vertex 0.125 1.7009618943233404 -2.0
 endloop
endfacet
facet normal 1.0 0.0 0.0
 outer loop
  vertex 0.125 3.2576570966697096 -0.5123533471781054
  vertex 0.125 2.901775729004801 -0.8326496893716335
  vertex 0.125 3.2630947849727385 -1.0194490500258944
 endloop
endfacet
facet normal 1.0 0.0 -0.0
 outer loop
  vertex 0.125 3.2630947849727385 -1.0194490500258944
  vertex 0.125 3.6196186803508015 -0.8337663033661382
  vertex 0.125 3.2576570966697096 -0.5123533471781054
 endloop
endfacet
facet normal 1.0 0.0 0.0
 outer loop
  vertex 0.125 3.2630947849727385 -1.0194490500258944
  vertex 0.125 2.901775729004801 -0.8326496893716335
  vertex 0.125 2.8349364905389023 -1.2500000000000018
 endloop
endfacet
facet normal 1.0 0.0 0.0
 outer loop
  vertex 0.125 1.9905249284099118 -2.746698505789156
  vertex 0.125 2.0002933981317517 -3.1956442422355984
  vertex 0.125 2.4019237886466858 -3.0000000000000036
 endloop
endfacet
facet normal 1.0 0.0 0.0
 outer loop
  vertex 0.125 1.9689110867544655 -2.2500000000000036
  vertex 0.125 1.7009618943233404 -2.5
  vertex 0.125 1.9905249284099118 -2.746698505789156
 endloop
endfacet
facet normal 1.0 0.0 0.0
 outer loop
  vertex 0.125 1.9905249284099118 -2.746698505789156
  vertex 0.125 1.701227755283837 -2.9593544276985977
  vertex 0.125 2.0002933981317517 -3.1956442422355984
 endloop
endfacet
facet normal 1.0 0.0 0.0
 outer loop
  vertex 0.125 1.7009618943233404 -2.5
  vertex 0.125 1.701227755283837 -2.9593544276985977
  vertex 0.125 1.9905249284099118 -2.746698505789156
 endloop
endfacet
facet normal 1.0 0.0 0.0
 outer loop
  vertex 0.125 2.4391410682332095 -0.9317485255557041
  vertex 0.125 2.0228516883459218 -0.8227744809794966
  vertex 0.125 1.990706179256542 -1.2535222174569327
 endloop
endfacet
facet normal 1.0 0.0 0.0
 outer loop
  vertex 0.125 2.0228516883459218 -0.8227744809794966
  vertex 0.125 1.6985799895389349 -1.0041422935749007
  vertex 0.125 1.990706179256542 -1.2535222174569327
 endloop
endfacet
facet normal 1.0 0.0 0.0
 outer loop
  vertex 0.125 1.990706179256542 -1.2535222174569327
  vertex 0.125 1.6985799895389349 -1.0041422935749007
  vertex 0.125 1.7009618943233389 -1.5
 endloop
endfacet
facet normal 1.0 0.0 0.0
 outer loop
  vertex 0.125 2.238193774206763 -0.4413812212551935
  vertex 0.125 2.0228516883459218 -0.8227744809794966
  vertex 0.125 2.4391410682332095 -0.9317485255557041
 endloop
endfacet
facet normal 1.0 0.0 -0.0
 outer loop
  vertex 0.125 2.8349364905389023 -1.2500000000000018
  vertex 0.125 2.901775729004801 -0.8326496893716335
  vertex 0.125 2.4391410682332095 -0.9317485255557041
 endloop
endfacet
facet normal 1.0 0.0 0.0
 outer loop
  vertex 0.125 4.576613977472084 -0.7521186846404384
  vertex 0.125 4.254344719548255 -0.4161816635575599
  vertex 0.125 4.091389969976396 -0.9243779346551486
 endloop
endfacet
facet normal 1.0 0.0 -0.0
 outer loop
  vertex 0.125 4.576613977472084 -0.7521186846404384
  vertex 0.125 4.633974596215561 -0.3660254037844388
  vertex 0.125 4.254344719548255 -0.4161816635575599
 endloop
endfacet
facet normal 1.0 -0.0 0.0
 outer loop
  vertex 0.125 1.4330127018922194 -2.75
  vertex 0.125 1.701227755283837 -2.9593544276985977
  vertex 0.125 1.7009618943233404 -2.5
 endloop
endfacet
facet normal 1.0 0.0 0.0
 outer loop
  vertex 0.125 1.7009618943233404 -2.0
  vertex 0.125 1.7009618943233389 -1.5
  vertex 0.125 1.4330127018922192 -1.75
 endloop
endfacet
facet normal 1.0 -0.0 0.0
 outer loop
  vertex 0.125 3.793448710775017 -3.5440641840357374
  vertex 0.125 4.254389139870106 -3.5827515717603515
  vertex 0.125 4.0916772172582245 -3.074448995501859
 endloop
endfacet
facet normal 1.0 0.0 0.0
 outer loop
  vertex 0.125 4.0916772172582245 -3.074448995501859
  vertex 0.125 3.615660757621064 -3.1718345855209997
  vertex 0.125 3.793448710775017 -3.5440641840357374
 endloop
endfacet
facet normal 1.0 0.0 0.0
 outer loop
  vertex 0.125 1.9689110867544655 -2.2500000000000036
  vertex 0.125 1.7009618943233404 -2.0
  vertex 0.125 1.7009618943233404 -2.5
 endloop
endfacet
facet normal 0.0 -1.0 0.0
 outer loop
  vertex 0.0 1.0 0.0
  vertex 0.125 1.0 -0.5
  vertex 0.125 1.0 0.0
 endloop
endfacet
facet normal 0.0 -1.0 0.0
 outer loop
  vertex 0.0 1.0 0.0
  vertex 0.0 1.0 -0.5
  vertex 0.125 1.0 -0.5
 endloop
endfacet
facet normal 0.0 -1.0 0.0
 outer loop
  vertex 0.0 1.0 -4.0
  vertex 0.125 1.0 -4.0
  vertex 0.125 1.0 -3.5
 endloop
endfacet
facet normal 0.0 -1.0 0.0
 outer loop
  vertex 0.0 1.0 -4.0
  vertex 0.125 1.0 -3.5
  vertex 0.0 1.0 -3.5
 endloop
endfacet
facet normal 0.0 -1.0 0.0
 outer loop
  vertex 0.125 1.0 -3.5
  vertex 0.0 1.0 -3.0
  vertex 0.0 1.0 -3.5
 endloop
endfacet
facet normal 0.0 -1.0 0.0
 outer loop
  vertex 0.0 1.0 -3.0
  vertex 0.125 1.0 -2.5
  vertex 0.0 1.0 -2.5
 endloop
endfacet
facet normal 0.0 -1.0 0.0
 outer loop
  vertex 0.0 1.0 -3.0
  vertex 0.125 1.0 -3.5
  vertex 0.125 1.0 -3.0
 endloop
endfacet
facet normal 0.0 -1.0 -0.0
 outer loop
  vertex 0.125 1.0 -2.5
  vertex 0.0 1.0 -3.0
  vertex 0.125 1.0 -3.0
 endloop
endfacet
facet normal 0.0 -1.0 0.0
 outer loop
  vertex 0.0 1.0 -2.5
  vertex 0.125 1.0 -2.0
  vertex 0.0 1.0 -2.0
 endloop
endfacet
facet normal 0.0 -1.0 0.0
 outer loop
  vertex 0.125 1.0 -2.5
  vertex 0.125 1.0 -2.0
  vertex 0.0 1.0 -2.5
 endloop
endfacet
facet normal 0.0 -1.0 0.0
 outer loop
  vertex 0.0 1.0 -2.0
  vertex 0.125 1.0 -1.5
  vertex 0.0 1.0 -1.5
 endloop
endfacet
facet normal 0.0 -1.0 0.0
 outer loop
  vertex 0.125 1.0 -2.0
  vertex 0.125 1.0 -1.5
  vertex 0.0 1.0 -2.0
 endloop
endfacet
facet normal 0.0 -1.0 0.0
 outer loop
  vertex 0.125 1.0 -1.5
  vertex 0.0 1.0 -1.0
  vertex 0.0 1.0 -1.5
 endloop
endfacet
facet normal -0.0 -1.0 0.0
 outer loop
  vertex 0.125 1.0 -0.5
  vertex 0.0 1.0 -0.5
  vertex 0.0 1.0 -1.0
 endloop
endfacet
facet normal 0.0 -1.0 0.0
 outer loop
  vertex 0.0 1.0 -1.0
  vertex 0.125 1.0 -1.5
  vertex 0.125 1.0 -1.0
 endloop
endfacet
facet normal 0.0 -1.0 -0.0
 outer loop
  vertex 0.125 1.0 -0.5
  vertex 0.0 1.0 -1.0
  vertex 0.125 1.0 -1.0
 endloop
endfacet
facet normal -0.0 1.0 0.0
 outer loop
  vertex 0.0 5.0 0.0
  vertex 0.125 5.0 0.0
  vertex 0.125 5.0 -0.5
 endloop
endfacet
facet normal 0.0 1.0 0.0
 outer loop
  vertex 0.0 5.0 0.0
  vertex 0.125 5.0 -0.5
  vertex 0.0 5.0 -0.5
 endloop
endfacet
facet normal 0.0 1.0 0.0
 outer loop
  vertex 0.0 5.0 -4.0
  vertex 0.125 5.0 -3.5
  vertex 0.125 5.0 -4.0
 endloop
endfacet
facet normal 0.0 1.0 0.0
 outer loop
  vertex 0.0 5.0 -4.0
  vertex 0.0 5.0 -3.5
  vertex 0.125 5.0 -3.5
 endloop
endfacet
facet normal 0.0 1.0 0.0
 outer loop
  vertex 0.125 5.0 -3.5
  vertex 0.0 5.0 -3.5
  vertex 0.0 5.0 -3.0
 endloop
endfacet
facet normal 0.0 1.0 0.0
 outer loop
  vertex 0.0 5.0 -3.0
  vertex 0.0 5.0 -2.5
  vertex 0.125 5.0 -2.5
 endloop
endfacet
facet normal -0.0 1.0 0.0
 outer loop
  vertex 0.0 5.0 -3.0
  vertex 0.125 5.0 -3.0
  vertex 0.125 5.0 -3.5
 endloop
endfacet
facet normal 0.0 1.0 0.0
 outer loop
  vertex 0.125 5.0 -2.5
  vertex 0.125 5.0 -3.0
  vertex 0.0 5.0 -3.0
 endloop
endfacet
facet normal 0.0 1.0 0.0
 outer loop
  vertex 0.0 5.0 -2.5
  vertex 0.0 5.0 -2.0
  vertex 0.125 5.0 -2.0
 endloop
endfacet
facet normal 0.0 1.0 -0.0
 outer loop
  vertex 0.125 5.0 -2.5
  vertex 0.0 5.0 -2.5
  vertex 0.125 5.0 -2.0
 endloop
endfacet
facet normal 0.0 1.0 0.0
 outer loop
  vertex 0.0 5.0 -2.0
  vertex 0.0 5.0 -1.5
  vertex 0.125 5.0 -1.5
 endloop
endfacet
facet normal 0.0 1.0 -0.0
 outer loop
  vertex 0.125 5.0 -2.0
  vertex 0.0 5.0 -2.0
  vertex 0.125 5.0 -1.5
 endloop
endfacet
facet normal 0.0 1.0 0.0
 outer loop
  vertex 0.0 5.0 -1.5
  vertex 0.0 5.0 -1.0
  vertex 0.125 5.0 -1.0
 endloop
endfacet
facet normal 0.0 1.0 -0.0
 outer loop
  vertex 0.125 5.0 -1.5
  vertex 0.0 5.0 -1.5
  vertex 0.125 5.0 -1.0
 endloop
endfacet
facet normal 0.0 1.0 0.0
 outer loop
  vertex 0.125 5.0 -1.0
  vertex 0.0 5.0 -1.0
  vertex 0.0 5.0 -0.5
 endloop
endfacet
facet normal -0.0 1.0 0.0
 outer loop
  vertex 0.0 5.0 -0.5
  vertex 0.125 5.0 -0.5
  vertex 0.125 5.0 -1.0
 endloop
endfacet
facet normal 0.0 0.0 -1.0
 outer loop
  vertex 0.0 1.0 -4.0
  vertex 0.125 1.5 -4.0
  vertex 0.125 1.0 -4.0
 endloop
endfacet
facet normal -0.0 0.0 -1.0
 outer loop
  vertex 0.125 1.5 -4.0
  vertex 0.0 1.0 -4.0
  vertex 0.0 1.5 -4.0
 endloop
endfacet
facet normal 0.0 0.0 -1.0
 outer loop
  vertex 0.0 5.0 -4.0
  vertex 0.125 5.0 -4.0
  vertex 0.125 4.5 -4.0
 endloop
endfacet
facet normal 0.0 0.0 -1.0
 outer loop
  vertex 0.0 5.0 -4.0
  vertex 0.125 4.5 -4.0
  vertex 0.0 4.5 -4.0
 endloop
endfacet
facet normal 0.0 0.0 -1.0
 outer loop
  vertex 0.0 2.0 -4.0
  vertex 0.125 1.5 -4.0
  vertex 0.0 1.5 -4.0
 endloop
endfacet
facet normal -0.0 0.0 -1.0
 outer loop
  vertex 0.125 2.5 -4.0
  vertex 0.0 2.0 -4.0
  vertex 0.0 2.5 -4.0
 endloop
endfacet
facet normal 0.0 0.0 -1.0
 outer loop
  vertex 0.125 1.5 -4.0
  vertex 0.0 2.0 -4.0
  vertex 0.125 2.0 -4.0
 endloop
endfacet
facet normal 0.0 0.0 -1.0
 outer loop
  vertex 0.0 2.0 -4.0
  vertex 0.125 2.5 -4.0
  vertex 0.125 2.0 -4.0
 endloop
endfacet
facet normal -0.0 0.0 -1.0
 outer loop
  vertex 0.125 3.0 -4.0
  vertex 0.0 2.5 -4.0
  vertex 0.0 3.0 -4.0
 endloop
endfacet
facet normal 0.0 -0.0 -1.0
 outer loop
  vertex 0.125 3.0 -4.0
  vertex 0.125 2.5 -4.0
  vertex 0.0 2.5 -4.0
 endloop
endfacet
facet normal -0.0 0.0 -1.0
 outer loop
  vertex 0.125 3.5 -4.0
  vertex 0.0 3.0 -4.0
  vertex 0.0 3.5 -4.0
 endloop
endfacet
facet normal 0.0 -0.0 -1.0
 outer loop
  vertex 0.125 3.5 -4.0
  vertex 0.125 3.0 -4.0
  vertex 0.0 3.0 -4.0
 endloop
endfacet
facet normal -0.0 0.0 -1.0
 outer loop
  vertex 0.125 4.0 -4.0
  vertex 0.0 3.5 -4.0
  vertex 0.0 4.0 -4.0
 endloop
endfacet
facet normal 0.0 -0.0 -1.0
 outer loop
  vertex 0.125 4.0 -4.0
  vertex 0.125 3.5 -4.0
  vertex 0.0 3.5 -4.0
 endloop
endfacet
facet normal -0.0 0.0 -1.0
 outer loop
  vertex 0.125 4.5 -4.0
  vertex 0.0 4.0 -4.0
  vertex 0.0 4.5 -4.0
 endloop
endfacet
facet normal 0.0 -0.0 -1.0
 outer loop
  vertex 0.125 4.5 -4.0
  vertex 0.125 4.0 -4.0
  vertex 0.0 4.0 -4.0
 endloop
endfacet
facet normal 0.0 -0.0 1.0
 outer loop
  vertex 0.125 1.0 0.0
  vertex 0.125 1.5 0.0
  vertex 0.0 1.0 0.0
 endloop
endfacet
facet normal 0.0 0.0 1.0
 outer loop
  vertex 0.125 1.5 0.0
  vertex 0.0 1.5 0.0
  vertex 0.0 1.0 0.0
 endloop
endfacet
facet normal -0.0 0.0 1.0
 outer loop
  vertex 0.0 5.0 0.0
  vertex 0.125 4.5 0.0
  vertex 0.125 5.0 0.0
 endloop
endfacet
facet normal 0.0 0.0 1.0
 outer loop
  vertex 0.0 5.0 0.0
  vertex 0.0 4.5 0.0
  vertex 0.125 4.5 0.0
 endloop
endfacet
facet normal 0.0 0.0 1.0
 outer loop
  vertex 0.0 2.0 0.0
  vertex 0.0 1.5 0.0
  vertex 0.125 1.5 0.0
 endloop
endfacet
facet normal 0.0 0.0 1.0
 outer loop
  vertex 0.125 2.5 0.0
  vertex 0.0 2.5 0.0
  vertex 0.0 2.0 0.0
 endloop
endfacet
facet normal 0.0 -0.0 1.0
 outer loop
  vertex 0.125 1.5 0.0
  vertex 0.125 2.0 0.0
  vertex 0.0 2.0 0.0
 endloop
endfacet
facet normal 0.0 0.0 1.0
 outer loop
  vertex 0.0 2.0 0.0
  vertex 0.125 2.0 0.0
  vertex 0.125 2.5 0.0
 endloop
endfacet
facet normal 0.0 0.0 1.0
 outer loop
  vertex 0.125 3.0 0.0
  vertex 0.0 3.0 0.0
  vertex 0.0 2.5 0.0
 endloop
endfacet
facet normal 0.0 0.0 1.0
 outer loop
  vertex 0.125 3.0 0.0
  vertex 0.0 2.5 0.0
  vertex 0.125 2.5 0.0
 endloop
endfacet
facet normal 0.0 0.0 1.0
 outer loop
  vertex 0.125 3.5 0.0
  vertex 0.0 3.5 0.0
  vertex 0.0 3.0 0.0
 endloop
endfacet
facet normal 0.0 0.0 1.0
 outer loop
  vertex 0.125 3.5 0.0
  vertex 0.0 3.0 0.0
  vertex 0.125 3.0 0.0
 endloop
endfacet
facet normal 0.0 0.0 1.0
 outer loop
  vertex 0.125 4.0 0.0
  vertex 0.0 4.0 0.0
  vertex 0.0 3.5 0.0
 endloop
endfacet
facet normal 0.0 0.0 1.0
 outer loop
  vertex 0.125 4.0 0.0
  vertex 0.0 3.5 0.0
  vertex 0.125 3.5 0.0
 endloop
endfacet
facet normal 0.0 0.0 1.0
 outer loop
  vertex 0.125 4.5 0.0
  vertex 0.0 4.5 0.0
  vertex 0.0 4.0 0.0
 endloop
endfacet
facet normal 0.0 0.0 1.0
 outer loop
  vertex 0.125 4.5 0.0
  vertex 0.0 4.0 0.0
  vertex 0.125 4.0 0.0
 endloop
endfacet
endsolid
