solid
facet normal -1.0 0.0 0.0
 outer loop
  vertex -0.05 1.0 -0.5
  vertex -0.05 1.0 0.0
  vertex -0.05 1.3660254037844386 -0.3660254037844386
 endloop
endfacet
facet normal -1.0 0.0 0.0
 outer loop
  vertex -0.05 1.0 0.0
  vertex -0.05 1.5 0.0
  vertex -0.05 1.3660254037844386 -0.3660254037844386
 endloop
endfacet
facet normal -1.0 0.0 0.0
 outer loop
  vertex -0.05 1.0 -2.0
  vertex -0.05 1.0 -1.5
  vertex -0.05 1.3660254037844388 -1.6339745962155614
 endloop
endfacet
facet normal -1.0 0.0 0.0
 outer loop
  vertex -0.05 1.5 -2.0
  vertex -0.05 1.0 -2.0
  vertex -0.05 1.3660254037844388 -1.6339745962155614
 endloop
endfacet
facet normal -1.0 0.0 0.0
 outer loop
  vertex -0.05 3.5 0.0
  vertex -0.05 4.0 0.0
  vertex -0.05 3.633974596215561 -0.3660254037844388
 endloop
endfacet
facet normal -1.0 0.0 -0.0
 outer loop
  vertex -0.05 4.0 0.0
  vertex -0.05 4.0 -0.5
  vertex -0.05 3.633974596215561 -0.3660254037844388
 endloop
endfacet
facet normal -1.0 0.0 -0.0
 outer loop
  vertex -0.05 4.0 -1.5
  vertex -0.05 4.0 -2.0
  vertex -0.05 3.633974596215561 -1.6339745962155614
 endloop
endfacet
facet normal -1.0 0.0 0.0
 outer loop
  vertex -0.05 4.0 -2.0
  vertex -0.05 3.5 -2.0
  vertex -0.05 3.633974596215561 -1.6339745962155614
 endloop
endfacet
facet normal -1.0 0.0 0.0
 outer loop
  vertex -0.05 1.0 -1.5
  vertex -0.05 1.0 -1.0
  vertex -0.05 1.4218481522075892 -1.2306624327025937
 endloop
endfacet
facet normal -1.0 0.0 0.0
 outer loop
  vertex -0.05 1.0 -1.5
  vertex -0.05 1.4218481522075892 -1.2306624327025937
  vertex -0.05 1.3660254037844388 -1.6339745962155614
 endloop
endfacet
facet normal -1.0 0.0 0.0
 outer loop
  vertex -0.05 1.0 -1.0
  vertex -0.05 1.0 -0.5
  vertex -0.05 1.4227079036209291 -0.7509441482399641
 endloop
endfacet
facet normal -1.0 0.0 0.0
 outer loop
  vertex -0.05 1.4218481522075892 -1.2306624327025937
  vertex -0.05 1.0 -1.0
  vertex -0.05 1.4227079036209291 -0.7509441482399641
 endloop
endfacet
facet normal -1.0 0.0 0.0
 outer loop
  vertex -0.05 1.4227079036209291 -0.7509441482399641
  vertex -0.05 1.0 -0.5
  vertex -0.05 1.3660254037844386 -0.3660254037844386
 endloop
endfacet
facet normal -1.0 0.0 0.0
 outer loop
  vertex -0.05 1.5 0.0
  vertex -0.05 2.0 0.0
  vertex -0.05 1.7905974953271389 -0.46995673088941947
 endloop
endfacet
facet normal -1.0 0.0 -0.0
 outer loop
  vertex -0.05 1.5 0.0
  vertex -0.05 1.7905974953271389 -0.46995673088941947
  vertex -0.05 1.3660254037844386 -0.3660254037844386
 endloop
endfacet
facet normal -1.0 0.0 0.0
 outer loop
  vertex -0.05 2.0 0.0
  vertex -0.05 2.5 0.0
  vertex -0.05 2.278337285646833 -0.40926653012064307
 endloop
endfacet
facet normal -1.0 0.0 -0.0
 outer loop
  vertex -0.05 2.0 0.0
  vertex -0.05 2.278337285646833 -0.40926653012064307
  vertex -0.05 1.7905974953271389 -0.46995673088941947
 endloop
endfacet
facet normal -1.0 0.0 0.0
 outer loop
  vertex -0.05 2.5 0.0
  vertex -0.05 3.0 0.0
  vertex -0.05 2.754369766834399 -0.4211083738689352
 endloop
endfacet
facet normal -1.0 0.0 0.0
 outer loop
  vertex -0.05 2.278337285646833 -0.40926653012064307
  vertex -0.05 2.5 0.0
  vertex -0.05 2.754369766834399 -0.4211083738689352
 endloop
endfacet
facet normal -1.0 0.0 0.0
 outer loop
  vertex -0.05 3.0 0.0
  vertex -0.05 3.5 0.0
  vertex -0.05 3.2478813153595616 -0.423386022527916
 endloop
endfacet
facet normal -1.0 0.0 -0.0
 outer loop
  vertex -0.05 3.0 0.0
  vertex -0.05 3.2478813153595616 -0.423386022527916
  vertex -0.05 2.754369766834399 -0.4211083738689352
 endloop
endfacet
facet normal -1.0 0.0 0.0
 outer loop
  vertex -0.05 3.2478813153595616 -0.423386022527916
  vertex -0.05 3.5 0.0
  vertex -0.05 3.633974596215561 -0.3660254037844388
 endloop
endfacet
facet normal -1.0 0.0 -0.0
 outer loop
  vertex -0.05 4.0 -1.0
  vertex -0.05 4.0 -1.5
  vertex -0.05 3.6046468816083346 -1.281619653166406
 endloop
endfacet
facet normal -1.0 0.0 0.0
 outer loop
  vertex -0.05 3.6046468816083346 -1.281619653166406
  vertex -0.05 4.0 -1.5
  vertex -0.05 3.633974596215561 -1.6339745962155614
 endloop
endfacet
facet normal -1.0 0.0 -0.0
 outer loop
  vertex -0.05 4.0 -0.5
  vertex -0.05 4.0 -1.0
  vertex -0.05 3.5523689682378685 -0.7855403893573842
 endloop
endfacet
facet normal -1.0 -0.0 0.0
 outer loop
  vertex -0.05 4.0 -1.0
  vertex -0.05 3.6046468816083346 -1.281619653166406
  vertex -0.05 3.5523689682378685 -0.7855403893573842
 endloop
endfacet
facet normal -1.0 -0.0 0.0
 outer loop
  vertex -0.05 4.0 -0.5
  vertex -0.05 3.5523689682378685 -0.7855403893573842
  vertex -0.05 3.633974596215561 -0.3660254037844388
 endloop
endfacet
facet normal -1.0 0.0 0.0
 outer loop
  vertex -0.05 2.0 -2.0
  vertex -0.05 1.5 -2.0
  vertex -0.05 1.8083598392662554 -1.538200571506407
 endloop
endfacet
facet normal -1.0 0.0 0.0
 outer loop
  vertex -0.05 1.8083598392662554 -1.538200571506407
  vertex -0.05 1.5 -2.0
  vertex -0.05 1.3660254037844388 -1.6339745962155614
 endloop
endfacet
facet normal -1.0 0.0 0.0
 outer loop
  vertex -0.05 2.5 -2.0
  vertex -0.05 2.0 -2.0
  vertex -0.05 2.254887765899494 -1.6651420308056633
 endloop
endfacet
facet normal -1.0 0.0 0.0
 outer loop
  vertex -0.05 2.0 -2.0
  vertex -0.05 1.8083598392662554 -1.538200571506407
  vertex -0.05 2.254887765899494 -1.6651420308056633
 endloop
endfacet
facet normal -1.0 0.0 0.0
 outer loop
  vertex -0.05 3.0 -2.0
  vertex -0.05 2.5 -2.0
  vertex -0.05 2.74364551249413 -1.5558357563383207
 endloop
endfacet
facet normal -1.0 0.0 0.0
 outer loop
  vertex -0.05 2.74364551249413 -1.5558357563383207
  vertex -0.05 2.5 -2.0
  vertex -0.05 2.254887765899494 -1.6651420308056633
 endloop
endfacet
facet normal -1.0 0.0 0.0
 outer loop
  vertex -0.05 3.5 -2.0
  vertex -0.05 3.0 -2.0
  vertex -0.05 3.278258226121089 -1.6119184826334283
 endloop
endfacet
facet normal -1.0 0.0 0.0
 outer loop
  vertex -0.05 3.0 -2.0
  vertex -0.05 2.74364551249413 -1.5558357563383207
  vertex -0.05 3.278258226121089 -1.6119184826334283
 endloop
endfacet
facet normal -1.0 0.0 0.0
 outer loop
  vertex -0.05 3.5 -2.0
  vertex -0.05 3.278258226121089 -1.6119184826334283
  vertex -0.05 3.633974596215561 -1.6339745962155614
 endloop
endfacet
facet normal -1.0 0.0 0.0
 outer loop
  vertex -0.05 2.278337285646833 -0.40926653012064307
  vertex -0.05 2.754369766834399 -0.4211083738689352
  vertex -0.05 2.532574790716727 -0.8006657114518116
 endloop
endfacet
facet normal -1.0 0.0 0.0
 outer loop
  vertex -0.05 1.7905974953271389 -0.46995673088941947
  vertex -0.05 2.278337285646833 -0.40926653012064307
  vertex -0.05 2.1455046610426702 -0.77575757191529
 endloop
endfacet
facet normal -1.0 0.0 -0.0
 outer loop
  vertex -0.05 2.278337285646833 -0.40926653012064307
  vertex -0.05 2.532574790716727 -0.8006657114518116
  vertex -0.05 2.1455046610426702 -0.77575757191529
 endloop
endfacet
facet normal -1.0 0.0 -0.0
 outer loop
  vertex -0.05 2.291878855637094 -1.2327894574471896
  vertex -0.05 2.74364551249413 -1.5558357563383207
  vertex -0.05 2.254887765899494 -1.6651420308056633
 endloop
endfacet
facet normal -1.0 0.0 0.0
 outer loop
  vertex -0.05 2.74364551249413 -1.5558357563383207
  vertex -0.05 2.291878855637094 -1.2327894574471896
  vertex -0.05 2.7438091862273524 -1.1311117640977897
 endloop
endfacet
facet normal -1.0 0.0 0.0
 outer loop
  vertex -0.05 3.278258226121089 -1.6119184826334283
  vertex -0.05 2.74364551249413 -1.5558357563383207
  vertex -0.05 3.1750416076731756 -1.1980932104436401
 endloop
endfacet
facet normal -1.0 0.0 0.0
 outer loop
  vertex -0.05 2.74364551249413 -1.5558357563383207
  vertex -0.05 2.7438091862273524 -1.1311117640977897
  vertex -0.05 3.1750416076731756 -1.1980932104436401
 endloop
endfacet
facet normal -1.0 0.0 0.0
 outer loop
  vertex -0.05 1.4218481522075892 -1.2306624327025937
  vertex -0.05 1.4227079036209291 -0.7509441482399641
  vertex -0.05 1.8216072131951022 -0.9877034621655976
 endloop
endfacet
facet normal -1.0 0.0 0.0
 outer loop
  vertex -0.05 1.4218481522075892 -1.2306624327025937
  vertex -0.05 1.8216072131951022 -0.9877034621655976
  vertex -0.05 1.8083598392662554 -1.538200571506407
 endloop
endfacet
facet normal -1.0 0.0 -0.0
 outer loop
  vertex -0.05 1.4218481522075892 -1.2306624327025937
  vertex -0.05 1.8083598392662554 -1.538200571506407
  vertex -0.05 1.3660254037844388 -1.6339745962155614
 endloop
endfacet
facet normal -1.0 0.0 0.0
 outer loop
  vertex -0.05 2.754369766834399 -0.4211083738689352
  vertex -0.05 3.2478813153595616 -0.423386022527916
  vertex -0.05 2.9994335719437286 -0.8017341373506981
 endloop
endfacet
facet normal -1.0 0.0 0.0
 outer loop
  vertex -0.05 2.9994335719437286 -0.8017341373506981
  vertex -0.05 3.2478813153595616 -0.423386022527916
  vertex -0.05 3.5523689682378685 -0.7855403893573842
 endloop
endfacet
facet normal -1.0 0.0 0.0
 outer loop
  vertex -0.05 3.5523689682378685 -0.7855403893573842
  vertex -0.05 3.2478813153595616 -0.423386022527916
  vertex -0.05 3.633974596215561 -0.3660254037844388
 endloop
endfacet
facet normal -1.0 0.0 0.0
 outer loop
  vertex -0.05 3.278258226121089 -1.6119184826334283
  vertex -0.05 3.6046468816083346 -1.281619653166406
  vertex -0.05 3.633974596215561 -1.6339745962155614
 endloop
endfacet
facet normal -1.0 -0.0 0.0
 outer loop
  vertex -0.05 3.6046468816083346 -1.281619653166406
  vertex -0.05 3.278258226121089 -1.6119184826334283
  vertex -0.05 3.1750416076731756 -1.1980932104436401
 endloop
endfacet
facet normal -1.0 0.0 -0.0
 outer loop
  vertex -0.05 3.5523689682378685 -0.7855403893573842
  vertex -0.05 3.6046468816083346 -1.281619653166406
  vertex -0.05 3.1750416076731756 -1.1980932104436401
 endloop
endfacet
facet normal -1.0 0.0 0.0
 outer loop
  vertex -0.05 1.8216072131951022 -0.9877034621655976
  vertex -0.05 1.4227079036209291 -0.7509441482399641
  vertex -0.05 1.7905974953271389 -0.46995673088941947
 endloop
endfacet
facet normal -1.0 -0.0 0.0
 outer loop
  vertex -0.05 1.7905974953271389 -0.46995673088941947
  vertex -0.05 1.4227079036209291 -0.7509441482399641
  vertex -0.05 1.3660254037844386 -0.3660254037844386
 endloop
endfacet
facet normal -1.0 0.0 0.0
 outer loop
  vertex -0.05 1.8083598392662554 -1.538200571506407
  vertex -0.05 1.8216072131951022 -0.9877034621655976
  vertex -0.05 2.291878855637094 -1.2327894574471896
 endloop
endfacet
facet normal -1.0 0.0 0.0
 outer loop
  vertex -0.05 2.291878855637094 -1.2327894574471896
  vertex -0.05 1.8216072131951022 -0.9877034621655976
  vertex -0.05 2.1455046610426702 -0.77575757191529
 endloop
endfacet
facet normal -1.0 0.0 0.0
 outer loop
  vertex -0.05 1.8216072131951022 -0.9877034621655976
  vertex -0.05 1.7905974953271389 -0.46995673088941947
  vertex -0.05 2.1455046610426702 -0.77575757191529
 endloop
endfacet
facet normal -1.0 0.0 0.0
 outer loop
  vertex -0.05 1.8083598392662554 -1.538200571506407
  vertex -0.05 2.291878855637094 -1.2327894574471896
  vertex -0.05 2.254887765899494 -1.6651420308056633
 endloop
endfacet
facet normal -1.0 0.0 0.0
 outer loop
  vertex -0.05 2.291878855637094 -1.2327894574471896
  vertex -0.05 2.532574790716727 -0.8006657114518116
  vertex -0.05 2.7438091862273524 -1.1311117640977897
 endloop
endfacet
facet normal -1.0 -0.0 0.0
 outer loop
  vertex -0.05 2.532574790716727 -0.8006657114518116
  vertex -0.05 2.291878855637094 -1.2327894574471896
  vertex -0.05 2.1455046610426702 -0.77575757191529
 endloop
endfacet
facet normal -1.0 0.0 -0.0
 outer loop
  vertex -0.05 2.754369766834399 -0.4211083738689352
  vertex -0.05 2.9994335719437286 -0.8017341373506981
  vertex -0.05 2.532574790716727 -0.8006657114518116
 endloop
endfacet
facet normal -1.0 0.0 0.0
 outer loop
  vertex -0.05 2.9994335719437286 -0.8017341373506981
  vertex -0.05 3.5523689682378685 -0.7855403893573842
  vertex -0.05 3.1750416076731756 -1.1980932104436401
 endloop
endfacet
facet normal -1.0 0.0 0.0
 outer loop
  vertex -0.05 2.532574790716727 -0.8006657114518116
  vertex -0.05 2.9994335719437286 -0.8017341373506981
  vertex -0.05 2.7438091862273524 -1.1311117640977897
 endloop
endfacet
facet normal -1.0 0.0 0.0
 outer loop
  vertex -0.05 2.7438091862273524 -1.1311117640977897
  vertex -0.05 2.9994335719437286 -0.8017341373506981
  vertex -0.05 3.1750416076731756 -1.1980932104436401
 endloop
endfacet
facet normal 1.0 0.0 0.0
 outer loop
  vertex 0.05 1.0 -0.5
  vertex 0.05 1.3660254037844386 -0.3660254037844386
  vertex 0.05 1.0 0.0
 endloop
endfacet
facet normal 1.0 -0.0 0.0
 outer loop
  vertex 0.05 1.0 0.0
  vertex 0.05 1.3660254037844386 -0.3660254037844386
  vertex 0.05 1.5 0.0
 endloop
endfacet
facet normal 1.0 0.0 0.0
 outer loop
  vertex 0.05 1.0 -2.0
  vertex 0.05 1.3660254037844388 -1.6339745962155614
  vertex 0.05 1.0 -1.5
 endloop
endfacet
facet normal 1.0 0.0 0.0
 outer loop
  vertex 0.05 1.5 -2.0
  vertex 0.05 1.3660254037844388 -1.6339745962155614
  vertex 0.05 1.0 -2.0
 endloop
endfacet
facet normal 1.0 -0.0 0.0
 outer loop
  vertex 0.05 3.5 0.0
  vertex 0.05 3.64110949312083 -0.3400454526057324
  vertex 0.05 4.0 0.0
 endloop
endfacet
facet normal 1.0 0.0 0.0
 outer loop
  vertex 0.05 4.0 0.0
  vertex 0.05 3.64110949312083 -0.3400454526057324
  vertex 0.05 4.0 -0.5
 endloop
endfacet
facet normal 1.0 0.0 0.0
 outer loop
  vertex 0.05 4.0 -1.5
  vertex 0.05 3.6339745962155616 -1.6339745962155614
  vertex 0.05 4.0 -2.0
 endloop
endfacet
facet normal 1.0 0.0 0.0
 outer loop
  vertex 0.05 4.0 -2.0
  vertex 0.05 3.6339745962155616 -1.6339745962155614
  vertex 0.05 3.5 -2.0
 endloop
endfacet
facet normal 1.0 0.0 0.0
 outer loop
  vertex 0.05 1.0 -1.5
  vertex 0.05 1.4218481522075892 -1.2306624327025937
  vertex 0.05 1.0 -1.0
 endloop
endfacet
facet normal 1.0 -0.0 0.0
 outer loop
  vertex 0.05 1.0 -1.5
  vertex 0.05 1.3660254037844388 -1.6339745962155614
  vertex 0.05 1.4218481522075892 -1.2306624327025937
 endloop
endfacet
facet normal 1.0 0.0 0.0
 outer loop
  vertex 0.05 1.0 -1.0
  vertex 0.05 1.4227079036209291 -0.7509441482399641
  vertex 0.05 1.0 -0.5
 endloop
endfacet
facet normal 1.0 0.0 -0.0
 outer loop
  vertex 0.05 1.4218481522075892 -1.2306624327025937
  vertex 0.05 1.4227079036209291 -0.7509441482399641
  vertex 0.05 1.0 -1.0
 endloop
endfacet
facet normal 1.0 0.0 0.0
 outer loop
  vertex 0.05 1.4227079036209291 -0.7509441482399641
  vertex 0.05 1.3660254037844386 -0.3660254037844386
  vertex 0.05 1.0 -0.5
 endloop
endfacet
facet normal 1.0 -0.0 0.0
 outer loop
  vertex 0.05 1.5 0.0
  vertex 0.05 1.7905974953271389 -0.46995673088941947
  vertex 0.05 2.0 0.0
 endloop
endfacet
facet normal 1.0 0.0 0.0
 outer loop
  vertex 0.05 1.5 0.0
  vertex 0.05 1.3660254037844386 -0.3660254037844386
  vertex 0.05 1.7905974953271389 -0.46995673088941947
 endloop
endfacet
facet normal 1.0 -0.0 0.0
 outer loop
  vertex 0.05 2.0 0.0
  vertex 0.05 2.278337285646833 -0.40926653012064307
  vertex 0.05 2.5 0.0
 endloop
endfacet
facet normal 1.0 0.0 0.0
 outer loop
  vertex 0.05 2.0 0.0
  vertex 0.05 1.7905974953271389 -0.46995673088941947
  vertex 0.05 2.278337285646833 -0.40926653012064307
 endloop
endfacet
facet normal 1.0 -0.0 0.0
 outer loop
  vertex 0.05 2.5 0.0
  vertex 0.05 2.7501512694344665 -0.3993409282322795
  vertex 0.05 3.0 0.0
 endloop
endfacet
facet normal 1.0 0.0 0.0
 outer loop
  vertex 0.05 2.278337285646833 -0.40926653012064307
  vertex 0.05 2.7501512694344665 -0.3993409282322795
  vertex 0.05 2.5 0.0
 endloop
endfacet
facet normal 1.0 -0.0 0.0
 outer loop
  vertex 0.05 3.0 0.0
  vertex 0.05 3.228718929837573 -0.3790834035778077
  vertex 0.05 3.5 0.0
 endloop
endfacet
facet normal 1.0 0.0 0.0
 outer loop
  vertex 0.05 2.7501512694344665 -0.3993409282322795
  vertex 0.05 3.228718929837573 -0.3790834035778077
  vertex 0.05 3.0 0.0
 endloop
endfacet
facet normal 1.0 0.0 0.0
 outer loop
  vertex 0.05 3.228718929837573 -0.3790834035778077
  vertex 0.05 3.64110949312083 -0.3400454526057324
  vertex 0.05 3.5 0.0
 endloop
endfacet
facet normal 1.0 0.0 0.0
 outer loop
  vertex 0.05 4.0 -1.0
  vertex 0.05 3.5771581221906503 -1.2508497844033122
  vertex 0.05 4.0 -1.5
 endloop
endfacet
facet normal 1.0 0.0 0.0
 outer loop
  vertex 0.05 3.5771581221906503 -1.2508497844033122
  vertex 0.05 3.6339745962155616 -1.6339745962155614
  vertex 0.05 4.0 -1.5
 endloop
endfacet
facet normal 1.0 0.0 0.0
 outer loop
  vertex 0.05 4.0 -0.5
  vertex 0.05 3.4910983295771136 -0.7691839570934416
  vertex 0.05 4.0 -1.0
 endloop
endfacet
facet normal 1.0 0.0 0.0
 outer loop
  vertex 0.05 3.4910983295771136 -0.7691839570934416
  vertex 0.05 3.5771581221906503 -1.2508497844033122
  vertex 0.05 4.0 -1.0
 endloop
endfacet
facet normal 1.0 0.0 0.0
 outer loop
  vertex 0.05 4.0 -0.5
  vertex 0.05 3.64110949312083 -0.3400454526057324
  vertex 0.05 3.4910983295771136 -0.7691839570934416
 endloop
endfacet
facet normal 1.0 0.0 0.0
 outer loop
  vertex 0.05 2.0 -2.0
  vertex 0.05 1.8083598392662554 -1.538200571506407
  vertex 0.05 1.5 -2.0
 endloop
endfacet
facet normal 1.0 0.0 0.0
 outer loop
  vertex 0.05 1.8083598392662554 -1.538200571506407
  vertex 0.05 1.3660254037844388 -1.6339745962155614
  vertex 0.05 1.5 -2.0
 endloop
endfacet
facet normal 1.0 0.0 0.0
 outer loop
  vertex 0.05 2.5 -2.0
  vertex 0.05 2.25 -1.6650635094610968
  vertex 0.05 2.0 -2.0
 endloop
endfacet
facet normal 1.0 0.0 -0.0
 outer loop
  vertex 0.05 2.0 -2.0
  vertex 0.05 2.25 -1.6650635094610968
  vertex 0.05 1.8083598392662554 -1.538200571506407
 endloop
endfacet
facet normal 1.0 0.0 0.0
 outer loop
  vertex 0.05 3.0 -2.0
  vertex 0.05 2.7060651140469067 -1.538735946842243
  vertex 0.05 2.5 -2.0
 endloop
endfacet
facet normal 1.0 0.0 0.0
 outer loop
  vertex 0.05 2.7060651140469067 -1.538735946842243
  vertex 0.05 2.25 -1.6650635094610968
  vertex 0.05 2.5 -2.0
 endloop
endfacet
facet normal 1.0 0.0 0.0
 outer loop
  vertex 0.05 3.5 -2.0
  vertex 0.05 3.236863848354455 -1.5886943477391728
  vertex 0.05 3.0 -2.0
 endloop
endfacet
facet normal 1.0 0.0 -0.0
 outer loop
  vertex 0.05 3.0 -2.0
  vertex 0.05 3.236863848354455 -1.5886943477391728
  vertex 0.05 2.7060651140469067 -1.538735946842243
 endloop
endfacet
facet normal 1.0 0.0 -0.0
 outer loop
  vertex 0.05 3.5 -2.0
  vertex 0.05 3.6339745962155616 -1.6339745962155614
  vertex 0.05 3.236863848354455 -1.5886943477391728
 endloop
endfacet
facet normal 1.0 -0.0 0.0
 outer loop
  vertex 0.05 2.278337285646833 -0.40926653012064307
  vertex 0.05 2.5162710714828043 -0.785064327001975
  vertex 0.05 2.7501512694344665 -0.3993409282322795
 endloop
endfacet
facet normal 1.0 -0.0 0.0
 outer loop
  vertex 0.05 1.7905974953271389 -0.46995673088941947
  vertex 0.05 2.141669548467302 -0.776180813331298
  vertex 0.05 2.278337285646833 -0.40926653012064307
 endloop
endfacet
facet normal 1.0 0.0 0.0
 outer loop
  vertex 0.05 2.278337285646833 -0.40926653012064307
  vertex 0.05 2.141669548467302 -0.776180813331298
  vertex 0.05 2.5162710714828043 -0.785064327001975
 endloop
endfacet
facet normal 1.0 0.0 0.0
 outer loop
  vertex 0.05 2.283126136322869 -1.2309445752756933
  vertex 0.05 2.25 -1.6650635094610968
  vertex 0.05 2.7060651140469067 -1.538735946842243
 endloop
endfacet
facet normal 1.0 0.0 0.0
 outer loop
  vertex 0.05 2.7060651140469067 -1.538735946842243
  vertex 0.05 2.6792949417418264 -1.1232318487297466
  vertex 0.05 2.283126136322869 -1.2309445752756933
 endloop
endfacet
facet normal 1.0 0.0 0.0
 outer loop
  vertex 0.05 3.236863848354455 -1.5886943477391728
  vertex 0.05 3.0780568747967534 -1.15937030788355
  vertex 0.05 2.7060651140469067 -1.538735946842243
 endloop
endfacet
facet normal 1.0 0.0 0.0
 outer loop
  vertex 0.05 3.0780568747967534 -1.15937030788355
  vertex 0.05 2.6792949417418264 -1.1232318487297466
  vertex 0.05 2.7060651140469067 -1.538735946842243
 endloop
endfacet
facet normal 1.0 -0.0 0.0
 outer loop
  vertex 0.05 3.0780568747967534 -1.15937030788355
  vertex 0.05 3.5771581221906503 -1.2508497844033122
  vertex 0.05 3.4910983295771136 -0.7691839570934416
 endloop
endfacet
facet normal 1.0 0.0 0.0
 outer loop
  vertex 0.05 3.4910983295771136 -0.7691839570934416
  vertex 0.05 2.985166307692448 -0.7489510848140022
  vertex 0.05 3.0780568747967534 -1.15937030788355
 endloop
endfacet
facet normal 1.0 0.0 0.0
 outer loop
  vertex 0.05 3.228718929837573 -0.3790834035778077
  vertex 0.05 2.985166307692448 -0.7489510848140022
  vertex 0.05 3.4910983295771136 -0.7691839570934416
 endloop
endfacet
facet normal 1.0 0.0 -0.0
 outer loop
  vertex 0.05 3.4910983295771136 -0.7691839570934416
  vertex 0.05 3.64110949312083 -0.3400454526057324
  vertex 0.05 3.228718929837573 -0.3790834035778077
 endloop
endfacet
facet normal 1.0 0.0 0.0
 outer loop
  vertex 0.05 1.4218481522075892 -1.2306624327025937
  vertex 0.05 1.8216072131951022 -0.9877034621655976
  vertex 0.05 1.4227079036209291 -0.7509441482399641
 endloop
endfacet
facet normal 1.0 -0.0 0.0
 outer loop
  vertex 0.05 1.4218481522075892 -1.2306624327025937
  vertex 0.05 1.8083598392662554 -1.538200571506407
  vertex 0.05 1.8216072131951022 -0.9877034621655976
 endloop
endfacet
facet normal 1.0 0.0 0.0
 outer loop
  vertex 0.05 1.4218481522075892 -1.2306624327025937
  vertex 0.05 1.3660254037844388 -1.6339745962155614
  vertex 0.05 1.8083598392662554 -1.538200571506407
 endloop
endfacet
facet normal 1.0 0.0 0.0
 outer loop
  vertex 0.05 1.8216072131951022 -0.9877034621655976
  vertex 0.05 1.7905974953271389 -0.46995673088941947
  vertex 0.05 1.4227079036209291 -0.7509441482399641
 endloop
endfacet
facet normal 1.0 0.0 0.0
 outer loop
  vertex 0.05 1.7905974953271389 -0.46995673088941947
  vertex 0.05 1.3660254037844386 -0.3660254037844386
  vertex 0.05 1.4227079036209291 -0.7509441482399641
 endloop
endfacet
facet normal 1.0 0.0 0.0
 outer loop
  vertex 0.05 1.8083598392662554 -1.538200571506407
  vertex 0.05 2.283126136322869 -1.2309445752756933
  vertex 0.05 1.8216072131951022 -0.9877034621655976
 endloop
endfacet
facet normal 1.0 0.0 0.0
 outer loop
  vertex 0.05 2.283126136322869 -1.2309445752756933
  vertex 0.05 2.141669548467302 -0.776180813331298
  vertex 0.05 1.8216072131951022 -0.9877034621655976
 endloop
endfacet
facet normal 1.0 0.0 -0.0
 outer loop
  vertex 0.05 1.8216072131951022 -0.9877034621655976
  vertex 0.05 2.141669548467302 -0.776180813331298
  vertex 0.05 1.7905974953271389 -0.46995673088941947
 endloop
endfacet
facet normal 1.0 -0.0 0.0
 outer loop
  vertex 0.05 1.8083598392662554 -1.538200571506407
  vertex 0.05 2.25 -1.6650635094610968
  vertex 0.05 2.283126136322869 -1.2309445752756933
 endloop
endfacet
facet normal 1.0 0.0 0.0
 outer loop
  vertex 0.05 2.5162710714828043 -0.785064327001975
  vertex 0.05 2.141669548467302 -0.776180813331298
  vertex 0.05 2.283126136322869 -1.2309445752756933
 endloop
endfacet
facet normal 1.0 0.0 0.0
 outer loop
  vertex 0.05 2.283126136322869 -1.2309445752756933
  vertex 0.05 2.6792949417418264 -1.1232318487297466
  vertex 0.05 2.5162710714828043 -0.785064327001975
 endloop
endfacet
facet normal 1.0 0.0 -0.0
 outer loop
  vertex 0.05 3.236863848354455 -1.5886943477391728
  vertex 0.05 3.5771581221906503 -1.2508497844033122
  vertex 0.05 3.0780568747967534 -1.15937030788355
 endloop
endfacet
facet normal 1.0 -0.0 0.0
 outer loop
  vertex 0.05 3.236863848354455 -1.5886943477391728
  vertex 0.05 3.6339745962155616 -1.6339745962155614
  vertex 0.05 3.5771581221906503 -1.2508497844033122
 endloop
endfacet
facet normal 1.0 0.0 0.0
 outer loop
  vertex 0.05 2.985166307692448 -0.7489510848140022
  vertex 0.05 2.6792949417418264 -1.1232318487297466
  vertex 0.05 3.0780568747967534 -1.15937030788355
 endloop
endfacet
facet normal 1.0 -0.0 0.0
 outer loop
  vertex 0.05 2.7501512694344665 -0.3993409282322795
  vertex 0.05 2.985166307692448 -0.7489510848140022
  vertex 0.05 3.228718929837573 -0.3790834035778077
 endloop
endfacet
facet normal 1.0 0.0 0.0
 outer loop
  vertex 0.05 2.5162710714828043 -0.785064327001975
  vertex 0.05 2.985166307692448 -0.7489510848140022
  vertex 0.05 2.7501512694344665 -0.3993409282322795
 endloop
endfacet
facet normal 1.0 -0.0 0.0
 outer loop
  vertex 0.05 2.5162710714828043 -0.785064327001975
  vertex 0.05 2.6792949417418264 -1.1232318487297466
  vertex 0.05 2.985166307692448 -0.7489510848140022
 endloop
endfacet
facet normal 0.0 -1.0 0.0
 outer loop
  vertex -0.05 1.0 -0.5
  vertex 0.05 1.0 0.0
  vertex -0.05 1.0 0.0
 endloop
endfacet
facet normal 0.0 -1.0 0.0
 outer loop
  vertex 0.05 1.0 -2.0
  vertex -0.05 1.0 -1.5
  vertex -0.05 1.0 -2.0
 endloop
endfacet
facet normal 0.0 -1.0 -0.0
 outer loop
  vertex 0.05 1.0 0.0
  vertex -0.05 1.0 -0.5
  vertex 0.05 1.0 -0.5
 endloop
endfacet
facet normal -0.0 -1.0 -0.0
 outer loop
  vertex 0.05 1.0 -1.5
  vertex -0.05 1.0 -1.5
  vertex 0.05 1.0 -2.0
 endloop
endfacet
facet normal 0.0 -1.0 0.0
 outer loop
  vertex 0.05 1.0 -1.5
  vertex -0.05 1.0 -1.0
  vertex -0.05 1.0 -1.5
 endloop
endfacet
facet normal 0.0 -1.0 0.0
 outer loop
  vertex 0.05 1.0 -1.0
  vertex -0.05 1.0 -0.5
  vertex -0.05 1.0 -1.0
 endloop
endfacet
facet normal 0.0 -1.0 0.0
 outer loop
  vertex 0.05 1.0 -1.5
  vertex 0.05 1.0 -1.0
  vertex -0.05 1.0 -1.0
 endloop
endfacet
facet normal 0.0 -1.0 0.0
 outer loop
  vertex -0.05 1.0 -0.5
  vertex 0.05 1.0 -1.0
  vertex 0.05 1.0 -0.5
 endloop
endfacet
facet normal 0.0 1.0 0.0
 outer loop
  vertex -0.05 4.0 -0.5
  vertex -0.05 4.0 0.0
  vertex 0.05 4.0 0.0
 endloop
endfacet
facet normal 0.0 1.0 0.0
 outer loop
  vertex 0.05 4.0 -2.0
  vertex -0.05 4.0 -2.0
  vertex -0.05 4.0 -1.5
 endloop
endfacet
facet normal 0.0 1.0 -0.0
 outer loop
  vertex 0.05 4.0 -0.5
  vertex -0.05 4.0 -0.5
  vertex 0.05 4.0 0.0
 endloop
endfacet
facet normal 0.0 1.0 -0.0
 outer loop
  vertex 0.05 4.0 -2.0
  vertex -0.05 4.0 -1.5
  vertex 0.05 4.0 -1.5
 endloop
endfacet
facet normal 0.0 1.0 0.0
 outer loop
  vertex 0.05 4.0 -1.5
  vertex -0.05 4.0 -1.5
  vertex -0.05 4.0 -1.0
 endloop
endfacet
facet normal 0.0 1.0 0.0
 outer loop
  vertex 0.05 4.0 -0.5
  vertex -0.05 4.0 -1.0
  vertex -0.05 4.0 -0.5
 endloop
endfacet
facet normal -0.0 1.0 0.0
 outer loop
  vertex -0.05 4.0 -1.0
  vertex 0.05 4.0 -1.0
  vertex 0.05 4.0 -1.5
 endloop
endfacet
facet normal 0.0 1.0 0.0
 outer loop
  vertex 0.05 4.0 -0.5
  vertex 0.05 4.0 -1.0
  vertex -0.05 4.0 -1.0
 endloop
endfacet
facet normal 0.0 0.0 -1.0
 outer loop
  vertex -0.05 1.0 -2.0
  vertex 0.05 1.5 -2.0
  vertex 0.05 1.0 -2.0
 endloop
endfacet
facet normal 0.0 0.0 -1.0
 outer loop
  vertex -0.05 1.0 -2.0
  vertex -0.05 1.5 -2.0
  vertex 0.05 1.5 -2.0
 endloop
endfacet
facet normal 0.0 0.0 -1.0
 outer loop
  vertex 0.05 3.5 -2.0
  vertex -0.05 4.0 -2.0
  vertex 0.05 4.0 -2.0
 endloop
endfacet
facet normal 0.0 0.0 -1.0
 outer loop
  vertex -0.05 4.0 -2.0
  vertex 0.05 3.5 -2.0
  vertex -0.05 3.5 -2.0
 endloop
endfacet
facet normal 0.0 0.0 -1.0
 outer loop
  vertex -0.05 1.5 -2.0
  vertex -0.05 2.0 -2.0
  vertex 0.05 1.5 -2.0
 endloop
endfacet
facet normal 0.0 0.0 -1.0
 outer loop
  vertex -0.05 2.0 -2.0
  vertex -0.05 2.5 -2.0
  vertex 0.05 2.0 -2.0
 endloop
endfacet
facet normal 0.0 0.0 -1.0
 outer loop
  vertex 0.05 1.5 -2.0
  vertex -0.05 2.0 -2.0
  vertex 0.05 2.0 -2.0
 endloop
endfacet
facet normal 0.0 0.0 -1.0
 outer loop
  vertex -0.05 2.5 -2.0
  vertex -0.05 3.0 -2.0
  vertex 0.05 2.5 -2.0
 endloop
endfacet
facet normal 0.0 0.0 -1.0
 outer loop
  vertex 0.05 2.0 -2.0
  vertex -0.05 2.5 -2.0
  vertex 0.05 2.5 -2.0
 endloop
endfacet
facet normal -0.0 0.0 -1.0
 outer loop
  vertex 0.05 3.5 -2.0
  vertex -0.05 3.0 -2.0
  vertex -0.05 3.5 -2.0
 endloop
endfacet
facet normal 0.0 0.0 -1.0
 outer loop
  vertex 0.05 2.5 -2.0
  vertex -0.05 3.0 -2.0
  vertex 0.05 3.0 -2.0
 endloop
endfacet
facet normal 0.0 0.0 -1.0
 outer loop
  vertex -0.05 3.0 -2.0
  vertex 0.05 3.5 -2.0
  vertex 0.05 3.0 -2.0
 endloop
endfacet
facet normal 0.0 0.0 1.0
 outer loop
  vertex -0.05 1.5 0.0
  vertex -0.05 1.0 0.0
  vertex 0.05 1.0 0.0
 endloop
endfacet
facet normal 0.0 -0.0 1.0
 outer loop
  vertex 0.05 3.5 0.0
  vertex 0.05 4.0 0.0
  vertex -0.05 4.0 0.0
 endloop
endfacet
facet normal 0.0 0.0 1.0
 outer loop
  vertex -0.05 4.0 0.0
  vertex -0.05 3.5 0.0
  vertex 0.05 3.5 0.0
 endloop
endfacet
facet normal -0.0 0.0 1.0
 outer loop
  vertex -0.05 1.5 0.0
  vertex 0.05 1.0 0.0
  vertex 0.05 1.5 0.0
 endloop
endfacet
facet normal 0.0 0.0 1.0
 outer loop
  vertex 0.05 2.0 0.0
  vertex -0.05 2.0 0.0
  vertex -0.05 1.5 0.0
 endloop
endfacet
facet normal 0.0 0.0 1.0
 outer loop
  vertex -0.05 1.5 0.0
  vertex 0.05 1.5 0.0
  vertex 0.05 2.0 0.0
 endloop
endfacet
facet normal 0.0 0.0 1.0
 outer loop
  vertex -0.05 2.5 0.0
  vertex -0.05 2.0 0.0
  vertex 0.05 2.0 0.0
 endloop
endfacet
facet normal 0.0 0.0 1.0
 outer loop
  vertex -0.05 2.5 0.0
  vertex 0.05 3.0 0.0
  vertex -0.05 3.0 0.0
 endloop
endfacet
facet normal 0.0 -0.0 1.0
 outer loop
  vertex 0.05 2.0 0.0
  vertex 0.05 2.5 0.0
  vertex -0.05 2.5 0.0
 endloop
endfacet
facet normal 0.0 0.0 1.0
 outer loop
  vertex -0.05 2.5 0.0
  vertex 0.05 2.5 0.0
  vertex 0.05 3.0 0.0
 endloop
endfacet
facet normal -0.0 0.0 1.0
 outer loop
  vertex -0.05 3.5 0.0
  vertex -0.05 3.0 0.0
  vertex 0.05 3.5 0.0
 endloop
endfacet
facet normal 0.0 0.0 1.0
 outer loop
  vertex -0.05 3.0 0.0
  vertex 0.05 3.0 0.0
  vertex 0.05 3.5 0.0
 endloop
endfacet
endsolid
