solid
facet normal -1.0 0.0 0.0
 outer loop
  vertex -0.0625 -5.0 -0.5
  vertex -0.0625 -5.0 0.0
  vertex -0.0625 -4.633974596215562 -0.3660254037844388
 endloop
endfacet
facet normal -1.0 0.0 0.0
 outer loop
  vertex -0.0625 -5.0 0.0
  vertex -0.0625 -4.5 0.0
  vertex -0.0625 -4.633974596215562 -0.3660254037844388
 endloop
endfacet
facet normal -1.0 0.0 0.0
 outer loop
  vertex -0.0625 -5.0 -4.0
  vertex -0.0625 -5.0 -3.5
  vertex -0.0625 -4.633974596215562 -3.6339745962155616
 endloop
endfacet
facet normal -1.0 0.0 0.0
 outer loop
  vertex -0.0625 -4.5 -4.0
  vertex -0.0625 -5.0 -4.0
  vertex -0.0625 -4.633974596215562 -3.6339745962155616
 endloop
endfacet
facet normal -1.0 0.0 0.0
 outer loop
  vertex -0.0625 -1.5 0.0
  vertex -0.0625 -1.0 0.0
  vertex -0.0625 -1.3630373471211086 -0.3630373471211086
 endloop
endfacet
facet normal -1.0 0.0 -0.0
 outer loop
  vertex -0.0625 -1.0 0.0
  vertex -0.0625 -1.0 -0.5
  vertex -0.0625 -1.3630373471211086 -0.3630373471211086
 endloop
endfacet
facet normal -1.0 0.0 -0.0
 outer loop
  vertex -0.0625 -1.0 -3.5
  vertex -0.0625 -1.0 -4.0
  vertex -0.0625 -1.3623793121702428 -3.637620687829757
 endloop
endfacet
facet normal -1.0 0.0 0.0
 outer loop
  vertex -0.0625 -1.0 -4.0
  vertex -0.0625 -1.5 -4.0
  vertex -0.0625 -1.3623793121702428 -3.637620687829757
 endloop
endfacet
facet normal -1.0 0.0 0.0
 outer loop
  vertex -0.0625 -5.0 -3.5
  vertex -0.0625 -5.0 -3.0
  vertex -0.0625 -4.576613977472084 -3.247881315359562
 endloop
endfacet
facet normal -1.0 0.0 0.0
 outer loop
  vertex -0.0625 -5.0 -3.5
  vertex -0.0625 -4.576613977472084 -3.247881315359562
  vertex -0.0625 -4.633974596215562 -3.6339745962155616
 endloop
endfacet
facet normal -1.0 0.0 0.0
 outer loop
  vertex -0.0625 -5.0 -3.0
  vertex -0.0625 -5.0 -2.5
  vertex -0.0625 -4.568591744668498 -2.7496468858932603
 endloop
endfacet
facet normal -1.0 0.0 0.0
 outer loop
  vertex -0.0625 -4.576613977472084 -3.247881315359562
  vertex -0.0625 -5.0 -3.0
  vertex -0.0625 -4.568591744668498 -2.7496468858932603
 endloop
endfacet
facet normal -1.0 0.0 0.0
 outer loop
  vertex -0.0625 -5.0 -2.5
  vertex -0.0625 -5.0 -2.0
  vertex -0.0625 -4.56698729810778 -2.25
 endloop
endfacet
facet normal -1.0 0.0 0.0
 outer loop
  vertex -0.0625 -5.0 -2.5
  vertex -0.0625 -4.56698729810778 -2.25
  vertex -0.0625 -4.568591744668498 -2.7496468858932603
 endloop
endfacet
facet normal -1.0 0.0 0.0
 outer loop
  vertex -0.0625 -5.0 -2.0
  vertex -0.0625 -5.0 -1.5
  vertex -0.0625 -4.567366215442559 -1.7490736653527104
 endloop
endfacet
facet normal -1.0 0.0 0.0
 outer loop
  vertex -0.0625 -4.56698729810778 -2.25
  vertex -0.0625 -5.0 -2.0
  vertex -0.0625 -4.567366215442559 -1.7490736653527104
 endloop
endfacet
facet normal -1.0 0.0 0.0
 outer loop
  vertex -0.0625 -5.0 -1.5
  vertex -0.0625 -5.0 -1.0
  vertex -0.0625 -4.571857015133891 -1.2394239754584824
 endloop
endfacet
facet normal -1.0 0.0 0.0
 outer loop
  vertex -0.0625 -5.0 -1.5
  vertex -0.0625 -4.571857015133891 -1.2394239754584824
  vertex -0.0625 -4.567366215442559 -1.7490736653527104
 endloop
endfacet
facet normal -1.0 0.0 0.0
 outer loop
  vertex -0.0625 -5.0 -1.0
  vertex -0.0625 -5.0 -0.5
  vertex -0.0625 -4.588692345762319 -0.7645334245139632
 endloop
endfacet
facet normal -1.0 0.0 0.0
 outer loop
  vertex -0.0625 -4.571857015133891 -1.2394239754584824
  vertex -0.0625 -5.0 -1.0
  vertex -0.0625 -4.588692345762319 -0.7645334245139632
 endloop
endfacet
facet normal -1.0 0.0 0.0
 outer loop
  vertex -0.0625 -4.588692345762319 -0.7645334245139632
  vertex -0.0625 -5.0 -0.5
  vertex -0.0625 -4.633974596215562 -0.3660254037844388
 endloop
endfacet
facet normal -1.0 0.0 0.0
 outer loop
  vertex -0.0625 -4.5 0.0
  vertex -0.0625 -4.0 0.0
  vertex -0.0625 -4.186631737609321 -0.437940768754836
 endloop
endfacet
facet normal -1.0 0.0 -0.0
 outer loop
  vertex -0.0625 -4.5 0.0
  vertex -0.0625 -4.186631737609321 -0.437940768754836
  vertex -0.0625 -4.633974596215562 -0.3660254037844388
 endloop
endfacet
facet normal -1.0 0.0 0.0
 outer loop
  vertex -0.0625 -4.0 0.0
  vertex -0.0625 -3.5 0.0
  vertex -0.0625 -3.75 -0.3093502181031824
 endloop
endfacet
facet normal -1.0 0.0 0.0
 outer loop
  vertex -0.0625 -4.186631737609321 -0.437940768754836
  vertex -0.0625 -4.0 0.0
  vertex -0.0625 -3.75 -0.3093502181031824
 endloop
endfacet
facet normal -1.0 0.0 0.0
 outer loop
  vertex -0.0625 -3.5 0.0
  vertex -0.0625 -3.0 0.0
  vertex -0.0625 -3.2563794524249148 -0.4428997567031252
 endloop
endfacet
facet normal -1.0 0.0 -0.0
 outer loop
  vertex -0.0625 -3.5 0.0
  vertex -0.0625 -3.2563794524249148 -0.4428997567031252
  vertex -0.0625 -3.75 -0.3093502181031824
 endloop
endfacet
facet normal -1.0 0.0 0.0
 outer loop
  vertex -0.0625 -3.0 0.0
  vertex -0.0625 -2.5 0.0
  vertex -0.0625 -2.75 -0.33814280495004434
 endloop
endfacet
facet normal -1.0 0.0 0.0
 outer loop
  vertex -0.0625 -3.2563794524249148 -0.4428997567031252
  vertex -0.0625 -3.0 0.0
  vertex -0.0625 -2.75 -0.33814280495004434
 endloop
endfacet
facet normal -1.0 0.0 0.0
 outer loop
  vertex -0.0625 -2.5 0.0
  vertex -0.0625 -2.0 0.0
  vertex -0.0625 -2.3063662888057164 -0.47261470650491866
 endloop
endfacet
facet normal -1.0 0.0 -0.0
 outer loop
  vertex -0.0625 -2.5 0.0
  vertex -0.0625 -2.3063662888057164 -0.47261470650491866
  vertex -0.0625 -2.75 -0.33814280495004434
 endloop
endfacet
facet normal -1.0 0.0 0.0
 outer loop
  vertex -0.0625 -2.0 0.0
  vertex -0.0625 -1.5 0.0
  vertex -0.0625 -1.7499942948817404 -0.397086890046646
 endloop
endfacet
facet normal -1.0 0.0 0.0
 outer loop
  vertex -0.0625 -2.3063662888057164 -0.47261470650491866
  vertex -0.0625 -2.0 0.0
  vertex -0.0625 -1.7499942948817404 -0.397086890046646
 endloop
endfacet
facet normal -1.0 0.0 0.0
 outer loop
  vertex -0.0625 -1.7499942948817404 -0.397086890046646
  vertex -0.0625 -1.5 0.0
  vertex -0.0625 -1.3630373471211086 -0.3630373471211086
 endloop
endfacet
facet normal -1.0 0.0 -0.0
 outer loop
  vertex -0.0625 -1.0 -3.0
  vertex -0.0625 -1.0 -3.5
  vertex -0.0625 -1.459323570734325 -3.253191330270536
 endloop
endfacet
facet normal -1.0 0.0 0.0
 outer loop
  vertex -0.0625 -1.459323570734325 -3.253191330270536
  vertex -0.0625 -1.0 -3.5
  vertex -0.0625 -1.3623793121702428 -3.637620687829757
 endloop
endfacet
facet normal -1.0 0.0 -0.0
 outer loop
  vertex -0.0625 -1.0 -2.5
  vertex -0.0625 -1.0 -3.0
  vertex -0.0625 -1.4330127018922192 -2.75
 endloop
endfacet
facet normal -1.0 -0.0 0.0
 outer loop
  vertex -0.0625 -1.0 -3.0
  vertex -0.0625 -1.459323570734325 -3.253191330270536
  vertex -0.0625 -1.4330127018922192 -2.75
 endloop
endfacet
facet normal -1.0 0.0 -0.0
 outer loop
  vertex -0.0625 -1.0 -2.0
  vertex -0.0625 -1.0 -2.5
  vertex -0.0625 -1.4330127018922192 -2.25
 endloop
endfacet
facet normal -1.0 0.0 0.0
 outer loop
  vertex -0.0625 -1.4330127018922192 -2.25
  vertex -0.0625 -1.0 -2.5
  vertex -0.0625 -1.4330127018922192 -2.75
 endloop
endfacet
facet normal -1.0 0.0 -0.0
 outer loop
  vertex -0.0625 -1.0 -1.5
  vertex -0.0625 -1.0 -2.0
  vertex -0.0625 -1.4203430566294215 -1.7493999561652558
 endloop
endfacet
facet normal -1.0 -0.0 0.0
 outer loop
  vertex -0.0625 -1.0 -2.0
  vertex -0.0625 -1.4330127018922192 -2.25
  vertex -0.0625 -1.4203430566294215 -1.7493999561652558
 endloop
endfacet
facet normal -1.0 0.0 -0.0
 outer loop
  vertex -0.0625 -1.0 -1.0
  vertex -0.0625 -1.0 -1.5
  vertex -0.0625 -1.4757106859864058 -1.236169229626686
 endloop
endfacet
facet normal -1.0 0.0 0.0
 outer loop
  vertex -0.0625 -1.4757106859864058 -1.236169229626686
  vertex -0.0625 -1.0 -1.5
  vertex -0.0625 -1.4203430566294215 -1.7493999561652558
 endloop
endfacet
facet normal -1.0 0.0 -0.0
 outer loop
  vertex -0.0625 -1.0 -0.5
  vertex -0.0625 -1.0 -1.0
  vertex -0.0625 -1.4228255294280068 -0.75
 endloop
endfacet
facet normal -1.0 -0.0 0.0
 outer loop
  vertex -0.0625 -1.0 -1.0
  vertex -0.0625 -1.4757106859864058 -1.236169229626686
  vertex -0.0625 -1.4228255294280068 -0.75
 endloop
endfacet
facet normal -1.0 -0.0 0.0
 outer loop
  vertex -0.0625 -1.0 -0.5
  vertex -0.0625 -1.4228255294280068 -0.75
  vertex -0.0625 -1.3630373471211086 -0.3630373471211086
 endloop
endfacet
facet normal -1.0 0.0 0.0
 outer loop
  vertex -0.0625 -4.0 -4.0
  vertex -0.0625 -4.5 -4.0
  vertex -0.0625 -4.254518954681968 -3.5840579819532556
 endloop
endfacet
facet normal -1.0 0.0 0.0
 outer loop
  vertex -0.0625 -4.254518954681968 -3.5840579819532556
  vertex -0.0625 -4.5 -4.0
  vertex -0.0625 -4.633974596215562 -3.6339745962155616
 endloop
endfacet
facet normal -1.0 0.0 0.0
 outer loop
  vertex -0.0625 -3.5 -4.0
  vertex -0.0625 -4.0 -4.0
  vertex -0.0625 -3.793362827353291 -3.551851937522286
 endloop
endfacet
facet normal -1.0 0.0 0.0
 outer loop
  vertex -0.0625 -3.793362827353291 -3.551851937522286
  vertex -0.0625 -4.0 -4.0
  vertex -0.0625 -4.254518954681968 -3.5840579819532556
 endloop
endfacet
facet normal -1.0 0.0 0.0
 outer loop
  vertex -0.0625 -3.0 -4.0
  vertex -0.0625 -3.5 -4.0
  vertex -0.0625 -3.2587302138288674 -3.488489483340438
 endloop
endfacet
facet normal -1.0 0.0 0.0
 outer loop
  vertex -0.0625 -3.5 -4.0
  vertex -0.0625 -3.793362827353291 -3.551851937522286
  vertex -0.0625 -3.2587302138288674 -3.488489483340438
 endloop
endfacet
facet normal -1.0 0.0 0.0
 outer loop
  vertex -0.0625 -2.5 -4.0
  vertex -0.0625 -3.0 -4.0
  vertex -0.0625 -2.72014365863982 -3.5538211105765383
 endloop
endfacet
facet normal -1.0 -0.0 0.0
 outer loop
  vertex -0.0625 -2.72014365863982 -3.5538211105765383
  vertex -0.0625 -3.0 -4.0
  vertex -0.0625 -3.2587302138288674 -3.488489483340438
 endloop
endfacet
facet normal -1.0 0.0 0.0
 outer loop
  vertex -0.0625 -2.0 -4.0
  vertex -0.0625 -2.5 -4.0
  vertex -0.0625 -2.2442550904431586 -3.5854943275277806
 endloop
endfacet
facet normal -1.0 0.0 0.0
 outer loop
  vertex -0.0625 -2.5 -4.0
  vertex -0.0625 -2.72014365863982 -3.5538211105765383
  vertex -0.0625 -2.2442550904431586 -3.5854943275277806
 endloop
endfacet
facet normal -1.0 0.0 0.0
 outer loop
  vertex -0.0625 -1.5 -4.0
  vertex -0.0625 -2.0 -4.0
  vertex -0.0625 -1.7536854662675903 -3.6190868629023054
 endloop
endfacet
facet normal -1.0 0.0 0.0
 outer loop
  vertex -0.0625 -2.0 -4.0
  vertex -0.0625 -2.2442550904431586 -3.5854943275277806
  vertex -0.0625 -1.7536854662675903 -3.6190868629023054
 endloop
endfacet
facet normal -1.0 0.0 0.0
 outer loop
  vertex -0.0625 -1.5 -4.0
  vertex -0.0625 -1.7536854662675903 -3.6190868629023054
  vertex -0.0625 -1.3623793121702428 -3.637620687829757
 endloop
endfacet
facet normal -1.0 0.0 -0.0
 outer loop
  vertex -0.0625 -3.2563794524249148 -0.4428997567031252
  vertex -0.0625 -2.8095253626834564 -0.7524125063083793
  vertex -0.0625 -3.2671656061773002 -0.9937092833592267
 endloop
endfacet
facet normal -1.0 0.0 0.0
 outer loop
  vertex -0.0625 -2.8095253626834564 -0.7524125063083793
  vertex -0.0625 -3.2563794524249148 -0.4428997567031252
  vertex -0.0625 -2.75 -0.33814280495004434
 endloop
endfacet
facet normal -1.0 0.0 0.0
 outer loop
  vertex -0.0625 -3.2563794524249148 -0.4428997567031252
  vertex -0.0625 -3.2671656061773002 -0.9937092833592267
  vertex -0.0625 -3.707077176307083 -0.7109579526040779
 endloop
endfacet
facet normal -1.0 -0.0 0.0
 outer loop
  vertex -0.0625 -3.2563794524249148 -0.4428997567031252
  vertex -0.0625 -3.707077176307083 -0.7109579526040779
  vertex -0.0625 -3.75 -0.3093502181031824
 endloop
endfacet
facet normal -1.0 0.0 0.0
 outer loop
  vertex -0.0625 -4.568591744668498 -2.7496468858932603
  vertex -0.0625 -4.56698729810778 -2.25
  vertex -0.0625 -4.1342420039756815 -2.499941147648877
 endloop
endfacet
facet normal -1.0 0.0 0.0
 outer loop
  vertex -0.0625 -4.1342420039756815 -2.499941147648877
  vertex -0.0625 -4.56698729810778 -2.25
  vertex -0.0625 -4.133936349748032 -1.9998467524786983
 endloop
endfacet
facet normal -1.0 -0.0 0.0
 outer loop
  vertex -0.0625 -4.133936349748032 -1.9998467524786983
  vertex -0.0625 -4.56698729810778 -2.25
  vertex -0.0625 -4.567366215442559 -1.7490736653527104
 endloop
endfacet
facet normal -1.0 0.0 -0.0
 outer loop
  vertex -0.0625 -1.4330127018922192 -2.25
  vertex -0.0625 -1.4330127018922192 -2.75
  vertex -0.0625 -1.7009618943233438 -2.500000000000003
 endloop
endfacet
facet normal -1.0 0.0 0.0
 outer loop
  vertex -0.0625 -1.4203430566294215 -1.7493999561652558
  vertex -0.0625 -1.4330127018922192 -2.25
  vertex -0.0625 -1.7009618943233447 -2.0000000000000044
 endloop
endfacet
facet normal -1.0 -0.0 0.0
 outer loop
  vertex -0.0625 -1.4330127018922192 -2.25
  vertex -0.0625 -1.7009618943233438 -2.500000000000003
  vertex -0.0625 -1.7009618943233447 -2.0000000000000044
 endloop
endfacet
facet normal -1.0 0.0 0.0
 outer loop
  vertex -0.0625 -2.72014365863982 -3.5538211105765383
  vertex -0.0625 -2.4376841387875317 -3.0799599300284077
  vertex -0.0625 -2.2442550904431586 -3.5854943275277806
 endloop
endfacet
facet normal -1.0 0.0 0.0
 outer loop
  vertex -0.0625 -2.4376841387875317 -3.0799599300284077
  vertex -0.0625 -2.72014365863982 -3.5538211105765383
  vertex -0.0625 -2.9032013305703157 -3.1710405305748584
 endloop
endfacet
facet normal -1.0 0.0 0.0
 outer loop
  vertex -0.0625 -2.72014365863982 -3.5538211105765383
  vertex -0.0625 -3.2587302138288674 -3.488489483340438
  vertex -0.0625 -2.9032013305703157 -3.1710405305748584
 endloop
endfacet
facet normal -1.0 0.0 0.0
 outer loop
  vertex -0.0625 -2.3063662888057164 -0.47261470650491866
  vertex -0.0625 -2.379929294270633 -1.0156598812021684
  vertex -0.0625 -2.8095253626834564 -0.7524125063083793
 endloop
endfacet
facet normal -1.0 0.0 0.0
 outer loop
  vertex -0.0625 -2.379929294270633 -1.0156598812021684
  vertex -0.0625 -2.3063662888057164 -0.47261470650491866
  vertex -0.0625 -1.9077037424544345 -0.8285782849671146
 endloop
endfacet
facet normal -1.0 -0.0 0.0
 outer loop
  vertex -0.0625 -2.3063662888057164 -0.47261470650491866
  vertex -0.0625 -2.8095253626834564 -0.7524125063083793
  vertex -0.0625 -2.75 -0.33814280495004434
 endloop
endfacet
facet normal -1.0 0.0 0.0
 outer loop
  vertex -0.0625 -1.9077037424544345 -0.8285782849671146
  vertex -0.0625 -2.3063662888057164 -0.47261470650491866
  vertex -0.0625 -1.7499942948817404 -0.397086890046646
 endloop
endfacet
facet normal -1.0 0.0 0.0
 outer loop
  vertex -0.0625 -4.571857015133891 -1.2394239754584824
  vertex -0.0625 -4.1458899627917605 -0.9423502385937668
  vertex -0.0625 -4.137877018656679 -1.4893776289766523
 endloop
endfacet
facet normal -1.0 -0.0 0.0
 outer loop
  vertex -0.0625 -4.1458899627917605 -0.9423502385937668
  vertex -0.0625 -4.571857015133891 -1.2394239754584824
  vertex -0.0625 -4.588692345762319 -0.7645334245139632
 endloop
endfacet
facet normal -1.0 0.0 0.0
 outer loop
  vertex -0.0625 -4.571857015133891 -1.2394239754584824
  vertex -0.0625 -4.137877018656679 -1.4893776289766523
  vertex -0.0625 -4.567366215442559 -1.7490736653527104
 endloop
endfacet
facet normal -1.0 0.0 -0.0
 outer loop
  vertex -0.0625 -4.092853545099583 -3.077635087635703
  vertex -0.0625 -3.793362827353291 -3.551851937522286
  vertex -0.0625 -4.254518954681968 -3.5840579819532556
 endloop
endfacet
facet normal -1.0 0.0 0.0
 outer loop
  vertex -0.0625 -3.793362827353291 -3.551851937522286
  vertex -0.0625 -4.092853545099583 -3.077635087635703
  vertex -0.0625 -3.6432668980409795 -3.1648553693617423
 endloop
endfacet
facet normal -1.0 -0.0 0.0
 outer loop
  vertex -0.0625 -3.2587302138288674 -3.488489483340438
  vertex -0.0625 -3.793362827353291 -3.551851937522286
  vertex -0.0625 -3.6432668980409795 -3.1648553693617423
 endloop
endfacet
facet normal -1.0 0.0 0.0
 outer loop
  vertex -0.0625 -1.4757106859864058 -1.236169229626686
  vertex -0.0625 -1.9077037424544345 -0.8285782849671146
  vertex -0.0625 -1.4228255294280068 -0.75
 endloop
endfacet
facet normal -1.0 0.0 -0.0
 outer loop
  vertex -0.0625 -1.9077037424544345 -0.8285782849671146
  vertex -0.0625 -1.4757106859864058 -1.236169229626686
  vertex -0.0625 -1.9790825060090151 -1.3005086068882683
 endloop
endfacet
facet normal -1.0 0.0 -0.0
 outer loop
  vertex -0.0625 -1.4757106859864058 -1.236169229626686
  vertex -0.0625 -1.4203430566294215 -1.7493999561652558
  vertex -0.0625 -1.7004411772495693 -1.5280035438937256
 endloop
endfacet
facet normal -1.0 0.0 0.0
 outer loop
  vertex -0.0625 -1.9790825060090151 -1.3005086068882683
  vertex -0.0625 -1.4757106859864058 -1.236169229626686
  vertex -0.0625 -1.7004411772495693 -1.5280035438937256
 endloop
endfacet
facet normal -1.0 0.0 0.0
 outer loop
  vertex -0.0625 -1.9561548242578146 -3.2382148317857604
  vertex -0.0625 -1.459323570734325 -3.253191330270536
  vertex -0.0625 -1.7536854662675903 -3.6190868629023054
 endloop
endfacet
facet normal -1.0 0.0 0.0
 outer loop
  vertex -0.0625 -1.459323570734325 -3.253191330270536
  vertex -0.0625 -1.9561548242578146 -3.2382148317857604
  vertex -0.0625 -1.700961894323346 -3.0000000000000044
 endloop
endfacet
facet normal -1.0 0.0 0.0
 outer loop
  vertex -0.0625 -1.4330127018922192 -2.75
  vertex -0.0625 -1.459323570734325 -3.253191330270536
  vertex -0.0625 -1.700961894323346 -3.0000000000000044
 endloop
endfacet
facet normal -1.0 0.0 0.0
 outer loop
  vertex -0.0625 -1.7536854662675903 -3.6190868629023054
  vertex -0.0625 -1.459323570734325 -3.253191330270536
  vertex -0.0625 -1.3623793121702428 -3.637620687829757
 endloop
endfacet
facet normal -1.0 0.0 0.0
 outer loop
  vertex -0.0625 -4.576613977472084 -3.247881315359562
  vertex -0.0625 -4.568591744668498 -2.7496468858932603
  vertex -0.0625 -4.092853545099583 -3.077635087635703
 endloop
endfacet
facet normal -1.0 0.0 0.0
 outer loop
  vertex -0.0625 -4.576613977472084 -3.247881315359562
  vertex -0.0625 -4.092853545099583 -3.077635087635703
  vertex -0.0625 -4.254518954681968 -3.5840579819532556
 endloop
endfacet
facet normal -1.0 0.0 -0.0
 outer loop
  vertex -0.0625 -4.576613977472084 -3.247881315359562
  vertex -0.0625 -4.254518954681968 -3.5840579819532556
  vertex -0.0625 -4.633974596215562 -3.6339745962155616
 endloop
endfacet
facet normal -1.0 0.0 0.0
 outer loop
  vertex -0.0625 -4.186631737609321 -0.437940768754836
  vertex -0.0625 -3.707077176307083 -0.7109579526040779
  vertex -0.0625 -4.1458899627917605 -0.9423502385937668
 endloop
endfacet
facet normal -1.0 0.0 0.0
 outer loop
  vertex -0.0625 -3.707077176307083 -0.7109579526040779
  vertex -0.0625 -4.186631737609321 -0.437940768754836
  vertex -0.0625 -3.75 -0.3093502181031824
 endloop
endfacet
facet normal -1.0 0.0 -0.0
 outer loop
  vertex -0.0625 -4.186631737609321 -0.437940768754836
  vertex -0.0625 -4.1458899627917605 -0.9423502385937668
  vertex -0.0625 -4.588692345762319 -0.7645334245139632
 endloop
endfacet
facet normal -1.0 -0.0 0.0
 outer loop
  vertex -0.0625 -4.186631737609321 -0.437940768754836
  vertex -0.0625 -4.588692345762319 -0.7645334245139632
  vertex -0.0625 -4.633974596215562 -0.3660254037844388
 endloop
endfacet
facet normal -1.0 0.0 0.0
 outer loop
  vertex -0.0625 -4.568591744668498 -2.7496468858932603
  vertex -0.0625 -4.1342420039756815 -2.499941147648877
  vertex -0.0625 -4.092853545099583 -3.077635087635703
 endloop
endfacet
facet normal -1.0 0.0 0.0
 outer loop
  vertex -0.0625 -4.1342420039756815 -2.499941147648877
  vertex -0.0625 -4.133936349748032 -1.9998467524786983
  vertex -0.0625 -3.7010000878721074 -2.2499646500212633
 endloop
endfacet
facet normal -1.0 0.0 0.0
 outer loop
  vertex -0.0625 -4.1342420039756815 -2.499941147648877
  vertex -0.0625 -3.7010000878721074 -2.2499646500212633
  vertex -0.0625 -3.7009618943233438 -2.75
 endloop
endfacet
facet normal -1.0 0.0 0.0
 outer loop
  vertex -0.0625 -4.092853545099583 -3.077635087635703
  vertex -0.0625 -4.1342420039756815 -2.499941147648877
  vertex -0.0625 -3.7009618943233438 -2.75
 endloop
endfacet
facet normal -1.0 0.0 0.0
 outer loop
  vertex -0.0625 -3.7010000878721074 -2.2499646500212633
  vertex -0.0625 -4.133936349748032 -1.9998467524786983
  vertex -0.0625 -3.7054634340240287 -1.7424811378216418
 endloop
endfacet
facet normal -1.0 -0.0 0.0
 outer loop
  vertex -0.0625 -3.7054634340240287 -1.7424811378216418
  vertex -0.0625 -4.133936349748032 -1.9998467524786983
  vertex -0.0625 -4.137877018656679 -1.4893776289766523
 endloop
endfacet
facet normal -1.0 0.0 -0.0
 outer loop
  vertex -0.0625 -4.137877018656679 -1.4893776289766523
  vertex -0.0625 -4.133936349748032 -1.9998467524786983
  vertex -0.0625 -4.567366215442559 -1.7490736653527104
 endloop
endfacet
facet normal -1.0 0.0 0.0
 outer loop
  vertex -0.0625 -3.7010000878721074 -2.2499646500212633
  vertex -0.0625 -3.7054634340240287 -1.7424811378216418
  vertex -0.0625 -3.2687058146393646 -1.9987409646404855
 endloop
endfacet
facet normal -1.0 0.0 0.0
 outer loop
  vertex -0.0625 -3.7010000878721074 -2.2499646500212633
  vertex -0.0625 -3.2687058146393646 -1.9987409646404855
  vertex -0.0625 -3.2680816617239588 -2.4997842691102927
 endloop
endfacet
facet normal -1.0 0.0 0.0
 outer loop
  vertex -0.0625 -3.7010000878721074 -2.2499646500212633
  vertex -0.0625 -3.2680816617239588 -2.4997842691102927
  vertex -0.0625 -3.7009618943233438 -2.75
 endloop
endfacet
facet normal -1.0 0.0 0.0
 outer loop
  vertex -0.0625 -3.2687058146393646 -1.9987409646404855
  vertex -0.0625 -3.7054634340240287 -1.7424811378216418
  vertex -0.0625 -3.2734052432323213 -1.4902607569503874
 endloop
endfacet
facet normal -1.0 0.0 0.0
 outer loop
  vertex -0.0625 -3.7054634340240287 -1.7424811378216418
  vertex -0.0625 -3.7284680720115233 -1.205936057206574
  vertex -0.0625 -3.2734052432323213 -1.4902607569503874
 endloop
endfacet
facet normal -1.0 0.0 -0.0
 outer loop
  vertex -0.0625 -3.7284680720115233 -1.205936057206574
  vertex -0.0625 -3.7054634340240287 -1.7424811378216418
  vertex -0.0625 -4.137877018656679 -1.4893776289766523
 endloop
endfacet
facet normal -1.0 0.0 0.0
 outer loop
  vertex -0.0625 -3.2680816617239588 -2.4997842691102927
  vertex -0.0625 -3.2687058146393646 -1.9987409646404855
  vertex -0.0625 -2.835084672455751 -2.2497542056251323
 endloop
endfacet
facet normal -1.0 0.0 0.0
 outer loop
  vertex -0.0625 -2.835084672455751 -2.2497542056251323
  vertex -0.0625 -3.2687058146393646 -1.9987409646404855
  vertex -0.0625 -2.835087291226418 -1.7497491950442714
 endloop
endfacet
facet normal -1.0 -0.0 0.0
 outer loop
  vertex -0.0625 -2.835087291226418 -1.7497491950442714
  vertex -0.0625 -3.2687058146393646 -1.9987409646404855
  vertex -0.0625 -3.2734052432323213 -1.4902607569503874
 endloop
endfacet
facet normal -1.0 0.0 0.0
 outer loop
  vertex -0.0625 -3.2680816617239588 -2.4997842691102927
  vertex -0.0625 -2.835084672455751 -2.2497542056251323
  vertex -0.0625 -2.834936490538906 -2.7500000000000044
 endloop
endfacet
facet normal -1.0 0.0 0.0
 outer loop
  vertex -0.0625 -3.2680816617239588 -2.4997842691102927
  vertex -0.0625 -2.834936490538906 -2.7500000000000044
  vertex -0.0625 -3.264512151056453 -2.9829321289289026
 endloop
endfacet
facet normal -1.0 0.0 -0.0
 outer loop
  vertex -0.0625 -3.2680816617239588 -2.4997842691102927
  vertex -0.0625 -3.264512151056453 -2.9829321289289026
  vertex -0.0625 -3.7009618943233438 -2.75
 endloop
endfacet
facet normal -1.0 0.0 0.0
 outer loop
  vertex -0.0625 -2.835084672455751 -2.2497542056251323
  vertex -0.0625 -2.835087291226418 -1.7497491950442714
  vertex -0.0625 -2.4019237886466844 -2.0000000000000036
 endloop
endfacet
facet normal -1.0 0.0 0.0
 outer loop
  vertex -0.0625 -2.835084672455751 -2.2497542056251323
  vertex -0.0625 -2.4019237886466844 -2.0000000000000036
  vertex -0.0625 -2.4019484856328273 -2.499959034270859
 endloop
endfacet
facet normal -1.0 0.0 0.0
 outer loop
  vertex -0.0625 -2.835084672455751 -2.2497542056251323
  vertex -0.0625 -2.4019484856328273 -2.499959034270859
  vertex -0.0625 -2.834936490538906 -2.7500000000000044
 endloop
endfacet
facet normal -1.0 0.0 0.0
 outer loop
  vertex -0.0625 -2.4019237886466844 -2.0000000000000036
  vertex -0.0625 -2.835087291226418 -1.7497491950442714
  vertex -0.0625 -2.405401492617515 -1.5059382267364487
 endloop
endfacet
facet normal -1.0 -0.0 0.0
 outer loop
  vertex -0.0625 -2.405401492617515 -1.5059382267364487
  vertex -0.0625 -2.835087291226418 -1.7497491950442714
  vertex -0.0625 -2.835541241315292 -1.2509479036301214
 endloop
endfacet
facet normal -1.0 0.0 -0.0
 outer loop
  vertex -0.0625 -2.835541241315292 -1.2509479036301214
  vertex -0.0625 -2.835087291226418 -1.7497491950442714
  vertex -0.0625 -3.2734052432323213 -1.4902607569503874
 endloop
endfacet
facet normal -1.0 0.0 0.0
 outer loop
  vertex -0.0625 -2.4019484856328273 -2.499959034270859
  vertex -0.0625 -2.4019237886466844 -2.0000000000000036
  vertex -0.0625 -1.9689110867544661 -2.250000000000005
 endloop
endfacet
facet normal -1.0 0.0 0.0
 outer loop
  vertex -0.0625 -2.4019237886466844 -2.0000000000000036
  vertex -0.0625 -2.405401492617515 -1.5059382267364487
  vertex -0.0625 -1.9840835377041177 -1.7518142784304693
 endloop
endfacet
facet normal -1.0 0.0 0.0
 outer loop
  vertex -0.0625 -2.4019237886466844 -2.0000000000000036
  vertex -0.0625 -1.9840835377041177 -1.7518142784304693
  vertex -0.0625 -1.9689110867544661 -2.250000000000005
 endloop
endfacet
facet normal -1.0 0.0 0.0
 outer loop
  vertex -0.0625 -2.4019484856328273 -2.499959034270859
  vertex -0.0625 -1.9689110867544661 -2.250000000000005
  vertex -0.0625 -1.9689110867544675 -2.7500000000000044
 endloop
endfacet
facet normal -1.0 0.0 -0.0
 outer loop
  vertex -0.0625 -2.4019484856328273 -2.499959034270859
  vertex -0.0625 -1.9689110867544675 -2.7500000000000044
  vertex -0.0625 -2.4376841387875317 -3.0799599300284077
 endloop
endfacet
facet normal -1.0 0.0 0.0
 outer loop
  vertex -0.0625 -2.4019484856328273 -2.499959034270859
  vertex -0.0625 -2.4376841387875317 -3.0799599300284077
  vertex -0.0625 -2.834936490538906 -2.7500000000000044
 endloop
endfacet
facet normal -1.0 0.0 0.0
 outer loop
  vertex -0.0625 -2.405401492617515 -1.5059382267364487
  vertex -0.0625 -2.835541241315292 -1.2509479036301214
  vertex -0.0625 -2.379929294270633 -1.0156598812021684
 endloop
endfacet
facet normal -1.0 0.0 0.0
 outer loop
  vertex -0.0625 -1.9840835377041177 -1.7518142784304693
  vertex -0.0625 -2.405401492617515 -1.5059382267364487
  vertex -0.0625 -1.9790825060090151 -1.3005086068882683
 endloop
endfacet
facet normal -1.0 0.0 0.0
 outer loop
  vertex -0.0625 -2.405401492617515 -1.5059382267364487
  vertex -0.0625 -2.379929294270633 -1.0156598812021684
  vertex -0.0625 -1.9790825060090151 -1.3005086068882683
 endloop
endfacet
facet normal -1.0 -0.0 0.0
 outer loop
  vertex -0.0625 -2.379929294270633 -1.0156598812021684
  vertex -0.0625 -2.835541241315292 -1.2509479036301214
  vertex -0.0625 -2.8095253626834564 -0.7524125063083793
 endloop
endfacet
facet normal -1.0 0.0 0.0
 outer loop
  vertex -0.0625 -2.8095253626834564 -0.7524125063083793
  vertex -0.0625 -2.835541241315292 -1.2509479036301214
  vertex -0.0625 -3.2671656061773002 -0.9937092833592267
 endloop
endfacet
facet normal -1.0 0.0 -0.0
 outer loop
  vertex -0.0625 -3.2671656061773002 -0.9937092833592267
  vertex -0.0625 -2.835541241315292 -1.2509479036301214
  vertex -0.0625 -3.2734052432323213 -1.4902607569503874
 endloop
endfacet
facet normal -1.0 0.0 0.0
 outer loop
  vertex -0.0625 -1.9689110867544661 -2.250000000000005
  vertex -0.0625 -1.9840835377041177 -1.7518142784304693
  vertex -0.0625 -1.7009618943233447 -2.0000000000000044
 endloop
endfacet
facet normal -1.0 0.0 0.0
 outer loop
  vertex -0.0625 -1.9840835377041177 -1.7518142784304693
  vertex -0.0625 -1.9790825060090151 -1.3005086068882683
  vertex -0.0625 -1.7004411772495693 -1.5280035438937256
 endloop
endfacet
facet normal -1.0 0.0 0.0
 outer loop
  vertex -0.0625 -1.7009618943233447 -2.0000000000000044
  vertex -0.0625 -1.9840835377041177 -1.7518142784304693
  vertex -0.0625 -1.7004411772495693 -1.5280035438937256
 endloop
endfacet
facet normal -1.0 0.0 0.0
 outer loop
  vertex -0.0625 -2.379929294270633 -1.0156598812021684
  vertex -0.0625 -1.9077037424544345 -0.8285782849671146
  vertex -0.0625 -1.9790825060090151 -1.3005086068882683
 endloop
endfacet
facet normal -1.0 -0.0 0.0
 outer loop
  vertex -0.0625 -1.4228255294280068 -0.75
  vertex -0.0625 -1.9077037424544345 -0.8285782849671146
  vertex -0.0625 -1.7499942948817404 -0.397086890046646
 endloop
endfacet
facet normal -1.0 0.0 -0.0
 outer loop
  vertex -0.0625 -3.707077176307083 -0.7109579526040779
  vertex -0.0625 -3.2671656061773002 -0.9937092833592267
  vertex -0.0625 -3.7284680720115233 -1.205936057206574
 endloop
endfacet
facet normal -1.0 0.0 0.0
 outer loop
  vertex -0.0625 -3.7284680720115233 -1.205936057206574
  vertex -0.0625 -3.2671656061773002 -0.9937092833592267
  vertex -0.0625 -3.2734052432323213 -1.4902607569503874
 endloop
endfacet
facet normal -1.0 0.0 0.0
 outer loop
  vertex -0.0625 -3.707077176307083 -0.7109579526040779
  vertex -0.0625 -3.7284680720115233 -1.205936057206574
  vertex -0.0625 -4.1458899627917605 -0.9423502385937668
 endloop
endfacet
facet normal -1.0 0.0 0.0
 outer loop
  vertex -0.0625 -4.1458899627917605 -0.9423502385937668
  vertex -0.0625 -3.7284680720115233 -1.205936057206574
  vertex -0.0625 -4.137877018656679 -1.4893776289766523
 endloop
endfacet
facet normal -1.0 0.0 0.0
 outer loop
  vertex -0.0625 -1.9689110867544675 -2.7500000000000044
  vertex -0.0625 -1.9689110867544661 -2.250000000000005
  vertex -0.0625 -1.7009618943233438 -2.500000000000003
 endloop
endfacet
facet normal -1.0 0.0 0.0
 outer loop
  vertex -0.0625 -1.7009618943233438 -2.500000000000003
  vertex -0.0625 -1.9689110867544661 -2.250000000000005
  vertex -0.0625 -1.7009618943233447 -2.0000000000000044
 endloop
endfacet
facet normal -1.0 0.0 0.0
 outer loop
  vertex -0.0625 -2.4376841387875317 -3.0799599300284077
  vertex -0.0625 -1.9689110867544675 -2.7500000000000044
  vertex -0.0625 -1.9561548242578146 -3.2382148317857604
 endloop
endfacet
facet normal -1.0 0.0 0.0
 outer loop
  vertex -0.0625 -1.9561548242578146 -3.2382148317857604
  vertex -0.0625 -1.9689110867544675 -2.7500000000000044
  vertex -0.0625 -1.700961894323346 -3.0000000000000044
 endloop
endfacet
facet normal -1.0 0.0 0.0
 outer loop
  vertex -0.0625 -1.700961894323346 -3.0000000000000044
  vertex -0.0625 -1.9689110867544675 -2.7500000000000044
  vertex -0.0625 -1.7009618943233438 -2.500000000000003
 endloop
endfacet
facet normal -1.0 0.0 0.0
 outer loop
  vertex -0.0625 -2.4376841387875317 -3.0799599300284077
  vertex -0.0625 -1.9561548242578146 -3.2382148317857604
  vertex -0.0625 -2.2442550904431586 -3.5854943275277806
 endloop
endfacet
facet normal -1.0 0.0 -0.0
 outer loop
  vertex -0.0625 -2.834936490538906 -2.7500000000000044
  vertex -0.0625 -2.4376841387875317 -3.0799599300284077
  vertex -0.0625 -2.9032013305703157 -3.1710405305748584
 endloop
endfacet
facet normal -1.0 0.0 0.0
 outer loop
  vertex -0.0625 -2.2442550904431586 -3.5854943275277806
  vertex -0.0625 -1.9561548242578146 -3.2382148317857604
  vertex -0.0625 -1.7536854662675903 -3.6190868629023054
 endloop
endfacet
facet normal -1.0 0.0 0.0
 outer loop
  vertex -0.0625 -3.264512151056453 -2.9829321289289026
  vertex -0.0625 -2.834936490538906 -2.7500000000000044
  vertex -0.0625 -2.9032013305703157 -3.1710405305748584
 endloop
endfacet
facet normal -1.0 0.0 0.0
 outer loop
  vertex -0.0625 -3.2587302138288674 -3.488489483340438
  vertex -0.0625 -3.264512151056453 -2.9829321289289026
  vertex -0.0625 -2.9032013305703157 -3.1710405305748584
 endloop
endfacet
facet normal -1.0 0.0 -0.0
 outer loop
  vertex -0.0625 -3.264512151056453 -2.9829321289289026
  vertex -0.0625 -3.2587302138288674 -3.488489483340438
  vertex -0.0625 -3.6432668980409795 -3.1648553693617423
 endloop
endfacet
facet normal -1.0 0.0 0.0
 outer loop
  vertex -0.0625 -3.7009618943233438 -2.75
  vertex -0.0625 -3.264512151056453 -2.9829321289289026
  vertex -0.0625 -3.6432668980409795 -3.1648553693617423
 endloop
endfacet
facet normal -1.0 0.0 0.0
 outer loop
  vertex -0.0625 -4.092853545099583 -3.077635087635703
  vertex -0.0625 -3.7009618943233438 -2.75
  vertex -0.0625 -3.6432668980409795 -3.1648553693617423
 endloop
endfacet
facet normal -1.0 -0.0 0.0
 outer loop
  vertex -0.0625 -1.4330127018922192 -2.75
  vertex -0.0625 -1.700961894323346 -3.0000000000000044
  vertex -0.0625 -1.7009618943233438 -2.500000000000003
 endloop
endfacet
facet normal -1.0 -0.0 0.0
 outer loop
  vertex -0.0625 -1.4203430566294215 -1.7493999561652558
  vertex -0.0625 -1.7009618943233447 -2.0000000000000044
  vertex -0.0625 -1.7004411772495693 -1.5280035438937256
 endloop
endfacet
facet normal -1.0 0.0 0.0
 outer loop
  vertex -0.0625 -1.4228255294280068 -0.75
  vertex -0.0625 -1.7499942948817404 -0.397086890046646
  vertex -0.0625 -1.3630373471211086 -0.3630373471211086
 endloop
endfacet
facet normal 1.0 0.0 0.0
 outer loop
  vertex 0.0625 -5.0 -0.5
  vertex 0.0625 -4.633974596215562 -0.3660254037844388
  vertex 0.0625 -5.0 0.0
 endloop
endfacet
facet normal 1.0 -0.0 0.0
 outer loop
  vertex 0.0625 -5.0 0.0
  vertex 0.0625 -4.633974596215562 -0.3660254037844388
  vertex 0.0625 -4.5 0.0
 endloop
endfacet
facet normal 1.0 0.0 0.0
 outer loop
  vertex 0.0625 -5.0 -4.0
  vertex 0.0625 -4.633974596215562 -3.6339745962155616
  vertex 0.0625 -5.0 -3.5
 endloop
endfacet
facet normal 1.0 0.0 0.0
 outer loop
  vertex 0.0625 -4.5 -4.0
  vertex 0.0625 -4.633974596215562 -3.6339745962155616
  vertex 0.0625 -5.0 -4.0
 endloop
endfacet
facet normal 1.0 -0.0 0.0
 outer loop
  vertex 0.0625 -1.5 0.0
  vertex 0.0625 -1.3630373471211086 -0.3630373471211086
  vertex 0.0625 -1.0 0.0
 endloop
endfacet
facet normal 1.0 0.0 0.0
 outer loop
  vertex 0.0625 -1.0 0.0
  vertex 0.0625 -1.3630373471211086 -0.3630373471211086
  vertex 0.0625 -1.0 -0.5
 endloop
endfacet
facet normal 1.0 0.0 0.0
 outer loop
  vertex 0.0625 -1.0 -3.5
  vertex 0.0625 -1.3623793121702428 -3.637620687829757
  vertex 0.0625 -1.0 -4.0
 endloop
endfacet
facet normal 1.0 0.0 0.0
 outer loop
  vertex 0.0625 -1.0 -4.0
  vertex 0.0625 -1.3623793121702428 -3.637620687829757
  vertex 0.0625 -1.5 -4.0
 endloop
endfacet
facet normal 1.0 0.0 0.0
 outer loop
  vertex 0.0625 -5.0 -3.5
  vertex 0.0625 -4.576613977472084 -3.247881315359562
  vertex 0.0625 -5.0 -3.0
 endloop
endfacet
facet normal 1.0 -0.0 0.0
 outer loop
  vertex 0.0625 -5.0 -3.5
  vertex 0.0625 -4.633974596215562 -3.6339745962155616
  vertex 0.0625 -4.576613977472084 -3.247881315359562
 endloop
endfacet
facet normal 1.0 0.0 0.0
 outer loop
  vertex 0.0625 -5.0 -3.0
  vertex 0.0625 -4.568591744668498 -2.7496468858932603
  vertex 0.0625 -5.0 -2.5
 endloop
endfacet
facet normal 1.0 0.0 -0.0
 outer loop
  vertex 0.0625 -4.576613977472084 -3.247881315359562
  vertex 0.0625 -4.568591744668498 -2.7496468858932603
  vertex 0.0625 -5.0 -3.0
 endloop
endfacet
facet normal 1.0 0.0 0.0
 outer loop
  vertex 0.0625 -5.0 -2.5
  vertex 0.0625 -4.56698729810778 -2.25
  vertex 0.0625 -5.0 -2.0
 endloop
endfacet
facet normal 1.0 -0.0 0.0
 outer loop
  vertex 0.0625 -5.0 -2.5
  vertex 0.0625 -4.568591744668498 -2.7496468858932603
  vertex 0.0625 -4.56698729810778 -2.25
 endloop
endfacet
facet normal 1.0 0.0 0.0
 outer loop
  vertex 0.0625 -5.0 -2.0
  vertex 0.0625 -4.567366215442559 -1.7490736653527104
  vertex 0.0625 -5.0 -1.5
 endloop
endfacet
facet normal 1.0 0.0 0.0
 outer loop
  vertex 0.0625 -4.56698729810778 -2.25
  vertex 0.0625 -4.567366215442559 -1.7490736653527104
  vertex 0.0625 -5.0 -2.0
 endloop
endfacet
facet normal 1.0 0.0 0.0
 outer loop
  vertex 0.0625 -5.0 -1.5
  vertex 0.0625 -4.571857015133891 -1.2394239754584824
  vertex 0.0625 -5.0 -1.0
 endloop
endfacet
facet normal 1.0 -0.0 0.0
 outer loop
  vertex 0.0625 -5.0 -1.5
  vertex 0.0625 -4.567366215442559 -1.7490736653527104
  vertex 0.0625 -4.571857015133891 -1.2394239754584824
 endloop
endfacet
facet normal 1.0 0.0 0.0
 outer loop
  vertex 0.0625 -5.0 -1.0
  vertex 0.0625 -4.588692345762319 -0.7645334245139632
  vertex 0.0625 -5.0 -0.5
 endloop
endfacet
facet normal 1.0 0.0 0.0
 outer loop
  vertex 0.0625 -4.571857015133891 -1.2394239754584824
  vertex 0.0625 -4.588692345762319 -0.7645334245139632
  vertex 0.0625 -5.0 -1.0
 endloop
endfacet
facet normal 1.0 0.0 0.0
 outer loop
  vertex 0.0625 -4.588692345762319 -0.7645334245139632
  vertex 0.0625 -4.633974596215562 -0.3660254037844388
  vertex 0.0625 -5.0 -0.5
 endloop
endfacet
facet normal 1.0 -0.0 0.0
 outer loop
  vertex 0.0625 -4.5 0.0
  vertex 0.0625 -4.186631737609321 -0.437940768754836
  vertex 0.0625 -4.0 0.0
 endloop
endfacet
facet normal 1.0 0.0 0.0
 outer loop
  vertex 0.0625 -4.5 0.0
  vertex 0.0625 -4.633974596215562 -0.3660254037844388
  vertex 0.0625 -4.186631737609321 -0.437940768754836
 endloop
endfacet
facet normal 1.0 -0.0 0.0
 outer loop
  vertex 0.0625 -4.0 0.0
  vertex 0.0625 -3.75 -0.3093502181031824
  vertex 0.0625 -3.5 0.0
 endloop
endfacet
facet normal 1.0 0.0 0.0
 outer loop
  vertex 0.0625 -4.186631737609321 -0.437940768754836
  vertex 0.0625 -3.75 -0.3093502181031824
  vertex 0.0625 -4.0 0.0
 endloop
endfacet
facet normal 1.0 -0.0 0.0
 outer loop
  vertex 0.0625 -3.5 0.0
  vertex 0.0625 -3.2563794524249148 -0.4428997567031252
  vertex 0.0625 -3.0 0.0
 endloop
endfacet
facet normal 1.0 0.0 0.0
 outer loop
  vertex 0.0625 -3.5 0.0
  vertex 0.0625 -3.75 -0.3093502181031824
  vertex 0.0625 -3.2563794524249148 -0.4428997567031252
 endloop
endfacet
facet normal 1.0 -0.0 0.0
 outer loop
  vertex 0.0625 -3.0 0.0
  vertex 0.0625 -2.75 -0.33814280495004434
  vertex 0.0625 -2.5 0.0
 endloop
endfacet
facet normal 1.0 0.0 0.0
 outer loop
  vertex 0.0625 -3.2563794524249148 -0.4428997567031252
  vertex 0.0625 -2.75 -0.33814280495004434
  vertex 0.0625 -3.0 0.0
 endloop
endfacet
facet normal 1.0 -0.0 0.0
 outer loop
  vertex 0.0625 -2.5 0.0
  vertex 0.0625 -2.3063662888057164 -0.47261470650491866
  vertex 0.0625 -2.0 0.0
 endloop
endfacet
facet normal 1.0 0.0 0.0
 outer loop
  vertex 0.0625 -2.5 0.0
  vertex 0.0625 -2.75 -0.33814280495004434
  vertex 0.0625 -2.3063662888057164 -0.47261470650491866
 endloop
endfacet
facet normal 1.0 -0.0 0.0
 outer loop
  vertex 0.0625 -2.0 0.0
  vertex 0.0625 -1.7499942948817404 -0.397086890046646
  vertex 0.0625 -1.5 0.0
 endloop
endfacet
facet normal 1.0 0.0 0.0
 outer loop
  vertex 0.0625 -2.3063662888057164 -0.47261470650491866
  vertex 0.0625 -1.7499942948817404 -0.397086890046646
  vertex 0.0625 -2.0 0.0
 endloop
endfacet
facet normal 1.0 0.0 0.0
 outer loop
  vertex 0.0625 -1.7499942948817404 -0.397086890046646
  vertex 0.0625 -1.3630373471211086 -0.3630373471211086
  vertex 0.0625 -1.5 0.0
 endloop
endfacet
facet normal 1.0 0.0 0.0
 outer loop
  vertex 0.0625 -1.0 -3.0
  vertex 0.0625 -1.459323570734325 -3.253191330270536
  vertex 0.0625 -1.0 -3.5
 endloop
endfacet
facet normal 1.0 0.0 0.0
 outer loop
  vertex 0.0625 -1.459323570734325 -3.253191330270536
  vertex 0.0625 -1.3623793121702428 -3.637620687829757
  vertex 0.0625 -1.0 -3.5
 endloop
endfacet
facet normal 1.0 0.0 0.0
 outer loop
  vertex 0.0625 -1.0 -2.5
  vertex 0.0625 -1.4330127018922192 -2.75
  vertex 0.0625 -1.0 -3.0
 endloop
endfacet
facet normal 1.0 0.0 0.0
 outer loop
  vertex 0.0625 -1.0 -3.0
  vertex 0.0625 -1.4330127018922192 -2.75
  vertex 0.0625 -1.459323570734325 -3.253191330270536
 endloop
endfacet
facet normal 1.0 0.0 0.0
 outer loop
  vertex 0.0625 -1.0 -2.0
  vertex 0.0625 -1.4330127018922192 -2.25
  vertex 0.0625 -1.0 -2.5
 endloop
endfacet
facet normal 1.0 0.0 0.0
 outer loop
  vertex 0.0625 -1.4330127018922192 -2.25
  vertex 0.0625 -1.4330127018922192 -2.75
  vertex 0.0625 -1.0 -2.5
 endloop
endfacet
facet normal 1.0 0.0 0.0
 outer loop
  vertex 0.0625 -1.0 -1.5
  vertex 0.0625 -1.4203430566294215 -1.7493999561652558
  vertex 0.0625 -1.0 -2.0
 endloop
endfacet
facet normal 1.0 0.0 0.0
 outer loop
  vertex 0.0625 -1.0 -2.0
  vertex 0.0625 -1.4203430566294215 -1.7493999561652558
  vertex 0.0625 -1.4330127018922192 -2.25
 endloop
endfacet
facet normal 1.0 0.0 0.0
 outer loop
  vertex 0.0625 -1.0 -1.0
  vertex 0.0625 -1.4757106859864058 -1.236169229626686
  vertex 0.0625 -1.0 -1.5
 endloop
endfacet
facet normal 1.0 0.0 0.0
 outer loop
  vertex 0.0625 -1.4757106859864058 -1.236169229626686
  vertex 0.0625 -1.4203430566294215 -1.7493999561652558
  vertex 0.0625 -1.0 -1.5
 endloop
endfacet
facet normal 1.0 0.0 0.0
 outer loop
  vertex 0.0625 -1.0 -0.5
  vertex 0.0625 -1.4228255294280068 -0.75
  vertex 0.0625 -1.0 -1.0
 endloop
endfacet
facet normal 1.0 0.0 0.0
 outer loop
  vertex 0.0625 -1.0 -1.0
  vertex 0.0625 -1.4228255294280068 -0.75
  vertex 0.0625 -1.4757106859864058 -1.236169229626686
 endloop
endfacet
facet normal 1.0 0.0 0.0
 outer loop
  vertex 0.0625 -1.0 -0.5
  vertex 0.0625 -1.3630373471211086 -0.3630373471211086
  vertex 0.0625 -1.4228255294280068 -0.75
 endloop
endfacet
facet normal 1.0 0.0 0.0
 outer loop
  vertex 0.0625 -4.0 -4.0
  vertex 0.0625 -4.254518954681968 -3.5840579819532556
  vertex 0.0625 -4.5 -4.0
 endloop
endfacet
facet normal 1.0 0.0 0.0
 outer loop
  vertex 0.0625 -4.254518954681968 -3.5840579819532556
  vertex 0.0625 -4.633974596215562 -3.6339745962155616
  vertex 0.0625 -4.5 -4.0
 endloop
endfacet
facet normal 1.0 0.0 0.0
 outer loop
  vertex 0.0625 -3.5 -4.0
  vertex 0.0625 -3.793362827353291 -3.551851937522286
  vertex 0.0625 -4.0 -4.0
 endloop
endfacet
facet normal 1.0 0.0 0.0
 outer loop
  vertex 0.0625 -3.793362827353291 -3.551851937522286
  vertex 0.0625 -4.254518954681968 -3.5840579819532556
  vertex 0.0625 -4.0 -4.0
 endloop
endfacet
facet normal 1.0 0.0 0.0
 outer loop
  vertex 0.0625 -3.0 -4.0
  vertex 0.0625 -3.2587302138288674 -3.488489483340438
  vertex 0.0625 -3.5 -4.0
 endloop
endfacet
facet normal 1.0 0.0 -0.0
 outer loop
  vertex 0.0625 -3.5 -4.0
  vertex 0.0625 -3.2587302138288674 -3.488489483340438
  vertex 0.0625 -3.793362827353291 -3.551851937522286
 endloop
endfacet
facet normal 1.0 0.0 0.0
 outer loop
  vertex 0.0625 -2.5 -4.0
  vertex 0.0625 -2.72014365863982 -3.5538211105765383
  vertex 0.0625 -3.0 -4.0
 endloop
endfacet
facet normal 1.0 0.0 0.0
 outer loop
  vertex 0.0625 -2.72014365863982 -3.5538211105765383
  vertex 0.0625 -3.2587302138288674 -3.488489483340438
  vertex 0.0625 -3.0 -4.0
 endloop
endfacet
facet normal 1.0 0.0 0.0
 outer loop
  vertex 0.0625 -2.0 -4.0
  vertex 0.0625 -2.2442550904431586 -3.5854943275277806
  vertex 0.0625 -2.5 -4.0
 endloop
endfacet
facet normal 1.0 0.0 -0.0
 outer loop
  vertex 0.0625 -2.5 -4.0
  vertex 0.0625 -2.2442550904431586 -3.5854943275277806
  vertex 0.0625 -2.72014365863982 -3.5538211105765383
 endloop
endfacet
facet normal 1.0 0.0 0.0
 outer loop
  vertex 0.0625 -1.5 -4.0
  vertex 0.0625 -1.7536854662675903 -3.6190868629023054
  vertex 0.0625 -2.0 -4.0
 endloop
endfacet
facet normal 1.0 0.0 -0.0
 outer loop
  vertex 0.0625 -2.0 -4.0
  vertex 0.0625 -1.7536854662675903 -3.6190868629023054
  vertex 0.0625 -2.2442550904431586 -3.5854943275277806
 endloop
endfacet
facet normal 1.0 0.0 -0.0
 outer loop
  vertex 0.0625 -1.5 -4.0
  vertex 0.0625 -1.3623793121702428 -3.637620687829757
  vertex 0.0625 -1.7536854662675903 -3.6190868629023054
 endloop
endfacet
facet normal 1.0 0.0 0.0
 outer loop
  vertex 0.0625 -3.2563794524249148 -0.4428997567031252
  vertex 0.0625 -3.2671656061773002 -0.9937092833592267
  vertex 0.0625 -2.8095253626834564 -0.7524125063083793
 endloop
endfacet
facet normal 1.0 0.0 -0.0
 outer loop
  vertex 0.0625 -2.8095253626834564 -0.7524125063083793
  vertex 0.0625 -2.75 -0.33814280495004434
  vertex 0.0625 -3.2563794524249148 -0.4428997567031252
 endloop
endfacet
facet normal 1.0 0.0 0.0
 outer loop
  vertex 0.0625 -3.2563794524249148 -0.4428997567031252
  vertex 0.0625 -3.707077176307083 -0.7109579526040779
  vertex 0.0625 -3.2671656061773002 -0.9937092833592267
 endloop
endfacet
facet normal 1.0 0.0 0.0
 outer loop
  vertex 0.0625 -3.2563794524249148 -0.4428997567031252
  vertex 0.0625 -3.75 -0.3093502181031824
  vertex 0.0625 -3.707077176307083 -0.7109579526040779
 endloop
endfacet
facet normal 1.0 0.0 0.0
 outer loop
  vertex 0.0625 -4.568591744668498 -2.7496468858932603
  vertex 0.0625 -4.1342420039756815 -2.499941147648877
  vertex 0.0625 -4.56698729810778 -2.25
 endloop
endfacet
facet normal 1.0 0.0 -0.0
 outer loop
  vertex 0.0625 -4.1342420039756815 -2.499941147648877
  vertex 0.0625 -4.133936349748032 -1.9998467524786983
  vertex 0.0625 -4.56698729810778 -2.25
 endloop
endfacet
facet normal 1.0 0.0 0.0
 outer loop
  vertex 0.0625 -4.133936349748032 -1.9998467524786983
  vertex 0.0625 -4.567366215442559 -1.7490736653527104
  vertex 0.0625 -4.56698729810778 -2.25
 endloop
endfacet
facet normal 1.0 0.0 0.0
 outer loop
  vertex 0.0625 -1.4330127018922192 -2.25
  vertex 0.0625 -1.7009618943233438 -2.500000000000003
  vertex 0.0625 -1.4330127018922192 -2.75
 endloop
endfacet
facet normal 1.0 0.0 0.0
 outer loop
  vertex 0.0625 -1.4203430566294215 -1.7493999561652558
  vertex 0.0625 -1.7009618943233447 -2.0000000000000044
  vertex 0.0625 -1.4330127018922192 -2.25
 endloop
endfacet
facet normal 1.0 0.0 0.0
 outer loop
  vertex 0.0625 -1.4330127018922192 -2.25
  vertex 0.0625 -1.7009618943233447 -2.0000000000000044
  vertex 0.0625 -1.7009618943233438 -2.500000000000003
 endloop
endfacet
facet normal 1.0 -0.0 0.0
 outer loop
  vertex 0.0625 -2.72014365863982 -3.5538211105765383
  vertex 0.0625 -2.2442550904431586 -3.5854943275277806
  vertex 0.0625 -2.4376841387875317 -3.0799599300284077
 endloop
endfacet
facet normal 1.0 0.0 0.0
 outer loop
  vertex 0.0625 -2.4376841387875317 -3.0799599300284077
  vertex 0.0625 -2.9032013305703157 -3.1710405305748584
  vertex 0.0625 -2.72014365863982 -3.5538211105765383
 endloop
endfacet
facet normal 1.0 0.0 0.0
 outer loop
  vertex 0.0625 -2.72014365863982 -3.5538211105765383
  vertex 0.0625 -2.9032013305703157 -3.1710405305748584
  vertex 0.0625 -3.2587302138288674 -3.488489483340438
 endloop
endfacet
facet normal 1.0 0.0 0.0
 outer loop
  vertex 0.0625 -2.3063662888057164 -0.47261470650491866
  vertex 0.0625 -2.8095253626834564 -0.7524125063083793
  vertex 0.0625 -2.379929294270633 -1.0156598812021684
 endloop
endfacet
facet normal 1.0 0.0 0.0
 outer loop
  vertex 0.0625 -2.379929294270633 -1.0156598812021684
  vertex 0.0625 -1.9077037424544345 -0.8285782849671146
  vertex 0.0625 -2.3063662888057164 -0.47261470650491866
 endloop
endfacet
facet normal 1.0 0.0 0.0
 outer loop
  vertex 0.0625 -2.3063662888057164 -0.47261470650491866
  vertex 0.0625 -2.75 -0.33814280495004434
  vertex 0.0625 -2.8095253626834564 -0.7524125063083793
 endloop
endfacet
facet normal 1.0 0.0 -0.0
 outer loop
  vertex 0.0625 -1.9077037424544345 -0.8285782849671146
  vertex 0.0625 -1.7499942948817404 -0.397086890046646
  vertex 0.0625 -2.3063662888057164 -0.47261470650491866
 endloop
endfacet
facet normal 1.0 -0.0 0.0
 outer loop
  vertex 0.0625 -4.571857015133891 -1.2394239754584824
  vertex 0.0625 -4.137877018656679 -1.4893776289766523
  vertex 0.0625 -4.1458899627917605 -0.9423502385937668
 endloop
endfacet
facet normal 1.0 0.0 0.0
 outer loop
  vertex 0.0625 -4.1458899627917605 -0.9423502385937668
  vertex 0.0625 -4.588692345762319 -0.7645334245139632
  vertex 0.0625 -4.571857015133891 -1.2394239754584824
 endloop
endfacet
facet normal 1.0 0.0 0.0
 outer loop
  vertex 0.0625 -4.571857015133891 -1.2394239754584824
  vertex 0.0625 -4.567366215442559 -1.7490736653527104
  vertex 0.0625 -4.137877018656679 -1.4893776289766523
 endloop
endfacet
facet normal 1.0 0.0 0.0
 outer loop
  vertex 0.0625 -4.092853545099583 -3.077635087635703
  vertex 0.0625 -4.254518954681968 -3.5840579819532556
  vertex 0.0625 -3.793362827353291 -3.551851937522286
 endloop
endfacet
facet normal 1.0 0.0 -0.0
 outer loop
  vertex 0.0625 -3.793362827353291 -3.551851937522286
  vertex 0.0625 -3.6432668980409795 -3.1648553693617423
  vertex 0.0625 -4.092853545099583 -3.077635087635703
 endloop
endfacet
facet normal 1.0 0.0 0.0
 outer loop
  vertex 0.0625 -3.2587302138288674 -3.488489483340438
  vertex 0.0625 -3.6432668980409795 -3.1648553693617423
  vertex 0.0625 -3.793362827353291 -3.551851937522286
 endloop
endfacet
facet normal 1.0 0.0 -0.0
 outer loop
  vertex 0.0625 -1.4757106859864058 -1.236169229626686
  vertex 0.0625 -1.4228255294280068 -0.75
  vertex 0.0625 -1.9077037424544345 -0.8285782849671146
 endloop
endfacet
facet normal 1.0 0.0 0.0
 outer loop
  vertex 0.0625 -1.9077037424544345 -0.8285782849671146
  vertex 0.0625 -1.9790825060090151 -1.3005086068882683
  vertex 0.0625 -1.4757106859864058 -1.236169229626686
 endloop
endfacet
facet normal 1.0 0.0 0.0
 outer loop
  vertex 0.0625 -1.4757106859864058 -1.236169229626686
  vertex 0.0625 -1.7004411772495693 -1.5280035438937256
  vertex 0.0625 -1.4203430566294215 -1.7493999561652558
 endloop
endfacet
facet normal 1.0 -0.0 0.0
 outer loop
  vertex 0.0625 -1.9790825060090151 -1.3005086068882683
  vertex 0.0625 -1.7004411772495693 -1.5280035438937256
  vertex 0.0625 -1.4757106859864058 -1.236169229626686
 endloop
endfacet
facet normal 1.0 0.0 0.0
 outer loop
  vertex 0.0625 -1.9561548242578146 -3.2382148317857604
  vertex 0.0625 -1.7536854662675903 -3.6190868629023054
  vertex 0.0625 -1.459323570734325 -3.253191330270536
 endloop
endfacet
facet normal 1.0 0.0 0.0
 outer loop
  vertex 0.0625 -1.459323570734325 -3.253191330270536
  vertex 0.0625 -1.700961894323346 -3.0000000000000044
  vertex 0.0625 -1.9561548242578146 -3.2382148317857604
 endloop
endfacet
facet normal 1.0 0.0 0.0
 outer loop
  vertex 0.0625 -1.4330127018922192 -2.75
  vertex 0.0625 -1.700961894323346 -3.0000000000000044
  vertex 0.0625 -1.459323570734325 -3.253191330270536
 endloop
endfacet
facet normal 1.0 -0.0 0.0
 outer loop
  vertex 0.0625 -1.7536854662675903 -3.6190868629023054
  vertex 0.0625 -1.3623793121702428 -3.637620687829757
  vertex 0.0625 -1.459323570734325 -3.253191330270536
 endloop
endfacet
facet normal 1.0 0.0 0.0
 outer loop
  vertex 0.0625 -4.576613977472084 -3.247881315359562
  vertex 0.0625 -4.092853545099583 -3.077635087635703
  vertex 0.0625 -4.568591744668498 -2.7496468858932603
 endloop
endfacet
facet normal 1.0 -0.0 0.0
 outer loop
  vertex 0.0625 -4.576613977472084 -3.247881315359562
  vertex 0.0625 -4.254518954681968 -3.5840579819532556
  vertex 0.0625 -4.092853545099583 -3.077635087635703
 endloop
endfacet
facet normal 1.0 0.0 0.0
 outer loop
  vertex 0.0625 -4.576613977472084 -3.247881315359562
  vertex 0.0625 -4.633974596215562 -3.6339745962155616
  vertex 0.0625 -4.254518954681968 -3.5840579819532556
 endloop
endfacet
facet normal 1.0 0.0 0.0
 outer loop
  vertex 0.0625 -4.186631737609321 -0.437940768754836
  vertex 0.0625 -4.1458899627917605 -0.9423502385937668
  vertex 0.0625 -3.707077176307083 -0.7109579526040779
 endloop
endfacet
facet normal 1.0 0.0 0.0
 outer loop
  vertex 0.0625 -3.707077176307083 -0.7109579526040779
  vertex 0.0625 -3.75 -0.3093502181031824
  vertex 0.0625 -4.186631737609321 -0.437940768754836
 endloop
endfacet
facet normal 1.0 0.0 0.0
 outer loop
  vertex 0.0625 -4.186631737609321 -0.437940768754836
  vertex 0.0625 -4.588692345762319 -0.7645334245139632
  vertex 0.0625 -4.1458899627917605 -0.9423502385937668
 endloop
endfacet
facet normal 1.0 0.0 0.0
 outer loop
  vertex 0.0625 -4.186631737609321 -0.437940768754836
  vertex 0.0625 -4.633974596215562 -0.3660254037844388
  vertex 0.0625 -4.588692345762319 -0.7645334245139632
 endloop
endfacet
facet normal 1.0 -0.0 0.0
 outer loop
  vertex 0.0625 -4.568591744668498 -2.7496468858932603
  vertex 0.0625 -4.092853545099583 -3.077635087635703
  vertex 0.0625 -4.1342420039756815 -2.499941147648877
 endloop
endfacet
facet normal 1.0 0.0 0.0
 outer loop
  vertex 0.0625 -4.1342420039756815 -2.499941147648877
  vertex 0.0625 -3.7010000878721074 -2.2499646500212633
  vertex 0.0625 -4.133936349748032 -1.9998467524786983
 endloop
endfacet
facet normal 1.0 -0.0 0.0
 outer loop
  vertex 0.0625 -4.1342420039756815 -2.499941147648877
  vertex 0.0625 -3.7009618943233438 -2.75
  vertex 0.0625 -3.7010000878721074 -2.2499646500212633
 endloop
endfacet
facet normal 1.0 0.0 -0.0
 outer loop
  vertex 0.0625 -4.092853545099583 -3.077635087635703
  vertex 0.0625 -3.7009618943233438 -2.75
  vertex 0.0625 -4.1342420039756815 -2.499941147648877
 endloop
endfacet
facet normal 1.0 0.0 0.0
 outer loop
  vertex 0.0625 -3.7010000878721074 -2.2499646500212633
  vertex 0.0625 -3.7054634340240287 -1.7424811378216418
  vertex 0.0625 -4.133936349748032 -1.9998467524786983
 endloop
endfacet
facet normal 1.0 0.0 0.0
 outer loop
  vertex 0.0625 -3.7054634340240287 -1.7424811378216418
  vertex 0.0625 -4.137877018656679 -1.4893776289766523
  vertex 0.0625 -4.133936349748032 -1.9998467524786983
 endloop
endfacet
facet normal 1.0 0.0 0.0
 outer loop
  vertex 0.0625 -4.137877018656679 -1.4893776289766523
  vertex 0.0625 -4.567366215442559 -1.7490736653527104
  vertex 0.0625 -4.133936349748032 -1.9998467524786983
 endloop
endfacet
facet normal 1.0 0.0 -0.0
 outer loop
  vertex 0.0625 -3.7010000878721074 -2.2499646500212633
  vertex 0.0625 -3.2687058146393646 -1.9987409646404855
  vertex 0.0625 -3.7054634340240287 -1.7424811378216418
 endloop
endfacet
facet normal 1.0 -0.0 0.0
 outer loop
  vertex 0.0625 -3.7010000878721074 -2.2499646500212633
  vertex 0.0625 -3.2680816617239588 -2.4997842691102927
  vertex 0.0625 -3.2687058146393646 -1.9987409646404855
 endloop
endfacet
facet normal 1.0 0.0 0.0
 outer loop
  vertex 0.0625 -3.7010000878721074 -2.2499646500212633
  vertex 0.0625 -3.7009618943233438 -2.75
  vertex 0.0625 -3.2680816617239588 -2.4997842691102927
 endloop
endfacet
facet normal 1.0 0.0 0.0
 outer loop
  vertex 0.0625 -3.2687058146393646 -1.9987409646404855
  vertex 0.0625 -3.2734052432323213 -1.4902607569503874
  vertex 0.0625 -3.7054634340240287 -1.7424811378216418
 endloop
endfacet
facet normal 1.0 0.0 -0.0
 outer loop
  vertex 0.0625 -3.7054634340240287 -1.7424811378216418
  vertex 0.0625 -3.2734052432323213 -1.4902607569503874
  vertex 0.0625 -3.7284680720115233 -1.205936057206574
 endloop
endfacet
facet normal 1.0 0.0 0.0
 outer loop
  vertex 0.0625 -3.7284680720115233 -1.205936057206574
  vertex 0.0625 -4.137877018656679 -1.4893776289766523
  vertex 0.0625 -3.7054634340240287 -1.7424811378216418
 endloop
endfacet
facet normal 1.0 0.0 -0.0
 outer loop
  vertex 0.0625 -3.2680816617239588 -2.4997842691102927
  vertex 0.0625 -2.835084672455751 -2.2497542056251323
  vertex 0.0625 -3.2687058146393646 -1.9987409646404855
 endloop
endfacet
facet normal 1.0 0.0 0.0
 outer loop
  vertex 0.0625 -2.835084672455751 -2.2497542056251323
  vertex 0.0625 -2.835087291226418 -1.7497491950442714
  vertex 0.0625 -3.2687058146393646 -1.9987409646404855
 endloop
endfacet
facet normal 1.0 0.0 0.0
 outer loop
  vertex 0.0625 -2.835087291226418 -1.7497491950442714
  vertex 0.0625 -3.2734052432323213 -1.4902607569503874
  vertex 0.0625 -3.2687058146393646 -1.9987409646404855
 endloop
endfacet
facet normal 1.0 -0.0 0.0
 outer loop
  vertex 0.0625 -3.2680816617239588 -2.4997842691102927
  vertex 0.0625 -2.834936490538906 -2.7500000000000044
  vertex 0.0625 -2.835084672455751 -2.2497542056251323
 endloop
endfacet
facet normal 1.0 0.0 0.0
 outer loop
  vertex 0.0625 -3.2680816617239588 -2.4997842691102927
  vertex 0.0625 -3.264512151056453 -2.9829321289289026
  vertex 0.0625 -2.834936490538906 -2.7500000000000044
 endloop
endfacet
facet normal 1.0 0.0 0.0
 outer loop
  vertex 0.0625 -3.2680816617239588 -2.4997842691102927
  vertex 0.0625 -3.7009618943233438 -2.75
  vertex 0.0625 -3.264512151056453 -2.9829321289289026
 endloop
endfacet
facet normal 1.0 0.0 -0.0
 outer loop
  vertex 0.0625 -2.835084672455751 -2.2497542056251323
  vertex 0.0625 -2.4019237886466844 -2.0000000000000036
  vertex 0.0625 -2.835087291226418 -1.7497491950442714
 endloop
endfacet
facet normal 1.0 -0.0 0.0
 outer loop
  vertex 0.0625 -2.835084672455751 -2.2497542056251323
  vertex 0.0625 -2.4019484856328273 -2.499959034270859
  vertex 0.0625 -2.4019237886466844 -2.0000000000000036
 endloop
endfacet
facet normal 1.0 0.0 0.0
 outer loop
  vertex 0.0625 -2.835084672455751 -2.2497542056251323
  vertex 0.0625 -2.834936490538906 -2.7500000000000044
  vertex 0.0625 -2.4019484856328273 -2.499959034270859
 endloop
endfacet
facet normal 1.0 0.0 0.0
 outer loop
  vertex 0.0625 -2.4019237886466844 -2.0000000000000036
  vertex 0.0625 -2.405401492617515 -1.5059382267364487
  vertex 0.0625 -2.835087291226418 -1.7497491950442714
 endloop
endfacet
facet normal 1.0 0.0 0.0
 outer loop
  vertex 0.0625 -2.405401492617515 -1.5059382267364487
  vertex 0.0625 -2.835541241315292 -1.2509479036301214
  vertex 0.0625 -2.835087291226418 -1.7497491950442714
 endloop
endfacet
facet normal 1.0 0.0 0.0
 outer loop
  vertex 0.0625 -2.835541241315292 -1.2509479036301214
  vertex 0.0625 -3.2734052432323213 -1.4902607569503874
  vertex 0.0625 -2.835087291226418 -1.7497491950442714
 endloop
endfacet
facet normal 1.0 0.0 0.0
 outer loop
  vertex 0.0625 -2.4019484856328273 -2.499959034270859
  vertex 0.0625 -1.9689110867544661 -2.250000000000005
  vertex 0.0625 -2.4019237886466844 -2.0000000000000036
 endloop
endfacet
facet normal 1.0 0.0 -0.0
 outer loop
  vertex 0.0625 -2.4019237886466844 -2.0000000000000036
  vertex 0.0625 -1.9840835377041177 -1.7518142784304693
  vertex 0.0625 -2.405401492617515 -1.5059382267364487
 endloop
endfacet
facet normal 1.0 -0.0 0.0
 outer loop
  vertex 0.0625 -2.4019237886466844 -2.0000000000000036
  vertex 0.0625 -1.9689110867544661 -2.250000000000005
  vertex 0.0625 -1.9840835377041177 -1.7518142784304693
 endloop
endfacet
facet normal 1.0 -0.0 0.0
 outer loop
  vertex 0.0625 -2.4019484856328273 -2.499959034270859
  vertex 0.0625 -1.9689110867544675 -2.7500000000000044
  vertex 0.0625 -1.9689110867544661 -2.250000000000005
 endloop
endfacet
facet normal 1.0 0.0 0.0
 outer loop
  vertex 0.0625 -2.4019484856328273 -2.499959034270859
  vertex 0.0625 -2.4376841387875317 -3.0799599300284077
  vertex 0.0625 -1.9689110867544675 -2.7500000000000044
 endloop
endfacet
facet normal 1.0 0.0 0.0
 outer loop
  vertex 0.0625 -2.4019484856328273 -2.499959034270859
  vertex 0.0625 -2.834936490538906 -2.7500000000000044
  vertex 0.0625 -2.4376841387875317 -3.0799599300284077
 endloop
endfacet
facet normal 1.0 0.0 -0.0
 outer loop
  vertex 0.0625 -2.405401492617515 -1.5059382267364487
  vertex 0.0625 -2.379929294270633 -1.0156598812021684
  vertex 0.0625 -2.835541241315292 -1.2509479036301214
 endloop
endfacet
facet normal 1.0 0.0 -0.0
 outer loop
  vertex 0.0625 -1.9840835377041177 -1.7518142784304693
  vertex 0.0625 -1.9790825060090151 -1.3005086068882683
  vertex 0.0625 -2.405401492617515 -1.5059382267364487
 endloop
endfacet
facet normal 1.0 0.0 0.0
 outer loop
  vertex 0.0625 -2.405401492617515 -1.5059382267364487
  vertex 0.0625 -1.9790825060090151 -1.3005086068882683
  vertex 0.0625 -2.379929294270633 -1.0156598812021684
 endloop
endfacet
facet normal 1.0 0.0 0.0
 outer loop
  vertex 0.0625 -2.379929294270633 -1.0156598812021684
  vertex 0.0625 -2.8095253626834564 -0.7524125063083793
  vertex 0.0625 -2.835541241315292 -1.2509479036301214
 endloop
endfacet
facet normal 1.0 0.0 0.0
 outer loop
  vertex 0.0625 -2.8095253626834564 -0.7524125063083793
  vertex 0.0625 -3.2671656061773002 -0.9937092833592267
  vertex 0.0625 -2.835541241315292 -1.2509479036301214
 endloop
endfacet
facet normal 1.0 0.0 0.0
 outer loop
  vertex 0.0625 -3.2671656061773002 -0.9937092833592267
  vertex 0.0625 -3.2734052432323213 -1.4902607569503874
  vertex 0.0625 -2.835541241315292 -1.2509479036301214
 endloop
endfacet
facet normal 1.0 0.0 -0.0
 outer loop
  vertex 0.0625 -1.9689110867544661 -2.250000000000005
  vertex 0.0625 -1.7009618943233447 -2.0000000000000044
  vertex 0.0625 -1.9840835377041177 -1.7518142784304693
 endloop
endfacet
facet normal 1.0 0.0 0.0
 outer loop
  vertex 0.0625 -1.9840835377041177 -1.7518142784304693
  vertex 0.0625 -1.7004411772495693 -1.5280035438937256
  vertex 0.0625 -1.9790825060090151 -1.3005086068882683
 endloop
endfacet
facet normal 1.0 0.0 -0.0
 outer loop
  vertex 0.0625 -1.7009618943233447 -2.0000000000000044
  vertex 0.0625 -1.7004411772495693 -1.5280035438937256
  vertex 0.0625 -1.9840835377041177 -1.7518142784304693
 endloop
endfacet
facet normal 1.0 -0.0 0.0
 outer loop
  vertex 0.0625 -2.379929294270633 -1.0156598812021684
  vertex 0.0625 -1.9790825060090151 -1.3005086068882683
  vertex 0.0625 -1.9077037424544345 -0.8285782849671146
 endloop
endfacet
facet normal 1.0 0.0 0.0
 outer loop
  vertex 0.0625 -1.4228255294280068 -0.75
  vertex 0.0625 -1.7499942948817404 -0.397086890046646
  vertex 0.0625 -1.9077037424544345 -0.8285782849671146
 endloop
endfacet
facet normal 1.0 0.0 0.0
 outer loop
  vertex 0.0625 -3.707077176307083 -0.7109579526040779
  vertex 0.0625 -3.7284680720115233 -1.205936057206574
  vertex 0.0625 -3.2671656061773002 -0.9937092833592267
 endloop
endfacet
facet normal 1.0 -0.0 0.0
 outer loop
  vertex 0.0625 -3.7284680720115233 -1.205936057206574
  vertex 0.0625 -3.2734052432323213 -1.4902607569503874
  vertex 0.0625 -3.2671656061773002 -0.9937092833592267
 endloop
endfacet
facet normal 1.0 0.0 0.0
 outer loop
  vertex 0.0625 -3.707077176307083 -0.7109579526040779
  vertex 0.0625 -4.1458899627917605 -0.9423502385937668
  vertex 0.0625 -3.7284680720115233 -1.205936057206574
 endloop
endfacet
facet normal 1.0 0.0 0.0
 outer loop
  vertex 0.0625 -4.1458899627917605 -0.9423502385937668
  vertex 0.0625 -4.137877018656679 -1.4893776289766523
  vertex 0.0625 -3.7284680720115233 -1.205936057206574
 endloop
endfacet
facet normal 1.0 0.0 0.0
 outer loop
  vertex 0.0625 -1.9689110867544675 -2.7500000000000044
  vertex 0.0625 -1.7009618943233438 -2.500000000000003
  vertex 0.0625 -1.9689110867544661 -2.250000000000005
 endloop
endfacet
facet normal 1.0 0.0 0.0
 outer loop
  vertex 0.0625 -1.7009618943233438 -2.500000000000003
  vertex 0.0625 -1.7009618943233447 -2.0000000000000044
  vertex 0.0625 -1.9689110867544661 -2.250000000000005
 endloop
endfacet
facet normal 1.0 -0.0 0.0
 outer loop
  vertex 0.0625 -2.4376841387875317 -3.0799599300284077
  vertex 0.0625 -1.9561548242578146 -3.2382148317857604
  vertex 0.0625 -1.9689110867544675 -2.7500000000000044
 endloop
endfacet
facet normal 1.0 0.0 -0.0
 outer loop
  vertex 0.0625 -1.9561548242578146 -3.2382148317857604
  vertex 0.0625 -1.700961894323346 -3.0000000000000044
  vertex 0.0625 -1.9689110867544675 -2.7500000000000044
 endloop
endfacet
facet normal 1.0 0.0 -0.0
 outer loop
  vertex 0.0625 -1.700961894323346 -3.0000000000000044
  vertex 0.0625 -1.7009618943233438 -2.500000000000003
  vertex 0.0625 -1.9689110867544675 -2.7500000000000044
 endloop
endfacet
facet normal 1.0 0.0 0.0
 outer loop
  vertex 0.0625 -2.4376841387875317 -3.0799599300284077
  vertex 0.0625 -2.2442550904431586 -3.5854943275277806
  vertex 0.0625 -1.9561548242578146 -3.2382148317857604
 endloop
endfacet
facet normal 1.0 0.0 0.0
 outer loop
  vertex 0.0625 -2.834936490538906 -2.7500000000000044
  vertex 0.0625 -2.9032013305703157 -3.1710405305748584
  vertex 0.0625 -2.4376841387875317 -3.0799599300284077
 endloop
endfacet
facet normal 1.0 -0.0 0.0
 outer loop
  vertex 0.0625 -2.2442550904431586 -3.5854943275277806
  vertex 0.0625 -1.7536854662675903 -3.6190868629023054
  vertex 0.0625 -1.9561548242578146 -3.2382148317857604
 endloop
endfacet
facet normal 1.0 -0.0 0.0
 outer loop
  vertex 0.0625 -3.264512151056453 -2.9829321289289026
  vertex 0.0625 -2.9032013305703157 -3.1710405305748584
  vertex 0.0625 -2.834936490538906 -2.7500000000000044
 endloop
endfacet
facet normal 1.0 0.0 -0.0
 outer loop
  vertex 0.0625 -3.2587302138288674 -3.488489483340438
  vertex 0.0625 -2.9032013305703157 -3.1710405305748584
  vertex 0.0625 -3.264512151056453 -2.9829321289289026
 endloop
endfacet
facet normal 1.0 0.0 0.0
 outer loop
  vertex 0.0625 -3.264512151056453 -2.9829321289289026
  vertex 0.0625 -3.6432668980409795 -3.1648553693617423
  vertex 0.0625 -3.2587302138288674 -3.488489483340438
 endloop
endfacet
facet normal 1.0 0.0 0.0
 outer loop
  vertex 0.0625 -3.7009618943233438 -2.75
  vertex 0.0625 -3.6432668980409795 -3.1648553693617423
  vertex 0.0625 -3.264512151056453 -2.9829321289289026
 endloop
endfacet
facet normal 1.0 -0.0 0.0
 outer loop
  vertex 0.0625 -4.092853545099583 -3.077635087635703
  vertex 0.0625 -3.6432668980409795 -3.1648553693617423
  vertex 0.0625 -3.7009618943233438 -2.75
 endloop
endfacet
facet normal 1.0 0.0 0.0
 outer loop
  vertex 0.0625 -1.4330127018922192 -2.75
  vertex 0.0625 -1.7009618943233438 -2.500000000000003
  vertex 0.0625 -1.700961894323346 -3.0000000000000044
 endloop
endfacet
facet normal 1.0 0.0 0.0
 outer loop
  vertex 0.0625 -1.4203430566294215 -1.7493999561652558
  vertex 0.0625 -1.7004411772495693 -1.5280035438937256
  vertex 0.0625 -1.7009618943233447 -2.0000000000000044
 endloop
endfacet
facet normal 1.0 0.0 -0.0
 outer loop
  vertex 0.0625 -1.4228255294280068 -0.75
  vertex 0.0625 -1.3630373471211086 -0.3630373471211086
  vertex 0.0625 -1.7499942948817404 -0.397086890046646
 endloop
endfacet
facet normal 0.0 -1.0 0.0
 outer loop
  vertex -0.0625 -5.0 0.0
  vertex 0.0625 -5.0 -0.5
  vertex 0.0625 -5.0 0.0
 endloop
endfacet
facet normal 0.0 -1.0 0.0
 outer loop
  vertex -0.0625 -5.0 0.0
  vertex -0.0625 -5.0 -0.5
  vertex 0.0625 -5.0 -0.5
 endloop
endfacet
facet normal 0.0 -1.0 0.0
 outer loop
  vertex -0.0625 -5.0 -4.0
  vertex 0.0625 -5.0 -4.0
  vertex 0.0625 -5.0 -3.5
 endloop
endfacet
facet normal 0.0 -1.0 0.0
 outer loop
  vertex -0.0625 -5.0 -4.0
  vertex 0.0625 -5.0 -3.5
  vertex -0.0625 -5.0 -3.5
 endloop
endfacet
facet normal 0.0 -1.0 0.0
 outer loop
  vertex 0.0625 -5.0 -3.5
  vertex -0.0625 -5.0 -3.0
  vertex -0.0625 -5.0 -3.5
 endloop
endfacet
facet normal 0.0 -1.0 0.0
 outer loop
  vertex -0.0625 -5.0 -3.0
  vertex 0.0625 -5.0 -2.5
  vertex -0.0625 -5.0 -2.5
 endloop
endfacet
facet normal 0.0 -1.0 0.0
 outer loop
  vertex -0.0625 -5.0 -3.0
  vertex 0.0625 -5.0 -3.5
  vertex 0.0625 -5.0 -3.0
 endloop
endfacet
facet normal 0.0 -1.0 -0.0
 outer loop
  vertex 0.0625 -5.0 -2.5
  vertex -0.0625 -5.0 -3.0
  vertex 0.0625 -5.0 -3.0
 endloop
endfacet
facet normal 0.0 -1.0 0.0
 outer loop
  vertex -0.0625 -5.0 -2.5
  vertex 0.0625 -5.0 -2.0
  vertex -0.0625 -5.0 -2.0
 endloop
endfacet
facet normal 0.0 -1.0 0.0
 outer loop
  vertex 0.0625 -5.0 -2.5
  vertex 0.0625 -5.0 -2.0
  vertex -0.0625 -5.0 -2.5
 endloop
endfacet
facet normal 0.0 -1.0 0.0
 outer loop
  vertex -0.0625 -5.0 -2.0
  vertex 0.0625 -5.0 -1.5
  vertex -0.0625 -5.0 -1.5
 endloop
endfacet
facet normal 0.0 -1.0 0.0
 outer loop
  vertex 0.0625 -5.0 -2.0
  vertex 0.0625 -5.0 -1.5
  vertex -0.0625 -5.0 -2.0
 endloop
endfacet
facet normal 0.0 -1.0 0.0
 outer loop
  vertex 0.0625 -5.0 -1.5
  vertex -0.0625 -5.0 -1.0
  vertex -0.0625 -5.0 -1.5
 endloop
endfacet
facet normal -0.0 -1.0 0.0
 outer loop
  vertex 0.0625 -5.0 -0.5
  vertex -0.0625 -5.0 -0.5
  vertex -0.0625 -5.0 -1.0
 endloop
endfacet
facet normal 0.0 -1.0 0.0
 outer loop
  vertex -0.0625 -5.0 -1.0
  vertex 0.0625 -5.0 -1.5
  vertex 0.0625 -5.0 -1.0
 endloop
endfacet
facet normal 0.0 -1.0 -0.0
 outer loop
  vertex 0.0625 -5.0 -0.5
  vertex -0.0625 -5.0 -1.0
  vertex 0.0625 -5.0 -1.0
 endloop
endfacet
facet normal -0.0 1.0 0.0
 outer loop
  vertex -0.0625 -1.0 0.0
  vertex 0.0625 -1.0 0.0
  vertex 0.0625 -1.0 -0.5
 endloop
endfacet
facet normal 0.0 1.0 0.0
 outer loop
  vertex -0.0625 -1.0 0.0
  vertex 0.0625 -1.0 -0.5
  vertex -0.0625 -1.0 -0.5
 endloop
endfacet
facet normal 0.0 1.0 0.0
 outer loop
  vertex -0.0625 -1.0 -4.0
  vertex 0.0625 -1.0 -3.5
  vertex 0.0625 -1.0 -4.0
 endloop
endfacet
facet normal 0.0 1.0 0.0
 outer loop
  vertex -0.0625 -1.0 -4.0
  vertex -0.0625 -1.0 -3.5
  vertex 0.0625 -1.0 -3.5
 endloop
endfacet
facet normal 0.0 1.0 0.0
 outer loop
  vertex 0.0625 -1.0 -3.5
  vertex -0.0625 -1.0 -3.5
  vertex -0.0625 -1.0 -3.0
 endloop
endfacet
facet normal 0.0 1.0 0.0
 outer loop
  vertex -0.0625 -1.0 -3.0
  vertex -0.0625 -1.0 -2.5
  vertex 0.0625 -1.0 -2.5
 endloop
endfacet
facet normal -0.0 1.0 0.0
 outer loop
  vertex -0.0625 -1.0 -3.0
  vertex 0.0625 -1.0 -3.0
  vertex 0.0625 -1.0 -3.5
 endloop
endfacet
facet normal 0.0 1.0 0.0
 outer loop
  vertex 0.0625 -1.0 -2.5
  vertex 0.0625 -1.0 -3.0
  vertex -0.0625 -1.0 -3.0
 endloop
endfacet
facet normal 0.0 1.0 0.0
 outer loop
  vertex -0.0625 -1.0 -2.5
  vertex -0.0625 -1.0 -2.0
  vertex 0.0625 -1.0 -2.0
 endloop
endfacet
facet normal 0.0 1.0 -0.0
 outer loop
  vertex 0.0625 -1.0 -2.5
  vertex -0.0625 -1.0 -2.5
  vertex 0.0625 -1.0 -2.0
 endloop
endfacet
facet normal 0.0 1.0 0.0
 outer loop
  vertex -0.0625 -1.0 -2.0
  vertex -0.0625 -1.0 -1.5
  vertex 0.0625 -1.0 -1.5
 endloop
endfacet
facet normal 0.0 1.0 -0.0
 outer loop
  vertex 0.0625 -1.0 -2.0
  vertex -0.0625 -1.0 -2.0
  vertex 0.0625 -1.0 -1.5
 endloop
endfacet
facet normal 0.0 1.0 0.0
 outer loop
  vertex -0.0625 -1.0 -1.5
  vertex -0.0625 -1.0 -1.0
  vertex 0.0625 -1.0 -1.0
 endloop
endfacet
facet normal 0.0 1.0 -0.0
 outer loop
  vertex 0.0625 -1.0 -1.5
  vertex -0.0625 -1.0 -1.5
  vertex 0.0625 -1.0 -1.0
 endloop
endfacet
facet normal 0.0 1.0 0.0
 outer loop
  vertex 0.0625 -1.0 -1.0
  vertex -0.0625 -1.0 -1.0
  vertex -0.0625 -1.0 -0.5
 endloop
endfacet
facet normal -0.0 1.0 0.0
 outer loop
  vertex -0.0625 -1.0 -0.5
  vertex 0.0625 -1.0 -0.5
  vertex 0.0625 -1.0 -1.0
 endloop
endfacet
facet normal 0.0 0.0 -1.0
 outer loop
  vertex -0.0625 -5.0 -4.0
  vertex 0.0625 -4.5 -4.0
  vertex 0.0625 -5.0 -4.0
 endloop
endfacet
facet normal -0.0 0.0 -1.0
 outer loop
  vertex 0.0625 -4.5 -4.0
  vertex -0.0625 -5.0 -4.0
  vertex -0.0625 -4.5 -4.0
 endloop
endfacet
facet normal 0.0 0.0 -1.0
 outer loop
  vertex -0.0625 -1.0 -4.0
  vertex 0.0625 -1.0 -4.0
  vertex 0.0625 -1.5 -4.0
 endloop
endfacet
facet normal 0.0 0.0 -1.0
 outer loop
  vertex -0.0625 -1.0 -4.0
  vertex 0.0625 -1.5 -4.0
  vertex -0.0625 -1.5 -4.0
 endloop
endfacet
facet normal 0.0 0.0 -1.0
 outer loop
  vertex -0.0625 -4.0 -4.0
  vertex 0.0625 -4.5 -4.0
  vertex -0.0625 -4.5 -4.0
 endloop
endfacet
facet normal -0.0 0.0 -1.0
 outer loop
  vertex 0.0625 -3.5 -4.0
  vertex -0.0625 -4.0 -4.0
  vertex -0.0625 -3.5 -4.0
 endloop
endfacet
facet normal 0.0 0.0 -1.0
 outer loop
  vertex 0.0625 -4.5 -4.0
  vertex -0.0625 -4.0 -4.0
  vertex 0.0625 -4.0 -4.0
 endloop
endfacet
facet normal 0.0 0.0 -1.0
 outer loop
  vertex -0.0625 -4.0 -4.0
  vertex 0.0625 -3.5 -4.0
  vertex 0.0625 -4.0 -4.0
 endloop
endfacet
facet normal -0.0 0.0 -1.0
 outer loop
  vertex 0.0625 -3.0 -4.0
  vertex -0.0625 -3.5 -4.0
  vertex -0.0625 -3.0 -4.0
 endloop
endfacet
facet normal 0.0 -0.0 -1.0
 outer loop
  vertex 0.0625 -3.0 -4.0
  vertex 0.0625 -3.5 -4.0
  vertex -0.0625 -3.5 -4.0
 endloop
endfacet
facet normal -0.0 0.0 -1.0
 outer loop
  vertex 0.0625 -2.5 -4.0
  vertex -0.0625 -3.0 -4.0
  vertex -0.0625 -2.5 -4.0
 endloop
endfacet
facet normal 0.0 -0.0 -1.0
 outer loop
  vertex 0.0625 -2.5 -4.0
  vertex 0.0625 -3.0 -4.0
  vertex -0.0625 -3.0 -4.0
 endloop
endfacet
facet normal -0.0 0.0 -1.0
 outer loop
  vertex 0.0625 -2.0 -4.0
  vertex -0.0625 -2.5 -4.0
  vertex -0.0625 -2.0 -4.0
 endloop
endfacet
facet normal 0.0 -0.0 -1.0
 outer loop
  vertex 0.0625 -2.0 -4.0
  vertex 0.0625 -2.5 -4.0
  vertex -0.0625 -2.5 -4.0
 endloop
endfacet
facet normal -0.0 0.0 -1.0
 outer loop
  vertex 0.0625 -1.5 -4.0
  vertex -0.0625 -2.0 -4.0
  vertex -0.0625 -1.5 -4.0
 endloop
endfacet
facet normal 0.0 -0.0 -1.0
 outer loop
  vertex 0.0625 -1.5 -4.0
  vertex 0.0625 -2.0 -4.0
  vertex -0.0625 -2.0 -4.0
 endloop
endfacet
facet normal 0.0 -0.0 1.0
 outer loop
  vertex 0.0625 -5.0 0.0
  vertex 0.0625 -4.5 0.0
  vertex -0.0625 -5.0 0.0
 endloop
endfacet
facet normal 0.0 0.0 1.0
 outer loop
  vertex 0.0625 -4.5 0.0
  vertex -0.0625 -4.5 0.0
  vertex -0.0625 -5.0 0.0
 endloop
endfacet
facet normal -0.0 0.0 1.0
 outer loop
  vertex -0.0625 -1.0 0.0
  vertex 0.0625 -1.5 0.0
  vertex 0.0625 -1.0 0.0
 endloop
endfacet
facet normal 0.0 0.0 1.0
 outer loop
  vertex -0.0625 -1.0 0.0
  vertex -0.0625 -1.5 0.0
  vertex 0.0625 -1.5 0.0
 endloop
endfacet
facet normal 0.0 0.0 1.0
 outer loop
  vertex -0.0625 -4.0 0.0
  vertex -0.0625 -4.5 0.0
  vertex 0.0625 -4.5 0.0
 endloop
endfacet
facet normal 0.0 0.0 1.0
 outer loop
  vertex 0.0625 -3.5 0.0
  vertex -0.0625 -3.5 0.0
  vertex -0.0625 -4.0 0.0
 endloop
endfacet
facet normal 0.0 -0.0 1.0
 outer loop
  vertex 0.0625 -4.5 0.0
  vertex 0.0625 -4.0 0.0
  vertex -0.0625 -4.0 0.0
 endloop
endfacet
facet normal 0.0 0.0 1.0
 outer loop
  vertex -0.0625 -4.0 0.0
  vertex 0.0625 -4.0 0.0
  vertex 0.0625 -3.5 0.0
 endloop
endfacet
facet normal 0.0 0.0 1.0
 outer loop
  vertex 0.0625 -3.0 0.0
  vertex -0.0625 -3.0 0.0
  vertex -0.0625 -3.5 0.0
 endloop
endfacet
facet normal 0.0 0.0 1.0
 outer loop
  vertex 0.0625 -3.0 0.0
  vertex -0.0625 -3.5 0.0
  vertex 0.0625 -3.5 0.0
 endloop
endfacet
facet normal 0.0 0.0 1.0
 outer loop
  vertex 0.0625 -2.5 0.0
  vertex -0.0625 -2.5 0.0
  vertex -0.0625 -3.0 0.0
 endloop
endfacet
facet normal 0.0 0.0 1.0
 outer loop
  vertex 0.0625 -2.5 0.0
  vertex -0.0625 -3.0 0.0
  vertex 0.0625 -3.0 0.0
 endloop
endfacet
facet normal 0.0 0.0 1.0
 outer loop
  vertex 0.0625 -2.0 0.0
  vertex -0.0625 -2.0 0.0
  vertex -0.0625 -2.5 0.0
 endloop
endfacet
facet normal 0.0 0.0 1.0
 outer loop
  vertex 0.0625 -2.0 0.0
  vertex -0.0625 -2.5 0.0
  vertex 0.0625 -2.5 0.0
 endloop
endfacet
facet normal 0.0 0.0 1.0
 outer loop
  vertex 0.0625 -1.5 0.0
  vertex -0.0625 -1.5 0.0
  vertex -0.0625 -2.0 0.0
 endloop
endfacet
facet normal 0.0 0.0 1.0
 outer loop
  vertex 0.0625 -1.5 0.0
  vertex -0.0625 -2.0 0.0
  vertex 0.0625 -2.0 0.0
 endloop
endfacet
endsolid
