solid
facet normal -1.0 0.0 0.0
 outer loop
  vertex -0.05 1.0 -0.5
  vertex -0.05 1.0 0.0
  vertex -0.05 1.3660254037844386 -0.3660254037844384
 endloop
endfacet
facet normal -1.0 0.0 0.0
 outer loop
  vertex -0.05 1.0 0.0
  vertex -0.05 1.5 0.0
  vertex -0.05 1.3660254037844386 -0.3660254037844384
 endloop
endfacet
facet normal -1.0 0.0 0.0
 outer loop
  vertex -0.05 1.0 -3.0
  vertex -0.05 1.0 -2.5
  vertex -0.05 1.3660254037844386 -2.633974596215561
 endloop
endfacet
facet normal -1.0 0.0 0.0
 outer loop
  vertex -0.05 1.5 -3.0
  vertex -0.05 1.0 -3.0
  vertex -0.05 1.3660254037844386 -2.633974596215561
 endloop
endfacet
facet normal -1.0 0.0 0.0
 outer loop
  vertex -0.05 2.5 0.0
  vertex -0.05 3.0 0.0
  vertex -0.05 2.633974596215561 -0.3660254037844388
 endloop
endfacet
facet normal -1.0 0.0 -0.0
 outer loop
  vertex -0.05 3.0 0.0
  vertex -0.05 3.0 -0.5
  vertex -0.05 2.633974596215561 -0.3660254037844388
 endloop
endfacet
facet normal -1.0 0.0 -0.0
 outer loop
  vertex -0.05 3.0 -2.5
  vertex -0.05 3.0 -3.0
  vertex -0.05 2.633974596215561 -2.633974596215561
 endloop
endfacet
facet normal -1.0 0.0 0.0
 outer loop
  vertex -0.05 3.0 -3.0
  vertex -0.05 2.5 -3.0
  vertex -0.05 2.633974596215561 -2.633974596215561
 endloop
endfacet
facet normal -1.0 0.0 0.0
 outer loop
  vertex -0.05 1.0 -2.5
  vertex -0.05 1.0 -2.0
  vertex -0.05 1.403535116253455 -2.2317899061556483
 endloop
endfacet
facet normal -1.0 0.0 0.0
 outer loop
  vertex -0.05 1.0 -2.5
  vertex -0.05 1.403535116253455 -2.2317899061556483
  vertex -0.05 1.3660254037844386 -2.633974596215561
 endloop
endfacet
facet normal -1.0 0.0 0.0
 outer loop
  vertex -0.05 1.0 -2.0
  vertex -0.05 1.0 -1.5
  vertex -0.05 1.4306533549328053 -1.7459134911936118
 endloop
endfacet
facet normal -1.0 0.0 0.0
 outer loop
  vertex -0.05 1.0 -2.0
  vertex -0.05 1.4306533549328053 -1.7459134911936118
  vertex -0.05 1.403535116253455 -2.2317899061556483
 endloop
endfacet
facet normal -1.0 0.0 0.0
 outer loop
  vertex -0.05 1.0 -1.5
  vertex -0.05 1.0 -1.0
  vertex -0.05 1.4310150308382663 -1.2496720293056751
 endloop
endfacet
facet normal -1.0 0.0 0.0
 outer loop
  vertex -0.05 1.4306533549328053 -1.7459134911936118
  vertex -0.05 1.0 -1.5
  vertex -0.05 1.4310150308382663 -1.2496720293056751
 endloop
endfacet
facet normal -1.0 0.0 0.0
 outer loop
  vertex -0.05 1.0 -1.0
  vertex -0.05 1.0 -0.5
  vertex -0.05 1.423386022527916 -0.752118684640438
 endloop
endfacet
facet normal -1.0 0.0 0.0
 outer loop
  vertex -0.05 1.0 -1.0
  vertex -0.05 1.423386022527916 -0.752118684640438
  vertex -0.05 1.4310150308382663 -1.2496720293056751
 endloop
endfacet
facet normal -1.0 0.0 0.0
 outer loop
  vertex -0.05 1.423386022527916 -0.752118684640438
  vertex -0.05 1.0 -0.5
  vertex -0.05 1.3660254037844386 -0.3660254037844384
 endloop
endfacet
facet normal -1.0 0.0 0.0
 outer loop
  vertex -0.05 1.5 0.0
  vertex -0.05 2.0 0.0
  vertex -0.05 1.785961120683438 -0.44737873162549757
 endloop
endfacet
facet normal -1.0 0.0 -0.0
 outer loop
  vertex -0.05 1.5 0.0
  vertex -0.05 1.785961120683438 -0.44737873162549757
  vertex -0.05 1.3660254037844386 -0.3660254037844384
 endloop
endfacet
facet normal -1.0 0.0 0.0
 outer loop
  vertex -0.05 2.0 0.0
  vertex -0.05 2.5 0.0
  vertex -0.05 2.281619653166406 -0.3953531183916654
 endloop
endfacet
facet normal -1.0 0.0 -0.0
 outer loop
  vertex -0.05 2.0 0.0
  vertex -0.05 2.281619653166406 -0.3953531183916654
  vertex -0.05 1.785961120683438 -0.44737873162549757
 endloop
endfacet
facet normal -1.0 0.0 0.0
 outer loop
  vertex -0.05 2.281619653166406 -0.3953531183916654
  vertex -0.05 2.5 0.0
  vertex -0.05 2.633974596215561 -0.3660254037844388
 endloop
endfacet
facet normal -1.0 0.0 -0.0
 outer loop
  vertex -0.05 3.0 -2.0
  vertex -0.05 3.0 -2.5
  vertex -0.05 2.5773807212416076 -2.202434745306759
 endloop
endfacet
facet normal -1.0 0.0 0.0
 outer loop
  vertex -0.05 2.5773807212416076 -2.202434745306759
  vertex -0.05 3.0 -2.5
  vertex -0.05 2.633974596215561 -2.633974596215561
 endloop
endfacet
facet normal -1.0 0.0 -0.0
 outer loop
  vertex -0.05 3.0 -1.5
  vertex -0.05 3.0 -2.0
  vertex -0.05 2.694100648860987 -1.75
 endloop
endfacet
facet normal -1.0 -0.0 0.0
 outer loop
  vertex -0.05 3.0 -2.0
  vertex -0.05 2.5773807212416076 -2.202434745306759
  vertex -0.05 2.694100648860987 -1.75
 endloop
endfacet
facet normal -1.0 0.0 -0.0
 outer loop
  vertex -0.05 3.0 -1.0
  vertex -0.05 3.0 -1.5
  vertex -0.05 2.566987298107781 -1.2500000000000002
 endloop
endfacet
facet normal -1.0 0.0 0.0
 outer loop
  vertex -0.05 2.566987298107781 -1.2500000000000002
  vertex -0.05 3.0 -1.5
  vertex -0.05 2.694100648860987 -1.75
 endloop
endfacet
facet normal -1.0 0.0 -0.0
 outer loop
  vertex -0.05 3.0 -0.5
  vertex -0.05 3.0 -1.0
  vertex -0.05 2.613777072928338 -0.7206826926279319
 endloop
endfacet
facet normal -1.0 -0.0 0.0
 outer loop
  vertex -0.05 3.0 -1.0
  vertex -0.05 2.566987298107781 -1.2500000000000002
  vertex -0.05 2.613777072928338 -0.7206826926279319
 endloop
endfacet
facet normal -1.0 -0.0 0.0
 outer loop
  vertex -0.05 3.0 -0.5
  vertex -0.05 2.613777072928338 -0.7206826926279319
  vertex -0.05 2.633974596215561 -0.3660254037844388
 endloop
endfacet
facet normal -1.0 0.0 0.0
 outer loop
  vertex -0.05 2.0 -3.0
  vertex -0.05 1.5 -3.0
  vertex -0.05 1.7950655893775234 -2.5203605949012835
 endloop
endfacet
facet normal -1.0 0.0 0.0
 outer loop
  vertex -0.05 1.7950655893775234 -2.5203605949012835
  vertex -0.05 1.5 -3.0
  vertex -0.05 1.3660254037844386 -2.633974596215561
 endloop
endfacet
facet normal -1.0 0.0 0.0
 outer loop
  vertex -0.05 2.5 -3.0
  vertex -0.05 2.0 -3.0
  vertex -0.05 2.2546141082706033 -2.5872517895841205
 endloop
endfacet
facet normal -1.0 0.0 0.0
 outer loop
  vertex -0.05 2.0 -3.0
  vertex -0.05 1.7950655893775234 -2.5203605949012835
  vertex -0.05 2.2546141082706033 -2.5872517895841205
 endloop
endfacet
facet normal -1.0 0.0 0.0
 outer loop
  vertex -0.05 2.5 -3.0
  vertex -0.05 2.2546141082706033 -2.5872517895841205
  vertex -0.05 2.633974596215561 -2.633974596215561
 endloop
endfacet
facet normal -1.0 0.0 0.0
 outer loop
  vertex -0.05 1.4306533549328053 -1.7459134911936118
  vertex -0.05 1.4310150308382663 -1.2496720293056751
  vertex -0.05 1.8441136756566765 -1.499264253416548
 endloop
endfacet
facet normal -1.0 0.0 0.0
 outer loop
  vertex -0.05 1.4306533549328053 -1.7459134911936118
  vertex -0.05 1.8441136756566765 -1.499264253416548
  vertex -0.05 1.8294663494259629 -1.990490754623434
 endloop
endfacet
facet normal -1.0 0.0 -0.0
 outer loop
  vertex -0.05 1.4306533549328053 -1.7459134911936118
  vertex -0.05 1.8294663494259629 -1.990490754623434
  vertex -0.05 1.403535116253455 -2.2317899061556483
 endloop
endfacet
facet normal -1.0 0.0 0.0
 outer loop
  vertex -0.05 2.566987298107781 -1.2500000000000002
  vertex -0.05 2.2675777427132635 -1.7348735706306044
  vertex -0.05 2.1471593839355796 -1.2562800468314699
 endloop
endfacet
facet normal -1.0 0.0 0.0
 outer loop
  vertex -0.05 2.2675777427132635 -1.7348735706306044
  vertex -0.05 2.566987298107781 -1.2500000000000002
  vertex -0.05 2.694100648860987 -1.75
 endloop
endfacet
facet normal -1.0 0.0 0.0
 outer loop
  vertex -0.05 2.613777072928338 -0.7206826926279319
  vertex -0.05 2.566987298107781 -1.2500000000000002
  vertex -0.05 2.200190469399836 -0.8209821439564964
 endloop
endfacet
facet normal -1.0 -0.0 0.0
 outer loop
  vertex -0.05 2.566987298107781 -1.2500000000000002
  vertex -0.05 2.1471593839355796 -1.2562800468314699
  vertex -0.05 2.200190469399836 -0.8209821439564964
 endloop
endfacet
facet normal -1.0 0.0 0.0
 outer loop
  vertex -0.05 1.4310150308382663 -1.2496720293056751
  vertex -0.05 1.423386022527916 -0.752118684640438
  vertex -0.05 1.8075065711441536 -0.9971048701816478
 endloop
endfacet
facet normal -1.0 0.0 0.0
 outer loop
  vertex -0.05 1.8075065711441536 -0.9971048701816478
  vertex -0.05 1.423386022527916 -0.752118684640438
  vertex -0.05 1.785961120683438 -0.44737873162549757
 endloop
endfacet
facet normal -1.0 -0.0 0.0
 outer loop
  vertex -0.05 1.785961120683438 -0.44737873162549757
  vertex -0.05 1.423386022527916 -0.752118684640438
  vertex -0.05 1.3660254037844386 -0.3660254037844384
 endloop
endfacet
facet normal -1.0 0.0 0.0
 outer loop
  vertex -0.05 2.5773807212416076 -2.202434745306759
  vertex -0.05 2.2675777427132635 -1.7348735706306044
  vertex -0.05 2.694100648860987 -1.75
 endloop
endfacet
facet normal -1.0 0.0 -0.0
 outer loop
  vertex -0.05 2.2675777427132635 -1.7348735706306044
  vertex -0.05 2.5773807212416076 -2.202434745306759
  vertex -0.05 2.166494297424039 -2.204556388996954
 endloop
endfacet
facet normal -1.0 0.0 0.0
 outer loop
  vertex -0.05 2.2546141082706033 -2.5872517895841205
  vertex -0.05 2.5773807212416076 -2.202434745306759
  vertex -0.05 2.633974596215561 -2.633974596215561
 endloop
endfacet
facet normal -1.0 0.0 0.0
 outer loop
  vertex -0.05 2.5773807212416076 -2.202434745306759
  vertex -0.05 2.2546141082706033 -2.5872517895841205
  vertex -0.05 2.166494297424039 -2.204556388996954
 endloop
endfacet
facet normal -1.0 0.0 0.0
 outer loop
  vertex -0.05 2.613777072928338 -0.7206826926279319
  vertex -0.05 2.281619653166406 -0.3953531183916654
  vertex -0.05 2.633974596215561 -0.3660254037844388
 endloop
endfacet
facet normal -1.0 0.0 -0.0
 outer loop
  vertex -0.05 2.281619653166406 -0.3953531183916654
  vertex -0.05 2.613777072928338 -0.7206826926279319
  vertex -0.05 2.200190469399836 -0.8209821439564964
 endloop
endfacet
facet normal -1.0 0.0 0.0
 outer loop
  vertex -0.05 1.785961120683438 -0.44737873162549757
  vertex -0.05 2.281619653166406 -0.3953531183916654
  vertex -0.05 2.200190469399836 -0.8209821439564964
 endloop
endfacet
facet normal -1.0 0.0 0.0
 outer loop
  vertex -0.05 1.8294663494259629 -1.990490754623434
  vertex -0.05 1.7950655893775234 -2.5203605949012835
  vertex -0.05 1.403535116253455 -2.2317899061556483
 endloop
endfacet
facet normal -1.0 0.0 0.0
 outer loop
  vertex -0.05 1.7950655893775234 -2.5203605949012835
  vertex -0.05 1.8294663494259629 -1.990490754623434
  vertex -0.05 2.166494297424039 -2.204556388996954
 endloop
endfacet
facet normal -1.0 0.0 -0.0
 outer loop
  vertex -0.05 1.403535116253455 -2.2317899061556483
  vertex -0.05 1.7950655893775234 -2.5203605949012835
  vertex -0.05 1.3660254037844386 -2.633974596215561
 endloop
endfacet
facet normal -1.0 0.0 0.0
 outer loop
  vertex -0.05 2.2546141082706033 -2.5872517895841205
  vertex -0.05 1.7950655893775234 -2.5203605949012835
  vertex -0.05 2.166494297424039 -2.204556388996954
 endloop
endfacet
facet normal -1.0 0.0 0.0
 outer loop
  vertex -0.05 1.8441136756566765 -1.499264253416548
  vertex -0.05 1.4310150308382663 -1.2496720293056751
  vertex -0.05 1.8075065711441536 -0.9971048701816478
 endloop
endfacet
facet normal -1.0 0.0 0.0
 outer loop
  vertex -0.05 1.8294663494259629 -1.990490754623434
  vertex -0.05 1.8441136756566765 -1.499264253416548
  vertex -0.05 2.2675777427132635 -1.7348735706306044
 endloop
endfacet
facet normal -1.0 0.0 0.0
 outer loop
  vertex -0.05 2.2675777427132635 -1.7348735706306044
  vertex -0.05 1.8441136756566765 -1.499264253416548
  vertex -0.05 2.1471593839355796 -1.2562800468314699
 endloop
endfacet
facet normal -1.0 0.0 0.0
 outer loop
  vertex -0.05 1.8441136756566765 -1.499264253416548
  vertex -0.05 1.8075065711441536 -0.9971048701816478
  vertex -0.05 2.1471593839355796 -1.2562800468314699
 endloop
endfacet
facet normal -1.0 0.0 0.0
 outer loop
  vertex -0.05 1.8294663494259629 -1.990490754623434
  vertex -0.05 2.2675777427132635 -1.7348735706306044
  vertex -0.05 2.166494297424039 -2.204556388996954
 endloop
endfacet
facet normal -1.0 0.0 0.0
 outer loop
  vertex -0.05 1.8075065711441536 -0.9971048701816478
  vertex -0.05 1.785961120683438 -0.44737873162549757
  vertex -0.05 2.200190469399836 -0.8209821439564964
 endloop
endfacet
facet normal -1.0 0.0 0.0
 outer loop
  vertex -0.05 2.1471593839355796 -1.2562800468314699
  vertex -0.05 1.8075065711441536 -0.9971048701816478
  vertex -0.05 2.200190469399836 -0.8209821439564964
 endloop
endfacet
facet normal 1.0 0.0 0.0
 outer loop
  vertex 0.05 1.0 -0.5
  vertex 0.05 1.3660254037844386 -0.3660254037844384
  vertex 0.05 1.0 0.0
 endloop
endfacet
facet normal 1.0 -0.0 0.0
 outer loop
  vertex 0.05 1.0 0.0
  vertex 0.05 1.3660254037844386 -0.3660254037844384
  vertex 0.05 1.5 0.0
 endloop
endfacet
facet normal 1.0 0.0 0.0
 outer loop
  vertex 0.05 1.0 -3.0
  vertex 0.05 1.3660254037844386 -2.633974596215561
  vertex 0.05 1.0 -2.5
 endloop
endfacet
facet normal 1.0 0.0 0.0
 outer loop
  vertex 0.05 1.5 -3.0
  vertex 0.05 1.3660254037844386 -2.633974596215561
  vertex 0.05 1.0 -3.0
 endloop
endfacet
facet normal 1.0 -0.0 0.0
 outer loop
  vertex 0.05 2.5 0.0
  vertex 0.05 2.633974596215561 -0.3660254037844388
  vertex 0.05 3.0 0.0
 endloop
endfacet
facet normal 1.0 0.0 0.0
 outer loop
  vertex 0.05 3.0 0.0
  vertex 0.05 2.633974596215561 -0.3660254037844388
  vertex 0.05 3.0 -0.5
 endloop
endfacet
facet normal 1.0 0.0 0.0
 outer loop
  vertex 0.05 3.0 -2.5
  vertex 0.05 2.633974596215561 -2.633974596215561
  vertex 0.05 3.0 -3.0
 endloop
endfacet
facet normal 1.0 0.0 0.0
 outer loop
  vertex 0.05 3.0 -3.0
  vertex 0.05 2.633974596215561 -2.633974596215561
  vertex 0.05 2.5 -3.0
 endloop
endfacet
facet normal 1.0 0.0 0.0
 outer loop
  vertex 0.05 1.0 -2.5
  vertex 0.05 1.403535116253455 -2.2317899061556483
  vertex 0.05 1.0 -2.0
 endloop
endfacet
facet normal 1.0 -0.0 0.0
 outer loop
  vertex 0.05 1.0 -2.5
  vertex 0.05 1.3660254037844386 -2.633974596215561
  vertex 0.05 1.403535116253455 -2.2317899061556483
 endloop
endfacet
facet normal 1.0 0.0 0.0
 outer loop
  vertex 0.05 1.0 -2.0
  vertex 0.05 1.4306533549328053 -1.7459134911936118
  vertex 0.05 1.0 -1.5
 endloop
endfacet
facet normal 1.0 -0.0 0.0
 outer loop
  vertex 0.05 1.0 -2.0
  vertex 0.05 1.403535116253455 -2.2317899061556483
  vertex 0.05 1.4306533549328053 -1.7459134911936118
 endloop
endfacet
facet normal 1.0 0.0 0.0
 outer loop
  vertex 0.05 1.0 -1.5
  vertex 0.05 1.4310150308382663 -1.2496720293056751
  vertex 0.05 1.0 -1.0
 endloop
endfacet
facet normal 1.0 0.0 -0.0
 outer loop
  vertex 0.05 1.4306533549328053 -1.7459134911936118
  vertex 0.05 1.4310150308382663 -1.2496720293056751
  vertex 0.05 1.0 -1.5
 endloop
endfacet
facet normal 1.0 0.0 0.0
 outer loop
  vertex 0.05 1.0 -1.0
  vertex 0.05 1.423386022527916 -0.752118684640438
  vertex 0.05 1.0 -0.5
 endloop
endfacet
facet normal 1.0 -0.0 0.0
 outer loop
  vertex 0.05 1.0 -1.0
  vertex 0.05 1.4310150308382663 -1.2496720293056751
  vertex 0.05 1.423386022527916 -0.752118684640438
 endloop
endfacet
facet normal 1.0 0.0 0.0
 outer loop
  vertex 0.05 1.423386022527916 -0.752118684640438
  vertex 0.05 1.3660254037844386 -0.3660254037844384
  vertex 0.05 1.0 -0.5
 endloop
endfacet
facet normal 1.0 -0.0 0.0
 outer loop
  vertex 0.05 1.5 0.0
  vertex 0.05 1.785961120683438 -0.44737873162549757
  vertex 0.05 2.0 0.0
 endloop
endfacet
facet normal 1.0 0.0 0.0
 outer loop
  vertex 0.05 1.5 0.0
  vertex 0.05 1.3660254037844386 -0.3660254037844384
  vertex 0.05 1.785961120683438 -0.44737873162549757
 endloop
endfacet
facet normal 1.0 -0.0 0.0
 outer loop
  vertex 0.05 2.0 0.0
  vertex 0.05 2.281619653166406 -0.3953531183916654
  vertex 0.05 2.5 0.0
 endloop
endfacet
facet normal 1.0 0.0 0.0
 outer loop
  vertex 0.05 2.0 0.0
  vertex 0.05 1.785961120683438 -0.44737873162549757
  vertex 0.05 2.281619653166406 -0.3953531183916654
 endloop
endfacet
facet normal 1.0 0.0 0.0
 outer loop
  vertex 0.05 2.281619653166406 -0.3953531183916654
  vertex 0.05 2.633974596215561 -0.3660254037844388
  vertex 0.05 2.5 0.0
 endloop
endfacet
facet normal 1.0 0.0 0.0
 outer loop
  vertex 0.05 3.0 -2.0
  vertex 0.05 2.5773807212416076 -2.202434745306759
  vertex 0.05 3.0 -2.5
 endloop
endfacet
facet normal 1.0 0.0 0.0
 outer loop
  vertex 0.05 2.5773807212416076 -2.202434745306759
  vertex 0.05 2.633974596215561 -2.633974596215561
  vertex 0.05 3.0 -2.5
 endloop
endfacet
facet normal 1.0 0.0 0.0
 outer loop
  vertex 0.05 3.0 -1.5
  vertex 0.05 2.694100648860987 -1.75
  vertex 0.05 3.0 -2.0
 endloop
endfacet
facet normal 1.0 0.0 0.0
 outer loop
  vertex 0.05 3.0 -2.0
  vertex 0.05 2.694100648860987 -1.75
  vertex 0.05 2.5773807212416076 -2.202434745306759
 endloop
endfacet
facet normal 1.0 0.0 0.0
 outer loop
  vertex 0.05 3.0 -1.0
  vertex 0.05 2.566987298107781 -1.2500000000000002
  vertex 0.05 3.0 -1.5
 endloop
endfacet
facet normal 1.0 0.0 0.0
 outer loop
  vertex 0.05 2.566987298107781 -1.2500000000000002
  vertex 0.05 2.694100648860987 -1.75
  vertex 0.05 3.0 -1.5
 endloop
endfacet
facet normal 1.0 0.0 0.0
 outer loop
  vertex 0.05 3.0 -0.5
  vertex 0.05 2.613777072928338 -0.7206826926279319
  vertex 0.05 3.0 -1.0
 endloop
endfacet
facet normal 1.0 0.0 0.0
 outer loop
  vertex 0.05 3.0 -1.0
  vertex 0.05 2.613777072928338 -0.7206826926279319
  vertex 0.05 2.566987298107781 -1.2500000000000002
 endloop
endfacet
facet normal 1.0 0.0 0.0
 outer loop
  vertex 0.05 3.0 -0.5
  vertex 0.05 2.633974596215561 -0.3660254037844388
  vertex 0.05 2.613777072928338 -0.7206826926279319
 endloop
endfacet
facet normal 1.0 0.0 0.0
 outer loop
  vertex 0.05 2.0 -3.0
  vertex 0.05 1.7950655893775234 -2.5203605949012835
  vertex 0.05 1.5 -3.0
 endloop
endfacet
facet normal 1.0 0.0 0.0
 outer loop
  vertex 0.05 1.7950655893775234 -2.5203605949012835
  vertex 0.05 1.3660254037844386 -2.633974596215561
  vertex 0.05 1.5 -3.0
 endloop
endfacet
facet normal 1.0 0.0 0.0
 outer loop
  vertex 0.05 2.5 -3.0
  vertex 0.05 2.2546141082706033 -2.5872517895841205
  vertex 0.05 2.0 -3.0
 endloop
endfacet
facet normal 1.0 0.0 -0.0
 outer loop
  vertex 0.05 2.0 -3.0
  vertex 0.05 2.2546141082706033 -2.5872517895841205
  vertex 0.05 1.7950655893775234 -2.5203605949012835
 endloop
endfacet
facet normal 1.0 0.0 -0.0
 outer loop
  vertex 0.05 2.5 -3.0
  vertex 0.05 2.633974596215561 -2.633974596215561
  vertex 0.05 2.2546141082706033 -2.5872517895841205
 endloop
endfacet
facet normal 1.0 0.0 0.0
 outer loop
  vertex 0.05 1.4306533549328053 -1.7459134911936118
  vertex 0.05 1.8441136756566765 -1.499264253416548
  vertex 0.05 1.4310150308382663 -1.2496720293056751
 endloop
endfacet
facet normal 1.0 -0.0 0.0
 outer loop
  vertex 0.05 1.4306533549328053 -1.7459134911936118
  vertex 0.05 1.8294663494259629 -1.990490754623434
  vertex 0.05 1.8441136756566765 -1.499264253416548
 endloop
endfacet
facet normal 1.0 0.0 0.0
 outer loop
  vertex 0.05 1.4306533549328053 -1.7459134911936118
  vertex 0.05 1.403535116253455 -2.2317899061556483
  vertex 0.05 1.8294663494259629 -1.990490754623434
 endloop
endfacet
facet normal 1.0 0.0 0.0
 outer loop
  vertex 0.05 2.566987298107781 -1.2500000000000002
  vertex 0.05 2.1471593839355796 -1.2562800468314699
  vertex 0.05 2.2675777427132635 -1.7348735706306044
 endloop
endfacet
facet normal 1.0 -0.0 0.0
 outer loop
  vertex 0.05 2.2675777427132635 -1.7348735706306044
  vertex 0.05 2.694100648860987 -1.75
  vertex 0.05 2.566987298107781 -1.2500000000000002
 endloop
endfacet
facet normal 1.0 0.0 0.0
 outer loop
  vertex 0.05 2.613777072928338 -0.7206826926279319
  vertex 0.05 2.200190469399836 -0.8209821439564964
  vertex 0.05 2.566987298107781 -1.2500000000000002
 endloop
endfacet
facet normal 1.0 0.0 0.0
 outer loop
  vertex 0.05 2.566987298107781 -1.2500000000000002
  vertex 0.05 2.200190469399836 -0.8209821439564964
  vertex 0.05 2.1471593839355796 -1.2562800468314699
 endloop
endfacet
facet normal 1.0 0.0 -0.0
 outer loop
  vertex 0.05 1.4310150308382663 -1.2496720293056751
  vertex 0.05 1.8075065711441536 -0.9971048701816478
  vertex 0.05 1.423386022527916 -0.752118684640438
 endloop
endfacet
facet normal 1.0 0.0 0.0
 outer loop
  vertex 0.05 1.8075065711441536 -0.9971048701816478
  vertex 0.05 1.785961120683438 -0.44737873162549757
  vertex 0.05 1.423386022527916 -0.752118684640438
 endloop
endfacet
facet normal 1.0 0.0 0.0
 outer loop
  vertex 0.05 1.785961120683438 -0.44737873162549757
  vertex 0.05 1.3660254037844386 -0.3660254037844384
  vertex 0.05 1.423386022527916 -0.752118684640438
 endloop
endfacet
facet normal 1.0 0.0 -0.0
 outer loop
  vertex 0.05 2.5773807212416076 -2.202434745306759
  vertex 0.05 2.694100648860987 -1.75
  vertex 0.05 2.2675777427132635 -1.7348735706306044
 endloop
endfacet
facet normal 1.0 0.0 0.0
 outer loop
  vertex 0.05 2.2675777427132635 -1.7348735706306044
  vertex 0.05 2.166494297424039 -2.204556388996954
  vertex 0.05 2.5773807212416076 -2.202434745306759
 endloop
endfacet
facet normal 1.0 -0.0 0.0
 outer loop
  vertex 0.05 2.2546141082706033 -2.5872517895841205
  vertex 0.05 2.633974596215561 -2.633974596215561
  vertex 0.05 2.5773807212416076 -2.202434745306759
 endloop
endfacet
facet normal 1.0 0.0 0.0
 outer loop
  vertex 0.05 2.5773807212416076 -2.202434745306759
  vertex 0.05 2.166494297424039 -2.204556388996954
  vertex 0.05 2.2546141082706033 -2.5872517895841205
 endloop
endfacet
facet normal 1.0 0.0 -0.0
 outer loop
  vertex 0.05 2.613777072928338 -0.7206826926279319
  vertex 0.05 2.633974596215561 -0.3660254037844388
  vertex 0.05 2.281619653166406 -0.3953531183916654
 endloop
endfacet
facet normal 1.0 0.0 0.0
 outer loop
  vertex 0.05 2.281619653166406 -0.3953531183916654
  vertex 0.05 2.200190469399836 -0.8209821439564964
  vertex 0.05 2.613777072928338 -0.7206826926279319
 endloop
endfacet
facet normal 1.0 -0.0 0.0
 outer loop
  vertex 0.05 1.785961120683438 -0.44737873162549757
  vertex 0.05 2.200190469399836 -0.8209821439564964
  vertex 0.05 2.281619653166406 -0.3953531183916654
 endloop
endfacet
facet normal 1.0 0.0 0.0
 outer loop
  vertex 0.05 1.8294663494259629 -1.990490754623434
  vertex 0.05 1.403535116253455 -2.2317899061556483
  vertex 0.05 1.7950655893775234 -2.5203605949012835
 endloop
endfacet
facet normal 1.0 0.0 0.0
 outer loop
  vertex 0.05 1.7950655893775234 -2.5203605949012835
  vertex 0.05 2.166494297424039 -2.204556388996954
  vertex 0.05 1.8294663494259629 -1.990490754623434
 endloop
endfacet
facet normal 1.0 0.0 0.0
 outer loop
  vertex 0.05 1.403535116253455 -2.2317899061556483
  vertex 0.05 1.3660254037844386 -2.633974596215561
  vertex 0.05 1.7950655893775234 -2.5203605949012835
 endloop
endfacet
facet normal 1.0 0.0 0.0
 outer loop
  vertex 0.05 2.2546141082706033 -2.5872517895841205
  vertex 0.05 2.166494297424039 -2.204556388996954
  vertex 0.05 1.7950655893775234 -2.5203605949012835
 endloop
endfacet
facet normal 1.0 0.0 0.0
 outer loop
  vertex 0.05 1.8441136756566765 -1.499264253416548
  vertex 0.05 1.8075065711441536 -0.9971048701816478
  vertex 0.05 1.4310150308382663 -1.2496720293056751
 endloop
endfacet
facet normal 1.0 0.0 0.0
 outer loop
  vertex 0.05 1.8294663494259629 -1.990490754623434
  vertex 0.05 2.2675777427132635 -1.7348735706306044
  vertex 0.05 1.8441136756566765 -1.499264253416548
 endloop
endfacet
facet normal 1.0 0.0 0.0
 outer loop
  vertex 0.05 2.2675777427132635 -1.7348735706306044
  vertex 0.05 2.1471593839355796 -1.2562800468314699
  vertex 0.05 1.8441136756566765 -1.499264253416548
 endloop
endfacet
facet normal 1.0 0.0 -0.0
 outer loop
  vertex 0.05 1.8441136756566765 -1.499264253416548
  vertex 0.05 2.1471593839355796 -1.2562800468314699
  vertex 0.05 1.8075065711441536 -0.9971048701816478
 endloop
endfacet
facet normal 1.0 -0.0 0.0
 outer loop
  vertex 0.05 1.8294663494259629 -1.990490754623434
  vertex 0.05 2.166494297424039 -2.204556388996954
  vertex 0.05 2.2675777427132635 -1.7348735706306044
 endloop
endfacet
facet normal 1.0 0.0 -0.0
 outer loop
  vertex 0.05 1.8075065711441536 -0.9971048701816478
  vertex 0.05 2.200190469399836 -0.8209821439564964
  vertex 0.05 1.785961120683438 -0.44737873162549757
 endloop
endfacet
facet normal 1.0 0.0 -0.0
 outer loop
  vertex 0.05 2.1471593839355796 -1.2562800468314699
  vertex 0.05 2.200190469399836 -0.8209821439564964
  vertex 0.05 1.8075065711441536 -0.9971048701816478
 endloop
endfacet
facet normal 0.0 -1.0 0.0
 outer loop
  vertex -0.05 1.0 0.0
  vertex 0.05 1.0 -0.5
  vertex 0.05 1.0 0.0
 endloop
endfacet
facet normal 0.0 -1.0 0.0
 outer loop
  vertex 0.05 1.0 -0.5
  vertex -0.05 1.0 0.0
  vertex -0.05 1.0 -0.5
 endloop
endfacet
facet normal 0.0 -1.0 0.0
 outer loop
  vertex -0.05 1.0 -3.0
  vertex 0.05 1.0 -3.0
  vertex -0.05 1.0 -2.5
 endloop
endfacet
facet normal 0.0 -1.0 0.0
 outer loop
  vertex -0.05 1.0 -2.5
  vertex 0.05 1.0 -3.0
  vertex 0.05 1.0 -2.5
 endloop
endfacet
facet normal 0.0 -1.0 0.0
 outer loop
  vertex -0.05 1.0 -2.0
  vertex -0.05 1.0 -2.5
  vertex 0.05 1.0 -2.5
 endloop
endfacet
facet normal 0.0 -1.0 0.0
 outer loop
  vertex -0.05 1.0 -2.0
  vertex 0.05 1.0 -1.5
  vertex -0.05 1.0 -1.5
 endloop
endfacet
facet normal 0.0 -1.0 0.0
 outer loop
  vertex -0.05 1.0 -2.0
  vertex 0.05 1.0 -2.5
  vertex 0.05 1.0 -2.0
 endloop
endfacet
facet normal 0.0 -1.0 -0.0
 outer loop
  vertex 0.05 1.0 -1.5
  vertex -0.05 1.0 -2.0
  vertex 0.05 1.0 -2.0
 endloop
endfacet
facet normal 0.0 -1.0 0.0
 outer loop
  vertex -0.05 1.0 -1.5
  vertex 0.05 1.0 -1.0
  vertex -0.05 1.0 -1.0
 endloop
endfacet
facet normal 0.0 -1.0 0.0
 outer loop
  vertex 0.05 1.0 -1.5
  vertex 0.05 1.0 -1.0
  vertex -0.05 1.0 -1.5
 endloop
endfacet
facet normal 0.0 -1.0 0.0
 outer loop
  vertex -0.05 1.0 -1.0
  vertex 0.05 1.0 -0.5
  vertex -0.05 1.0 -0.5
 endloop
endfacet
facet normal 0.0 -1.0 0.0
 outer loop
  vertex 0.05 1.0 -1.0
  vertex 0.05 1.0 -0.5
  vertex -0.05 1.0 -1.0
 endloop
endfacet
facet normal -0.0 1.0 0.0
 outer loop
  vertex -0.05 3.0 0.0
  vertex 0.05 3.0 0.0
  vertex 0.05 3.0 -0.5
 endloop
endfacet
facet normal 0.0 1.0 0.0
 outer loop
  vertex -0.05 3.0 -0.5
  vertex -0.05 3.0 0.0
  vertex 0.05 3.0 -0.5
 endloop
endfacet
facet normal 0.0 1.0 0.0
 outer loop
  vertex 0.05 3.0 -3.0
  vertex -0.05 3.0 -3.0
  vertex -0.05 3.0 -2.5
 endloop
endfacet
facet normal -0.0 1.0 0.0
 outer loop
  vertex -0.05 3.0 -2.5
  vertex 0.05 3.0 -2.5
  vertex 0.05 3.0 -3.0
 endloop
endfacet
facet normal 0.0 1.0 0.0
 outer loop
  vertex -0.05 3.0 -2.5
  vertex -0.05 3.0 -2.0
  vertex 0.05 3.0 -2.0
 endloop
endfacet
facet normal 0.0 1.0 0.0
 outer loop
  vertex 0.05 3.0 -2.0
  vertex 0.05 3.0 -2.5
  vertex -0.05 3.0 -2.5
 endloop
endfacet
facet normal 0.0 1.0 0.0
 outer loop
  vertex -0.05 3.0 -2.0
  vertex -0.05 3.0 -1.5
  vertex 0.05 3.0 -2.0
 endloop
endfacet
facet normal 0.0 1.0 0.0
 outer loop
  vertex -0.05 3.0 -1.0
  vertex 0.05 3.0 -1.5
  vertex -0.05 3.0 -1.5
 endloop
endfacet
facet normal -0.0 1.0 0.0
 outer loop
  vertex -0.05 3.0 -1.5
  vertex 0.05 3.0 -1.5
  vertex 0.05 3.0 -2.0
 endloop
endfacet
facet normal 0.0 1.0 0.0
 outer loop
  vertex 0.05 3.0 -0.5
  vertex -0.05 3.0 -1.0
  vertex -0.05 3.0 -0.5
 endloop
endfacet
facet normal -0.0 1.0 0.0
 outer loop
  vertex -0.05 3.0 -1.0
  vertex 0.05 3.0 -1.0
  vertex 0.05 3.0 -1.5
 endloop
endfacet
facet normal 0.0 1.0 0.0
 outer loop
  vertex 0.05 3.0 -0.5
  vertex 0.05 3.0 -1.0
  vertex -0.05 3.0 -1.0
 endloop
endfacet
facet normal 0.0 0.0 -1.0
 outer loop
  vertex -0.05 1.5 -3.0
  vertex 0.05 1.0 -3.0
  vertex -0.05 1.0 -3.0
 endloop
endfacet
facet normal -0.0 0.0 -1.0
 outer loop
  vertex 0.05 3.0 -3.0
  vertex -0.05 2.5 -3.0
  vertex -0.05 3.0 -3.0
 endloop
endfacet
facet normal -0.0 -0.0 -1.0
 outer loop
  vertex 0.05 1.5 -3.0
  vertex 0.05 1.0 -3.0
  vertex -0.05 1.5 -3.0
 endloop
endfacet
facet normal 0.0 -0.0 -1.0
 outer loop
  vertex 0.05 3.0 -3.0
  vertex 0.05 2.5 -3.0
  vertex -0.05 2.5 -3.0
 endloop
endfacet
facet normal 0.0 0.0 -1.0
 outer loop
  vertex -0.05 2.0 -3.0
  vertex 0.05 1.5 -3.0
  vertex -0.05 1.5 -3.0
 endloop
endfacet
facet normal 0.0 0.0 -1.0
 outer loop
  vertex -0.05 2.5 -3.0
  vertex 0.05 2.0 -3.0
  vertex -0.05 2.0 -3.0
 endloop
endfacet
facet normal -0.0 -0.0 -1.0
 outer loop
  vertex 0.05 2.0 -3.0
  vertex 0.05 1.5 -3.0
  vertex -0.05 2.0 -3.0
 endloop
endfacet
facet normal -0.0 -0.0 -1.0
 outer loop
  vertex 0.05 2.5 -3.0
  vertex 0.05 2.0 -3.0
  vertex -0.05 2.5 -3.0
 endloop
endfacet
facet normal 0.0 0.0 1.0
 outer loop
  vertex -0.05 1.5 0.0
  vertex -0.05 1.0 0.0
  vertex 0.05 1.0 0.0
 endloop
endfacet
facet normal 0.0 0.0 1.0
 outer loop
  vertex 0.05 3.0 0.0
  vertex -0.05 3.0 0.0
  vertex -0.05 2.5 0.0
 endloop
endfacet
facet normal 0.0 0.0 1.0
 outer loop
  vertex 0.05 1.5 0.0
  vertex -0.05 1.5 0.0
  vertex 0.05 1.0 0.0
 endloop
endfacet
facet normal 0.0 0.0 1.0
 outer loop
  vertex 0.05 3.0 0.0
  vertex -0.05 2.5 0.0
  vertex 0.05 2.5 0.0
 endloop
endfacet
facet normal 0.0 0.0 1.0
 outer loop
  vertex -0.05 2.0 0.0
  vertex -0.05 1.5 0.0
  vertex 0.05 1.5 0.0
 endloop
endfacet
facet normal 0.0 0.0 1.0
 outer loop
  vertex 0.05 2.5 0.0
  vertex -0.05 2.5 0.0
  vertex -0.05 2.0 0.0
 endloop
endfacet
facet normal 0.0 0.0 1.0
 outer loop
  vertex 0.05 2.0 0.0
  vertex -0.05 2.0 0.0
  vertex 0.05 1.5 0.0
 endloop
endfacet
facet normal 0.0 0.0 1.0
 outer loop
  vertex 0.05 2.5 0.0
  vertex -0.05 2.0 0.0
  vertex 0.05 2.0 0.0
 endloop
endfacet
endsolid
