solid
facet normal -1.0 0.0 0.0
 outer loop
  vertex -0.05 -4.0 -0.5
  vertex -0.05 -4.0 0.0
  vertex -0.05 -3.633974596215561 -0.3660254037844388
 endloop
endfacet
facet normal -1.0 0.0 0.0
 outer loop
  vertex -0.05 -4.0 0.0
  vertex -0.05 -3.5 0.0
  vertex -0.05 -3.633974596215561 -0.3660254037844388
 endloop
endfacet
facet normal -1.0 0.0 0.0
 outer loop
  vertex -0.05 -4.0 -2.0
  vertex -0.05 -4.0 -1.5
  vertex -0.05 -3.633974596215561 -1.6339745962155614
 endloop
endfacet
facet normal -1.0 0.0 0.0
 outer loop
  vertex -0.05 -3.5 -2.0
  vertex -0.05 -4.0 -2.0
  vertex -0.05 -3.633974596215561 -1.6339745962155614
 endloop
endfacet
facet normal -1.0 0.0 0.0
 outer loop
  vertex -0.05 -1.5 0.0
  vertex -0.05 -1.0 0.0
  vertex -0.05 -1.3660254037844388 -0.3660254037844388
 endloop
endfacet
facet normal -1.0 0.0 -0.0
 outer loop
  vertex -0.05 -1.0 0.0
  vertex -0.05 -1.0 -0.5
  vertex -0.05 -1.3660254037844388 -0.3660254037844388
 endloop
endfacet
facet normal -1.0 0.0 -0.0
 outer loop
  vertex -0.05 -1.0 -1.5
  vertex -0.05 -1.0 -2.0
  vertex -0.05 -1.3660254037844388 -1.6339745962155614
 endloop
endfacet
facet normal -1.0 0.0 0.0
 outer loop
  vertex -0.05 -1.0 -2.0
  vertex -0.05 -1.5 -2.0
  vertex -0.05 -1.3660254037844388 -1.6339745962155614
 endloop
endfacet
facet normal -1.0 0.0 0.0
 outer loop
  vertex -0.05 -4.0 -1.5
  vertex -0.05 -4.0 -1.0
  vertex -0.05 -3.5203605949012835 -1.2049344106224769
 endloop
endfacet
facet normal -1.0 0.0 0.0
 outer loop
  vertex -0.05 -4.0 -1.5
  vertex -0.05 -3.5203605949012835 -1.2049344106224769
  vertex -0.05 -3.633974596215561 -1.6339745962155614
 endloop
endfacet
facet normal -1.0 0.0 0.0
 outer loop
  vertex -0.05 -4.0 -1.0
  vertex -0.05 -4.0 -0.5
  vertex -0.05 -3.605683494729259 -0.7132172441533844
 endloop
endfacet
facet normal -1.0 0.0 0.0
 outer loop
  vertex -0.05 -3.5203605949012835 -1.2049344106224769
  vertex -0.05 -4.0 -1.0
  vertex -0.05 -3.605683494729259 -0.7132172441533844
 endloop
endfacet
facet normal -1.0 0.0 0.0
 outer loop
  vertex -0.05 -3.605683494729259 -0.7132172441533844
  vertex -0.05 -4.0 -0.5
  vertex -0.05 -3.633974596215561 -0.3660254037844388
 endloop
endfacet
facet normal -1.0 0.0 0.0
 outer loop
  vertex -0.05 -3.5 0.0
  vertex -0.05 -3.0 0.0
  vertex -0.05 -3.277840536191219 -0.397414401289768
 endloop
endfacet
facet normal -1.0 0.0 -0.0
 outer loop
  vertex -0.05 -3.5 0.0
  vertex -0.05 -3.277840536191219 -0.397414401289768
  vertex -0.05 -3.633974596215561 -0.3660254037844388
 endloop
endfacet
facet normal -1.0 0.0 0.0
 outer loop
  vertex -0.05 -3.0 0.0
  vertex -0.05 -2.5 0.0
  vertex -0.05 -2.75 -0.4330127018922192
 endloop
endfacet
facet normal -1.0 0.0 -0.0
 outer loop
  vertex -0.05 -3.0 0.0
  vertex -0.05 -2.75 -0.4330127018922192
  vertex -0.05 -3.277840536191219 -0.397414401289768
 endloop
endfacet
facet normal -1.0 0.0 0.0
 outer loop
  vertex -0.05 -2.5 0.0
  vertex -0.05 -2.0 0.0
  vertex -0.05 -2.25 -0.3058993511390138
 endloop
endfacet
facet normal -1.0 0.0 0.0
 outer loop
  vertex -0.05 -2.75 -0.4330127018922192
  vertex -0.05 -2.5 0.0
  vertex -0.05 -2.25 -0.3058993511390138
 endloop
endfacet
facet normal -1.0 0.0 0.0
 outer loop
  vertex -0.05 -2.0 0.0
  vertex -0.05 -1.5 0.0
  vertex -0.05 -1.7975652546932412 -0.4226192787583922
 endloop
endfacet
facet normal -1.0 0.0 -0.0
 outer loop
  vertex -0.05 -2.0 0.0
  vertex -0.05 -1.7975652546932412 -0.4226192787583922
  vertex -0.05 -2.25 -0.3058993511390138
 endloop
endfacet
facet normal -1.0 0.0 0.0
 outer loop
  vertex -0.05 -1.7975652546932412 -0.4226192787583922
  vertex -0.05 -1.5 0.0
  vertex -0.05 -1.3660254037844388 -0.3660254037844388
 endloop
endfacet
facet normal -1.0 0.0 -0.0
 outer loop
  vertex -0.05 -1.0 -1.0
  vertex -0.05 -1.0 -1.5
  vertex -0.05 -1.4796394050987165 -1.2049344106224769
 endloop
endfacet
facet normal -1.0 0.0 0.0
 outer loop
  vertex -0.05 -1.4796394050987165 -1.2049344106224769
  vertex -0.05 -1.0 -1.5
  vertex -0.05 -1.3660254037844388 -1.6339745962155614
 endloop
endfacet
facet normal -1.0 0.0 -0.0
 outer loop
  vertex -0.05 -1.0 -0.5
  vertex -0.05 -1.0 -1.0
  vertex -0.05 -1.41274821041588 -0.7453858917293967
 endloop
endfacet
facet normal -1.0 -0.0 0.0
 outer loop
  vertex -0.05 -1.0 -1.0
  vertex -0.05 -1.4796394050987165 -1.2049344106224769
  vertex -0.05 -1.41274821041588 -0.7453858917293967
 endloop
endfacet
facet normal -1.0 -0.0 0.0
 outer loop
  vertex -0.05 -1.0 -0.5
  vertex -0.05 -1.41274821041588 -0.7453858917293967
  vertex -0.05 -1.3660254037844388 -0.3660254037844388
 endloop
endfacet
facet normal -1.0 0.0 0.0
 outer loop
  vertex -0.05 -3.0 -2.0
  vertex -0.05 -3.5 -2.0
  vertex -0.05 -3.2319459298868822 -1.6000757653837387
 endloop
endfacet
facet normal -1.0 0.0 0.0
 outer loop
  vertex -0.05 -3.2319459298868822 -1.6000757653837387
  vertex -0.05 -3.5 -2.0
  vertex -0.05 -3.633974596215561 -1.6339745962155614
 endloop
endfacet
facet normal -1.0 0.0 0.0
 outer loop
  vertex -0.05 -2.5 -2.0
  vertex -0.05 -3.0 -2.0
  vertex -0.05 -2.746594575994677 -1.5697398695604305
 endloop
endfacet
facet normal -1.0 0.0 0.0
 outer loop
  vertex -0.05 -2.746594575994677 -1.5697398695604305
  vertex -0.05 -3.0 -2.0
  vertex -0.05 -3.2319459298868822 -1.6000757653837387
 endloop
endfacet
facet normal -1.0 0.0 0.0
 outer loop
  vertex -0.05 -2.0 -2.0
  vertex -0.05 -2.5 -2.0
  vertex -0.05 -2.254086508806388 -1.5693466450671947
 endloop
endfacet
facet normal -1.0 0.0 0.0
 outer loop
  vertex -0.05 -2.254086508806388 -1.5693466450671947
  vertex -0.05 -2.5 -2.0
  vertex -0.05 -2.746594575994677 -1.5697398695604305
 endloop
endfacet
facet normal -1.0 0.0 0.0
 outer loop
  vertex -0.05 -1.5 -2.0
  vertex -0.05 -2.0 -2.0
  vertex -0.05 -1.7681928096096313 -1.5964683786557985
 endloop
endfacet
facet normal -1.0 0.0 0.0
 outer loop
  vertex -0.05 -2.0 -2.0
  vertex -0.05 -2.254086508806388 -1.5693466450671947
  vertex -0.05 -1.7681928096096313 -1.5964683786557985
 endloop
endfacet
facet normal -1.0 0.0 0.0
 outer loop
  vertex -0.05 -1.5 -2.0
  vertex -0.05 -1.7681928096096313 -1.5964683786557985
  vertex -0.05 -1.3660254037844388 -1.6339745962155614
 endloop
endfacet
facet normal -1.0 0.0 0.0
 outer loop
  vertex -0.05 -2.75 -0.4330127018922192
  vertex -0.05 -2.2650227239610725 -0.7324432267422558
  vertex -0.05 -2.7415614582743686 -0.8648406069676997
 endloop
endfacet
facet normal -1.0 0.0 0.0
 outer loop
  vertex -0.05 -2.2650227239610725 -0.7324432267422558
  vertex -0.05 -2.75 -0.4330127018922192
  vertex -0.05 -2.25 -0.3058993511390138
 endloop
endfacet
facet normal -1.0 0.0 0.0
 outer loop
  vertex -0.05 -3.277840536191219 -0.397414401289768
  vertex -0.05 -2.75 -0.4330127018922192
  vertex -0.05 -3.147698649384317 -0.8008708468049188
 endloop
endfacet
facet normal -1.0 0.0 -0.0
 outer loop
  vertex -0.05 -2.75 -0.4330127018922192
  vertex -0.05 -2.7415614582743686 -0.8648406069676997
  vertex -0.05 -3.147698649384317 -0.8008708468049188
 endloop
endfacet
facet normal -1.0 -0.0 0.0
 outer loop
  vertex -0.05 -2.254086508806388 -1.5693466450671947
  vertex -0.05 -2.746594575994677 -1.5697398695604305
  vertex -0.05 -2.500113514133511 -1.15601214107644
 endloop
endfacet
facet normal -1.0 0.0 0.0
 outer loop
  vertex -0.05 -2.254086508806388 -1.5693466450671947
  vertex -0.05 -2.500113514133511 -1.15601214107644
  vertex -0.05 -2.009405539968243 -1.1705546200295567
 endloop
endfacet
facet normal -1.0 0.0 0.0
 outer loop
  vertex -0.05 -2.254086508806388 -1.5693466450671947
  vertex -0.05 -2.009405539968243 -1.1705546200295567
  vertex -0.05 -1.7681928096096313 -1.5964683786557985
 endloop
endfacet
facet normal -1.0 0.0 0.0
 outer loop
  vertex -0.05 -3.5203605949012835 -1.2049344106224769
  vertex -0.05 -2.990745812209772 -1.1918057159039634
  vertex -0.05 -3.2319459298868822 -1.6000757653837387
 endloop
endfacet
facet normal -1.0 -0.0 0.0
 outer loop
  vertex -0.05 -2.990745812209772 -1.1918057159039634
  vertex -0.05 -3.5203605949012835 -1.2049344106224769
  vertex -0.05 -3.147698649384317 -0.8008708468049188
 endloop
endfacet
facet normal -1.0 0.0 0.0
 outer loop
  vertex -0.05 -3.5203605949012835 -1.2049344106224769
  vertex -0.05 -3.605683494729259 -0.7132172441533844
  vertex -0.05 -3.147698649384317 -0.8008708468049188
 endloop
endfacet
facet normal -1.0 0.0 -0.0
 outer loop
  vertex -0.05 -3.5203605949012835 -1.2049344106224769
  vertex -0.05 -3.2319459298868822 -1.6000757653837387
  vertex -0.05 -3.633974596215561 -1.6339745962155614
 endloop
endfacet
facet normal -1.0 -0.0 0.0
 outer loop
  vertex -0.05 -1.7975652546932412 -0.4226192787583922
  vertex -0.05 -2.2650227239610725 -0.7324432267422558
  vertex -0.05 -2.25 -0.3058993511390138
 endloop
endfacet
facet normal -1.0 0.0 0.0
 outer loop
  vertex -0.05 -2.2650227239610725 -0.7324432267422558
  vertex -0.05 -1.7975652546932412 -0.4226192787583922
  vertex -0.05 -1.7954224466340007 -0.8335099820566794
 endloop
endfacet
facet normal -1.0 0.0 0.0
 outer loop
  vertex -0.05 -1.41274821041588 -0.7453858917293967
  vertex -0.05 -1.7975652546932412 -0.4226192787583922
  vertex -0.05 -1.3660254037844388 -0.3660254037844388
 endloop
endfacet
facet normal -1.0 0.0 0.0
 outer loop
  vertex -0.05 -1.7975652546932412 -0.4226192787583922
  vertex -0.05 -1.41274821041588 -0.7453858917293967
  vertex -0.05 -1.7954224466340007 -0.8335099820566794
 endloop
endfacet
facet normal -1.0 0.0 0.0
 outer loop
  vertex -0.05 -2.009405539968243 -1.1705546200295567
  vertex -0.05 -1.4796394050987165 -1.2049344106224769
  vertex -0.05 -1.7681928096096313 -1.5964683786557985
 endloop
endfacet
facet normal -1.0 0.0 0.0
 outer loop
  vertex -0.05 -1.4796394050987165 -1.2049344106224769
  vertex -0.05 -2.009405539968243 -1.1705546200295567
  vertex -0.05 -1.7954224466340007 -0.8335099820566794
 endloop
endfacet
facet normal -1.0 0.0 0.0
 outer loop
  vertex -0.05 -1.7681928096096313 -1.5964683786557985
  vertex -0.05 -1.4796394050987165 -1.2049344106224769
  vertex -0.05 -1.3660254037844388 -1.6339745962155614
 endloop
endfacet
facet normal -1.0 0.0 0.0
 outer loop
  vertex -0.05 -1.41274821041588 -0.7453858917293967
  vertex -0.05 -1.4796394050987165 -1.2049344106224769
  vertex -0.05 -1.7954224466340007 -0.8335099820566794
 endloop
endfacet
facet normal -1.0 0.0 0.0
 outer loop
  vertex -0.05 -2.500113514133511 -1.15601214107644
  vertex -0.05 -2.746594575994677 -1.5697398695604305
  vertex -0.05 -2.990745812209772 -1.1918057159039634
 endloop
endfacet
facet normal -1.0 0.0 -0.0
 outer loop
  vertex -0.05 -2.990745812209772 -1.1918057159039634
  vertex -0.05 -2.746594575994677 -1.5697398695604305
  vertex -0.05 -3.2319459298868822 -1.6000757653837387
 endloop
endfacet
facet normal -1.0 0.0 0.0
 outer loop
  vertex -0.05 -2.009405539968243 -1.1705546200295567
  vertex -0.05 -2.500113514133511 -1.15601214107644
  vertex -0.05 -2.2650227239610725 -0.7324432267422558
 endloop
endfacet
facet normal -1.0 0.0 0.0
 outer loop
  vertex -0.05 -2.2650227239610725 -0.7324432267422558
  vertex -0.05 -2.500113514133511 -1.15601214107644
  vertex -0.05 -2.7415614582743686 -0.8648406069676997
 endloop
endfacet
facet normal -1.0 -0.0 0.0
 outer loop
  vertex -0.05 -2.500113514133511 -1.15601214107644
  vertex -0.05 -2.990745812209772 -1.1918057159039634
  vertex -0.05 -2.7415614582743686 -0.8648406069676997
 endloop
endfacet
facet normal -1.0 0.0 0.0
 outer loop
  vertex -0.05 -2.009405539968243 -1.1705546200295567
  vertex -0.05 -2.2650227239610725 -0.7324432267422558
  vertex -0.05 -1.7954224466340007 -0.8335099820566794
 endloop
endfacet
facet normal -1.0 -0.0 0.0
 outer loop
  vertex -0.05 -2.7415614582743686 -0.8648406069676997
  vertex -0.05 -2.990745812209772 -1.1918057159039634
  vertex -0.05 -3.147698649384317 -0.8008708468049188
 endloop
endfacet
facet normal -1.0 -0.0 0.0
 outer loop
  vertex -0.05 -3.277840536191219 -0.397414401289768
  vertex -0.05 -3.605683494729259 -0.7132172441533844
  vertex -0.05 -3.633974596215561 -0.3660254037844388
 endloop
endfacet
facet normal -1.0 0.0 0.0
 outer loop
  vertex -0.05 -3.605683494729259 -0.7132172441533844
  vertex -0.05 -3.277840536191219 -0.397414401289768
  vertex -0.05 -3.147698649384317 -0.8008708468049188
 endloop
endfacet
facet normal 1.0 0.0 0.0
 outer loop
  vertex 0.05 -4.0 -0.5
  vertex 0.05 -3.633974596215561 -0.3660254037844388
  vertex 0.05 -4.0 0.0
 endloop
endfacet
facet normal 1.0 -0.0 0.0
 outer loop
  vertex 0.05 -4.0 0.0
  vertex 0.05 -3.633974596215561 -0.3660254037844388
  vertex 0.05 -3.5 0.0
 endloop
endfacet
facet normal 1.0 0.0 0.0
 outer loop
  vertex 0.05 -4.0 -2.0
  vertex 0.05 -3.6411094931208297 -1.6599545473942678
  vertex 0.05 -4.0 -1.5
 endloop
endfacet
facet normal 1.0 0.0 0.0
 outer loop
  vertex 0.05 -3.5 -2.0
  vertex 0.05 -3.6411094931208297 -1.6599545473942678
  vertex 0.05 -4.0 -2.0
 endloop
endfacet
facet normal 1.0 -0.0 0.0
 outer loop
  vertex 0.05 -1.5 0.0
  vertex 0.05 -1.3660254037844388 -0.3660254037844388
  vertex 0.05 -1.0 0.0
 endloop
endfacet
facet normal 1.0 0.0 0.0
 outer loop
  vertex 0.05 -1.0 0.0
  vertex 0.05 -1.3660254037844388 -0.3660254037844388
  vertex 0.05 -1.0 -0.5
 endloop
endfacet
facet normal 1.0 0.0 0.0
 outer loop
  vertex 0.05 -1.0 -1.5
  vertex 0.05 -1.3660254037844388 -1.6339745962155614
  vertex 0.05 -1.0 -2.0
 endloop
endfacet
facet normal 1.0 0.0 0.0
 outer loop
  vertex 0.05 -1.0 -2.0
  vertex 0.05 -1.3660254037844388 -1.6339745962155614
  vertex 0.05 -1.5 -2.0
 endloop
endfacet
facet normal 1.0 0.0 0.0
 outer loop
  vertex 0.05 -4.0 -1.5
  vertex 0.05 -3.4910983295771136 -1.2308160429065587
  vertex 0.05 -4.0 -1.0
 endloop
endfacet
facet normal 1.0 -0.0 0.0
 outer loop
  vertex 0.05 -4.0 -1.5
  vertex 0.05 -3.6411094931208297 -1.6599545473942678
  vertex 0.05 -3.4910983295771136 -1.2308160429065587
 endloop
endfacet
facet normal 1.0 0.0 0.0
 outer loop
  vertex 0.05 -4.0 -1.0
  vertex 0.05 -3.5771581221906503 -0.7491502155966878
  vertex 0.05 -4.0 -0.5
 endloop
endfacet
facet normal 1.0 0.0 0.0
 outer loop
  vertex 0.05 -3.4910983295771136 -1.2308160429065587
  vertex 0.05 -3.5771581221906503 -0.7491502155966878
  vertex 0.05 -4.0 -1.0
 endloop
endfacet
facet normal 1.0 0.0 0.0
 outer loop
  vertex 0.05 -3.5771581221906503 -0.7491502155966878
  vertex 0.05 -3.633974596215561 -0.3660254037844388
  vertex 0.05 -4.0 -0.5
 endloop
endfacet
facet normal 1.0 -0.0 0.0
 outer loop
  vertex 0.05 -3.5 0.0
  vertex 0.05 -3.2368638483544556 -0.41130565226082716
  vertex 0.05 -3.0 0.0
 endloop
endfacet
facet normal 1.0 0.0 0.0
 outer loop
  vertex 0.05 -3.5 0.0
  vertex 0.05 -3.633974596215561 -0.3660254037844388
  vertex 0.05 -3.2368638483544556 -0.41130565226082716
 endloop
endfacet
facet normal 1.0 -0.0 0.0
 outer loop
  vertex 0.05 -3.0 0.0
  vertex 0.05 -2.706065114046907 -0.46126405315775654
  vertex 0.05 -2.5 0.0
 endloop
endfacet
facet normal 1.0 0.0 0.0
 outer loop
  vertex 0.05 -3.0 0.0
  vertex 0.05 -3.2368638483544556 -0.41130565226082716
  vertex 0.05 -2.706065114046907 -0.46126405315775654
 endloop
endfacet
facet normal 1.0 -0.0 0.0
 outer loop
  vertex 0.05 -2.5 0.0
  vertex 0.05 -2.25 -0.3349364905389025
  vertex 0.05 -2.0 0.0
 endloop
endfacet
facet normal 1.0 0.0 0.0
 outer loop
  vertex 0.05 -2.706065114046907 -0.46126405315775654
  vertex 0.05 -2.25 -0.3349364905389025
  vertex 0.05 -2.5 0.0
 endloop
endfacet
facet normal 1.0 -0.0 0.0
 outer loop
  vertex 0.05 -2.0 0.0
  vertex 0.05 -1.8083598392662559 -0.4617994284935927
  vertex 0.05 -1.5 0.0
 endloop
endfacet
facet normal 1.0 0.0 0.0
 outer loop
  vertex 0.05 -2.0 0.0
  vertex 0.05 -2.25 -0.3349364905389025
  vertex 0.05 -1.8083598392662559 -0.4617994284935927
 endloop
endfacet
facet normal 1.0 0.0 0.0
 outer loop
  vertex 0.05 -1.8083598392662559 -0.4617994284935927
  vertex 0.05 -1.3660254037844388 -0.3660254037844388
  vertex 0.05 -1.5 0.0
 endloop
endfacet
facet normal 1.0 0.0 0.0
 outer loop
  vertex 0.05 -1.0 -1.0
  vertex 0.05 -1.42270790362093 -1.2490558517600359
  vertex 0.05 -1.0 -1.5
 endloop
endfacet
facet normal 1.0 0.0 0.0
 outer loop
  vertex 0.05 -1.42270790362093 -1.2490558517600359
  vertex 0.05 -1.3660254037844388 -1.6339745962155614
  vertex 0.05 -1.0 -1.5
 endloop
endfacet
facet normal 1.0 0.0 0.0
 outer loop
  vertex 0.05 -1.0 -0.5
  vertex 0.05 -1.4218481522075894 -0.7693375672974063
  vertex 0.05 -1.0 -1.0
 endloop
endfacet
facet normal 1.0 0.0 0.0
 outer loop
  vertex 0.05 -1.4218481522075894 -0.7693375672974063
  vertex 0.05 -1.42270790362093 -1.2490558517600359
  vertex 0.05 -1.0 -1.0
 endloop
endfacet
facet normal 1.0 0.0 0.0
 outer loop
  vertex 0.05 -1.0 -0.5
  vertex 0.05 -1.3660254037844388 -0.3660254037844388
  vertex 0.05 -1.4218481522075894 -0.7693375672974063
 endloop
endfacet
facet normal 1.0 0.0 0.0
 outer loop
  vertex 0.05 -3.0 -2.0
  vertex 0.05 -3.2287189298375734 -1.620916596422193
  vertex 0.05 -3.5 -2.0
 endloop
endfacet
facet normal 1.0 0.0 0.0
 outer loop
  vertex 0.05 -3.2287189298375734 -1.620916596422193
  vertex 0.05 -3.6411094931208297 -1.6599545473942678
  vertex 0.05 -3.5 -2.0
 endloop
endfacet
facet normal 1.0 0.0 0.0
 outer loop
  vertex 0.05 -2.5 -2.0
  vertex 0.05 -2.7501512694344674 -1.600659071767721
  vertex 0.05 -3.0 -2.0
 endloop
endfacet
facet normal 1.0 0.0 0.0
 outer loop
  vertex 0.05 -2.7501512694344674 -1.600659071767721
  vertex 0.05 -3.2287189298375734 -1.620916596422193
  vertex 0.05 -3.0 -2.0
 endloop
endfacet
facet normal 1.0 0.0 0.0
 outer loop
  vertex 0.05 -2.0 -2.0
  vertex 0.05 -2.278337285646834 -1.590733469879357
  vertex 0.05 -2.5 -2.0
 endloop
endfacet
facet normal 1.0 0.0 0.0
 outer loop
  vertex 0.05 -2.278337285646834 -1.590733469879357
  vertex 0.05 -2.7501512694344674 -1.600659071767721
  vertex 0.05 -2.5 -2.0
 endloop
endfacet
facet normal 1.0 0.0 0.0
 outer loop
  vertex 0.05 -1.5 -2.0
  vertex 0.05 -1.7905974953271397 -1.5300432691105808
  vertex 0.05 -2.0 -2.0
 endloop
endfacet
facet normal 1.0 0.0 -0.0
 outer loop
  vertex 0.05 -2.0 -2.0
  vertex 0.05 -1.7905974953271397 -1.5300432691105808
  vertex 0.05 -2.278337285646834 -1.590733469879357
 endloop
endfacet
facet normal 1.0 0.0 -0.0
 outer loop
  vertex 0.05 -1.5 -2.0
  vertex 0.05 -1.3660254037844388 -1.6339745962155614
  vertex 0.05 -1.7905974953271397 -1.5300432691105808
 endloop
endfacet
facet normal 1.0 0.0 -0.0
 outer loop
  vertex 0.05 -2.2831261363228696 -0.7690554247243058
  vertex 0.05 -2.25 -0.3349364905389025
  vertex 0.05 -2.706065114046907 -0.46126405315775654
 endloop
endfacet
facet normal 1.0 0.0 0.0
 outer loop
  vertex 0.05 -2.706065114046907 -0.46126405315775654
  vertex 0.05 -2.679294941741827 -0.8767681512702519
  vertex 0.05 -2.2831261363228696 -0.7690554247243058
 endloop
endfacet
facet normal 1.0 0.0 0.0
 outer loop
  vertex 0.05 -3.2368638483544556 -0.41130565226082716
  vertex 0.05 -3.0780568747967534 -0.8406296921164496
  vertex 0.05 -2.706065114046907 -0.46126405315775654
 endloop
endfacet
facet normal 1.0 -0.0 0.0
 outer loop
  vertex 0.05 -3.0780568747967534 -0.8406296921164496
  vertex 0.05 -2.679294941741827 -0.8767681512702519
  vertex 0.05 -2.706065114046907 -0.46126405315775654
 endloop
endfacet
facet normal 1.0 0.0 0.0
 outer loop
  vertex 0.05 -2.278337285646834 -1.590733469879357
  vertex 0.05 -2.516271071482805 -1.2149356729980245
  vertex 0.05 -2.7501512694344674 -1.600659071767721
 endloop
endfacet
facet normal 1.0 0.0 0.0
 outer loop
  vertex 0.05 -1.7905974953271397 -1.5300432691105808
  vertex 0.05 -2.141669548467303 -1.2238191866687016
  vertex 0.05 -2.278337285646834 -1.590733469879357
 endloop
endfacet
facet normal 1.0 0.0 -0.0
 outer loop
  vertex 0.05 -2.278337285646834 -1.590733469879357
  vertex 0.05 -2.141669548467303 -1.2238191866687016
  vertex 0.05 -2.516271071482805 -1.2149356729980245
 endloop
endfacet
facet normal 1.0 0.0 0.0
 outer loop
  vertex 0.05 -1.4218481522075894 -0.7693375672974063
  vertex 0.05 -1.8216072131951027 -1.0122965378344022
  vertex 0.05 -1.42270790362093 -1.2490558517600359
 endloop
endfacet
facet normal 1.0 0.0 0.0
 outer loop
  vertex 0.05 -1.4218481522075894 -0.7693375672974063
  vertex 0.05 -1.8083598392662559 -0.4617994284935927
  vertex 0.05 -1.8216072131951027 -1.0122965378344022
 endloop
endfacet
facet normal 1.0 0.0 -0.0
 outer loop
  vertex 0.05 -1.4218481522075894 -0.7693375672974063
  vertex 0.05 -1.3660254037844388 -0.3660254037844388
  vertex 0.05 -1.8083598392662559 -0.4617994284935927
 endloop
endfacet
facet normal 1.0 0.0 0.0
 outer loop
  vertex 0.05 -3.0780568747967534 -0.8406296921164496
  vertex 0.05 -3.5771581221906503 -0.7491502155966878
  vertex 0.05 -3.4910983295771136 -1.2308160429065587
 endloop
endfacet
facet normal 1.0 -0.0 0.0
 outer loop
  vertex 0.05 -3.4910983295771136 -1.2308160429065587
  vertex 0.05 -2.985166307692448 -1.2510489151859978
  vertex 0.05 -3.0780568747967534 -0.8406296921164496
 endloop
endfacet
facet normal 1.0 0.0 -0.0
 outer loop
  vertex 0.05 -3.2287189298375734 -1.620916596422193
  vertex 0.05 -2.985166307692448 -1.2510489151859978
  vertex 0.05 -3.4910983295771136 -1.2308160429065587
 endloop
endfacet
facet normal 1.0 0.0 0.0
 outer loop
  vertex 0.05 -3.4910983295771136 -1.2308160429065587
  vertex 0.05 -3.6411094931208297 -1.6599545473942678
  vertex 0.05 -3.2287189298375734 -1.620916596422193
 endloop
endfacet
facet normal 1.0 0.0 0.0
 outer loop
  vertex 0.05 -1.8216072131951027 -1.0122965378344022
  vertex 0.05 -1.7905974953271397 -1.5300432691105808
  vertex 0.05 -1.42270790362093 -1.2490558517600359
 endloop
endfacet
facet normal 1.0 -0.0 0.0
 outer loop
  vertex 0.05 -1.7905974953271397 -1.5300432691105808
  vertex 0.05 -1.3660254037844388 -1.6339745962155614
  vertex 0.05 -1.42270790362093 -1.2490558517600359
 endloop
endfacet
facet normal 1.0 0.0 0.0
 outer loop
  vertex 0.05 -1.8083598392662559 -0.4617994284935927
  vertex 0.05 -2.2831261363228696 -0.7690554247243058
  vertex 0.05 -1.8216072131951027 -1.0122965378344022
 endloop
endfacet
facet normal 1.0 0.0 0.0
 outer loop
  vertex 0.05 -2.2831261363228696 -0.7690554247243058
  vertex 0.05 -2.141669548467303 -1.2238191866687016
  vertex 0.05 -1.8216072131951027 -1.0122965378344022
 endloop
endfacet
facet normal 1.0 0.0 0.0
 outer loop
  vertex 0.05 -1.8216072131951027 -1.0122965378344022
  vertex 0.05 -2.141669548467303 -1.2238191866687016
  vertex 0.05 -1.7905974953271397 -1.5300432691105808
 endloop
endfacet
facet normal 1.0 0.0 0.0
 outer loop
  vertex 0.05 -1.8083598392662559 -0.4617994284935927
  vertex 0.05 -2.25 -0.3349364905389025
  vertex 0.05 -2.2831261363228696 -0.7690554247243058
 endloop
endfacet
facet normal 1.0 -0.0 0.0
 outer loop
  vertex 0.05 -2.516271071482805 -1.2149356729980245
  vertex 0.05 -2.141669548467303 -1.2238191866687016
  vertex 0.05 -2.2831261363228696 -0.7690554247243058
 endloop
endfacet
facet normal 1.0 0.0 0.0
 outer loop
  vertex 0.05 -2.2831261363228696 -0.7690554247243058
  vertex 0.05 -2.679294941741827 -0.8767681512702519
  vertex 0.05 -2.516271071482805 -1.2149356729980245
 endloop
endfacet
facet normal 1.0 0.0 0.0
 outer loop
  vertex 0.05 -2.7501512694344674 -1.600659071767721
  vertex 0.05 -2.985166307692448 -1.2510489151859978
  vertex 0.05 -3.2287189298375734 -1.620916596422193
 endloop
endfacet
facet normal 1.0 0.0 0.0
 outer loop
  vertex 0.05 -2.516271071482805 -1.2149356729980245
  vertex 0.05 -2.985166307692448 -1.2510489151859978
  vertex 0.05 -2.7501512694344674 -1.600659071767721
 endloop
endfacet
facet normal 1.0 0.0 0.0
 outer loop
  vertex 0.05 -3.2368638483544556 -0.41130565226082716
  vertex 0.05 -3.5771581221906503 -0.7491502155966878
  vertex 0.05 -3.0780568747967534 -0.8406296921164496
 endloop
endfacet
facet normal 1.0 0.0 0.0
 outer loop
  vertex 0.05 -3.2368638483544556 -0.41130565226082716
  vertex 0.05 -3.633974596215561 -0.3660254037844388
  vertex 0.05 -3.5771581221906503 -0.7491502155966878
 endloop
endfacet
facet normal 1.0 0.0 -0.0
 outer loop
  vertex 0.05 -2.985166307692448 -1.2510489151859978
  vertex 0.05 -2.679294941741827 -0.8767681512702519
  vertex 0.05 -3.0780568747967534 -0.8406296921164496
 endloop
endfacet
facet normal 1.0 0.0 0.0
 outer loop
  vertex 0.05 -2.516271071482805 -1.2149356729980245
  vertex 0.05 -2.679294941741827 -0.8767681512702519
  vertex 0.05 -2.985166307692448 -1.2510489151859978
 endloop
endfacet
facet normal 0.0 -1.0 0.0
 outer loop
  vertex -0.05 -4.0 -0.5
  vertex 0.05 -4.0 0.0
  vertex -0.05 -4.0 0.0
 endloop
endfacet
facet normal 0.0 -1.0 0.0
 outer loop
  vertex 0.05 -4.0 -2.0
  vertex -0.05 -4.0 -1.5
  vertex -0.05 -4.0 -2.0
 endloop
endfacet
facet normal 0.0 -1.0 -0.0
 outer loop
  vertex 0.05 -4.0 0.0
  vertex -0.05 -4.0 -0.5
  vertex 0.05 -4.0 -0.5
 endloop
endfacet
facet normal -0.0 -1.0 -0.0
 outer loop
  vertex 0.05 -4.0 -1.5
  vertex -0.05 -4.0 -1.5
  vertex 0.05 -4.0 -2.0
 endloop
endfacet
facet normal 0.0 -1.0 0.0
 outer loop
  vertex 0.05 -4.0 -1.5
  vertex -0.05 -4.0 -1.0
  vertex -0.05 -4.0 -1.5
 endloop
endfacet
facet normal 0.0 -1.0 0.0
 outer loop
  vertex 0.05 -4.0 -1.0
  vertex -0.05 -4.0 -0.5
  vertex -0.05 -4.0 -1.0
 endloop
endfacet
facet normal 0.0 -1.0 0.0
 outer loop
  vertex 0.05 -4.0 -1.5
  vertex 0.05 -4.0 -1.0
  vertex -0.05 -4.0 -1.0
 endloop
endfacet
facet normal 0.0 -1.0 0.0
 outer loop
  vertex -0.05 -4.0 -0.5
  vertex 0.05 -4.0 -1.0
  vertex 0.05 -4.0 -0.5
 endloop
endfacet
facet normal 0.0 1.0 0.0
 outer loop
  vertex -0.05 -1.0 -0.5
  vertex -0.05 -1.0 0.0
  vertex 0.05 -1.0 0.0
 endloop
endfacet
facet normal 0.0 1.0 0.0
 outer loop
  vertex 0.05 -1.0 -2.0
  vertex -0.05 -1.0 -2.0
  vertex -0.05 -1.0 -1.5
 endloop
endfacet
facet normal 0.0 1.0 -0.0
 outer loop
  vertex 0.05 -1.0 -0.5
  vertex -0.05 -1.0 -0.5
  vertex 0.05 -1.0 0.0
 endloop
endfacet
facet normal 0.0 1.0 -0.0
 outer loop
  vertex 0.05 -1.0 -2.0
  vertex -0.05 -1.0 -1.5
  vertex 0.05 -1.0 -1.5
 endloop
endfacet
facet normal 0.0 1.0 0.0
 outer loop
  vertex 0.05 -1.0 -1.5
  vertex -0.05 -1.0 -1.5
  vertex -0.05 -1.0 -1.0
 endloop
endfacet
facet normal 0.0 1.0 0.0
 outer loop
  vertex 0.05 -1.0 -0.5
  vertex -0.05 -1.0 -1.0
  vertex -0.05 -1.0 -0.5
 endloop
endfacet
facet normal -0.0 1.0 0.0
 outer loop
  vertex -0.05 -1.0 -1.0
  vertex 0.05 -1.0 -1.0
  vertex 0.05 -1.0 -1.5
 endloop
endfacet
facet normal 0.0 1.0 0.0
 outer loop
  vertex 0.05 -1.0 -0.5
  vertex 0.05 -1.0 -1.0
  vertex -0.05 -1.0 -1.0
 endloop
endfacet
facet normal 0.0 0.0 -1.0
 outer loop
  vertex -0.05 -4.0 -2.0
  vertex 0.05 -3.5 -2.0
  vertex 0.05 -4.0 -2.0
 endloop
endfacet
facet normal 0.0 0.0 -1.0
 outer loop
  vertex -0.05 -4.0 -2.0
  vertex -0.05 -3.5 -2.0
  vertex 0.05 -3.5 -2.0
 endloop
endfacet
facet normal 0.0 0.0 -1.0
 outer loop
  vertex 0.05 -1.5 -2.0
  vertex -0.05 -1.0 -2.0
  vertex 0.05 -1.0 -2.0
 endloop
endfacet
facet normal 0.0 0.0 -1.0
 outer loop
  vertex -0.05 -1.0 -2.0
  vertex 0.05 -1.5 -2.0
  vertex -0.05 -1.5 -2.0
 endloop
endfacet
facet normal 0.0 0.0 -1.0
 outer loop
  vertex -0.05 -3.5 -2.0
  vertex -0.05 -3.0 -2.0
  vertex 0.05 -3.5 -2.0
 endloop
endfacet
facet normal 0.0 0.0 -1.0
 outer loop
  vertex -0.05 -3.0 -2.0
  vertex -0.05 -2.5 -2.0
  vertex 0.05 -3.0 -2.0
 endloop
endfacet
facet normal 0.0 0.0 -1.0
 outer loop
  vertex 0.05 -3.5 -2.0
  vertex -0.05 -3.0 -2.0
  vertex 0.05 -3.0 -2.0
 endloop
endfacet
facet normal 0.0 0.0 -1.0
 outer loop
  vertex -0.05 -2.5 -2.0
  vertex -0.05 -2.0 -2.0
  vertex 0.05 -2.5 -2.0
 endloop
endfacet
facet normal 0.0 0.0 -1.0
 outer loop
  vertex 0.05 -3.0 -2.0
  vertex -0.05 -2.5 -2.0
  vertex 0.05 -2.5 -2.0
 endloop
endfacet
facet normal -0.0 0.0 -1.0
 outer loop
  vertex 0.05 -1.5 -2.0
  vertex -0.05 -2.0 -2.0
  vertex -0.05 -1.5 -2.0
 endloop
endfacet
facet normal 0.0 0.0 -1.0
 outer loop
  vertex 0.05 -2.5 -2.0
  vertex -0.05 -2.0 -2.0
  vertex 0.05 -2.0 -2.0
 endloop
endfacet
facet normal 0.0 0.0 -1.0
 outer loop
  vertex -0.05 -2.0 -2.0
  vertex 0.05 -1.5 -2.0
  vertex 0.05 -2.0 -2.0
 endloop
endfacet
facet normal 0.0 0.0 1.0
 outer loop
  vertex -0.05 -3.5 0.0
  vertex -0.05 -4.0 0.0
  vertex 0.05 -4.0 0.0
 endloop
endfacet
facet normal 0.0 -0.0 1.0
 outer loop
  vertex 0.05 -1.5 0.0
  vertex 0.05 -1.0 0.0
  vertex -0.05 -1.0 0.0
 endloop
endfacet
facet normal 0.0 0.0 1.0
 outer loop
  vertex -0.05 -1.0 0.0
  vertex -0.05 -1.5 0.0
  vertex 0.05 -1.5 0.0
 endloop
endfacet
facet normal -0.0 0.0 1.0
 outer loop
  vertex -0.05 -3.5 0.0
  vertex 0.05 -4.0 0.0
  vertex 0.05 -3.5 0.0
 endloop
endfacet
facet normal 0.0 0.0 1.0
 outer loop
  vertex 0.05 -3.0 0.0
  vertex -0.05 -3.0 0.0
  vertex -0.05 -3.5 0.0
 endloop
endfacet
facet normal 0.0 0.0 1.0
 outer loop
  vertex -0.05 -3.5 0.0
  vertex 0.05 -3.5 0.0
  vertex 0.05 -3.0 0.0
 endloop
endfacet
facet normal 0.0 0.0 1.0
 outer loop
  vertex -0.05 -2.5 0.0
  vertex -0.05 -3.0 0.0
  vertex 0.05 -3.0 0.0
 endloop
endfacet
facet normal 0.0 0.0 1.0
 outer loop
  vertex -0.05 -2.5 0.0
  vertex 0.05 -2.0 0.0
  vertex -0.05 -2.0 0.0
 endloop
endfacet
facet normal 0.0 -0.0 1.0
 outer loop
  vertex 0.05 -3.0 0.0
  vertex 0.05 -2.5 0.0
  vertex -0.05 -2.5 0.0
 endloop
endfacet
facet normal 0.0 0.0 1.0
 outer loop
  vertex -0.05 -2.5 0.0
  vertex 0.05 -2.5 0.0
  vertex 0.05 -2.0 0.0
 endloop
endfacet
facet normal -0.0 0.0 1.0
 outer loop
  vertex -0.05 -1.5 0.0
  vertex -0.05 -2.0 0.0
  vertex 0.05 -1.5 0.0
 endloop
endfacet
facet normal 0.0 0.0 1.0
 outer loop
  vertex -0.05 -2.0 0.0
  vertex 0.05 -2.0 0.0
  vertex 0.05 -1.5 0.0
 endloop
endfacet
endsolid
