# Wavefront OBJ file exported by Meshmagick (Copyright Ecole Centrale de Nantes)
# File Created: Tue Nov 18 15:34:01 2025


# Vertices: 89

v        -0.707107	      -0.000000	     -10.707107
v        -0.292893	       0.643594	     -10.707107
v         0.000000	      -0.000000	     -11.000000
v        -0.292893	      -0.643594	     -10.707107
v         0.508721	       0.643349	     -10.572106
v         0.692021	      -0.000000	     -10.721877
v         0.508721	      -0.643349	     -10.572106
v        -1.000000	      -0.000000	     -10.000000
v        -0.623490	       0.781832	     -10.000000
v        -0.623490	      -0.781832	     -10.000000
v         0.222521	       0.974928	     -10.000000
v         0.900969	       0.433884	     -10.000000
v         0.900969	      -0.433884	     -10.000000
v         0.222521	      -0.974928	     -10.000000
v        -0.780561	       0.625080	      -9.286170
v        -0.805677	      -0.592355	      -9.319581
v        -1.000000	      -0.000000	      -8.888889
v        -1.000000	      -0.000000	      -1.111111
v        -0.804318	      -0.594200	      -0.681420
v        -1.000000	      -0.000000	       0.000000
v        -0.794725	       0.606969	      -0.700935
v        -0.623490	       0.781832	       0.000000
v        -0.623490	      -0.781832	       0.000000
v        -0.149785	       0.988719	      -9.295341
v         0.601892	       0.798577	      -9.429963
v         0.996731	       0.080787	      -9.179925
v         0.610101	      -0.792323	      -9.314196
v        -0.212446	      -0.977173	      -9.282389
v        -0.537037	       0.843559	      -1.666667
v        -1.000000	      -0.000000	      -2.222222
v        -0.602937	      -0.797789	      -1.577721
v        -1.000000	      -0.000000	      -3.333333
v        -0.599638	      -0.800272	      -2.780593
v        -0.554378	       0.832265	      -2.746178
v        -0.550132	       0.835078	      -3.862464
v        -1.000000	      -0.000000	      -4.444445
v        -0.537037	      -0.843559	      -3.888889
v        -1.000000	      -0.000000	      -5.555555
v        -0.419667	      -0.907678	      -5.067006
v        -0.521767	       0.853088	      -5.009429
v        -1.000000	      -0.000000	      -6.666667
v        -0.577046	      -0.816711	      -6.173216
v        -0.537037	       0.843559	      -6.111111
v        -1.000000	      -0.000000	      -7.777778
v        -0.540487	      -0.841352	      -7.202683
v        -0.537408	       0.843323	      -7.201521
v        -0.609331	      -0.792916	      -8.426629
v        -0.490507	       0.871437	      -8.246617
v         0.222521	       0.974928	       0.000000
v        -0.209498	       0.977809	      -0.726896
v         0.900969	       0.433884	       0.000000
v         0.602046	       0.798461	      -0.725939
v         0.900969	      -0.433884	       0.000000
v         0.997641	       0.068648	      -0.768643
v         0.222521	      -0.974928	       0.000000
v         0.666574	      -0.745439	      -0.769155
v        -0.209107	      -0.977893	      -0.718269
v         0.366509	       0.930414	      -3.286718
v         0.414494	       0.910052	      -4.369986
v         0.235359	      -0.971909	      -6.693967
v         0.329555	      -0.944136	      -7.748504
v         0.367571	      -0.929995	      -2.222429
v         0.051679	      -0.998664	      -3.333333
v         0.219626	       0.975584	      -1.413214
v         0.826395	       0.563090	      -1.564266
v         0.517027	       0.855969	      -8.674548
v         0.973342	       0.229357	      -8.215761
v         0.800918	      -0.598774	      -8.519117
v         0.391392	       0.920224	      -6.655083
v         0.408461	       0.912776	      -7.700427
v         0.971752	      -0.236006	      -1.683578
v         0.222521	      -0.974928	      -1.416080
v         0.356099	       0.934448	      -2.221919
v         0.185242	      -0.982693	      -8.650924
v         0.961752	       0.273922	      -2.572302
v         0.977911	       0.209023	      -3.779997
v         0.998731	       0.050364	      -5.050371
v         0.419257	       0.907868	      -5.555291
v         0.788134	      -0.615504	      -3.152809
v         0.898458	      -0.439060	      -2.407779
v         0.525746	      -0.850641	      -4.225462
v         0.524833	      -0.851205	      -5.258650
v         0.791416	      -0.611279	      -6.044312
v         0.967293	       0.253662	      -6.276379
v         0.130634	      -0.991431	      -5.847430
v         0.871570	      -0.490272	      -6.997483
v         0.921580	      -0.388188	      -7.798783
v         0.954245	       0.299025	      -7.264080
v         0.000000	      -0.000000	       0.000000



# Faces: 174

f           1           2           3
f           3           4           1
f           2           5           3
f           3           5           6
f           6           7           3
f           3           7           4
f           1           8           9
f          10           8           1
f           9           2           1
f           1           4          10
f          11           2           9
f          12           5          11
f          11           5           2
f          13           6          12
f           6           5          12
f          14           7          13
f          13           7           6
f          10           4          14
f           4           7          14
f           8          15           9
f          10          16           8
f           8          16          17
f          17          15           8
f          18          19          20
f          20          21          18
f          22          21          20
f          20          19          23
f           9          24          11
f           9          15          24
f          11          25          12
f          24          25          11
f          12          26          13
f          12          25          26
f          13          27          14
f          26          27          13
f          14          28          10
f          14          27          28
f          28          16          10
f          18          29          30
f          30          31          18
f          18          21          29
f          31          19          18
f          32          33          30
f          30          34          32
f          33          31          30
f          29          34          30
f          32          35          36
f          36          37          32
f          32          34          35
f          32          37          33
f          38          39          36
f          36          40          38
f          35          40          36
f          36          39          37
f          41          42          38
f          38          43          41
f          42          39          38
f          38          40          43
f          44          45          41
f          41          46          44
f          45          42          41
f          41          43          46
f          17          47          44
f          44          48          17
f          44          47          45
f          46          48          44
f          17          16          47
f          48          15          17
f          49          50          22
f          50          21          22
f          51          52          49
f          52          50          49
f          53          54          51
f          51          54          52
f          55          56          53
f          56          54          53
f          23          57          55
f          55          57          56
f          23          19          57
f          34          58          35
f          58          59          35
f          59          40          35
f          45          60          42
f          45          61          60
f          45          47          61
f          33          62          31
f          33          63          62
f          37          63          33
f          52          64          50
f          54          65          52
f          52          65          64
f          26          66          67
f          67          68          26
f          26          25          66
f          68          27          26
f          43          69          46
f          69          70          46
f          70          48          46
f          71          54          56
f          56          72          71
f          57          72          56
f          29          73          34
f          29          64          73
f          50          64          29
f          29          21          50
f          47          16          28
f          28          74          47
f          27          74          28
f          48          66          24
f          24          15          48
f          66          25          24
f          73          58          34
f          73          75          58
f          73          65          75
f          64          65          73
f          58          76          59
f          58          75          76
f          76          77          59
f          77          78          59
f          78          40          59
f          62          72          31
f          31          72          57
f          57          19          31
f          79          80          62
f          62          63          79
f          71          72          62
f          62          80          71
f          76          81          77
f          76          79          81
f          76          75          79
f          81          82          77
f          82          83          77
f          77          84          78
f          77          83          84
f          81          39          82
f          37          39          81
f          81          63          37
f          79          63          81
f          39          85          82
f          82          85          83
f          78          69          43
f          43          40          78
f          78          84          69
f          60          85          42
f          42          85          39
f          61          86          60
f          83          85          60
f          60          86          83
f          47          74          61
f          68          87          61
f          61          74          68
f          87          86          61
f          69          88          70
f          69          84          88
f          88          67          70
f          67          66          70
f          70          66          48
f          88          87          67
f          84          86          88
f          88          86          87
f          67          87          68
f          83          86          84
f          75          80          79
f          75          65          71
f          71          80          75
f          71          65          54
f          68          74          27
f          22          20          89
f          20          23          89
f          49          22          89
f          51          49          89
f          53          51          89
f          55          53          89
f          23          55          89
