solid OBJECT
  facet normal -1 0 -0
    outer loop
      vertex -0.050000000000000003 0.40000000000000002 -0.25
      vertex -0.050000000000000003 0.40000000000000002 0.049980000000000024
      vertex -0.050000000000000003 0.70001000000000002 0.049999999999999989
    endloop
  endfacet
  facet normal -1 0 0
    outer loop
      vertex -0.050000000000000003 0.40000000000000002 -0.25
      vertex -0.050000000000000003 0.70001000000000002 0.049999999999999989
      vertex -0.050000000000000003 0.70001000000000002 -0.25
    endloop
  endfacet
  facet normal -0 0 -1
    outer loop
      vertex -0.050000000000000003 0.40000000000000002 -0.25
      vertex -0.050000000000000003 0.70001000000000002 -0.25
      vertex 0.050000000000000003 0.69999 -0.25
    endloop
  endfacet
  facet normal -0 0 -1
    outer loop
      vertex -0.050000000000000003 0.40000000000000002 -0.25
      vertex 0.050000000000000003 0.69999 -0.25
      vertex 0.050000000000000003 0.40000000000000002 -0.25
    endloop
  endfacet
  facet normal -0 -1 0
    outer loop
      vertex -0.050000000000000003 0.40000000000000002 -0.25
      vertex 0.050000000000000003 0.40000000000000002 -0.25
      vertex 0.050000000000000003 0.40000000000000002 0.049999999999999989
    endloop
  endfacet
  facet normal 0 -1 0
    outer loop
      vertex -0.050000000000000003 0.40000000000000002 -0.25
      vertex 0.050000000000000003 0.40000000000000002 0.049999999999999989
      vertex -0.050000000000000003 0.40000000000000002 0.049980000000000024
    endloop
  endfacet
  facet normal 0 -0 -1
    outer loop
      vertex 0.050000000000000003 1.8999999999999999 -0.25
      vertex 0.050000000000000003 1.59999 -0.25
      vertex -0.050000000000000003 1.6000000000000001 -0.25
    endloop
  endfacet
  facet normal 0 -0 -1
    outer loop
      vertex 0.050000000000000003 1.8999999999999999 -0.25
      vertex -0.050000000000000003 1.6000000000000001 -0.25
      vertex -0.050000000000000003 1.8999999999999999 -0.25
    endloop
  endfacet
  facet normal 1 0 0
    outer loop
      vertex 0.050000000000000003 1.8999999999999999 -0.25
      vertex 0.050000000000000003 1.8999999999999999 0.049980000000000024
      vertex 0.050000000000000003 1.59998 0.049999999999999989
    endloop
  endfacet
  facet normal 1 0 -0
    outer loop
      vertex 0.050000000000000003 1.8999999999999999 -0.25
      vertex 0.050000000000000003 1.59998 0.049999999999999989
      vertex 0.050000000000000003 1.59999 -0.25
    endloop
  endfacet
  facet normal -0 1 -0
    outer loop
      vertex 0.050000000000000003 1.8999999999999999 -0.25
      vertex -0.050000000000000003 1.8999999999999999 -0.25
      vertex -0.050000000000000003 1.8999999999999999 0.049989999999999979
    endloop
  endfacet
  facet normal 0 1 0
    outer loop
      vertex 0.050000000000000003 1.8999999999999999 -0.25
      vertex -0.050000000000000003 1.8999999999999999 0.049989999999999979
      vertex 0.050000000000000003 1.8999999999999999 0.049980000000000024
    endloop
  endfacet
  facet normal -1 0 -0
    outer loop
      vertex -0.050000000000000003 1.8999999999999999 -0.25
      vertex -0.050000000000000003 1.6000000000000001 -0.25
      vertex -0.050000000000000003 1.59998 0.050009999999999999
    endloop
  endfacet
  facet normal -1 -0 -0
    outer loop
      vertex -0.050000000000000003 1.8999999999999999 -0.25
      vertex -0.050000000000000003 1.59998 0.050009999999999999
      vertex -0.050000000000000003 1.8999999999999999 0.049989999999999979
    endloop
  endfacet
  facet normal -1 0 -0
    outer loop
      vertex -0.050000000000000003 1.8999999999999999 1.25
      vertex -0.050000000000000003 1.8999999999999999 0.94999
      vertex -0.050000000000000003 1.6000099999999999 0.94999999999999996
    endloop
  endfacet
  facet normal -1 0 -0
    outer loop
      vertex -0.050000000000000003 1.8999999999999999 1.25
      vertex -0.050000000000000003 1.6000099999999999 0.94999999999999996
      vertex -0.050000000000000003 1.60002 1.25
    endloop
  endfacet
  facet normal 0 0 1
    outer loop
      vertex -0.050000000000000003 1.8999999999999999 1.25
      vertex -0.050000000000000003 1.60002 1.25
      vertex 0.050000000000000003 1.6000300000000001 1.25
    endloop
  endfacet
  facet normal 0 0 1
    outer loop
      vertex -0.050000000000000003 1.8999999999999999 1.25
      vertex 0.050000000000000003 1.6000300000000001 1.25
      vertex 0.050000000000000003 1.8999999999999999 1.25
    endloop
  endfacet
  facet normal 0 1 0
    outer loop
      vertex -0.050000000000000003 1.8999999999999999 1.25
      vertex 0.050000000000000003 1.8999999999999999 1.25
      vertex 0.050000000000000003 1.8999999999999999 0.94998000000000005
    endloop
  endfacet
  facet normal -0 1 0
    outer loop
      vertex -0.050000000000000003 1.8999999999999999 1.25
      vertex 0.050000000000000003 1.8999999999999999 0.94998000000000005
      vertex -0.050000000000000003 1.8999999999999999 0.94999
    endloop
  endfacet
  facet normal -0 -1 -0
    outer loop
      vertex -0.050000000000000003 0.40000000000000002 1.25
      vertex -0.050000000000000003 0.40000000000000002 0.94999
      vertex 0.050000000000000003 0.40000000000000002 0.94999999999999996
    endloop
  endfacet
  facet normal -0 -1 -0
    outer loop
      vertex -0.050000000000000003 0.40000000000000002 1.25
      vertex 0.050000000000000003 0.40000000000000002 0.94999999999999996
      vertex 0.050000000000000003 0.40000000000000002 1.25
    endloop
  endfacet
  facet normal 0 -0 1
    outer loop
      vertex -0.050000000000000003 0.40000000000000002 1.25
      vertex 0.050000000000000003 0.40000000000000002 1.25
      vertex 0.050000000000000003 0.69999999999999996 1.25
    endloop
  endfacet
  facet normal -0 0 1
    outer loop
      vertex -0.050000000000000003 0.40000000000000002 1.25
      vertex 0.050000000000000003 0.69999999999999996 1.25
      vertex -0.050000000000000003 0.69998000000000005 1.25
    endloop
  endfacet
  facet normal -1 -0 -0
    outer loop
      vertex -0.050000000000000003 0.40000000000000002 1.25
      vertex -0.050000000000000003 0.69998000000000005 1.25
      vertex -0.050000000000000003 0.69999 0.94999999999999996
    endloop
  endfacet
  facet normal -1 0 0
    outer loop
      vertex -0.050000000000000003 0.40000000000000002 1.25
      vertex -0.050000000000000003 0.69999 0.94999999999999996
      vertex -0.050000000000000003 0.40000000000000002 0.94999
    endloop
  endfacet
  facet normal 1 0 0
    outer loop
      vertex 0.050000000000000003 0.40000000000000002 1.25
      vertex 0.050000000000000003 0.40000000000000002 0.94999999999999996
      vertex 0.050000000000000003 0.69999 0.95001000000000002
    endloop
  endfacet
  facet normal 1 0 0
    outer loop
      vertex 0.050000000000000003 0.40000000000000002 1.25
      vertex 0.050000000000000003 0.69999 0.95001000000000002
      vertex 0.050000000000000003 0.69999999999999996 1.25
    endloop
  endfacet
  facet normal 1 0 -0
    outer loop
      vertex 0.050000000000000003 0.40000000000000002 -0.25
      vertex 0.050000000000000003 0.69999 -0.25
      vertex 0.050000000000000003 0.70001000000000002 0.050020000000000009
    endloop
  endfacet
  facet normal 1 -0 0
    outer loop
      vertex 0.050000000000000003 0.40000000000000002 -0.25
      vertex 0.050000000000000003 0.70001000000000002 0.050020000000000009
      vertex 0.050000000000000003 0.40000000000000002 0.049999999999999989
    endloop
  endfacet
  facet normal 1 -0 0
    outer loop
      vertex 0.050000000000000003 1.8999999999999999 1.25
      vertex 0.050000000000000003 1.6000300000000001 1.25
      vertex 0.050000000000000003 1.60002 0.94999
    endloop
  endfacet
  facet normal 1 0 -0
    outer loop
      vertex 0.050000000000000003 1.8999999999999999 1.25
      vertex 0.050000000000000003 1.60002 0.94999
      vertex 0.050000000000000003 1.8999999999999999 0.94998000000000005
    endloop
  endfacet
  facet normal 1 0 0
    outer loop
      vertex 0.050000000000000003 1.60002 0.94999
      vertex 0.050000000000000003 1.6000300000000001 1.25
      vertex 0.050000000000000003 1.30002 1.25
    endloop
  endfacet
  facet normal 1 -0 -0
    outer loop
      vertex 0.050000000000000003 1.60002 0.94999
      vertex 0.050000000000000003 1.30002 1.25
      vertex 0.050000000000000003 1.30002 0.94999999999999996
    endloop
  endfacet
  facet normal 1 0 0
    outer loop
      vertex 0.050000000000000003 1.60002 0.94999
      vertex 0.050000000000000003 1.6000099999999999 0.64996999999999994
      vertex 0.050000000000000003 1.8999999999999999 0.64998
    endloop
  endfacet
  facet normal 1 0 0
    outer loop
      vertex 0.050000000000000003 1.60002 0.94999
      vertex 0.050000000000000003 1.8999999999999999 0.64998
      vertex 0.050000000000000003 1.8999999999999999 0.94998000000000005
    endloop
  endfacet
  facet normal 1 0 -0
    outer loop
      vertex 0.050000000000000003 1.60002 0.94999
      vertex 0.050000000000000003 1.30002 0.94999999999999996
      vertex 0.050000000000000003 1.3000100000000001 0.65000999999999998
    endloop
  endfacet
  facet normal 1 0 -0
    outer loop
      vertex 0.050000000000000003 1.60002 0.94999
      vertex 0.050000000000000003 1.3000100000000001 0.65000999999999998
      vertex 0.050000000000000003 1.6000099999999999 0.64996999999999994
    endloop
  endfacet
  facet normal 1 0 0
    outer loop
      vertex 0.050000000000000003 1.3000100000000001 0.65000999999999998
      vertex 0.050000000000000003 1.30002 0.94999999999999996
      vertex 0.050000000000000003 1.0000199999999999 0.94999999999999996
    endloop
  endfacet
  facet normal 1 -0 -0
    outer loop
      vertex 0.050000000000000003 1.3000100000000001 0.65000999999999998
      vertex 0.050000000000000003 1.0000199999999999 0.94999999999999996
      vertex 0.050000000000000003 0.99997999999999998 0.65002000000000004
    endloop
  endfacet
  facet normal 1 0 0
    outer loop
      vertex 0.050000000000000003 1.3000100000000001 0.65000999999999998
      vertex 0.050000000000000003 1.29999 0.35002
      vertex 0.050000000000000003 1.6000099999999999 0.34997
    endloop
  endfacet
  facet normal 1 0 0
    outer loop
      vertex 0.050000000000000003 1.3000100000000001 0.65000999999999998
      vertex 0.050000000000000003 1.6000099999999999 0.34997
      vertex 0.050000000000000003 1.6000099999999999 0.64996999999999994
    endloop
  endfacet
  facet normal 1 0 -0
    outer loop
      vertex 0.050000000000000003 1.3000100000000001 0.65000999999999998
      vertex 0.050000000000000003 0.99997999999999998 0.65002000000000004
      vertex 0.050000000000000003 0.99999000000000005 0.35003000000000001
    endloop
  endfacet
  facet normal 1 0 -0
    outer loop
      vertex 0.050000000000000003 1.3000100000000001 0.65000999999999998
      vertex 0.050000000000000003 0.99999000000000005 0.35003000000000001
      vertex 0.050000000000000003 1.29999 0.35002
    endloop
  endfacet
  facet normal 1 -0 -0
    outer loop
      vertex 0.050000000000000003 0.99999000000000005 0.35003000000000001
      vertex 0.050000000000000003 0.99997999999999998 0.65002000000000004
      vertex 0.050000000000000003 0.69999 0.65002000000000004
    endloop
  endfacet
  facet normal 1 -0 0
    outer loop
      vertex 0.050000000000000003 0.99999000000000005 0.35003000000000001
      vertex 0.050000000000000003 0.69999 0.65002000000000004
      vertex 0.050000000000000003 0.69999999999999996 0.35000999999999999
    endloop
  endfacet
  facet normal 1 0 0
    outer loop
      vertex 0.050000000000000003 0.99999000000000005 0.35003000000000001
      vertex 0.050000000000000003 1 0.049999999999999989
      vertex 0.050000000000000003 1.2999700000000001 0.050020000000000009
    endloop
  endfacet
  facet normal 1 0 0
    outer loop
      vertex 0.050000000000000003 0.99999000000000005 0.35003000000000001
      vertex 0.050000000000000003 1.2999700000000001 0.050020000000000009
      vertex 0.050000000000000003 1.29999 0.35002
    endloop
  endfacet
  facet normal 1 0 -0
    outer loop
      vertex 0.050000000000000003 0.99999000000000005 0.35003000000000001
      vertex 0.050000000000000003 0.69999999999999996 0.35000999999999999
      vertex 0.050000000000000003 0.70001000000000002 0.050020000000000009
    endloop
  endfacet
  facet normal 1 0 0
    outer loop
      vertex 0.050000000000000003 0.99999000000000005 0.35003000000000001
      vertex 0.050000000000000003 0.70001000000000002 0.050020000000000009
      vertex 0.050000000000000003 1 0.049999999999999989
    endloop
  endfacet
  facet normal 1 0 0
    outer loop
      vertex 0.050000000000000003 1 0.049999999999999989
      vertex 0.050000000000000003 1 -0.25
      vertex 0.050000000000000003 1.29999 -0.25
    endloop
  endfacet
  facet normal 1 0 0
    outer loop
      vertex 0.050000000000000003 1 0.049999999999999989
      vertex 0.050000000000000003 1.29999 -0.25
      vertex 0.050000000000000003 1.2999700000000001 0.050020000000000009
    endloop
  endfacet
  facet normal 1 -0 0
    outer loop
      vertex 0.050000000000000003 1 0.049999999999999989
      vertex 0.050000000000000003 0.70001000000000002 0.050020000000000009
      vertex 0.050000000000000003 0.69999 -0.25
    endloop
  endfacet
  facet normal 1 0 -0
    outer loop
      vertex 0.050000000000000003 1 0.049999999999999989
      vertex 0.050000000000000003 0.69999 -0.25
      vertex 0.050000000000000003 1 -0.25
    endloop
  endfacet
  facet normal -0 -0 -1
    outer loop
      vertex 0.050000000000000003 1 -0.25
      vertex -0.050000000000000003 1.0000100000000001 -0.25
      vertex -0.050000000000000003 1.3 -0.25
    endloop
  endfacet
  facet normal -0 0 -1
    outer loop
      vertex 0.050000000000000003 1 -0.25
      vertex -0.050000000000000003 1.3 -0.25
      vertex 0.050000000000000003 1.29999 -0.25
    endloop
  endfacet
  facet normal 0 -0 -1
    outer loop
      vertex 0.050000000000000003 1 -0.25
      vertex 0.050000000000000003 0.69999 -0.25
      vertex -0.050000000000000003 0.70001000000000002 -0.25
    endloop
  endfacet
  facet normal 0 0 -1
    outer loop
      vertex 0.050000000000000003 1 -0.25
      vertex -0.050000000000000003 0.70001000000000002 -0.25
      vertex -0.050000000000000003 1.0000100000000001 -0.25
    endloop
  endfacet
  facet normal -1 -0 0
    outer loop
      vertex -0.050000000000000003 1.0000100000000001 -0.25
      vertex -0.050000000000000003 1.0000199999999999 0.050030000000000019
      vertex -0.050000000000000003 1.3 0.049999999999999989
    endloop
  endfacet
  facet normal -1 -0 0
    outer loop
      vertex -0.050000000000000003 1.0000100000000001 -0.25
      vertex -0.050000000000000003 1.3 0.049999999999999989
      vertex -0.050000000000000003 1.3 -0.25
    endloop
  endfacet
  facet normal -1 -0 -0
    outer loop
      vertex -0.050000000000000003 1.0000100000000001 -0.25
      vertex -0.050000000000000003 0.70001000000000002 -0.25
      vertex -0.050000000000000003 0.70001000000000002 0.049999999999999989
    endloop
  endfacet
  facet normal -1 -0 0
    outer loop
      vertex -0.050000000000000003 1.0000100000000001 -0.25
      vertex -0.050000000000000003 0.70001000000000002 0.049999999999999989
      vertex -0.050000000000000003 1.0000199999999999 0.050030000000000019
    endloop
  endfacet
  facet normal -1 0 -0
    outer loop
      vertex -0.050000000000000003 1.0000199999999999 0.050030000000000019
      vertex -0.050000000000000003 1 0.35000999999999999
      vertex -0.050000000000000003 1.3 0.35000999999999999
    endloop
  endfacet
  facet normal -1 -0 -0
    outer loop
      vertex -0.050000000000000003 1.0000199999999999 0.050030000000000019
      vertex -0.050000000000000003 1.3 0.35000999999999999
      vertex -0.050000000000000003 1.3 0.049999999999999989
    endloop
  endfacet
  facet normal -1 0 -0
    outer loop
      vertex -0.050000000000000003 1.0000199999999999 0.050030000000000019
      vertex -0.050000000000000003 0.70001000000000002 0.049999999999999989
      vertex -0.050000000000000003 0.69999 0.34998000000000001
    endloop
  endfacet
  facet normal -1 0 0
    outer loop
      vertex -0.050000000000000003 1.0000199999999999 0.050030000000000019
      vertex -0.050000000000000003 0.69999 0.34998000000000001
      vertex -0.050000000000000003 1 0.35000999999999999
    endloop
  endfacet
  facet normal -1 -0 0
    outer loop
      vertex -0.050000000000000003 0.69999 0.34998000000000001
      vertex -0.050000000000000003 0.69999999999999996 0.64999000000000007
      vertex -0.050000000000000003 0.99999000000000005 0.65000999999999998
    endloop
  endfacet
  facet normal -1 -0 0
    outer loop
      vertex -0.050000000000000003 0.69999 0.34998000000000001
      vertex -0.050000000000000003 0.99999000000000005 0.65000999999999998
      vertex -0.050000000000000003 1 0.35000999999999999
    endloop
  endfacet
  facet normal -1 0 0
    outer loop
      vertex -0.050000000000000003 0.69999 0.34998000000000001
      vertex -0.050000000000000003 0.40000000000000002 0.34998000000000001
      vertex -0.050000000000000003 0.40000000000000002 0.64999000000000007
    endloop
  endfacet
  facet normal -1 -0 0
    outer loop
      vertex -0.050000000000000003 0.69999 0.34998000000000001
      vertex -0.050000000000000003 0.40000000000000002 0.64999000000000007
      vertex -0.050000000000000003 0.69999999999999996 0.64999000000000007
    endloop
  endfacet
  facet normal -1 -0 0
    outer loop
      vertex -0.050000000000000003 0.69999 0.34998000000000001
      vertex -0.050000000000000003 0.70001000000000002 0.049999999999999989
      vertex -0.050000000000000003 0.40000000000000002 0.049980000000000024
    endloop
  endfacet
  facet normal -1 0 -0
    outer loop
      vertex -0.050000000000000003 0.69999 0.34998000000000001
      vertex -0.050000000000000003 0.40000000000000002 0.049980000000000024
      vertex -0.050000000000000003 0.40000000000000002 0.34998000000000001
    endloop
  endfacet
  facet normal 0 -1 -0
    outer loop
      vertex -0.050000000000000003 0.40000000000000002 0.34998000000000001
      vertex 0.050000000000000003 0.40000000000000002 0.34999000000000002
      vertex 0.050000000000000003 0.40000000000000002 0.65000000000000002
    endloop
  endfacet
  facet normal 0 -1 0
    outer loop
      vertex -0.050000000000000003 0.40000000000000002 0.34998000000000001
      vertex 0.050000000000000003 0.40000000000000002 0.65000000000000002
      vertex -0.050000000000000003 0.40000000000000002 0.64999000000000007
    endloop
  endfacet
  facet normal -0 -1 -0
    outer loop
      vertex -0.050000000000000003 0.40000000000000002 0.34998000000000001
      vertex -0.050000000000000003 0.40000000000000002 0.049980000000000024
      vertex 0.050000000000000003 0.40000000000000002 0.049999999999999989
    endloop
  endfacet
  facet normal -0 -1 0
    outer loop
      vertex -0.050000000000000003 0.40000000000000002 0.34998000000000001
      vertex 0.050000000000000003 0.40000000000000002 0.049999999999999989
      vertex 0.050000000000000003 0.40000000000000002 0.34999000000000002
    endloop
  endfacet
  facet normal 1 -0 0
    outer loop
      vertex 0.050000000000000003 0.40000000000000002 0.34999000000000002
      vertex 0.050000000000000003 0.69999999999999996 0.35000999999999999
      vertex 0.050000000000000003 0.69999 0.65002000000000004
    endloop
  endfacet
  facet normal 1 0 -0
    outer loop
      vertex 0.050000000000000003 0.40000000000000002 0.34999000000000002
      vertex 0.050000000000000003 0.69999 0.65002000000000004
      vertex 0.050000000000000003 0.40000000000000002 0.65000000000000002
    endloop
  endfacet
  facet normal 1 0 -0
    outer loop
      vertex 0.050000000000000003 0.40000000000000002 0.34999000000000002
      vertex 0.050000000000000003 0.40000000000000002 0.049999999999999989
      vertex 0.050000000000000003 0.70001000000000002 0.050020000000000009
    endloop
  endfacet
  facet normal 1 0 0
    outer loop
      vertex 0.050000000000000003 0.40000000000000002 0.34999000000000002
      vertex 0.050000000000000003 0.70001000000000002 0.050020000000000009
      vertex 0.050000000000000003 0.69999999999999996 0.35000999999999999
    endloop
  endfacet
  facet normal 0 -1 0
    outer loop
      vertex 0.050000000000000003 0.40000000000000002 0.65000000000000002
      vertex 0.050000000000000003 0.40000000000000002 0.94999999999999996
      vertex -0.050000000000000003 0.40000000000000002 0.94999
    endloop
  endfacet
  facet normal 0 -1 -0
    outer loop
      vertex 0.050000000000000003 0.40000000000000002 0.65000000000000002
      vertex -0.050000000000000003 0.40000000000000002 0.94999
      vertex -0.050000000000000003 0.40000000000000002 0.64999000000000007
    endloop
  endfacet
  facet normal 1 -0 0
    outer loop
      vertex 0.050000000000000003 0.40000000000000002 0.65000000000000002
      vertex 0.050000000000000003 0.69999 0.65002000000000004
      vertex 0.050000000000000003 0.69999 0.95001000000000002
    endloop
  endfacet
  facet normal 1 0 -0
    outer loop
      vertex 0.050000000000000003 0.40000000000000002 0.65000000000000002
      vertex 0.050000000000000003 0.69999 0.95001000000000002
      vertex 0.050000000000000003 0.40000000000000002 0.94999999999999996
    endloop
  endfacet
  facet normal -1 -0 0
    outer loop
      vertex -0.050000000000000003 0.40000000000000002 0.64999000000000007
      vertex -0.050000000000000003 0.40000000000000002 0.94999
      vertex -0.050000000000000003 0.69999 0.94999999999999996
    endloop
  endfacet
  facet normal -1 -0 0
    outer loop
      vertex -0.050000000000000003 0.40000000000000002 0.64999000000000007
      vertex -0.050000000000000003 0.69999 0.94999999999999996
      vertex -0.050000000000000003 0.69999999999999996 0.64999000000000007
    endloop
  endfacet
  facet normal -1 -0 0
    outer loop
      vertex -0.050000000000000003 0.69999999999999996 0.64999000000000007
      vertex -0.050000000000000003 0.69999 0.94999999999999996
      vertex -0.050000000000000003 0.99999000000000005 0.95001000000000002
    endloop
  endfacet
  facet normal -1 -0 0
    outer loop
      vertex -0.050000000000000003 0.69999999999999996 0.64999000000000007
      vertex -0.050000000000000003 0.99999000000000005 0.95001000000000002
      vertex -0.050000000000000003 0.99999000000000005 0.65000999999999998
    endloop
  endfacet
  facet normal -1 -0 0
    outer loop
      vertex -0.050000000000000003 0.99999000000000005 0.95001000000000002
      vertex -0.050000000000000003 1.0000100000000001 1.25
      vertex -0.050000000000000003 1.3000100000000001 1.25
    endloop
  endfacet
  facet normal -1 0 0
    outer loop
      vertex -0.050000000000000003 0.99999000000000005 0.95001000000000002
      vertex -0.050000000000000003 1.3000100000000001 1.25
      vertex -0.050000000000000003 1.29999 0.95001000000000002
    endloop
  endfacet
  facet normal -1 0 0
    outer loop
      vertex -0.050000000000000003 0.99999000000000005 0.95001000000000002
      vertex -0.050000000000000003 0.69999 0.94999999999999996
      vertex -0.050000000000000003 0.69998000000000005 1.25
    endloop
  endfacet
  facet normal -1 0 -0
    outer loop
      vertex -0.050000000000000003 0.99999000000000005 0.95001000000000002
      vertex -0.050000000000000003 0.69998000000000005 1.25
      vertex -0.050000000000000003 1.0000100000000001 1.25
    endloop
  endfacet
  facet normal -1 0 0
    outer loop
      vertex -0.050000000000000003 0.99999000000000005 0.95001000000000002
      vertex -0.050000000000000003 1.29999 0.95001000000000002
      vertex -0.050000000000000003 1.3000100000000001 0.65000999999999998
    endloop
  endfacet
  facet normal -1 0 0
    outer loop
      vertex -0.050000000000000003 0.99999000000000005 0.95001000000000002
      vertex -0.050000000000000003 1.3000100000000001 0.65000999999999998
      vertex -0.050000000000000003 0.99999000000000005 0.65000999999999998
    endloop
  endfacet
  facet normal -1 0 -0
    outer loop
      vertex -0.050000000000000003 1.3000100000000001 0.65000999999999998
      vertex -0.050000000000000003 1.29999 0.95001000000000002
      vertex -0.050000000000000003 1.6000099999999999 0.94999999999999996
    endloop
  endfacet
  facet normal -1 0 0
    outer loop
      vertex -0.050000000000000003 1.3000100000000001 0.65000999999999998
      vertex -0.050000000000000003 1.6000099999999999 0.94999999999999996
      vertex -0.050000000000000003 1.6000099999999999 0.65000999999999998
    endloop
  endfacet
  facet normal -1 0 -0
    outer loop
      vertex -0.050000000000000003 1.3000100000000001 0.65000999999999998
      vertex -0.050000000000000003 1.3 0.35000999999999999
      vertex -0.050000000000000003 1 0.35000999999999999
    endloop
  endfacet
  facet normal -1 0 -0
    outer loop
      vertex -0.050000000000000003 1.3000100000000001 0.65000999999999998
      vertex -0.050000000000000003 1 0.35000999999999999
      vertex -0.050000000000000003 0.99999000000000005 0.65000999999999998
    endloop
  endfacet
  facet normal -1 -0 0
    outer loop
      vertex -0.050000000000000003 1.3000100000000001 0.65000999999999998
      vertex -0.050000000000000003 1.6000099999999999 0.65000999999999998
      vertex -0.050000000000000003 1.59999 0.34999999999999998
    endloop
  endfacet
  facet normal -1 0 0
    outer loop
      vertex -0.050000000000000003 1.3000100000000001 0.65000999999999998
      vertex -0.050000000000000003 1.59999 0.34999999999999998
      vertex -0.050000000000000003 1.3 0.35000999999999999
    endloop
  endfacet
  facet normal -1 -0 0
    outer loop
      vertex -0.050000000000000003 1.59999 0.34999999999999998
      vertex -0.050000000000000003 1.6000099999999999 0.65000999999999998
      vertex -0.050000000000000003 1.8999999999999999 0.64999000000000007
    endloop
  endfacet
  facet normal -1 -0 -0
    outer loop
      vertex -0.050000000000000003 1.59999 0.34999999999999998
      vertex -0.050000000000000003 1.8999999999999999 0.64999000000000007
      vertex -0.050000000000000003 1.8999999999999999 0.34998000000000001
    endloop
  endfacet
  facet normal -1 0 0
    outer loop
      vertex -0.050000000000000003 1.59999 0.34999999999999998
      vertex -0.050000000000000003 1.59998 0.050009999999999999
      vertex -0.050000000000000003 1.3 0.049999999999999989
    endloop
  endfacet
  facet normal -1 0 0
    outer loop
      vertex -0.050000000000000003 1.59999 0.34999999999999998
      vertex -0.050000000000000003 1.3 0.049999999999999989
      vertex -0.050000000000000003 1.3 0.35000999999999999
    endloop
  endfacet
  facet normal -1 0 0
    outer loop
      vertex -0.050000000000000003 1.59999 0.34999999999999998
      vertex -0.050000000000000003 1.8999999999999999 0.34998000000000001
      vertex -0.050000000000000003 1.8999999999999999 0.049989999999999979
    endloop
  endfacet
  facet normal -1 0 0
    outer loop
      vertex -0.050000000000000003 1.59999 0.34999999999999998
      vertex -0.050000000000000003 1.8999999999999999 0.049989999999999979
      vertex -0.050000000000000003 1.59998 0.050009999999999999
    endloop
  endfacet
  facet normal 0 1 -0
    outer loop
      vertex -0.050000000000000003 1.8999999999999999 0.64999000000000007
      vertex -0.050000000000000003 1.8999999999999999 0.94999
      vertex 0.050000000000000003 1.8999999999999999 0.94998000000000005
    endloop
  endfacet
  facet normal 0 1 0
    outer loop
      vertex -0.050000000000000003 1.8999999999999999 0.64999000000000007
      vertex 0.050000000000000003 1.8999999999999999 0.94998000000000005
      vertex 0.050000000000000003 1.8999999999999999 0.64998
    endloop
  endfacet
  facet normal -1 -0 -0
    outer loop
      vertex -0.050000000000000003 1.8999999999999999 0.64999000000000007
      vertex -0.050000000000000003 1.6000099999999999 0.65000999999999998
      vertex -0.050000000000000003 1.6000099999999999 0.94999999999999996
    endloop
  endfacet
  facet normal -1 -0 0
    outer loop
      vertex -0.050000000000000003 1.8999999999999999 0.64999000000000007
      vertex -0.050000000000000003 1.6000099999999999 0.94999999999999996
      vertex -0.050000000000000003 1.8999999999999999 0.94999
    endloop
  endfacet
  facet normal 0 1 0
    outer loop
      vertex -0.050000000000000003 1.8999999999999999 0.64999000000000007
      vertex 0.050000000000000003 1.8999999999999999 0.64998
      vertex 0.050000000000000003 1.8999999999999999 0.34997
    endloop
  endfacet
  facet normal -0 1 0
    outer loop
      vertex -0.050000000000000003 1.8999999999999999 0.64999000000000007
      vertex 0.050000000000000003 1.8999999999999999 0.34997
      vertex -0.050000000000000003 1.8999999999999999 0.34998000000000001
    endloop
  endfacet
  facet normal 1 -0 -0
    outer loop
      vertex 0.050000000000000003 1.8999999999999999 0.34997
      vertex 0.050000000000000003 1.8999999999999999 0.64998
      vertex 0.050000000000000003 1.6000099999999999 0.64996999999999994
    endloop
  endfacet
  facet normal 1 -0 -0
    outer loop
      vertex 0.050000000000000003 1.8999999999999999 0.34997
      vertex 0.050000000000000003 1.6000099999999999 0.64996999999999994
      vertex 0.050000000000000003 1.6000099999999999 0.34997
    endloop
  endfacet
  facet normal -0 1 0
    outer loop
      vertex 0.050000000000000003 1.8999999999999999 0.34997
      vertex 0.050000000000000003 1.8999999999999999 0.049980000000000024
      vertex -0.050000000000000003 1.8999999999999999 0.049989999999999979
    endloop
  endfacet
  facet normal -0 1 -0
    outer loop
      vertex 0.050000000000000003 1.8999999999999999 0.34997
      vertex -0.050000000000000003 1.8999999999999999 0.049989999999999979
      vertex -0.050000000000000003 1.8999999999999999 0.34998000000000001
    endloop
  endfacet
  facet normal 1 0 -0
    outer loop
      vertex 0.050000000000000003 1.8999999999999999 0.34997
      vertex 0.050000000000000003 1.6000099999999999 0.34997
      vertex 0.050000000000000003 1.59998 0.049999999999999989
    endloop
  endfacet
  facet normal 1 0 -0
    outer loop
      vertex 0.050000000000000003 1.8999999999999999 0.34997
      vertex 0.050000000000000003 1.59998 0.049999999999999989
      vertex 0.050000000000000003 1.8999999999999999 0.049980000000000024
    endloop
  endfacet
  facet normal -0 0 1
    outer loop
      vertex -0.050000000000000003 1.0000100000000001 1.25
      vertex 0.050000000000000003 1.0000199999999999 1.25
      vertex 0.050000000000000003 1.30002 1.25
    endloop
  endfacet
  facet normal 0 -0 1
    outer loop
      vertex -0.050000000000000003 1.0000100000000001 1.25
      vertex 0.050000000000000003 1.30002 1.25
      vertex -0.050000000000000003 1.3000100000000001 1.25
    endloop
  endfacet
  facet normal 0 0 1
    outer loop
      vertex -0.050000000000000003 1.0000100000000001 1.25
      vertex -0.050000000000000003 0.69998000000000005 1.25
      vertex 0.050000000000000003 0.69999999999999996 1.25
    endloop
  endfacet
  facet normal 0 -0 1
    outer loop
      vertex -0.050000000000000003 1.0000100000000001 1.25
      vertex 0.050000000000000003 0.69999999999999996 1.25
      vertex 0.050000000000000003 1.0000199999999999 1.25
    endloop
  endfacet
  facet normal 1 -0 -0
    outer loop
      vertex 0.050000000000000003 1.0000199999999999 1.25
      vertex 0.050000000000000003 1.0000199999999999 0.94999999999999996
      vertex 0.050000000000000003 1.30002 0.94999999999999996
    endloop
  endfacet
  facet normal 1 0 0
    outer loop
      vertex 0.050000000000000003 1.0000199999999999 1.25
      vertex 0.050000000000000003 1.30002 0.94999999999999996
      vertex 0.050000000000000003 1.30002 1.25
    endloop
  endfacet
  facet normal 1 0 -0
    outer loop
      vertex 0.050000000000000003 1.0000199999999999 1.25
      vertex 0.050000000000000003 0.69999999999999996 1.25
      vertex 0.050000000000000003 0.69999 0.95001000000000002
    endloop
  endfacet
  facet normal 1 0 -0
    outer loop
      vertex 0.050000000000000003 1.0000199999999999 1.25
      vertex 0.050000000000000003 0.69999 0.95001000000000002
      vertex 0.050000000000000003 1.0000199999999999 0.94999999999999996
    endloop
  endfacet
  facet normal -0 0 1
    outer loop
      vertex -0.050000000000000003 1.3000100000000001 1.25
      vertex 0.050000000000000003 1.30002 1.25
      vertex 0.050000000000000003 1.6000300000000001 1.25
    endloop
  endfacet
  facet normal -0 0 1
    outer loop
      vertex -0.050000000000000003 1.3000100000000001 1.25
      vertex 0.050000000000000003 1.6000300000000001 1.25
      vertex -0.050000000000000003 1.60002 1.25
    endloop
  endfacet
  facet normal -1 0 0
    outer loop
      vertex -0.050000000000000003 1.3000100000000001 1.25
      vertex -0.050000000000000003 1.60002 1.25
      vertex -0.050000000000000003 1.6000099999999999 0.94999999999999996
    endloop
  endfacet
  facet normal -1 0 0
    outer loop
      vertex -0.050000000000000003 1.3000100000000001 1.25
      vertex -0.050000000000000003 1.6000099999999999 0.94999999999999996
      vertex -0.050000000000000003 1.29999 0.95001000000000002
    endloop
  endfacet
  facet normal -1 -0 -0
    outer loop
      vertex -0.050000000000000003 1.3 0.049999999999999989
      vertex -0.050000000000000003 1.59998 0.050009999999999999
      vertex -0.050000000000000003 1.6000000000000001 -0.25
    endloop
  endfacet
  facet normal -1 0 0
    outer loop
      vertex -0.050000000000000003 1.3 0.049999999999999989
      vertex -0.050000000000000003 1.6000000000000001 -0.25
      vertex -0.050000000000000003 1.3 -0.25
    endloop
  endfacet
  facet normal -0 0 -1
    outer loop
      vertex -0.050000000000000003 1.3 -0.25
      vertex -0.050000000000000003 1.6000000000000001 -0.25
      vertex 0.050000000000000003 1.59999 -0.25
    endloop
  endfacet
  facet normal -0 -0 -1
    outer loop
      vertex -0.050000000000000003 1.3 -0.25
      vertex 0.050000000000000003 1.59999 -0.25
      vertex 0.050000000000000003 1.29999 -0.25
    endloop
  endfacet
  facet normal 1 -0 0
    outer loop
      vertex 0.050000000000000003 1.29999 -0.25
      vertex 0.050000000000000003 1.59999 -0.25
      vertex 0.050000000000000003 1.59998 0.049999999999999989
    endloop
  endfacet
  facet normal 1 -0 0
    outer loop
      vertex 0.050000000000000003 1.29999 -0.25
      vertex 0.050000000000000003 1.59998 0.049999999999999989
      vertex 0.050000000000000003 1.2999700000000001 0.050020000000000009
    endloop
  endfacet
  facet normal 1 0 0
    outer loop
      vertex 0.050000000000000003 1.2999700000000001 0.050020000000000009
      vertex 0.050000000000000003 1.59998 0.049999999999999989
      vertex 0.050000000000000003 1.6000099999999999 0.34997
    endloop
  endfacet
  facet normal 1 0 -0
    outer loop
      vertex 0.050000000000000003 1.2999700000000001 0.050020000000000009
      vertex 0.050000000000000003 1.6000099999999999 0.34997
      vertex 0.050000000000000003 1.29999 0.35002
    endloop
  endfacet
  facet normal 1 0 0
    outer loop
      vertex 0.050000000000000003 0.69999 0.65002000000000004
      vertex 0.050000000000000003 0.99997999999999998 0.65002000000000004
      vertex 0.050000000000000003 1.0000199999999999 0.94999999999999996
    endloop
  endfacet
  facet normal 1 -0 0
    outer loop
      vertex 0.050000000000000003 0.69999 0.65002000000000004
      vertex 0.050000000000000003 1.0000199999999999 0.94999999999999996
      vertex 0.050000000000000003 0.69999 0.95001000000000002
    endloop
  endfacet
  facet normal -1 -0 -0
    outer loop
      vertex -0.050000000000000003 -0.40000000000000002 -0.25
      vertex -0.050000000000000003 -0.70001000000000002 -0.25
      vertex -0.050000000000000003 -0.70001000000000002 0.049999999999999989
    endloop
  endfacet
  facet normal -1 -0 -0
    outer loop
      vertex -0.050000000000000003 -0.40000000000000002 -0.25
      vertex -0.050000000000000003 -0.70001000000000002 0.049999999999999989
      vertex -0.050000000000000003 -0.40000000000000002 0.049980000000000024
    endloop
  endfacet
  facet normal -0 -0 -1
    outer loop
      vertex -0.050000000000000003 -0.40000000000000002 -0.25
      vertex 0.050000000000000003 -0.40000000000000002 -0.25
      vertex 0.050000000000000003 -0.69999 -0.25
    endloop
  endfacet
  facet normal 0 0 -1
    outer loop
      vertex -0.050000000000000003 -0.40000000000000002 -0.25
      vertex 0.050000000000000003 -0.69999 -0.25
      vertex -0.050000000000000003 -0.70001000000000002 -0.25
    endloop
  endfacet
  facet normal 0 1 0
    outer loop
      vertex -0.050000000000000003 -0.40000000000000002 -0.25
      vertex -0.050000000000000003 -0.40000000000000002 0.049980000000000024
      vertex 0.050000000000000003 -0.40000000000000002 0.049999999999999989
    endloop
  endfacet
  facet normal 0 1 -0
    outer loop
      vertex -0.050000000000000003 -0.40000000000000002 -0.25
      vertex 0.050000000000000003 -0.40000000000000002 0.049999999999999989
      vertex 0.050000000000000003 -0.40000000000000002 -0.25
    endloop
  endfacet
  facet normal 0 0 -1
    outer loop
      vertex 0.050000000000000003 -1.8999999999999999 -0.25
      vertex -0.050000000000000003 -1.8999999999999999 -0.25
      vertex -0.050000000000000003 -1.6000000000000001 -0.25
    endloop
  endfacet
  facet normal -0 -0 -1
    outer loop
      vertex 0.050000000000000003 -1.8999999999999999 -0.25
      vertex -0.050000000000000003 -1.6000000000000001 -0.25
      vertex 0.050000000000000003 -1.59999 -0.25
    endloop
  endfacet
  facet normal 1 0 0
    outer loop
      vertex 0.050000000000000003 -1.8999999999999999 -0.25
      vertex 0.050000000000000003 -1.59999 -0.25
      vertex 0.050000000000000003 -1.59998 0.049999999999999989
    endloop
  endfacet
  facet normal 1 -0 0
    outer loop
      vertex 0.050000000000000003 -1.8999999999999999 -0.25
      vertex 0.050000000000000003 -1.59998 0.049999999999999989
      vertex 0.050000000000000003 -1.8999999999999999 0.049980000000000024
    endloop
  endfacet
  facet normal 0 -1 0
    outer loop
      vertex 0.050000000000000003 -1.8999999999999999 -0.25
      vertex 0.050000000000000003 -1.8999999999999999 0.049980000000000024
      vertex -0.050000000000000003 -1.8999999999999999 0.049989999999999979
    endloop
  endfacet
  facet normal 0 -1 0
    outer loop
      vertex 0.050000000000000003 -1.8999999999999999 -0.25
      vertex -0.050000000000000003 -1.8999999999999999 0.049989999999999979
      vertex -0.050000000000000003 -1.8999999999999999 -0.25
    endloop
  endfacet
  facet normal -1 0 -0
    outer loop
      vertex -0.050000000000000003 -1.8999999999999999 -0.25
      vertex -0.050000000000000003 -1.8999999999999999 0.049989999999999979
      vertex -0.050000000000000003 -1.59998 0.050009999999999999
    endloop
  endfacet
  facet normal -1 0 0
    outer loop
      vertex -0.050000000000000003 -1.8999999999999999 -0.25
      vertex -0.050000000000000003 -1.59998 0.050009999999999999
      vertex -0.050000000000000003 -1.6000000000000001 -0.25
    endloop
  endfacet
  facet normal -1 -0 -0
    outer loop
      vertex -0.050000000000000003 -1.8999999999999999 1.25
      vertex -0.050000000000000003 -1.60002 1.25
      vertex -0.050000000000000003 -1.6000099999999999 0.94999999999999996
    endloop
  endfacet
  facet normal -1 0 0
    outer loop
      vertex -0.050000000000000003 -1.8999999999999999 1.25
      vertex -0.050000000000000003 -1.6000099999999999 0.94999999999999996
      vertex -0.050000000000000003 -1.8999999999999999 0.94999
    endloop
  endfacet
  facet normal 0 -0 1
    outer loop
      vertex -0.050000000000000003 -1.8999999999999999 1.25
      vertex 0.050000000000000003 -1.8999999999999999 1.25
      vertex 0.050000000000000003 -1.6000300000000001 1.25
    endloop
  endfacet
  facet normal -0 0 1
    outer loop
      vertex -0.050000000000000003 -1.8999999999999999 1.25
      vertex 0.050000000000000003 -1.6000300000000001 1.25
      vertex -0.050000000000000003 -1.60002 1.25
    endloop
  endfacet
  facet normal -0 -1 0
    outer loop
      vertex -0.050000000000000003 -1.8999999999999999 1.25
      vertex -0.050000000000000003 -1.8999999999999999 0.94999
      vertex 0.050000000000000003 -1.8999999999999999 0.94998000000000005
    endloop
  endfacet
  facet normal -0 -1 -0
    outer loop
      vertex -0.050000000000000003 -1.8999999999999999 1.25
      vertex 0.050000000000000003 -1.8999999999999999 0.94998000000000005
      vertex 0.050000000000000003 -1.8999999999999999 1.25
    endloop
  endfacet
  facet normal 0 1 0
    outer loop
      vertex -0.050000000000000003 -0.40000000000000002 1.25
      vertex 0.050000000000000003 -0.40000000000000002 1.25
      vertex 0.050000000000000003 -0.40000000000000002 0.94999999999999996
    endloop
  endfacet
  facet normal -0 1 -0
    outer loop
      vertex -0.050000000000000003 -0.40000000000000002 1.25
      vertex 0.050000000000000003 -0.40000000000000002 0.94999999999999996
      vertex -0.050000000000000003 -0.40000000000000002 0.94999
    endloop
  endfacet
  facet normal 0 0 1
    outer loop
      vertex -0.050000000000000003 -0.40000000000000002 1.25
      vertex -0.050000000000000003 -0.69998000000000005 1.25
      vertex 0.050000000000000003 -0.69999999999999996 1.25
    endloop
  endfacet
  facet normal 0 0 1
    outer loop
      vertex -0.050000000000000003 -0.40000000000000002 1.25
      vertex 0.050000000000000003 -0.69999999999999996 1.25
      vertex 0.050000000000000003 -0.40000000000000002 1.25
    endloop
  endfacet
  facet normal -1 0 -0
    outer loop
      vertex -0.050000000000000003 -0.40000000000000002 1.25
      vertex -0.050000000000000003 -0.40000000000000002 0.94999
      vertex -0.050000000000000003 -0.69999 0.94999999999999996
    endloop
  endfacet
  facet normal -1 0 -0
    outer loop
      vertex -0.050000000000000003 -0.40000000000000002 1.25
      vertex -0.050000000000000003 -0.69999 0.94999999999999996
      vertex -0.050000000000000003 -0.69998000000000005 1.25
    endloop
  endfacet
  facet normal 1 0 -0
    outer loop
      vertex 0.050000000000000003 -0.40000000000000002 1.25
      vertex 0.050000000000000003 -0.69999999999999996 1.25
      vertex 0.050000000000000003 -0.69999 0.95001000000000002
    endloop
  endfacet
  facet normal 1 0 -0
    outer loop
      vertex 0.050000000000000003 -0.40000000000000002 1.25
      vertex 0.050000000000000003 -0.69999 0.95001000000000002
      vertex 0.050000000000000003 -0.40000000000000002 0.94999999999999996
    endloop
  endfacet
  facet normal 1 -0 0
    outer loop
      vertex 0.050000000000000003 -0.40000000000000002 -0.25
      vertex 0.050000000000000003 -0.40000000000000002 0.049999999999999989
      vertex 0.050000000000000003 -0.70001000000000002 0.050020000000000009
    endloop
  endfacet
  facet normal 1 -0 -0
    outer loop
      vertex 0.050000000000000003 -0.40000000000000002 -0.25
      vertex 0.050000000000000003 -0.70001000000000002 0.050020000000000009
      vertex 0.050000000000000003 -0.69999 -0.25
    endloop
  endfacet
  facet normal 1 0 0
    outer loop
      vertex 0.050000000000000003 -1.8999999999999999 1.25
      vertex 0.050000000000000003 -1.8999999999999999 0.94998000000000005
      vertex 0.050000000000000003 -1.60002 0.94999
    endloop
  endfacet
  facet normal 1 0 0
    outer loop
      vertex 0.050000000000000003 -1.8999999999999999 1.25
      vertex 0.050000000000000003 -1.60002 0.94999
      vertex 0.050000000000000003 -1.6000300000000001 1.25
    endloop
  endfacet
  facet normal 1 -0 0
    outer loop
      vertex 0.050000000000000003 -1.60002 0.94999
      vertex 0.050000000000000003 -1.30002 0.94999999999999996
      vertex 0.050000000000000003 -1.30002 1.25
    endloop
  endfacet
  facet normal 1 0 0
    outer loop
      vertex 0.050000000000000003 -1.60002 0.94999
      vertex 0.050000000000000003 -1.30002 1.25
      vertex 0.050000000000000003 -1.6000300000000001 1.25
    endloop
  endfacet
  facet normal 1 0 -0
    outer loop
      vertex 0.050000000000000003 -1.60002 0.94999
      vertex 0.050000000000000003 -1.8999999999999999 0.94998000000000005
      vertex 0.050000000000000003 -1.8999999999999999 0.64998
    endloop
  endfacet
  facet normal 1 0 0
    outer loop
      vertex 0.050000000000000003 -1.60002 0.94999
      vertex 0.050000000000000003 -1.8999999999999999 0.64998
      vertex 0.050000000000000003 -1.6000099999999999 0.64996999999999994
    endloop
  endfacet
  facet normal 1 0 0
    outer loop
      vertex 0.050000000000000003 -1.60002 0.94999
      vertex 0.050000000000000003 -1.6000099999999999 0.64996999999999994
      vertex 0.050000000000000003 -1.3000100000000001 0.65000999999999998
    endloop
  endfacet
  facet normal 1 0 0
    outer loop
      vertex 0.050000000000000003 -1.60002 0.94999
      vertex 0.050000000000000003 -1.3000100000000001 0.65000999999999998
      vertex 0.050000000000000003 -1.30002 0.94999999999999996
    endloop
  endfacet
  facet normal 1 -0 0
    outer loop
      vertex 0.050000000000000003 -1.3000100000000001 0.65000999999999998
      vertex 0.050000000000000003 -0.99997999999999998 0.65002000000000004
      vertex 0.050000000000000003 -1.0000199999999999 0.94999999999999996
    endloop
  endfacet
  facet normal 1 0 0
    outer loop
      vertex 0.050000000000000003 -1.3000100000000001 0.65000999999999998
      vertex 0.050000000000000003 -1.0000199999999999 0.94999999999999996
      vertex 0.050000000000000003 -1.30002 0.94999999999999996
    endloop
  endfacet
  facet normal 1 0 -0
    outer loop
      vertex 0.050000000000000003 -1.3000100000000001 0.65000999999999998
      vertex 0.050000000000000003 -1.6000099999999999 0.64996999999999994
      vertex 0.050000000000000003 -1.6000099999999999 0.34997
    endloop
  endfacet
  facet normal 1 0 0
    outer loop
      vertex 0.050000000000000003 -1.3000100000000001 0.65000999999999998
      vertex 0.050000000000000003 -1.6000099999999999 0.34997
      vertex 0.050000000000000003 -1.29999 0.35002
    endloop
  endfacet
  facet normal 1 0 0
    outer loop
      vertex 0.050000000000000003 -1.3000100000000001 0.65000999999999998
      vertex 0.050000000000000003 -1.29999 0.35002
      vertex 0.050000000000000003 -0.99999000000000005 0.35003000000000001
    endloop
  endfacet
  facet normal 1 0 0
    outer loop
      vertex 0.050000000000000003 -1.3000100000000001 0.65000999999999998
      vertex 0.050000000000000003 -0.99999000000000005 0.35003000000000001
      vertex 0.050000000000000003 -0.99997999999999998 0.65002000000000004
    endloop
  endfacet
  facet normal 1 0 -0
    outer loop
      vertex 0.050000000000000003 -0.99999000000000005 0.35003000000000001
      vertex 0.050000000000000003 -0.69999999999999996 0.35000999999999999
      vertex 0.050000000000000003 -0.69999 0.65002000000000004
    endloop
  endfacet
  facet normal 1 -0 0
    outer loop
      vertex 0.050000000000000003 -0.99999000000000005 0.35003000000000001
      vertex 0.050000000000000003 -0.69999 0.65002000000000004
      vertex 0.050000000000000003 -0.99997999999999998 0.65002000000000004
    endloop
  endfacet
  facet normal 1 0 -0
    outer loop
      vertex 0.050000000000000003 -0.99999000000000005 0.35003000000000001
      vertex 0.050000000000000003 -1.29999 0.35002
      vertex 0.050000000000000003 -1.2999700000000001 0.050020000000000009
    endloop
  endfacet
  facet normal 1 0 -0
    outer loop
      vertex 0.050000000000000003 -0.99999000000000005 0.35003000000000001
      vertex 0.050000000000000003 -1.2999700000000001 0.050020000000000009
      vertex 0.050000000000000003 -1 0.049999999999999989
    endloop
  endfacet
  facet normal 1 0 0
    outer loop
      vertex 0.050000000000000003 -0.99999000000000005 0.35003000000000001
      vertex 0.050000000000000003 -1 0.049999999999999989
      vertex 0.050000000000000003 -0.70001000000000002 0.050020000000000009
    endloop
  endfacet
  facet normal 1 0 0
    outer loop
      vertex 0.050000000000000003 -0.99999000000000005 0.35003000000000001
      vertex 0.050000000000000003 -0.70001000000000002 0.050020000000000009
      vertex 0.050000000000000003 -0.69999999999999996 0.35000999999999999
    endloop
  endfacet
  facet normal 1 -0 0
    outer loop
      vertex 0.050000000000000003 -1 0.049999999999999989
      vertex 0.050000000000000003 -1.2999700000000001 0.050020000000000009
      vertex 0.050000000000000003 -1.29999 -0.25
    endloop
  endfacet
  facet normal 1 0 0
    outer loop
      vertex 0.050000000000000003 -1 0.049999999999999989
      vertex 0.050000000000000003 -1.29999 -0.25
      vertex 0.050000000000000003 -1 -0.25
    endloop
  endfacet
  facet normal 1 -0 -0
    outer loop
      vertex 0.050000000000000003 -1 0.049999999999999989
      vertex 0.050000000000000003 -1 -0.25
      vertex 0.050000000000000003 -0.69999 -0.25
    endloop
  endfacet
  facet normal 1 0 0
    outer loop
      vertex 0.050000000000000003 -1 0.049999999999999989
      vertex 0.050000000000000003 -0.69999 -0.25
      vertex 0.050000000000000003 -0.70001000000000002 0.050020000000000009
    endloop
  endfacet
  facet normal 0 0 -1
    outer loop
      vertex 0.050000000000000003 -1 -0.25
      vertex 0.050000000000000003 -1.29999 -0.25
      vertex -0.050000000000000003 -1.3 -0.25
    endloop
  endfacet
  facet normal 0 -0 -1
    outer loop
      vertex 0.050000000000000003 -1 -0.25
      vertex -0.050000000000000003 -1.3 -0.25
      vertex -0.050000000000000003 -1.0000100000000001 -0.25
    endloop
  endfacet
  facet normal 0 0 -1
    outer loop
      vertex 0.050000000000000003 -1 -0.25
      vertex -0.050000000000000003 -1.0000100000000001 -0.25
      vertex -0.050000000000000003 -0.70001000000000002 -0.25
    endloop
  endfacet
  facet normal -0 -0 -1
    outer loop
      vertex 0.050000000000000003 -1 -0.25
      vertex -0.050000000000000003 -0.70001000000000002 -0.25
      vertex 0.050000000000000003 -0.69999 -0.25
    endloop
  endfacet
  facet normal -1 0 0
    outer loop
      vertex -0.050000000000000003 -1.0000100000000001 -0.25
      vertex -0.050000000000000003 -1.3 -0.25
      vertex -0.050000000000000003 -1.3 0.049999999999999989
    endloop
  endfacet
  facet normal -1 -0 -0
    outer loop
      vertex -0.050000000000000003 -1.0000100000000001 -0.25
      vertex -0.050000000000000003 -1.3 0.049999999999999989
      vertex -0.050000000000000003 -1.0000199999999999 0.050030000000000019
    endloop
  endfacet
  facet normal -1 -0 0
    outer loop
      vertex -0.050000000000000003 -1.0000100000000001 -0.25
      vertex -0.050000000000000003 -1.0000199999999999 0.050030000000000019
      vertex -0.050000000000000003 -0.70001000000000002 0.049999999999999989
    endloop
  endfacet
  facet normal -1 0 0
    outer loop
      vertex -0.050000000000000003 -1.0000100000000001 -0.25
      vertex -0.050000000000000003 -0.70001000000000002 0.049999999999999989
      vertex -0.050000000000000003 -0.70001000000000002 -0.25
    endloop
  endfacet
  facet normal -1 0 0
    outer loop
      vertex -0.050000000000000003 -1.0000199999999999 0.050030000000000019
      vertex -0.050000000000000003 -1.3 0.049999999999999989
      vertex -0.050000000000000003 -1.3 0.35000999999999999
    endloop
  endfacet
  facet normal -1 0 -0
    outer loop
      vertex -0.050000000000000003 -1.0000199999999999 0.050030000000000019
      vertex -0.050000000000000003 -1.3 0.35000999999999999
      vertex -0.050000000000000003 -1 0.35000999999999999
    endloop
  endfacet
  facet normal -1 0 -0
    outer loop
      vertex -0.050000000000000003 -1.0000199999999999 0.050030000000000019
      vertex -0.050000000000000003 -1 0.35000999999999999
      vertex -0.050000000000000003 -0.69999 0.34998000000000001
    endloop
  endfacet
  facet normal -1 0 0
    outer loop
      vertex -0.050000000000000003 -1.0000199999999999 0.050030000000000019
      vertex -0.050000000000000003 -0.69999 0.34998000000000001
      vertex -0.050000000000000003 -0.70001000000000002 0.049999999999999989
    endloop
  endfacet
  facet normal -1 -0 -0
    outer loop
      vertex -0.050000000000000003 -0.69999 0.34998000000000001
      vertex -0.050000000000000003 -1 0.35000999999999999
      vertex -0.050000000000000003 -0.99999000000000005 0.65000999999999998
    endloop
  endfacet
  facet normal -1 -0 0
    outer loop
      vertex -0.050000000000000003 -0.69999 0.34998000000000001
      vertex -0.050000000000000003 -0.99999000000000005 0.65000999999999998
      vertex -0.050000000000000003 -0.69999999999999996 0.64999000000000007
    endloop
  endfacet
  facet normal -1 -0 0
    outer loop
      vertex -0.050000000000000003 -0.69999 0.34998000000000001
      vertex -0.050000000000000003 -0.69999999999999996 0.64999000000000007
      vertex -0.050000000000000003 -0.40000000000000002 0.64999000000000007
    endloop
  endfacet
  facet normal -1 -0 0
    outer loop
      vertex -0.050000000000000003 -0.69999 0.34998000000000001
      vertex -0.050000000000000003 -0.40000000000000002 0.64999000000000007
      vertex -0.050000000000000003 -0.40000000000000002 0.34998000000000001
    endloop
  endfacet
  facet normal -1 -0 -0
    outer loop
      vertex -0.050000000000000003 -0.69999 0.34998000000000001
      vertex -0.050000000000000003 -0.40000000000000002 0.34998000000000001
      vertex -0.050000000000000003 -0.40000000000000002 0.049980000000000024
    endloop
  endfacet
  facet normal -1 0 0
    outer loop
      vertex -0.050000000000000003 -0.69999 0.34998000000000001
      vertex -0.050000000000000003 -0.40000000000000002 0.049980000000000024
      vertex -0.050000000000000003 -0.70001000000000002 0.049999999999999989
    endloop
  endfacet
  facet normal 0 1 0
    outer loop
      vertex -0.050000000000000003 -0.40000000000000002 0.34998000000000001
      vertex -0.050000000000000003 -0.40000000000000002 0.64999000000000007
      vertex 0.050000000000000003 -0.40000000000000002 0.65000000000000002
    endloop
  endfacet
  facet normal 0 1 -0
    outer loop
      vertex -0.050000000000000003 -0.40000000000000002 0.34998000000000001
      vertex 0.050000000000000003 -0.40000000000000002 0.65000000000000002
      vertex 0.050000000000000003 -0.40000000000000002 0.34999000000000002
    endloop
  endfacet
  facet normal 0 1 0
    outer loop
      vertex -0.050000000000000003 -0.40000000000000002 0.34998000000000001
      vertex 0.050000000000000003 -0.40000000000000002 0.34999000000000002
      vertex 0.050000000000000003 -0.40000000000000002 0.049999999999999989
    endloop
  endfacet
  facet normal -0 1 -0
    outer loop
      vertex -0.050000000000000003 -0.40000000000000002 0.34998000000000001
      vertex 0.050000000000000003 -0.40000000000000002 0.049999999999999989
      vertex -0.050000000000000003 -0.40000000000000002 0.049980000000000024
    endloop
  endfacet
  facet normal 1 0 0
    outer loop
      vertex 0.050000000000000003 -0.40000000000000002 0.34999000000000002
      vertex 0.050000000000000003 -0.40000000000000002 0.65000000000000002
      vertex 0.050000000000000003 -0.69999 0.65002000000000004
    endloop
  endfacet
  facet normal 1 -0 -0
    outer loop
      vertex 0.050000000000000003 -0.40000000000000002 0.34999000000000002
      vertex 0.050000000000000003 -0.69999 0.65002000000000004
      vertex 0.050000000000000003 -0.69999999999999996 0.35000999999999999
    endloop
  endfacet
  facet normal 1 0 -0
    outer loop
      vertex 0.050000000000000003 -0.40000000000000002 0.34999000000000002
      vertex 0.050000000000000003 -0.69999999999999996 0.35000999999999999
      vertex 0.050000000000000003 -0.70001000000000002 0.050020000000000009
    endloop
  endfacet
  facet normal 1 0 -0
    outer loop
      vertex 0.050000000000000003 -0.40000000000000002 0.34999000000000002
      vertex 0.050000000000000003 -0.70001000000000002 0.050020000000000009
      vertex 0.050000000000000003 -0.40000000000000002 0.049999999999999989
    endloop
  endfacet
  facet normal -0 1 -0
    outer loop
      vertex 0.050000000000000003 -0.40000000000000002 0.65000000000000002
      vertex -0.050000000000000003 -0.40000000000000002 0.64999000000000007
      vertex -0.050000000000000003 -0.40000000000000002 0.94999
    endloop
  endfacet
  facet normal 0 1 0
    outer loop
      vertex 0.050000000000000003 -0.40000000000000002 0.65000000000000002
      vertex -0.050000000000000003 -0.40000000000000002 0.94999
      vertex 0.050000000000000003 -0.40000000000000002 0.94999999999999996
    endloop
  endfacet
  facet normal 1 0 0
    outer loop
      vertex 0.050000000000000003 -0.40000000000000002 0.65000000000000002
      vertex 0.050000000000000003 -0.40000000000000002 0.94999999999999996
      vertex 0.050000000000000003 -0.69999 0.95001000000000002
    endloop
  endfacet
  facet normal 1 -0 -0
    outer loop
      vertex 0.050000000000000003 -0.40000000000000002 0.65000000000000002
      vertex 0.050000000000000003 -0.69999 0.95001000000000002
      vertex 0.050000000000000003 -0.69999 0.65002000000000004
    endloop
  endfacet
  facet normal -1 0 0
    outer loop
      vertex -0.050000000000000003 -0.40000000000000002 0.64999000000000007
      vertex -0.050000000000000003 -0.69999999999999996 0.64999000000000007
      vertex -0.050000000000000003 -0.69999 0.94999999999999996
    endloop
  endfacet
  facet normal -1 -0 0
    outer loop
      vertex -0.050000000000000003 -0.40000000000000002 0.64999000000000007
      vertex -0.050000000000000003 -0.69999 0.94999999999999996
      vertex -0.050000000000000003 -0.40000000000000002 0.94999
    endloop
  endfacet
  facet normal -1 -0 -0
    outer loop
      vertex -0.050000000000000003 -0.69999999999999996 0.64999000000000007
      vertex -0.050000000000000003 -0.99999000000000005 0.65000999999999998
      vertex -0.050000000000000003 -0.99999000000000005 0.95001000000000002
    endloop
  endfacet
  facet normal -1 -0 0
    outer loop
      vertex -0.050000000000000003 -0.69999999999999996 0.64999000000000007
      vertex -0.050000000000000003 -0.99999000000000005 0.95001000000000002
      vertex -0.050000000000000003 -0.69999 0.94999999999999996
    endloop
  endfacet
  facet normal -1 0 -0
    outer loop
      vertex -0.050000000000000003 -0.99999000000000005 0.95001000000000002
      vertex -0.050000000000000003 -1.29999 0.95001000000000002
      vertex -0.050000000000000003 -1.3000100000000001 1.25
    endloop
  endfacet
  facet normal -1 -0 -0
    outer loop
      vertex -0.050000000000000003 -0.99999000000000005 0.95001000000000002
      vertex -0.050000000000000003 -1.3000100000000001 1.25
      vertex -0.050000000000000003 -1.0000100000000001 1.25
    endloop
  endfacet
  facet normal -1 0 -0
    outer loop
      vertex -0.050000000000000003 -0.99999000000000005 0.95001000000000002
      vertex -0.050000000000000003 -1.0000100000000001 1.25
      vertex -0.050000000000000003 -0.69998000000000005 1.25
    endloop
  endfacet
  facet normal -1 0 -0
    outer loop
      vertex -0.050000000000000003 -0.99999000000000005 0.95001000000000002
      vertex -0.050000000000000003 -0.69998000000000005 1.25
      vertex -0.050000000000000003 -0.69999 0.94999999999999996
    endloop
  endfacet
  facet normal -1 -0 0
    outer loop
      vertex -0.050000000000000003 -0.99999000000000005 0.95001000000000002
      vertex -0.050000000000000003 -0.99999000000000005 0.65000999999999998
      vertex -0.050000000000000003 -1.3000100000000001 0.65000999999999998
    endloop
  endfacet
  facet normal -1 0 -0
    outer loop
      vertex -0.050000000000000003 -0.99999000000000005 0.95001000000000002
      vertex -0.050000000000000003 -1.3000100000000001 0.65000999999999998
      vertex -0.050000000000000003 -1.29999 0.95001000000000002
    endloop
  endfacet
  facet normal -1 -0 -0
    outer loop
      vertex -0.050000000000000003 -1.3000100000000001 0.65000999999999998
      vertex -0.050000000000000003 -1.6000099999999999 0.65000999999999998
      vertex -0.050000000000000003 -1.6000099999999999 0.94999999999999996
    endloop
  endfacet
  facet normal -1 0 -0
    outer loop
      vertex -0.050000000000000003 -1.3000100000000001 0.65000999999999998
      vertex -0.050000000000000003 -1.6000099999999999 0.94999999999999996
      vertex -0.050000000000000003 -1.29999 0.95001000000000002
    endloop
  endfacet
  facet normal -1 0 0
    outer loop
      vertex -0.050000000000000003 -1.3000100000000001 0.65000999999999998
      vertex -0.050000000000000003 -0.99999000000000005 0.65000999999999998
      vertex -0.050000000000000003 -1 0.35000999999999999
    endloop
  endfacet
  facet normal -1 0 0
    outer loop
      vertex -0.050000000000000003 -1.3000100000000001 0.65000999999999998
      vertex -0.050000000000000003 -1 0.35000999999999999
      vertex -0.050000000000000003 -1.3 0.35000999999999999
    endloop
  endfacet
  facet normal -1 0 0
    outer loop
      vertex -0.050000000000000003 -1.3000100000000001 0.65000999999999998
      vertex -0.050000000000000003 -1.3 0.35000999999999999
      vertex -0.050000000000000003 -1.59999 0.34999999999999998
    endloop
  endfacet
  facet normal -1 0 -0
    outer loop
      vertex -0.050000000000000003 -1.3000100000000001 0.65000999999999998
      vertex -0.050000000000000003 -1.59999 0.34999999999999998
      vertex -0.050000000000000003 -1.6000099999999999 0.65000999999999998
    endloop
  endfacet
  facet normal -1 0 0
    outer loop
      vertex -0.050000000000000003 -1.59999 0.34999999999999998
      vertex -0.050000000000000003 -1.8999999999999999 0.34998000000000001
      vertex -0.050000000000000003 -1.8999999999999999 0.64999000000000007
    endloop
  endfacet
  facet normal -1 -0 -0
    outer loop
      vertex -0.050000000000000003 -1.59999 0.34999999999999998
      vertex -0.050000000000000003 -1.8999999999999999 0.64999000000000007
      vertex -0.050000000000000003 -1.6000099999999999 0.65000999999999998
    endloop
  endfacet
  facet normal -1 -0 -0
    outer loop
      vertex -0.050000000000000003 -1.59999 0.34999999999999998
      vertex -0.050000000000000003 -1.3 0.35000999999999999
      vertex -0.050000000000000003 -1.3 0.049999999999999989
    endloop
  endfacet
  facet normal -1 0 0
    outer loop
      vertex -0.050000000000000003 -1.59999 0.34999999999999998
      vertex -0.050000000000000003 -1.3 0.049999999999999989
      vertex -0.050000000000000003 -1.59998 0.050009999999999999
    endloop
  endfacet
  facet normal -1 -0 0
    outer loop
      vertex -0.050000000000000003 -1.59999 0.34999999999999998
      vertex -0.050000000000000003 -1.59998 0.050009999999999999
      vertex -0.050000000000000003 -1.8999999999999999 0.049989999999999979
    endloop
  endfacet
  facet normal -1 0 -0
    outer loop
      vertex -0.050000000000000003 -1.59999 0.34999999999999998
      vertex -0.050000000000000003 -1.8999999999999999 0.049989999999999979
      vertex -0.050000000000000003 -1.8999999999999999 0.34998000000000001
    endloop
  endfacet
  facet normal -0 -1 0
    outer loop
      vertex -0.050000000000000003 -1.8999999999999999 0.64999000000000007
      vertex 0.050000000000000003 -1.8999999999999999 0.64998
      vertex 0.050000000000000003 -1.8999999999999999 0.94998000000000005
    endloop
  endfacet
  facet normal 0 -1 -0
    outer loop
      vertex -0.050000000000000003 -1.8999999999999999 0.64999000000000007
      vertex 0.050000000000000003 -1.8999999999999999 0.94998000000000005
      vertex -0.050000000000000003 -1.8999999999999999 0.94999
    endloop
  endfacet
  facet normal -1 -0 0
    outer loop
      vertex -0.050000000000000003 -1.8999999999999999 0.64999000000000007
      vertex -0.050000000000000003 -1.8999999999999999 0.94999
      vertex -0.050000000000000003 -1.6000099999999999 0.94999999999999996
    endloop
  endfacet
  facet normal -1 -0 0
    outer loop
      vertex -0.050000000000000003 -1.8999999999999999 0.64999000000000007
      vertex -0.050000000000000003 -1.6000099999999999 0.94999999999999996
      vertex -0.050000000000000003 -1.6000099999999999 0.65000999999999998
    endloop
  endfacet
  facet normal -0 -1 0
    outer loop
      vertex -0.050000000000000003 -1.8999999999999999 0.64999000000000007
      vertex -0.050000000000000003 -1.8999999999999999 0.34998000000000001
      vertex 0.050000000000000003 -1.8999999999999999 0.34997
    endloop
  endfacet
  facet normal 0 -1 0
    outer loop
      vertex -0.050000000000000003 -1.8999999999999999 0.64999000000000007
      vertex 0.050000000000000003 -1.8999999999999999 0.34997
      vertex 0.050000000000000003 -1.8999999999999999 0.64998
    endloop
  endfacet
  facet normal 1 0 -0
    outer loop
      vertex 0.050000000000000003 -1.8999999999999999 0.34997
      vertex 0.050000000000000003 -1.6000099999999999 0.34997
      vertex 0.050000000000000003 -1.6000099999999999 0.64996999999999994
    endloop
  endfacet
  facet normal 1 -0 0
    outer loop
      vertex 0.050000000000000003 -1.8999999999999999 0.34997
      vertex 0.050000000000000003 -1.6000099999999999 0.64996999999999994
      vertex 0.050000000000000003 -1.8999999999999999 0.64998
    endloop
  endfacet
  facet normal 0 -1 -0
    outer loop
      vertex 0.050000000000000003 -1.8999999999999999 0.34997
      vertex -0.050000000000000003 -1.8999999999999999 0.34998000000000001
      vertex -0.050000000000000003 -1.8999999999999999 0.049989999999999979
    endloop
  endfacet
  facet normal -0 -1 0
    outer loop
      vertex 0.050000000000000003 -1.8999999999999999 0.34997
      vertex -0.050000000000000003 -1.8999999999999999 0.049989999999999979
      vertex 0.050000000000000003 -1.8999999999999999 0.049980000000000024
    endloop
  endfacet
  facet normal 1 0 -0
    outer loop
      vertex 0.050000000000000003 -1.8999999999999999 0.34997
      vertex 0.050000000000000003 -1.8999999999999999 0.049980000000000024
      vertex 0.050000000000000003 -1.59998 0.049999999999999989
    endloop
  endfacet
  facet normal 1 0 0
    outer loop
      vertex 0.050000000000000003 -1.8999999999999999 0.34997
      vertex 0.050000000000000003 -1.59998 0.049999999999999989
      vertex 0.050000000000000003 -1.6000099999999999 0.34997
    endloop
  endfacet
  facet normal -0 -0 1
    outer loop
      vertex -0.050000000000000003 -1.0000100000000001 1.25
      vertex -0.050000000000000003 -1.3000100000000001 1.25
      vertex 0.050000000000000003 -1.30002 1.25
    endloop
  endfacet
  facet normal 0 0 1
    outer loop
      vertex -0.050000000000000003 -1.0000100000000001 1.25
      vertex 0.050000000000000003 -1.30002 1.25
      vertex 0.050000000000000003 -1.0000199999999999 1.25
    endloop
  endfacet
  facet normal 0 -0 1
    outer loop
      vertex -0.050000000000000003 -1.0000100000000001 1.25
      vertex 0.050000000000000003 -1.0000199999999999 1.25
      vertex 0.050000000000000003 -0.69999999999999996 1.25
    endloop
  endfacet
  facet normal -0 0 1
    outer loop
      vertex -0.050000000000000003 -1.0000100000000001 1.25
      vertex 0.050000000000000003 -0.69999999999999996 1.25
      vertex -0.050000000000000003 -0.69998000000000005 1.25
    endloop
  endfacet
  facet normal 1 0 -0
    outer loop
      vertex 0.050000000000000003 -1.0000199999999999 1.25
      vertex 0.050000000000000003 -1.30002 1.25
      vertex 0.050000000000000003 -1.30002 0.94999999999999996
    endloop
  endfacet
  facet normal 1 0 -0
    outer loop
      vertex 0.050000000000000003 -1.0000199999999999 1.25
      vertex 0.050000000000000003 -1.30002 0.94999999999999996
      vertex 0.050000000000000003 -1.0000199999999999 0.94999999999999996
    endloop
  endfacet
  facet normal 1 0 -0
    outer loop
      vertex 0.050000000000000003 -1.0000199999999999 1.25
      vertex 0.050000000000000003 -1.0000199999999999 0.94999999999999996
      vertex 0.050000000000000003 -0.69999 0.95001000000000002
    endloop
  endfacet
  facet normal 1 0 0
    outer loop
      vertex 0.050000000000000003 -1.0000199999999999 1.25
      vertex 0.050000000000000003 -0.69999 0.95001000000000002
      vertex 0.050000000000000003 -0.69999999999999996 1.25
    endloop
  endfacet
  facet normal 0 0 1
    outer loop
      vertex -0.050000000000000003 -1.3000100000000001 1.25
      vertex -0.050000000000000003 -1.60002 1.25
      vertex 0.050000000000000003 -1.6000300000000001 1.25
    endloop
  endfacet
  facet normal 0 0 1
    outer loop
      vertex -0.050000000000000003 -1.3000100000000001 1.25
      vertex 0.050000000000000003 -1.6000300000000001 1.25
      vertex 0.050000000000000003 -1.30002 1.25
    endloop
  endfacet
  facet normal -1 -0 0
    outer loop
      vertex -0.050000000000000003 -1.3000100000000001 1.25
      vertex -0.050000000000000003 -1.29999 0.95001000000000002
      vertex -0.050000000000000003 -1.6000099999999999 0.94999999999999996
    endloop
  endfacet
  facet normal -1 0 -0
    outer loop
      vertex -0.050000000000000003 -1.3000100000000001 1.25
      vertex -0.050000000000000003 -1.6000099999999999 0.94999999999999996
      vertex -0.050000000000000003 -1.60002 1.25
    endloop
  endfacet
  facet normal -1 -0 0
    outer loop
      vertex -0.050000000000000003 -1.3 0.049999999999999989
      vertex -0.050000000000000003 -1.3 -0.25
      vertex -0.050000000000000003 -1.6000000000000001 -0.25
    endloop
  endfacet
  facet normal -1 0 0
    outer loop
      vertex -0.050000000000000003 -1.3 0.049999999999999989
      vertex -0.050000000000000003 -1.6000000000000001 -0.25
      vertex -0.050000000000000003 -1.59998 0.050009999999999999
    endloop
  endfacet
  facet normal -0 -0 -1
    outer loop
      vertex -0.050000000000000003 -1.3 -0.25
      vertex 0.050000000000000003 -1.29999 -0.25
      vertex 0.050000000000000003 -1.59999 -0.25
    endloop
  endfacet
  facet normal 0 0 -1
    outer loop
      vertex -0.050000000000000003 -1.3 -0.25
      vertex 0.050000000000000003 -1.59999 -0.25
      vertex -0.050000000000000003 -1.6000000000000001 -0.25
    endloop
  endfacet
  facet normal 1 -0 0
    outer loop
      vertex 0.050000000000000003 -1.29999 -0.25
      vertex 0.050000000000000003 -1.2999700000000001 0.050020000000000009
      vertex 0.050000000000000003 -1.59998 0.049999999999999989
    endloop
  endfacet
  facet normal 1 -0 -0
    outer loop
      vertex 0.050000000000000003 -1.29999 -0.25
      vertex 0.050000000000000003 -1.59998 0.049999999999999989
      vertex 0.050000000000000003 -1.59999 -0.25
    endloop
  endfacet
  facet normal 1 0 0
    outer loop
      vertex 0.050000000000000003 -1.2999700000000001 0.050020000000000009
      vertex 0.050000000000000003 -1.29999 0.35002
      vertex 0.050000000000000003 -1.6000099999999999 0.34997
    endloop
  endfacet
  facet normal 1 0 -0
    outer loop
      vertex 0.050000000000000003 -1.2999700000000001 0.050020000000000009
      vertex 0.050000000000000003 -1.6000099999999999 0.34997
      vertex 0.050000000000000003 -1.59998 0.049999999999999989
    endloop
  endfacet
  facet normal 1 0 0
    outer loop
      vertex 0.050000000000000003 -0.69999 0.65002000000000004
      vertex 0.050000000000000003 -0.69999 0.95001000000000002
      vertex 0.050000000000000003 -1.0000199999999999 0.94999999999999996
    endloop
  endfacet
  facet normal 1 0 -0
    outer loop
      vertex 0.050000000000000003 -0.69999 0.65002000000000004
      vertex 0.050000000000000003 -1.0000199999999999 0.94999999999999996
      vertex 0.050000000000000003 -0.99997999999999998 0.65002000000000004
    endloop
  endfacet
endsolid OBJECT
