# Wavefront OBJ file exported by Meshmagick (Copyright Ecole Centrale de Nantes)
# File Created: Tue Nov 18 15:34:01 2025


# Vertices: 86

v        -0.050000	       1.000000	      -0.500000
v        -0.050000	       1.000000	       0.000000
v        -0.050000	       1.366025	      -0.366025
v        -0.050000	       1.500000	       0.000000
v        -0.050000	       1.000000	      -3.000000
v        -0.050000	       1.000000	      -2.500000
v        -0.050000	       1.366025	      -2.633975
v        -0.050000	       1.500000	      -3.000000
v        -0.050000	       2.500000	       0.000000
v        -0.050000	       3.000000	       0.000000
v        -0.050000	       2.633975	      -0.366025
v        -0.050000	       3.000000	      -0.500000
v        -0.050000	       3.000000	      -2.500000
v        -0.050000	       3.000000	      -3.000000
v        -0.050000	       2.633975	      -2.633975
v        -0.050000	       2.500000	      -3.000000
v        -0.050000	       1.000000	      -2.000000
v        -0.050000	       1.403535	      -2.231790
v        -0.050000	       1.000000	      -1.500000
v        -0.050000	       1.430653	      -1.745914
v        -0.050000	       1.000000	      -1.000000
v        -0.050000	       1.431015	      -1.249672
v        -0.050000	       1.423386	      -0.752119
v        -0.050000	       2.000000	       0.000000
v        -0.050000	       1.785961	      -0.447379
v        -0.050000	       2.281620	      -0.395353
v        -0.050000	       3.000000	      -2.000000
v        -0.050000	       2.577381	      -2.202435
v        -0.050000	       3.000000	      -1.500000
v        -0.050000	       2.694101	      -1.750000
v        -0.050000	       3.000000	      -1.000000
v        -0.050000	       2.566987	      -1.250000
v        -0.050000	       2.613777	      -0.720683
v        -0.050000	       2.000000	      -3.000000
v        -0.050000	       1.795066	      -2.520361
v        -0.050000	       2.254614	      -2.587252
v        -0.050000	       1.844114	      -1.499264
v        -0.050000	       1.829466	      -1.990491
v        -0.050000	       2.267578	      -1.734874
v        -0.050000	       2.147159	      -1.256280
v        -0.050000	       2.200191	      -0.820982
v        -0.050000	       1.807507	      -0.997105
v        -0.050000	       2.166494	      -2.204556
v         0.050000	       1.000000	      -0.500000
v         0.050000	       1.366025	      -0.366025
v         0.050000	       1.000000	       0.000000
v         0.050000	       1.500000	       0.000000
v         0.050000	       1.000000	      -3.000000
v         0.050000	       1.366025	      -2.633975
v         0.050000	       1.000000	      -2.500000
v         0.050000	       1.500000	      -3.000000
v         0.050000	       2.500000	       0.000000
v         0.050000	       2.633975	      -0.366025
v         0.050000	       3.000000	       0.000000
v         0.050000	       3.000000	      -0.500000
v         0.050000	       3.000000	      -2.500000
v         0.050000	       2.633975	      -2.633975
v         0.050000	       3.000000	      -3.000000
v         0.050000	       2.500000	      -3.000000
v         0.050000	       1.403535	      -2.231790
v         0.050000	       1.000000	      -2.000000
v         0.050000	       1.430653	      -1.745914
v         0.050000	       1.000000	      -1.500000
v         0.050000	       1.431015	      -1.249672
v         0.050000	       1.000000	      -1.000000
v         0.050000	       1.423386	      -0.752119
v         0.050000	       1.785961	      -0.447379
v         0.050000	       2.000000	       0.000000
v         0.050000	       2.281620	      -0.395353
v         0.050000	       3.000000	      -2.000000
v         0.050000	       2.577381	      -2.202435
v         0.050000	       3.000000	      -1.500000
v         0.050000	       2.694101	      -1.750000
v         0.050000	       3.000000	      -1.000000
v         0.050000	       2.566987	      -1.250000
v         0.050000	       2.613777	      -0.720683
v         0.050000	       2.000000	      -3.000000
v         0.050000	       1.795066	      -2.520361
v         0.050000	       2.254614	      -2.587252
v         0.050000	       1.844114	      -1.499264
v         0.050000	       1.829466	      -1.990491
v         0.050000	       2.147159	      -1.256280
v         0.050000	       2.267578	      -1.734874
v         0.050000	       2.200191	      -0.820982
v         0.050000	       1.807507	      -0.997105
v         0.050000	       2.166494	      -2.204556



# Faces: 168

f           1           2           3
f           2           4           3
f           5           6           7
f           8           5           7
f           9          10          11
f          10          12          11
f          13          14          15
f          14          16          15
f           6          17          18
f           6          18           7
f          17          19          20
f          17          20          18
f          19          21          22
f          20          19          22
f          21           1          23
f          21          23          22
f          23           1           3
f           4          24          25
f           4          25           3
f          24           9          26
f          24          26          25
f          26           9          11
f          27          13          28
f          28          13          15
f          29          27          30
f          27          28          30
f          31          29          32
f          32          29          30
f          12          31          33
f          31          32          33
f          12          33          11
f          34           8          35
f          35           8           7
f          16          34          36
f          34          35          36
f          16          36          15
f          20          22          37
f          20          37          38
f          20          38          18
f          32          39          40
f          39          32          30
f          33          32          41
f          32          40          41
f          22          23          42
f          42          23          25
f          25          23           3
f          28          39          30
f          39          28          43
f          36          28          15
f          28          36          43
f          33          26          11
f          26          33          41
f          25          26          41
f          38          35          18
f          35          38          43
f          18          35           7
f          36          35          43
f          37          22          42
f          38          37          39
f          39          37          40
f          37          42          40
f          38          39          43
f          42          25          41
f          40          42          41
f          44          45          46
f          46          45          47
f          48          49          50
f          51          49          48
f          52          53          54
f          54          53          55
f          56          57          58
f          58          57          59
f          50          60          61
f          50          49          60
f          61          62          63
f          61          60          62
f          63          64          65
f          62          64          63
f          65          66          44
f          65          64          66
f          66          45          44
f          47          67          68
f          47          45          67
f          68          69          52
f          68          67          69
f          69          53          52
f          70          71          56
f          71          57          56
f          72          73          70
f          70          73          71
f          74          75          72
f          75          73          72
f          55          76          74
f          74          76          75
f          55          53          76
f          77          78          51
f          78          49          51
f          59          79          77
f          77          79          78
f          59          57          79
f          62          80          64
f          62          81          80
f          62          60          81
f          75          82          83
f          83          73          75
f          76          84          75
f          75          84          82
f          64          85          66
f          85          67          66
f          67          45          66
f          71          73          83
f          83          86          71
f          79          57          71
f          71          86          79
f          76          53          69
f          69          84          76
f          67          84          69
f          81          60          78
f          78          86          81
f          60          49          78
f          79          86          78
f          80          85          64
f          81          83          80
f          83          82          80
f          80          82          85
f          81          86          83
f          85          84          67
f          82          84          85
f           2          44          46
f          44           2           1
f           5          48           6
f           6          48          50
f          17           6          50
f          17          63          19
f          17          50          61
f          63          17          61
f          19          65          21
f          63          65          19
f          21          44           1
f          65          44          21
f          10          54          55
f          12          10          55
f          58          14          13
f          13          56          58
f          13          27          70
f          70          56          13
f          27          29          70
f          31          72          29
f          29          72          70
f          55          31          12
f          31          74          72
f          55          74          31
f           8          48           5
f          58          16          14
f          51          48           8
f          58          59          16
f          34          51           8
f          16          77          34
f          77          51          34
f          59          77          16
f           4           2          46
f          54          10           9
f          47           4          46
f          54           9          52
f          24           4          47
f          52           9          24
f          68          24          47
f          52          24          68
