# Wavefront OBJ file exported by Meshmagick (Copyright Ecole Centrale de Nantes)
# File Created: Tue Nov 18 15:34:01 2025


# Vertices: 86

v        -0.050000	      -3.000000	      -0.500000
v        -0.050000	      -3.000000	       0.000000
v        -0.050000	      -2.633975	      -0.366025
v        -0.050000	      -2.500000	       0.000000
v        -0.050000	      -3.000000	      -3.000000
v        -0.050000	      -3.000000	      -2.500000
v        -0.050000	      -2.659709	      -2.640997
v        -0.050000	      -2.500000	      -3.000000
v        -0.050000	      -1.500000	       0.000000
v        -0.050000	      -1.000000	       0.000000
v        -0.050000	      -1.366025	      -0.366025
v        -0.050000	      -1.000000	      -0.500000
v        -0.050000	      -1.000000	      -2.500000
v        -0.050000	      -1.000000	      -3.000000
v        -0.050000	      -1.366025	      -2.633975
v        -0.050000	      -1.500000	      -3.000000
v        -0.050000	      -3.000000	      -2.000000
v        -0.050000	      -2.619200	      -2.227932
v        -0.050000	      -3.000000	      -1.500000
v        -0.050000	      -2.590359	      -1.745428
v        -0.050000	      -3.000000	      -1.000000
v        -0.050000	      -2.572487	      -1.249591
v        -0.050000	      -2.576614	      -0.752119
v        -0.050000	      -2.000000	       0.000000
v        -0.050000	      -2.213815	      -0.447387
v        -0.050000	      -1.718380	      -0.395353
v        -0.050000	      -1.000000	      -2.000000
v        -0.050000	      -1.423386	      -2.247881
v        -0.050000	      -1.000000	      -1.500000
v        -0.050000	      -1.421182	      -1.772005
v        -0.050000	      -1.000000	      -1.000000
v        -0.050000	      -1.450230	      -1.248056
v        -0.050000	      -1.389093	      -0.720359
v        -0.050000	      -2.000000	      -3.000000
v        -0.050000	      -2.230816	      -2.491098
v        -0.050000	      -1.743464	      -2.567583
v        -0.050000	      -2.156268	      -1.553631
v        -0.050000	      -2.292534	      -2.003618
v        -0.050000	      -1.751297	      -1.564673
v        -0.050000	      -1.799919	      -0.812718
v        -0.050000	      -1.862778	      -1.249673
v        -0.050000	      -2.189425	      -0.997214
v        -0.050000	      -1.866025	      -2.000000
v         0.050000	      -3.000000	      -0.500000
v         0.050000	      -2.633975	      -0.366025
v         0.050000	      -3.000000	       0.000000
v         0.050000	      -2.500000	       0.000000
v         0.050000	      -3.000000	      -3.000000
v         0.050000	      -2.659709	      -2.640997
v         0.050000	      -3.000000	      -2.500000
v         0.050000	      -2.500000	      -3.000000
v         0.050000	      -1.500000	       0.000000
v         0.050000	      -1.366025	      -0.366025
v         0.050000	      -1.000000	       0.000000
v         0.050000	      -1.000000	      -0.500000
v         0.050000	      -1.000000	      -2.500000
v         0.050000	      -1.366025	      -2.633975
v         0.050000	      -1.000000	      -3.000000
v         0.050000	      -1.500000	      -3.000000
v         0.050000	      -2.619200	      -2.227932
v         0.050000	      -3.000000	      -2.000000
v         0.050000	      -2.590359	      -1.745428
v         0.050000	      -3.000000	      -1.500000
v         0.050000	      -2.572487	      -1.249591
v         0.050000	      -3.000000	      -1.000000
v         0.050000	      -2.576614	      -0.752119
v         0.050000	      -2.213815	      -0.447387
v         0.050000	      -2.000000	       0.000000
v         0.050000	      -1.718380	      -0.395353
v         0.050000	      -1.000000	      -2.000000
v         0.050000	      -1.423386	      -2.247881
v         0.050000	      -1.000000	      -1.500000
v         0.050000	      -1.421182	      -1.772005
v         0.050000	      -1.000000	      -1.000000
v         0.050000	      -1.450230	      -1.248056
v         0.050000	      -1.389093	      -0.720359
v         0.050000	      -2.000000	      -3.000000
v         0.050000	      -2.230816	      -2.491098
v         0.050000	      -1.743464	      -2.567583
v         0.050000	      -2.156268	      -1.553631
v         0.050000	      -2.292534	      -2.003618
v         0.050000	      -1.751297	      -1.564673
v         0.050000	      -1.799919	      -0.812718
v         0.050000	      -1.862778	      -1.249673
v         0.050000	      -2.189425	      -0.997214
v         0.050000	      -1.866025	      -2.000000



# Faces: 168

f           1           2           3
f           2           4           3
f           5           6           7
f           8           5           7
f           9          10          11
f          10          12          11
f          13          14          15
f          14          16          15
f           6          17          18
f           6          18           7
f          17          19          20
f          17          20          18
f          19          21          22
f          20          19          22
f          21           1          23
f          21          23          22
f          23           1           3
f           4          24          25
f           4          25           3
f          24           9          26
f          24          26          25
f          26           9          11
f          27          13          28
f          28          13          15
f          29          27          30
f          27          28          30
f          31          29          32
f          32          29          30
f          12          31          33
f          31          32          33
f          12          33          11
f          34           8          35
f          35           8           7
f          16          34          36
f          34          35          36
f          16          36          15
f          20          22          37
f          20          37          38
f          18          20          38
f          32          30          39
f          33          32          40
f          32          41          40
f          41          32          39
f          22          23          42
f          42          23          25
f          25          23           3
f          30          28          43
f          43          28          36
f          36          28          15
f          33          26          11
f          26          33          40
f          25          26          40
f          35          43          36
f          43          35          38
f          35          18          38
f          18          35           7
f          22          42          37
f          37          42          41
f          42          25          40
f          41          42          40
f          30          43          39
f          37          43          38
f          43          37          39
f          37          41          39
f          44          45          46
f          46          45          47
f          48          49          50
f          51          49          48
f          52          53          54
f          54          53          55
f          56          57          58
f          58          57          59
f          50          60          61
f          50          49          60
f          61          62          63
f          61          60          62
f          63          64          65
f          62          64          63
f          65          66          44
f          65          64          66
f          66          45          44
f          47          67          68
f          47          45          67
f          68          69          52
f          68          67          69
f          69          53          52
f          70          71          56
f          71          57          56
f          72          73          70
f          70          73          71
f          74          75          72
f          75          73          72
f          55          76          74
f          74          76          75
f          55          53          76
f          77          78          51
f          78          49          51
f          59          79          77
f          77          79          78
f          59          57          79
f          62          80          64
f          62          81          80
f          60          81          62
f          75          82          73
f          76          83          75
f          75          83          84
f          84          82          75
f          64          85          66
f          85          67          66
f          67          45          66
f          73          86          71
f          86          79          71
f          79          57          71
f          76          53          69
f          69          83          76
f          67          83          69
f          78          79          86
f          86          81          78
f          78          81          60
f          60          49          78
f          64          80          85
f          80          84          85
f          85          83          67
f          84          83          85
f          73          82          86
f          80          81          86
f          86          82          80
f          80          82          84
f           2          44          46
f          44           2           1
f           5          48           6
f           6          48          50
f          17           6          50
f          17          63          19
f          17          50          61
f          63          17          61
f          19          65          21
f          63          65          19
f          21          44           1
f          65          44          21
f          10          54          55
f          12          10          55
f          58          14          13
f          13          56          58
f          13          27          70
f          70          56          13
f          27          29          70
f          31          72          29
f          29          72          70
f          55          31          12
f          31          74          72
f          55          74          31
f           8          48           5
f          58          16          14
f          51          48           8
f          58          59          16
f          34          51           8
f          16          77          34
f          77          51          34
f          59          77          16
f           4           2          46
f          54          10           9
f          47           4          46
f          54           9          52
f          24           4          47
f          52           9          24
f          68          24          47
f          52          24          68
